<svg width="100" height="32" viewBox="0 0 100 32" fill="none" xmlns="http://www.w3.org/2000/svg">
<path d="M31.9667 15.828C32.5627 15.724 33.2147 15.542 33.9227 15.282C34.6307 15.026 35.2847 14.724 35.8847 14.376C36.4887 14.032 36.9367 13.684 37.2287 13.332V13.242C36.9367 13.342 36.6327 13.416 36.3167 13.464C36.0007 13.508 35.6427 13.53 35.2427 13.53C34.6387 13.53 34.1847 13.364 33.8807 13.032C33.5767 12.7 33.4247 12.228 33.4247 11.616C33.4247 11 33.5107 10.438 33.6827 9.93C33.8547 9.418 34.0987 9.012 34.4147 8.712C34.7347 8.412 35.1067 8.262 35.5307 8.262C35.9307 8.262 36.2807 8.382 36.5807 8.622C36.8847 8.858 37.1287 9.2 37.3127 9.648C37.5007 10.092 37.6227 10.624 37.6787 11.244H38.5067L38.2067 13.5H37.6067C37.4907 14.212 37.2927 14.814 37.0127 15.306C36.7327 15.798 36.3967 16.164 36.0047 16.404C35.6127 16.648 35.1887 16.77 34.7327 16.77C34.4047 16.77 34.0887 16.72 33.7847 16.62C33.4847 16.524 33.1327 16.386 32.7287 16.206C32.5927 16.146 32.4567 16.088 32.3207 16.032C32.1847 15.976 32.0667 15.932 31.9667 15.9V15.828ZM35.3147 11.388C36.0627 11.388 36.7167 11.36 37.2767 11.304C37.0967 10.856 36.8307 10.504 36.4787 10.248C36.1307 9.992 35.7187 9.864 35.2427 9.864C34.9707 9.864 34.7167 9.914 34.4807 10.014C34.2487 10.114 34.0627 10.234 33.9227 10.374C33.7827 10.514 33.7127 10.634 33.7127 10.734C33.7127 10.842 33.7627 10.946 33.8627 11.046C33.9667 11.146 34.1367 11.228 34.3727 11.292C34.6127 11.356 34.9267 11.388 35.3147 11.388ZM43.1659 13.5C42.6339 13.5 42.1979 13.35 41.8579 13.05C41.5179 12.746 41.3479 12.23 41.3479 11.502C41.3479 11.302 41.3579 11.12 41.3779 10.956H41.2999C41.2919 11.56 41.1799 12.048 40.9639 12.42C40.7519 12.792 40.4339 13.066 40.0099 13.242C39.5859 13.414 39.0439 13.5 38.3839 13.5H38.2039C38.0999 13.5 38.0239 13.442 37.9759 13.326C37.9279 13.206 37.9039 13.024 37.9039 12.78C37.9039 12.456 37.9319 12.178 37.9879 11.946C38.0439 11.714 38.1179 11.54 38.2099 11.424C38.3019 11.304 38.3999 11.244 38.5039 11.244H38.6839C39.4639 11.244 40.0419 11.192 40.4179 11.088C40.7939 10.984 41.0639 10.8 41.2279 10.536C41.3959 10.268 41.5319 9.85 41.6359 9.282H41.7799V10.008C41.7799 10.4 41.9139 10.704 42.1819 10.92C42.4539 11.136 42.9019 11.244 43.5259 11.244L43.1659 13.5ZM40.6759 8.322C40.5639 8.17 40.3859 7.994 40.1419 7.794C39.8979 7.594 39.6879 7.456 39.5119 7.38V7.302L40.4599 6.138C40.6799 6.246 40.9119 6.41 41.1559 6.63C41.4039 6.846 41.5839 7.046 41.6959 7.23L40.6759 8.322ZM48.1933 13.5C47.6613 13.5 47.2253 13.35 46.8853 13.05C46.5453 12.746 46.3753 12.23 46.3753 11.502C46.3753 11.302 46.3853 11.12 46.4053 10.956H46.3273C46.3193 11.56 46.2073 12.048 45.9913 12.42C45.7793 12.792 45.4613 13.066 45.0373 13.242C44.6133 13.414 44.0713 13.5 43.4112 13.5H43.2312C43.1272 13.5 43.0512 13.442 43.0032 13.326C42.9552 13.206 42.9312 13.024 42.9312 12.78C42.9312 12.456 42.9592 12.178 43.0152 11.946C43.0712 11.714 43.1452 11.54 43.2372 11.424C43.3292 11.304 43.4272 11.244 43.5312 11.244H43.7113C44.4913 11.244 45.0693 11.192 45.4453 11.088C45.8213 10.984 46.0913 10.8 46.2553 10.536C46.4233 10.268 46.5593 9.85 46.6633 9.282H46.8073V10.008C46.8073 10.4 46.9413 10.704 47.2093 10.92C47.4813 11.136 47.9293 11.244 48.5533 11.244L48.1933 13.5ZM45.2353 14.592C45.5793 14.592 45.8333 14.634 45.9973 14.718C46.1653 14.806 46.2493 14.958 46.2493 15.174C46.2493 15.246 46.2373 15.324 46.2133 15.408C46.1933 15.496 46.1613 15.606 46.1173 15.738C46.0413 15.974 45.9893 16.174 45.9613 16.338H45.8893C45.8893 16.198 45.8153 16.102 45.6673 16.05C45.5233 15.998 45.2813 15.972 44.9413 15.972H44.9113C44.6873 15.972 44.2813 15.98 43.6933 15.996C43.1092 16.016 42.6292 16.042 42.2532 16.074C42.3252 15.946 42.4172 15.724 42.5292 15.408C42.6412 15.096 42.7172 14.858 42.7572 14.694C43.2252 14.662 43.6913 14.636 44.1553 14.616C44.6193 14.6 44.9793 14.592 45.2353 14.592ZM44.9713 15.834L45.2353 14.592L44.9713 15.834ZM52.4886 13.5C51.8686 13.5 51.3586 13.328 50.9586 12.984C50.5626 12.64 50.3646 12.076 50.3646 11.292C50.3646 11.228 50.3686 11.116 50.3766 10.956H50.3046C50.2806 11.596 50.1866 12.102 50.0226 12.474C49.8626 12.846 49.6366 13.11 49.3446 13.266C49.0566 13.422 48.6946 13.5 48.2586 13.5C48.1546 13.5 48.0786 13.442 48.0306 13.326C47.9826 13.206 47.9586 13.024 47.9586 12.78C47.9586 12.456 47.9866 12.178 48.0426 11.946C48.0986 11.714 48.1726 11.54 48.2646 11.424C48.3566 11.304 48.4546 11.244 48.5586 11.244C48.8626 11.244 49.1366 11.222 49.3806 11.178C49.6286 11.13 49.8206 11.07 49.9566 10.998C50.0926 10.926 50.1606 10.848 50.1606 10.764C50.1046 9.512 50.0506 8.546 49.9986 7.866C49.9466 7.186 49.8906 6.66 49.8306 6.288C49.7706 5.912 49.6846 5.504 49.5726 5.064C49.8126 4.824 50.0666 4.528 50.3346 4.176C50.6026 3.82 50.8346 3.486 51.0306 3.174H51.1026C51.1026 3.322 51.1106 3.6 51.1266 4.008C51.1586 4.576 51.1746 5.146 51.1746 5.718C51.1746 6.074 51.1626 6.684 51.1386 7.548C51.1146 8.492 51.1026 9.216 51.1026 9.72C51.1026 10.232 51.2386 10.614 51.5106 10.866C51.7826 11.118 52.2086 11.244 52.7886 11.244L52.4886 13.5ZM62.2391 13.5C61.8871 13.5 61.6111 13.354 61.4111 13.062C61.2111 12.766 61.1171 12.288 61.1291 11.628C60.8091 12.216 60.3471 12.676 59.7431 13.008C59.1391 13.336 58.4451 13.5 57.6611 13.5C55.7331 13.5 54.6911 12.87 54.5351 11.61H54.4631C54.3751 12.25 54.1511 12.726 53.7911 13.038C53.4351 13.346 53.0011 13.5 52.4891 13.5C52.3851 13.5 52.3091 13.442 52.2611 13.326C52.2131 13.206 52.1891 13.024 52.1891 12.78C52.1891 12.456 52.2171 12.178 52.2731 11.946C52.3291 11.714 52.4031 11.54 52.4951 11.424C52.5871 11.304 52.6851 11.244 52.7891 11.244C53.2211 11.244 53.5711 11.202 53.8391 11.118C54.1111 11.034 54.3311 10.882 54.4991 10.662C54.6711 10.442 54.8051 10.128 54.9011 9.72H55.0451C55.0891 10.012 55.1931 10.262 55.3571 10.47C55.5251 10.674 55.7611 10.838 56.0651 10.962C56.6051 10.106 57.0851 9.43 57.5051 8.934C57.9251 8.438 58.3211 8.082 58.6931 7.866C59.0651 7.646 59.4491 7.536 59.8451 7.536C60.2051 7.536 60.5151 7.628 60.7751 7.812C61.0391 7.992 61.2411 8.246 61.3811 8.574C61.5211 8.902 61.5911 9.284 61.5911 9.72C61.5911 10.256 61.5011 10.754 61.3211 11.214C61.4931 11.234 61.8751 11.244 62.4671 11.244H62.5391L62.2391 13.5ZM56.2151 11.016C56.6711 11.168 57.2751 11.244 58.0271 11.244C58.9791 11.244 59.7551 11.188 60.3551 11.076C60.9551 10.964 61.2551 10.802 61.2551 10.59C61.2551 10.45 61.1811 10.276 61.0331 10.068C60.8851 9.856 60.6711 9.672 60.3911 9.516C60.1151 9.36 59.7871 9.282 59.4071 9.282C59.0751 9.282 58.7131 9.356 58.3211 9.504C57.9331 9.648 57.5531 9.852 57.1811 10.116C56.8131 10.38 56.4911 10.68 56.2151 11.016ZM65.0831 5.592C65.7871 5.592 66.3291 5.936 66.7091 6.624C67.0891 7.312 67.2791 8.354 67.2791 9.75C67.2791 10.638 67.1211 11.356 66.8051 11.904C66.4931 12.452 65.9971 12.856 65.3171 13.116C64.6371 13.372 63.7371 13.5 62.6171 13.5H62.2391C62.1351 13.5 62.0591 13.442 62.0111 13.326C61.9631 13.206 61.9391 13.024 61.9391 12.78C61.9391 12.456 61.9671 12.178 62.0231 11.946C62.0791 11.714 62.1531 11.54 62.2451 11.424C62.3371 11.304 62.4351 11.244 62.5391 11.244H62.9771C63.9331 11.244 64.7151 11.184 65.3231 11.064C65.9311 10.944 66.3691 10.802 66.6371 10.638C66.9051 10.474 67.0391 10.328 67.0391 10.2C67.0391 9.92 67.0211 9.658 66.9851 9.414C66.9491 9.166 66.9071 8.978 66.8591 8.85H66.7991C66.7351 9.35 66.5391 9.74 66.2111 10.02C65.8871 10.3 65.4151 10.44 64.7951 10.44C64.1951 10.44 63.7411 10.298 63.4331 10.014C63.1291 9.726 62.9771 9.34 62.9771 8.856C62.9771 8.256 63.0631 7.708 63.2351 7.212C63.4071 6.716 63.6511 6.322 63.9671 6.03C64.2871 5.738 64.6591 5.592 65.0831 5.592ZM66.7031 8.298C66.5111 7.922 66.2511 7.63 65.9231 7.422C65.5951 7.21 65.2191 7.104 64.7951 7.104C64.5231 7.104 64.2691 7.154 64.0331 7.254C63.8011 7.354 63.6151 7.474 63.4751 7.614C63.3351 7.754 63.2651 7.874 63.2651 7.974C63.2651 8.082 63.3151 8.186 63.4151 8.286C63.5191 8.386 63.6891 8.468 63.9251 8.532C64.1651 8.596 64.4791 8.628 64.8671 8.628C65.2191 8.628 65.5431 8.604 65.8391 8.556C66.1351 8.504 66.4231 8.418 66.7031 8.298ZM65.0111 4.872C64.8991 4.72 64.7211 4.544 64.4771 4.344C64.2331 4.144 64.0231 4.006 63.8471 3.93V3.852L64.7951 2.688C65.0151 2.796 65.2471 2.96 65.4911 3.18C65.7391 3.396 65.9191 3.596 66.0311 3.78L65.0111 4.872Z" fill="#090909"/>
<path d="M25.7912 24.734C26.5832 25.544 27.1172 25.964 27.1172 26.504C27.1172 26.912 26.8772 27.248 26.6012 27.386C26.4512 27.476 26.2232 27.53 25.9772 27.53C25.4792 27.53 25.2392 27.266 25.2392 26.876C25.2392 26.552 25.4012 26.114 25.8572 25.502C25.7552 25.4 25.6532 25.292 25.5452 25.178L25.7912 24.734ZM25.5692 26.612C25.5692 26.816 25.7372 26.984 26.0912 26.984C26.4632 26.984 26.8112 26.888 26.8592 26.75C26.8412 26.48 26.5112 26.168 26.0312 25.682C25.7072 26.12 25.5692 26.438 25.5692 26.612ZM29.0543 24.746C29.9603 25.598 30.4643 25.76 30.4643 26.306C30.4643 26.57 30.2963 26.972 30.0923 27.14C29.7563 27.422 29.1443 27.62 28.5743 27.62C28.1543 27.62 27.9683 27.404 27.9683 26.966C27.9683 26.876 27.9803 26.636 27.9803 26.552L28.2263 26.534V26.69C28.2263 26.954 28.3163 27.074 28.6883 27.074C29.2883 27.074 30.1223 26.762 30.2063 26.54C30.1823 26.198 29.4143 25.82 28.8203 25.22L29.0543 24.746ZM31.842 27.476L31.512 27.542L31.386 23.03L31.842 22.88V27.476ZM34.9929 27.5H34.6749C34.6029 27.92 34.4049 28.25 34.0749 28.484C33.6489 28.814 32.7609 29.054 31.9029 29.108C31.7949 29.066 31.7109 28.874 31.5429 28.598C33.4209 28.472 34.3269 28.106 34.4349 27.53V27.494C34.1409 27.512 33.7869 27.53 33.4809 27.53C33.0009 27.53 32.7789 27.284 32.7789 26.906C32.7789 26.144 33.1689 25.46 33.6909 25.46C34.3149 25.46 34.6569 26.222 34.6989 26.954H35.0889L34.9929 27.5ZM33.0309 26.636C33.0309 26.846 33.2109 26.984 33.5709 26.984C33.8409 26.984 34.0929 26.978 34.3809 26.96C34.2669 26.378 33.9789 25.982 33.6069 25.982C33.2829 25.982 33.0309 26.3 33.0309 26.636ZM36.2178 25.4C36.2898 25.712 36.3918 26.264 36.3918 26.468C36.3918 26.774 36.1938 27.212 35.9478 27.344C35.7138 27.47 35.3478 27.5 34.9938 27.5C34.9638 27.5 34.9338 27.44 34.9338 27.332C34.9338 27.152 35.0058 26.954 35.0898 26.954C35.7798 26.954 36.0438 26.888 36.0918 26.78C36.0678 26.552 35.9538 26.042 35.8098 25.652L36.2178 25.4ZM36.0078 24.932C35.8278 24.824 35.6478 24.692 35.4978 24.542L35.8278 24.122C35.9778 24.272 36.1578 24.404 36.3378 24.512L36.0078 24.932ZM38.4437 27.5C37.7477 27.5 37.4357 27.134 37.4117 26.288C37.3937 25.652 37.3277 23.546 37.3157 23.03L37.7717 22.88V26.03C37.7717 26.636 37.9997 26.954 38.5397 26.954L38.4437 27.5ZM39.615 25.184C40.041 25.184 41.013 25.826 42.237 25.97L42.045 26.42C41.961 26.414 41.805 26.396 41.715 26.384C41.001 26.624 40.155 27.5 38.445 27.5C38.415 27.5 38.385 27.44 38.385 27.332C38.385 27.152 38.457 26.954 38.541 26.954C39.609 26.954 40.257 26.708 41.253 26.276C40.263 25.988 39.795 25.706 39.495 25.706C39.363 25.706 39.285 25.784 39.099 26.108L38.913 25.97C39.207 25.382 39.351 25.184 39.615 25.184ZM39.891 24.41C39.711 24.302 39.531 24.17 39.381 24.02L39.711 23.6C39.861 23.75 40.041 23.882 40.221 23.99L39.891 24.41ZM45.2104 25.46C45.8764 25.46 46.2244 26.33 46.2244 27.104C46.2244 27.716 46.0204 28.178 45.5944 28.484C45.1684 28.814 44.2804 29.054 43.4224 29.108C43.3144 29.066 43.2304 28.874 43.0624 28.598C44.9404 28.472 45.8464 28.106 45.9544 27.53C45.9544 27.458 45.9544 27.386 45.9484 27.314C45.6784 27.458 45.3484 27.53 45.0004 27.53C44.5204 27.53 44.2984 27.284 44.2984 26.906C44.2984 26.144 44.6884 25.46 45.2104 25.46ZM44.5504 26.636C44.5504 26.846 44.7304 26.984 45.0904 26.984C45.3844 26.984 45.6604 26.942 45.8824 26.87C45.7564 26.336 45.4744 25.982 45.1264 25.982C44.8024 25.982 44.5504 26.3 44.5504 26.636ZM50.3558 26.624C50.1758 26.516 49.9958 26.384 49.8458 26.234L50.1758 25.814C50.3258 25.964 50.5058 26.096 50.6858 26.204L50.3558 26.624ZM52.1198 25.1C52.2518 25.628 52.3418 26.27 52.3418 26.714C52.3418 27.212 52.1498 27.692 51.8618 27.932C51.4658 28.262 50.5418 28.58 49.7618 28.58C48.6878 28.58 48.2138 28.1 48.2138 27.38C48.2138 26.996 48.3158 26.444 48.5378 25.742L48.7718 25.814C48.6218 26.378 48.5558 26.846 48.5558 27.104C48.5558 27.674 49.0178 28.034 49.8758 28.034C50.7338 28.034 51.7958 27.656 51.9938 27.362C52.0238 27.32 52.0298 27.23 52.0298 27.152C52.0298 26.738 51.8738 25.952 51.7058 25.358L52.1198 25.1ZM53.7209 27.476L53.3909 27.542L53.2649 23.03L53.7209 22.88V27.476ZM56.8718 27.5H56.5538C56.4818 27.92 56.2838 28.25 55.9538 28.484C55.5278 28.814 54.6398 29.054 53.7818 29.108C53.6738 29.066 53.5898 28.874 53.4218 28.598C55.2998 28.472 56.2058 28.106 56.3138 27.53V27.494C56.0198 27.512 55.6658 27.53 55.3598 27.53C54.8798 27.53 54.6578 27.284 54.6578 26.906C54.6578 26.144 55.0478 25.46 55.5698 25.46C56.1938 25.46 56.5358 26.222 56.5778 26.954H56.9678L56.8718 27.5ZM54.9098 26.636C54.9098 26.846 55.0898 26.984 55.4498 26.984C55.7198 26.984 55.9718 26.978 56.2598 26.96C56.1458 26.378 55.8578 25.982 55.4858 25.982C55.1618 25.982 54.9098 26.3 54.9098 26.636ZM58.0428 25.184C58.4688 25.184 59.4408 25.826 60.6648 25.97L60.4728 26.42C60.3888 26.414 60.2328 26.396 60.1428 26.384C59.4288 26.624 58.5828 27.5 56.8727 27.5C56.8427 27.5 56.8127 27.44 56.8127 27.332C56.8127 27.152 56.8847 26.954 56.9688 26.954C58.0368 26.954 58.6848 26.708 59.6808 26.276C58.6908 25.988 58.2228 25.706 57.9228 25.706C57.7908 25.706 57.7128 25.784 57.5268 26.108L57.3408 25.97C57.6348 25.382 57.7788 25.184 58.0428 25.184ZM58.2468 28.97C58.0668 28.862 57.8868 28.73 57.7368 28.58L58.0668 28.16C58.2168 28.31 58.3968 28.442 58.5768 28.55L58.2468 28.97ZM64.3221 25.388C64.8201 25.388 65.1021 25.832 65.1021 26.672C65.1021 27.068 64.8321 27.5 64.5621 27.5C64.2981 27.5 63.4881 27.356 63.2301 27.356C63.1281 27.356 63.0141 27.386 62.9661 27.422C62.9001 27.5 62.8941 27.626 62.8941 27.77C62.8941 28.136 62.9241 28.97 62.9961 29.918L62.5761 30.08C62.5461 29.276 62.5341 28.532 62.5341 28.094C62.5341 27.572 62.8641 26.984 63.2361 26.858C63.5241 25.682 63.8961 25.388 64.3221 25.388ZM63.4701 26.834C63.8421 26.858 64.5441 26.978 64.7901 26.978C64.8081 26.978 64.8261 26.954 64.8261 26.918C64.8021 26.264 64.5801 25.91 64.2201 25.91C63.9141 25.91 63.6621 26.09 63.4701 26.834ZM67.5063 27.5C67.2243 27.5 67.0023 27.434 66.8823 27.296C66.8043 27.752 66.5523 28.202 66.1143 28.49C65.7123 28.784 65.0522 29.024 64.4222 29.096C64.3142 29.054 64.2122 28.838 64.0682 28.616C65.7423 28.4 66.4863 27.842 66.6183 27.362C66.6063 27.104 66.4383 26.444 66.2823 25.976L66.6843 25.742C66.8763 26.732 67.0203 26.954 67.6023 26.954L67.5063 27.5ZM70.1235 27.5C69.5115 27.5 69.0555 27.434 68.7555 27.308C68.4195 27.434 67.9875 27.5 67.5075 27.5C67.4775 27.5 67.4475 27.44 67.4475 27.332C67.4475 27.152 67.5195 26.954 67.6035 26.954C67.7535 26.954 67.9215 26.948 68.0835 26.936C68.0295 26.846 67.9995 26.738 67.9995 26.612C67.9995 25.958 68.4915 25.112 68.9715 25.112C69.4215 25.112 69.7995 25.58 69.7995 26.09C69.7995 26.39 69.6615 26.672 69.4095 26.93C69.6015 26.948 69.8715 26.954 70.2195 26.954L70.1235 27.5ZM69.0075 24.584C68.8275 24.476 68.6475 24.344 68.4975 24.194L68.8275 23.774C68.9775 23.924 69.1575 24.056 69.3375 24.164L69.0075 24.584ZM68.2575 26.39C68.2575 26.6 68.4555 26.798 68.7735 26.876C69.2355 26.726 69.4875 26.498 69.5295 26.366C69.5175 26.024 69.2115 25.634 68.8575 25.634C68.5755 25.634 68.2575 26.108 68.2575 26.39ZM72.3348 27.5C71.8428 27.5 71.5548 27.326 71.4708 26.876C71.2848 27.314 70.9188 27.5 70.2288 27.5H70.1208C70.0908 27.5 70.0608 27.446 70.0608 27.332C70.0608 27.152 70.1328 26.954 70.2168 26.954H70.3248C71.0808 26.954 71.3748 26.78 71.3868 26.348L71.3988 25.844L71.7108 25.784V26.252C71.7108 26.696 71.9028 26.954 72.4308 26.954L72.3348 27.5ZM70.6488 24.416C70.7448 24.536 70.9488 24.686 71.1288 24.806L70.7988 25.196C70.6188 25.076 70.4148 24.926 70.3188 24.806L70.6488 24.416ZM71.7288 25.196C71.5488 25.076 71.3448 24.926 71.2488 24.806L71.5788 24.416C71.6748 24.536 71.8788 24.686 72.0588 24.806L71.7288 25.196ZM74.1476 27.5C73.6616 27.5 73.3976 27.314 73.2836 26.906C73.2116 27.122 73.1276 27.254 73.0316 27.326C72.8456 27.464 72.5816 27.5 72.3356 27.5C72.3056 27.5 72.2756 27.44 72.2756 27.332C72.2756 27.152 72.3476 26.954 72.4316 26.954C72.7976 26.954 73.1036 26.9 73.1396 26.642C73.1516 26.57 73.1576 26.318 73.1456 26.102L73.0676 23.03L73.5116 22.88V26.036C73.5116 26.69 73.7216 26.954 74.2436 26.954L74.1476 27.5ZM75.3702 25.4C75.4422 25.712 75.5442 26.264 75.5442 26.468C75.5442 26.774 75.3462 27.212 75.1002 27.344C74.8662 27.47 74.5002 27.5 74.1462 27.5C74.1162 27.5 74.0862 27.44 74.0862 27.332C74.0862 27.152 74.1582 26.954 74.2422 26.954C74.9322 26.954 75.1962 26.888 75.2442 26.78C75.2202 26.552 75.1062 26.042 74.9622 25.652L75.3702 25.4ZM74.0382 28.16C74.1342 28.28 74.3382 28.43 74.5182 28.55L74.1882 28.94C74.0082 28.82 73.8042 28.67 73.7082 28.55L74.0382 28.16ZM75.1182 28.94C74.9382 28.82 74.7342 28.67 74.6382 28.55L74.9682 28.16C75.0642 28.28 75.2682 28.43 75.4482 28.55L75.1182 28.94ZM74.7282 29.78C74.5482 29.66 74.3742 29.51 74.2782 29.39L74.6082 29C74.7042 29.12 74.8782 29.27 75.0582 29.39L74.7282 29.78Z" fill="#090909"/>
</svg>
