<svg width="100" height="32" viewBox="0 0 100 32" fill="none" xmlns="http://www.w3.org/2000/svg">
<path d="M22.392 13.5C22.192 13.5 22.008 13.462 21.84 13.386C21.672 13.306 21.51 13.172 21.354 12.984C21.266 13.816 21.04 14.52 20.676 15.096C20.312 15.676 19.832 16.112 19.236 16.404C18.644 16.7 17.958 16.848 17.178 16.848C16.166 16.848 15.392 16.57 14.856 16.014C14.32 15.458 14.052 14.668 14.052 13.644C14.052 12.56 14.294 11.494 14.778 10.446H14.928C14.684 11.11 14.562 11.764 14.562 12.408C14.562 12.868 14.672 13.26 14.892 13.584C15.112 13.912 15.434 14.162 15.858 14.334C16.286 14.506 16.8 14.592 17.4 14.592C18.112 14.592 18.752 14.492 19.32 14.292C19.892 14.096 20.338 13.85 20.658 13.554C20.978 13.262 21.138 12.978 21.138 12.702C21.138 12.59 21.038 12.354 20.838 11.994C20.642 11.63 20.368 11.186 20.016 10.662C20.124 10.522 20.256 10.28 20.412 9.936C20.568 9.588 20.702 9.248 20.814 8.916H20.892C21.08 9.524 21.27 9.998 21.462 10.338C21.658 10.678 21.854 10.914 22.05 11.046C22.246 11.178 22.46 11.244 22.692 11.244L22.392 13.5ZM17.454 11.472C17.342 11.32 17.164 11.144 16.92 10.944C16.676 10.744 16.466 10.606 16.29 10.53V10.452L17.238 9.288C17.458 9.396 17.69 9.56 17.934 9.78C18.182 9.996 18.362 10.196 18.474 10.38L17.454 11.472ZM26.9253 10.446C26.9253 11.142 26.8113 11.714 26.5833 12.162C26.3593 12.606 25.9953 12.94 25.4913 13.164C24.9913 13.388 24.3293 13.5 23.5053 13.5H22.3953C22.2913 13.5 22.2153 13.442 22.1673 13.326C22.1193 13.206 22.0953 13.024 22.0953 12.78C22.0953 12.456 22.1233 12.178 22.1793 11.946C22.2353 11.714 22.3093 11.54 22.4013 11.424C22.4933 11.304 22.5913 11.244 22.6953 11.244H23.7153C24.2873 11.244 24.7973 11.22 25.2453 11.172C25.6973 11.124 26.0493 11.062 26.3013 10.986C26.5533 10.906 26.6793 10.822 26.6793 10.734C26.6793 10.662 26.5993 10.536 26.4393 10.356C26.2793 10.176 26.0753 9.98 25.8273 9.768C25.5833 9.556 25.3433 9.37 25.1073 9.21C25.2633 9.006 25.4353 8.714 25.6233 8.334C25.8113 7.95 25.9533 7.612 26.0493 7.32H26.1273C26.1433 7.372 26.1833 7.464 26.2473 7.596C26.4393 8.028 26.5993 8.468 26.7273 8.916C26.8593 9.364 26.9253 9.874 26.9253 10.446ZM24.8793 14.472C25.2233 14.472 25.4773 14.514 25.6413 14.598C25.8093 14.686 25.8933 14.838 25.8933 15.054C25.8933 15.126 25.8813 15.204 25.8573 15.288C25.8373 15.376 25.8053 15.486 25.7613 15.618C25.6853 15.854 25.6333 16.054 25.6053 16.218H25.5333C25.5333 16.078 25.4593 15.982 25.3113 15.93C25.1673 15.878 24.9253 15.852 24.5853 15.852H24.5553C24.3313 15.852 23.9253 15.86 23.3373 15.876C22.7533 15.896 22.2733 15.922 21.8973 15.954C21.9693 15.826 22.0613 15.604 22.1733 15.288C22.2853 14.976 22.3613 14.738 22.4013 14.574C22.8693 14.542 23.3353 14.516 23.7993 14.496C24.2633 14.48 24.6233 14.472 24.8793 14.472ZM24.6153 15.714L24.8793 14.472L24.6153 15.714ZM28.8041 16.77C28.5001 16.77 28.2141 16.72 27.9461 16.62C27.6781 16.524 27.3661 16.386 27.0101 16.206C26.6981 16.05 26.4721 15.948 26.3321 15.9V15.828C27.0521 15.664 27.8061 15.386 28.5941 14.994C29.3861 14.602 30.0481 14.194 30.5801 13.77C31.1161 13.346 31.3841 13.014 31.3841 12.774C31.3841 12.63 31.2361 12.414 30.9401 12.126C30.6441 11.838 30.1981 11.472 29.6021 11.028C29.7581 10.796 29.9281 10.49 30.1121 10.11C30.3001 9.73 30.4461 9.382 30.5501 9.066H30.6221C30.6461 9.126 30.6981 9.236 30.7781 9.396C30.9261 9.692 31.0521 9.968 31.1561 10.224C31.2641 10.48 31.3601 10.78 31.4441 11.124C31.5281 11.468 31.5701 11.824 31.5701 12.192C31.5701 13.156 31.4481 13.982 31.2041 14.67C30.9601 15.362 30.6281 15.884 30.2081 16.236C29.7921 16.592 29.3241 16.77 28.8041 16.77ZM31.5097 15.828C32.1057 15.724 32.7577 15.542 33.4657 15.282C34.1737 15.026 34.8277 14.724 35.4277 14.376C36.0317 14.032 36.4797 13.684 36.7717 13.332V13.242C36.4797 13.342 36.1757 13.416 35.8597 13.464C35.5437 13.508 35.1857 13.53 34.7857 13.53C34.1817 13.53 33.7277 13.364 33.4237 13.032C33.1197 12.7 32.9677 12.228 32.9677 11.616C32.9677 11 33.0537 10.438 33.2257 9.93C33.3977 9.418 33.6417 9.012 33.9577 8.712C34.2777 8.412 34.6497 8.262 35.0737 8.262C35.4737 8.262 35.8237 8.382 36.1237 8.622C36.4277 8.858 36.6717 9.2 36.8557 9.648C37.0437 10.092 37.1657 10.624 37.2217 11.244H38.0497L37.7497 13.5H37.1497C37.0337 14.212 36.8357 14.814 36.5557 15.306C36.2757 15.798 35.9397 16.164 35.5477 16.404C35.1557 16.648 34.7317 16.77 34.2757 16.77C33.9477 16.77 33.6317 16.72 33.3277 16.62C33.0277 16.524 32.6757 16.386 32.2717 16.206C32.1357 16.146 31.9997 16.088 31.8637 16.032C31.7277 15.976 31.6097 15.932 31.5097 15.9V15.828ZM34.8577 11.388C35.6057 11.388 36.2597 11.36 36.8197 11.304C36.6397 10.856 36.3737 10.504 36.0217 10.248C35.6737 9.992 35.2617 9.864 34.7857 9.864C34.5137 9.864 34.2597 9.914 34.0237 10.014C33.7917 10.114 33.6057 10.234 33.4657 10.374C33.3257 10.514 33.2557 10.634 33.2557 10.734C33.2557 10.842 33.3057 10.946 33.4057 11.046C33.5097 11.146 33.6797 11.228 33.9157 11.292C34.1557 11.356 34.4697 11.388 34.8577 11.388ZM45.9729 10.734C45.9729 11.618 45.8249 12.3 45.5289 12.78C45.2369 13.26 44.8029 13.5 44.2269 13.5C43.2909 13.5 42.8229 13.006 42.8229 12.018C42.8229 11.874 42.8309 11.738 42.8469 11.61H42.7749C42.7069 12.238 42.5129 12.71 42.1929 13.026C41.8769 13.342 41.4889 13.5 41.0289 13.5C40.6489 13.5 40.3509 13.39 40.1349 13.17C39.9229 12.95 39.8169 12.616 39.8169 12.168C39.8169 11.976 39.8329 11.79 39.8649 11.61H39.7929C39.6889 12.25 39.4609 12.726 39.1089 13.038C38.7609 13.346 38.3069 13.5 37.7469 13.5C37.6429 13.5 37.5669 13.442 37.5189 13.326C37.4709 13.206 37.4469 13.024 37.4469 12.78C37.4469 12.456 37.4749 12.178 37.5309 11.946C37.5869 11.714 37.6609 11.54 37.7529 11.424C37.8449 11.304 37.9429 11.244 38.0469 11.244C38.4789 11.244 38.8289 11.202 39.0969 11.118C39.3689 11.034 39.5889 10.882 39.7569 10.662C39.9289 10.442 40.0629 10.128 40.1589 9.72H40.3029L40.1289 10.98C40.3969 11.156 40.7929 11.244 41.3169 11.244C41.6889 11.244 41.9869 11.198 42.2109 11.106C42.4389 11.01 42.6189 10.854 42.7509 10.638C42.8869 10.418 42.9909 10.112 43.0629 9.72H43.2129L43.0509 10.932C43.1709 11.028 43.3469 11.104 43.5789 11.16C43.8109 11.216 44.0769 11.244 44.3769 11.244C44.6049 11.244 44.8229 11.226 45.0309 11.19C45.2389 11.15 45.4069 11.102 45.5349 11.046C45.6629 10.986 45.7269 10.932 45.7269 10.884C45.7269 10.804 45.6249 10.668 45.4209 10.476C45.2209 10.284 44.8469 9.982 44.2989 9.57C44.4509 9.342 44.6089 9.062 44.7729 8.73C44.9369 8.398 45.0709 8.072 45.1749 7.752H45.2469L45.3309 7.944C45.4509 8.212 45.5529 8.466 45.6369 8.706C45.7249 8.946 45.8029 9.242 45.8709 9.594C45.9389 9.942 45.9729 10.322 45.9729 10.734ZM61.1272 13.5C60.6552 13.5 60.2492 13.4 59.9092 13.2C59.5732 12.996 59.2452 12.69 58.9252 12.282C58.6092 11.87 58.1532 11.21 57.5572 10.302H57.4852C57.4292 11.078 57.2672 11.7 56.9992 12.168C56.7312 12.632 56.2792 12.982 55.6432 13.218C55.0072 13.454 54.1172 13.572 52.9732 13.572C51.7412 13.572 50.8272 13.342 50.2312 12.882C49.6352 12.418 49.3372 11.728 49.3372 10.812C49.3372 10.408 49.3712 10.002 49.4392 9.594C49.5072 9.186 49.6432 8.718 49.8472 8.19H49.9912C49.9192 8.43 49.8692 8.648 49.8412 8.844C49.8172 9.036 49.8052 9.254 49.8052 9.498C49.8052 9.838 49.9412 10.146 50.2132 10.422C50.4892 10.698 50.8832 10.916 51.3952 11.076C51.9072 11.236 52.5072 11.316 53.1952 11.316C54.1992 11.316 55.0012 11.27 55.6012 11.178C56.2052 11.086 56.6272 10.984 56.8672 10.872C57.1072 10.756 57.2272 10.662 57.2272 10.59C57.2272 10.354 56.9772 10.042 56.4772 9.654C55.9812 9.266 55.0072 8.754 53.5552 8.118C53.6712 7.866 53.8232 7.492 54.0112 6.996C54.1992 6.5 54.3332 6.122 54.4132 5.862L54.4552 5.718C54.4912 5.586 54.5212 5.49 54.5452 5.43C54.5732 5.366 54.6172 5.312 54.6772 5.268C54.7372 5.22 54.8252 5.176 54.9412 5.136L60.6832 3.174L60.7552 3.204C60.5352 3.576 60.3432 3.952 60.1792 4.332C60.0152 4.712 59.8932 5.052 59.8132 5.352L54.4312 6.588V6.666C55.2152 6.942 55.8872 7.248 56.4472 7.584C57.0112 7.916 57.4992 8.272 57.9112 8.652C58.3272 9.028 58.7912 9.504 59.3032 10.08C59.6712 10.5 60.0152 10.8 60.3352 10.98C60.6552 11.156 61.0192 11.244 61.4272 11.244L61.1272 13.5ZM66.0878 13.5C65.5558 13.5 65.1198 13.35 64.7798 13.05C64.4398 12.746 64.2698 12.23 64.2698 11.502C64.2698 11.302 64.2798 11.12 64.2998 10.956H64.2218C64.2138 11.56 64.1018 12.048 63.8858 12.42C63.6738 12.792 63.3558 13.066 62.9318 13.242C62.5078 13.414 61.9658 13.5 61.3058 13.5H61.1258C61.0218 13.5 60.9458 13.442 60.8978 13.326C60.8498 13.206 60.8258 13.024 60.8258 12.78C60.8258 12.456 60.8538 12.178 60.9098 11.946C60.9658 11.714 61.0398 11.54 61.1318 11.424C61.2238 11.304 61.3218 11.244 61.4258 11.244H61.6058C62.3858 11.244 62.9638 11.192 63.3398 11.088C63.7158 10.984 63.9858 10.8 64.1498 10.536C64.3178 10.268 64.4538 9.85 64.5578 9.282H64.7018V10.008C64.7018 10.4 64.8358 10.704 65.1038 10.92C65.3758 11.136 65.8238 11.244 66.4478 11.244L66.0878 13.5ZM63.1298 14.592C63.4738 14.592 63.7278 14.634 63.8918 14.718C64.0598 14.806 64.1438 14.958 64.1438 15.174C64.1438 15.246 64.1318 15.324 64.1078 15.408C64.0878 15.496 64.0558 15.606 64.0118 15.738C63.9358 15.974 63.8838 16.174 63.8558 16.338H63.7838C63.7838 16.198 63.7098 16.102 63.5618 16.05C63.4178 15.998 63.1758 15.972 62.8358 15.972H62.8058C62.5818 15.972 62.1758 15.98 61.5878 15.996C61.0038 16.016 60.5238 16.042 60.1478 16.074C60.2198 15.946 60.3118 15.724 60.4238 15.408C60.5358 15.096 60.6118 14.858 60.6518 14.694C61.1198 14.662 61.5858 14.636 62.0498 14.616C62.5138 14.6 62.8738 14.592 63.1298 14.592ZM62.8658 15.834L63.1298 14.592L62.8658 15.834ZM69.3631 10.446C69.3631 11.45 69.1451 12.21 68.7091 12.726C68.2771 13.242 67.6551 13.5 66.8431 13.5H66.1531C66.0491 13.5 65.9731 13.442 65.9251 13.326C65.8771 13.206 65.8531 13.024 65.8531 12.78C65.8531 12.456 65.8811 12.178 65.9371 11.946C65.9931 11.714 66.0671 11.54 66.1591 11.424C66.2511 11.304 66.3491 11.244 66.4531 11.244H67.0531C67.3451 11.244 67.6531 11.22 67.9771 11.172C68.3011 11.12 68.5711 11.056 68.7871 10.98C69.0071 10.9 69.1171 10.818 69.1171 10.734C69.1171 10.662 69.0371 10.536 68.8771 10.356C68.7171 10.176 68.5131 9.98 68.2651 9.768C68.0211 9.556 67.7811 9.37 67.5451 9.21C67.7011 9.006 67.8731 8.714 68.0611 8.334C68.2491 7.95 68.3911 7.612 68.4871 7.32H68.5651C68.5811 7.372 68.6211 7.464 68.6851 7.596C68.8771 8.028 69.0371 8.468 69.1651 8.916C69.2971 9.364 69.3631 9.874 69.3631 10.446ZM67.8451 6.672C67.7331 6.52 67.5551 6.344 67.3111 6.144C67.0671 5.944 66.8571 5.806 66.6811 5.73V5.652L67.6291 4.488C67.8491 4.596 68.0811 4.76 68.3251 4.98C68.5731 5.196 68.7531 5.396 68.8651 5.58L67.8451 6.672ZM73.5959 13.5C73.0279 13.5 72.5779 13.414 72.2459 13.242C71.9139 13.07 71.6659 12.78 71.5019 12.372C71.3379 11.964 71.2399 11.394 71.2079 10.662C71.1599 9.462 71.1099 8.528 71.0579 7.86C71.0099 7.192 70.9539 6.672 70.8899 6.3C70.8259 5.928 70.7379 5.516 70.6259 5.064C70.8659 4.824 71.1179 4.53 71.3819 4.182C71.6459 3.83 71.8799 3.494 72.0839 3.174H72.1559C72.1559 3.322 72.1639 3.6 72.1799 4.008C72.2119 4.576 72.2279 5.146 72.2279 5.718C72.2279 6.074 72.2159 6.684 72.1919 7.548C72.1679 8.492 72.1559 9.216 72.1559 9.72C72.1559 10.236 72.2939 10.62 72.5699 10.872C72.8499 11.12 73.2919 11.244 73.8959 11.244L73.5959 13.5ZM80.6565 13.5C80.1845 13.5 79.7805 13.4 79.4445 13.2C79.1085 12.996 78.7805 12.69 78.4605 12.282C78.1445 11.87 77.6885 11.21 77.0925 10.302H77.0205C76.9645 10.99 76.8145 11.568 76.5705 12.036C76.3265 12.504 75.9465 12.866 75.4305 13.122C74.9145 13.374 74.2325 13.5 73.3845 13.5C73.2805 13.5 73.2045 13.442 73.1565 13.326C73.1085 13.206 73.0845 13.024 73.0845 12.78C73.0845 12.456 73.1125 12.178 73.1685 11.946C73.2245 11.714 73.2985 11.54 73.3905 11.424C73.4825 11.304 73.5805 11.244 73.6845 11.244C74.4085 11.244 75.0025 11.194 75.4665 11.094C75.9345 10.99 76.2725 10.876 76.4805 10.752C76.6925 10.624 76.7985 10.522 76.7985 10.446C76.7985 10.31 76.7085 10.152 76.5285 9.972C76.3485 9.792 75.9865 9.552 75.4425 9.252C74.8985 8.948 74.1145 8.57 73.0905 8.118C73.2025 7.874 73.3525 7.504 73.5405 7.008C73.7285 6.512 73.8645 6.13 73.9485 5.862L73.9905 5.706C74.0265 5.578 74.0565 5.484 74.0805 5.424C74.1085 5.364 74.1505 5.312 74.2065 5.268C74.2665 5.22 74.3545 5.176 74.4705 5.136L80.2185 3.174L80.2905 3.204C80.0745 3.576 79.8825 3.952 79.7145 4.332C79.5505 4.708 79.4265 5.048 79.3425 5.352L73.9605 6.588V6.666C74.7485 6.942 75.4225 7.248 75.9825 7.584C76.5425 7.916 77.0285 8.272 77.4405 8.652C77.8565 9.028 78.3225 9.504 78.8385 10.08C79.2065 10.5 79.5485 10.8 79.8645 10.98C80.1845 11.156 80.5485 11.244 80.9565 11.244L80.6565 13.5ZM84.5249 9.57C83.8809 9.57 83.4209 9.79 83.1449 10.23C83.2969 10.434 83.5309 10.614 83.8469 10.77C84.1629 10.922 84.4969 11.04 84.8489 11.124C85.2009 11.204 85.5049 11.244 85.7609 11.244C86.0129 11.244 86.1969 11.226 86.3129 11.19C86.4289 11.154 86.4869 11.1 86.4869 11.028C86.4869 10.848 86.4009 10.642 86.2289 10.41C86.0569 10.178 85.8209 9.98 85.5209 9.816C85.2209 9.652 84.8889 9.57 84.5249 9.57ZM84.9629 7.974C85.3389 7.974 85.6629 8.102 85.9349 8.358C86.2109 8.614 86.4209 8.958 86.5649 9.39C86.7089 9.818 86.7809 10.292 86.7809 10.812C86.7809 11.348 86.7189 11.82 86.5949 12.228C86.4709 12.636 86.3069 12.95 86.1029 13.17C85.9029 13.39 85.6929 13.5 85.4729 13.5C84.9609 13.5 84.4809 13.424 84.0329 13.272C83.5889 13.116 83.2329 12.9 82.9649 12.624C82.6969 12.348 82.5629 12.034 82.5629 11.682C82.5629 11.51 82.5769 11.326 82.6049 11.13C82.6329 10.934 82.6669 10.754 82.7069 10.59H82.6349C82.6069 10.662 82.5769 10.758 82.5449 10.878C82.5169 10.994 82.4889 11.116 82.4609 11.244C82.3649 11.684 82.2609 12.056 82.1489 12.36C82.0369 12.664 81.8609 12.93 81.6209 13.158C81.3809 13.386 81.0609 13.5 80.6609 13.5C80.5569 13.5 80.4809 13.442 80.4329 13.326C80.3849 13.206 80.3609 13.024 80.3609 12.78C80.3609 12.456 80.3889 12.178 80.4449 11.946C80.5009 11.714 80.5749 11.54 80.6669 11.424C80.7589 11.304 80.8569 11.244 80.9609 11.244C81.2569 11.244 81.4969 11.214 81.6809 11.154C81.8689 11.094 82.0389 10.972 82.1909 10.788C82.3429 10.6 82.4909 10.316 82.6349 9.936L82.9229 10.152C83.1949 9.592 83.4369 9.156 83.6489 8.844C83.8649 8.528 84.0749 8.304 84.2789 8.172C84.4869 8.04 84.7149 7.974 84.9629 7.974Z" fill="#090909"/>
<path d="M41.34 24.128C41.436 24.248 41.64 24.398 41.82 24.518L41.49 24.908C41.31 24.788 41.106 24.638 41.01 24.518L41.34 24.128ZM42.42 24.908C42.24 24.788 42.036 24.638 41.94 24.518L42.27 24.128C42.366 24.248 42.57 24.398 42.75 24.518L42.42 24.908ZM43.236 27.5H42.954C42.93 27.92 42.768 28.316 42.498 28.532C41.97 28.94 41.064 29.18 40.194 29.18C39.096 29.18 38.622 28.7 38.622 27.98C38.622 27.596 38.724 27.044 38.946 26.342L39.18 26.414C39.03 26.978 38.964 27.446 38.964 27.704C38.964 28.274 39.426 28.634 40.308 28.634C41.382 28.634 42.42 28.268 42.642 27.962C42.672 27.902 42.678 27.788 42.678 27.692C42.678 27.626 42.678 27.56 42.672 27.494C42.378 27.512 42.03 27.53 41.724 27.53C41.244 27.53 41.022 27.284 41.022 26.906C41.022 26.144 41.412 25.46 41.934 25.46C42.51 25.46 42.858 26.09 42.942 26.954H43.332L43.236 27.5ZM41.274 26.636C41.274 26.846 41.454 26.984 41.814 26.984C42.078 26.984 42.324 26.978 42.612 26.96C42.486 26.348 42.204 25.982 41.85 25.982C41.526 25.982 41.274 26.3 41.274 26.636ZM45.956 27.5C45.464 27.5 45.176 27.326 45.092 26.876C44.912 27.314 44.54 27.5 43.454 27.5H43.238C43.208 27.5 43.178 27.446 43.178 27.332C43.178 27.152 43.25 26.954 43.334 26.954H43.55C44.726 26.954 44.996 26.78 45.008 26.348L45.014 26.222L45.332 26.162V26.264C45.332 26.696 45.524 26.954 46.052 26.954L45.956 27.5ZM43.766 28.16C43.862 28.28 44.066 28.43 44.246 28.55L43.916 28.94C43.736 28.82 43.532 28.67 43.436 28.55L43.766 28.16ZM44.846 28.94C44.666 28.82 44.462 28.67 44.366 28.55L44.696 28.16C44.792 28.28 44.996 28.43 45.176 28.55L44.846 28.94ZM47.3007 24.446C47.9307 24.446 48.2727 25.208 48.2727 26.228C48.2727 26.654 48.0867 27.128 47.7867 27.272C47.5047 27.422 46.9647 27.5 46.2987 27.5H45.9567C45.9267 27.5 45.8967 27.44 45.8967 27.332C45.8967 27.152 45.9687 26.954 46.0527 26.954H46.4487C47.0787 26.954 47.6727 26.9 47.9307 26.756C47.9787 26.732 48.0027 26.672 48.0027 26.564C48.0027 26.45 47.9967 26.348 47.9907 26.246C47.7447 26.348 47.4087 26.414 47.0907 26.414C46.6287 26.414 46.4007 26.168 46.4007 25.82C46.4007 25.106 46.7787 24.446 47.3007 24.446ZM46.7427 23.072C46.8387 23.192 47.0427 23.342 47.2227 23.462L46.8927 23.852C46.7127 23.732 46.5087 23.582 46.4127 23.462L46.7427 23.072ZM47.8227 23.852C47.6427 23.732 47.4387 23.582 47.3427 23.462L47.6727 23.072C47.7687 23.192 47.9727 23.342 48.1527 23.462L47.8227 23.852ZM46.6527 25.574C46.6527 25.772 46.8567 25.91 47.1567 25.91C47.4387 25.91 47.6847 25.88 47.9307 25.814C47.8047 25.262 47.5407 24.938 47.1987 24.938C46.8927 24.938 46.6527 25.238 46.6527 25.574ZM50.2125 24.746C51.1185 25.598 51.6225 25.76 51.6225 26.306C51.6225 26.57 51.4545 26.972 51.2505 27.14C50.9145 27.422 50.3025 27.62 49.7325 27.62C49.3125 27.62 49.1265 27.404 49.1265 26.966C49.1265 26.876 49.1385 26.636 49.1385 26.552L49.3845 26.534V26.69C49.3845 26.954 49.4745 27.074 49.8465 27.074C50.4465 27.074 51.2805 26.762 51.3645 26.54C51.3405 26.198 50.5725 25.82 49.9785 25.22L50.2125 24.746ZM55.1703 25.7C55.3203 26.3 55.4043 26.786 55.4043 27.008C55.4043 27.56 55.1403 28.142 54.6123 28.49C54.2103 28.784 53.5503 29.024 52.9203 29.096C52.8123 29.054 52.7103 28.838 52.5663 28.616C54.2403 28.4 54.9843 27.842 55.1163 27.362C55.1043 27.104 54.9243 26.444 54.7563 25.958L55.1703 25.7ZM56.7853 27.476L56.4553 27.542L56.3293 23.03L56.7853 22.88V27.476ZM59.227 27.5C58.945 27.5 58.723 27.434 58.603 27.296C58.525 27.752 58.273 28.202 57.835 28.49C57.433 28.784 56.773 29.024 56.143 29.096C56.035 29.054 55.933 28.838 55.789 28.616C57.463 28.4 58.207 27.842 58.339 27.362C58.327 27.104 58.159 26.444 58.003 25.976L58.405 25.742C58.597 26.732 58.741 26.954 59.323 26.954L59.227 27.5ZM58.267 24.992C58.087 24.884 57.907 24.752 57.757 24.602L58.087 24.182C58.237 24.332 58.417 24.464 58.597 24.572L58.267 24.992ZM60.4522 25.4C60.5242 25.712 60.6262 26.264 60.6262 26.468C60.6262 26.774 60.4282 27.212 60.1822 27.344C59.9482 27.47 59.5822 27.5 59.2282 27.5C59.1982 27.5 59.1682 27.44 59.1682 27.332C59.1682 27.152 59.2402 26.954 59.3242 26.954C60.0142 26.954 60.2782 26.888 60.3262 26.78C60.3022 26.552 60.1882 26.042 60.0442 25.652L60.4522 25.4ZM59.8462 28.97C59.6662 28.862 59.4862 28.73 59.3362 28.58L59.6662 28.16C59.8162 28.31 59.9962 28.442 60.1762 28.55L59.8462 28.97ZM62.006 27.476L61.676 27.542L61.55 23.03L62.006 22.88V27.476Z" fill="#090909"/>
</svg>
