<svg width="100" height="32" viewBox="0 0 100 32" fill="none" xmlns="http://www.w3.org/2000/svg">
<path d="M36.4943 6.3C36.9023 6.3 37.2243 6.424 37.4603 6.672C37.6963 6.916 37.8143 7.24 37.8143 7.644C37.8143 7.916 37.7623 8.196 37.6583 8.484H37.5863C37.5863 8.304 37.4623 8.162 37.2143 8.058C36.9663 7.954 36.6543 7.902 36.2783 7.902C35.8223 7.902 35.3983 7.998 35.0063 8.19C34.6183 8.378 34.3083 8.608 34.0763 8.88C33.8483 9.148 33.7343 9.388 33.7343 9.6C33.7343 9.808 33.8803 9.96 34.1723 10.056C34.4683 10.152 34.8783 10.21 35.4023 10.23L36.1763 10.26C36.6323 10.28 36.9863 10.342 37.2383 10.446C37.4943 10.546 37.6763 10.708 37.7843 10.932C37.8963 11.156 37.9523 11.464 37.9523 11.856C37.9523 12.748 37.7803 13.512 37.4363 14.148C37.0923 14.788 36.5923 15.276 35.9363 15.612C35.2843 15.948 34.5003 16.116 33.5843 16.116C32.5643 16.116 31.7883 15.84 31.2563 15.288C30.7243 14.74 30.4583 13.95 30.4583 12.918C30.4583 11.834 30.7003 10.768 31.1843 9.72H31.3343C31.0903 10.384 30.9683 11.038 30.9683 11.682C30.9683 12.382 31.2143 12.922 31.7063 13.302C32.1983 13.678 32.8983 13.866 33.8063 13.866C34.7263 13.866 35.4763 13.79 36.0563 13.638C36.6363 13.486 37.0523 13.304 37.3043 13.092C37.5603 12.876 37.6883 12.668 37.6883 12.468C37.6883 12.416 37.6443 12.376 37.5563 12.348C37.4683 12.32 37.3103 12.296 37.0823 12.276C36.8543 12.256 36.5143 12.238 36.0623 12.222L35.2583 12.192C34.7983 12.176 34.4323 12.122 34.1603 12.03C33.8923 11.934 33.6923 11.778 33.5603 11.562C33.4323 11.346 33.3683 11.046 33.3683 10.662C33.3683 10.03 33.5163 9.372 33.8123 8.688C34.1083 8.004 34.4963 7.436 34.9763 6.984C35.4603 6.528 35.9663 6.3 36.4943 6.3ZM39.2455 16.77C38.9415 16.77 38.6555 16.72 38.3875 16.62C38.1195 16.524 37.8075 16.386 37.4515 16.206C37.1395 16.05 36.9135 15.948 36.7735 15.9V15.828C37.4935 15.664 38.2475 15.386 39.0355 14.994C39.8275 14.602 40.4895 14.194 41.0215 13.77C41.5575 13.346 41.8255 13.014 41.8255 12.774C41.8255 12.63 41.6775 12.414 41.3815 12.126C41.0855 11.838 40.6395 11.472 40.0435 11.028C40.1995 10.796 40.3695 10.49 40.5535 10.11C40.7415 9.73 40.8875 9.382 40.9915 9.066H41.0635C41.0875 9.126 41.1395 9.236 41.2195 9.396C41.3675 9.692 41.4935 9.968 41.5975 10.224C41.7055 10.48 41.8015 10.78 41.8855 11.124C41.9695 11.468 42.0115 11.824 42.0115 12.192C42.0115 13.156 41.8895 13.982 41.6455 14.67C41.4015 15.362 41.0695 15.884 40.6495 16.236C40.2335 16.592 39.7655 16.77 39.2455 16.77ZM40.9135 6.432C40.7815 6.3 40.6075 6.152 40.3915 5.988C40.1755 5.824 39.9855 5.706 39.8215 5.634V5.562L40.6255 4.542C40.8335 4.642 41.0435 4.782 41.2555 4.962C41.4715 5.138 41.6255 5.288 41.7175 5.412L40.9135 6.432ZM39.8215 8.178C39.4775 8.178 39.2215 8.136 39.0535 8.052C38.8895 7.964 38.8075 7.812 38.8075 7.596C38.8075 7.528 38.8175 7.456 38.8375 7.38C38.8575 7.304 38.8895 7.206 38.9335 7.086C39.0175 6.842 39.0715 6.648 39.0955 6.504H39.1675C39.1675 6.644 39.2395 6.74 39.3835 6.792C39.5315 6.844 39.7755 6.87 40.1155 6.87H40.1455C40.3695 6.87 40.7735 6.862 41.3575 6.846C41.9455 6.826 42.4275 6.8 42.8035 6.768C42.7275 6.9 42.6335 7.114 42.5215 7.41C42.4095 7.702 42.3355 7.924 42.2995 8.076C41.8315 8.108 41.3655 8.134 40.9015 8.154C40.4375 8.17 40.0775 8.178 39.8215 8.178ZM47.1852 13.5C46.8972 13.5 46.6292 13.422 46.3812 13.266C46.2972 14.01 46.1272 14.644 45.8712 15.168C45.6152 15.696 45.2972 16.094 44.9172 16.362C44.5412 16.634 44.1272 16.77 43.6752 16.77C43.3712 16.77 43.0852 16.72 42.8172 16.62C42.5492 16.524 42.2372 16.386 41.8812 16.206C41.5692 16.05 41.3432 15.948 41.2032 15.9V15.828C41.8312 15.688 42.4932 15.456 43.1892 15.132C43.8852 14.808 44.5052 14.458 45.0492 14.082C45.5932 13.71 45.9632 13.382 46.1592 13.098C45.6792 12.69 45.2152 11.928 44.7672 10.812C44.8752 10.664 45.0072 10.418 45.1632 10.074C45.3232 9.726 45.4572 9.39 45.5652 9.066H45.6372C45.8732 9.878 46.1452 10.444 46.4532 10.764C46.7612 11.084 47.1052 11.244 47.4852 11.244L47.1852 13.5ZM50.3905 10.446C50.3905 11.45 50.1725 12.21 49.7365 12.726C49.3045 13.242 48.6825 13.5 47.8705 13.5H47.1805C47.0765 13.5 47.0005 13.442 46.9525 13.326C46.9045 13.206 46.8805 13.024 46.8805 12.78C46.8805 12.456 46.9085 12.178 46.9645 11.946C47.0205 11.714 47.0945 11.54 47.1865 11.424C47.2785 11.304 47.3765 11.244 47.4805 11.244H48.0805C48.3725 11.244 48.6805 11.22 49.0045 11.172C49.3285 11.12 49.5985 11.056 49.8145 10.98C50.0345 10.9 50.1445 10.818 50.1445 10.734C50.1445 10.662 50.0645 10.536 49.9045 10.356C49.7445 10.176 49.5405 9.98 49.2925 9.768C49.0485 9.556 48.8085 9.37 48.5725 9.21C48.7285 9.006 48.9005 8.714 49.0885 8.334C49.2765 7.95 49.4185 7.612 49.5145 7.32H49.5925C49.6085 7.372 49.6485 7.464 49.7125 7.596C49.9045 8.028 50.0645 8.468 50.1925 8.916C50.3245 9.364 50.3905 9.874 50.3905 10.446ZM48.8725 6.672C48.7605 6.52 48.5825 6.344 48.3385 6.144C48.0945 5.944 47.8845 5.806 47.7085 5.73V5.652L48.6565 4.488C48.8765 4.596 49.1085 4.76 49.3525 4.98C49.6005 5.196 49.7805 5.396 49.8925 5.58L48.8725 6.672ZM53.1833 3.174C53.1833 3.338 53.1973 3.778 53.2253 4.494C53.2933 6.27 53.3273 7.6 53.3273 8.484C53.3273 9.376 53.3053 10.082 53.2613 10.602C53.2173 11.118 53.1593 11.518 53.0873 11.802C53.0193 12.082 52.9153 12.412 52.7753 12.792C52.6353 13.164 52.5293 13.472 52.4573 13.716H52.3793C52.3833 13.64 52.3853 13.512 52.3853 13.332C52.3853 12.664 52.3393 11.74 52.2473 10.56C52.1593 9.38 52.0553 8.25 51.9353 7.17C51.8193 6.09 51.7253 5.388 51.6533 5.064C51.8933 4.824 52.1453 4.53 52.4093 4.182C52.6733 3.83 52.9073 3.494 53.1113 3.174H53.1833ZM59.6272 13.5C59.0592 13.5 58.6092 13.414 58.2772 13.242C57.9452 13.07 57.6972 12.78 57.5332 12.372C57.3692 11.964 57.2712 11.394 57.2392 10.662C57.1912 9.462 57.1412 8.528 57.0892 7.86C57.0412 7.192 56.9852 6.672 56.9212 6.3C56.8572 5.928 56.7692 5.516 56.6572 5.064C56.8972 4.824 57.1492 4.53 57.4132 4.182C57.6772 3.83 57.9112 3.494 58.1152 3.174H58.1872C58.1872 3.322 58.1952 3.6 58.2112 4.008C58.2432 4.576 58.2592 5.146 58.2592 5.718C58.2592 6.074 58.2472 6.684 58.2232 7.548C58.1992 8.492 58.1872 9.216 58.1872 9.72C58.1872 10.236 58.3252 10.62 58.6012 10.872C58.8812 11.12 59.3232 11.244 59.9272 11.244L59.6272 13.5ZM62.8358 10.446C62.8358 11.45 62.6178 12.21 62.1818 12.726C61.7498 13.242 61.1278 13.5 60.3158 13.5H59.6258C59.5218 13.5 59.4458 13.442 59.3978 13.326C59.3498 13.206 59.3258 13.024 59.3258 12.78C59.3258 12.456 59.3538 12.178 59.4098 11.946C59.4658 11.714 59.5398 11.54 59.6318 11.424C59.7238 11.304 59.8218 11.244 59.9258 11.244H60.5258C60.8178 11.244 61.1258 11.22 61.4498 11.172C61.7738 11.12 62.0438 11.056 62.2598 10.98C62.4798 10.9 62.5898 10.818 62.5898 10.734C62.5898 10.662 62.5098 10.536 62.3498 10.356C62.1898 10.176 61.9858 9.98 61.7378 9.768C61.4938 9.556 61.2538 9.37 61.0178 9.21C61.1738 9.006 61.3458 8.714 61.5338 8.334C61.7218 7.95 61.8638 7.612 61.9598 7.32H62.0378C62.0538 7.372 62.0938 7.464 62.1578 7.596C62.3498 8.028 62.5098 8.468 62.6378 8.916C62.7698 9.364 62.8358 9.874 62.8358 10.446ZM61.5098 14.592C61.8538 14.592 62.1078 14.634 62.2718 14.718C62.4398 14.806 62.5238 14.958 62.5238 15.174C62.5238 15.246 62.5118 15.324 62.4878 15.408C62.4678 15.496 62.4358 15.606 62.3918 15.738C62.3158 15.974 62.2638 16.174 62.2358 16.338H62.1638C62.1638 16.198 62.0898 16.102 61.9418 16.05C61.7978 15.998 61.5558 15.972 61.2158 15.972H61.1858C60.9618 15.972 60.5558 15.98 59.9678 15.996C59.3838 16.016 58.9038 16.042 58.5278 16.074C58.5998 15.946 58.6918 15.724 58.8038 15.408C58.9158 15.096 58.9918 14.858 59.0318 14.694C59.4998 14.662 59.9658 14.636 60.4298 14.616C60.8938 14.6 61.2538 14.592 61.5098 14.592ZM61.2458 15.834L61.5098 14.592L61.2458 15.834ZM67.0686 13.5C66.5006 13.5 66.0506 13.414 65.7186 13.242C65.3866 13.07 65.1386 12.78 64.9746 12.372C64.8106 11.964 64.7126 11.394 64.6806 10.662C64.6326 9.462 64.5826 8.528 64.5306 7.86C64.4826 7.192 64.4266 6.672 64.3626 6.3C64.2986 5.928 64.2106 5.516 64.0986 5.064C64.3386 4.824 64.5906 4.53 64.8546 4.182C65.1186 3.83 65.3526 3.494 65.5566 3.174H65.6286C65.6286 3.322 65.6366 3.6 65.6526 4.008C65.6846 4.576 65.7006 5.146 65.7006 5.718C65.7006 6.074 65.6886 6.684 65.6646 7.548C65.6406 8.492 65.6286 9.216 65.6286 9.72C65.6286 10.236 65.7666 10.62 66.0426 10.872C66.3226 11.12 66.7646 11.244 67.3686 11.244L67.0686 13.5ZM70.2772 10.446C70.2772 11.45 70.0592 12.21 69.6232 12.726C69.1912 13.242 68.5692 13.5 67.7572 13.5H67.0672C66.9632 13.5 66.8872 13.442 66.8392 13.326C66.7912 13.206 66.7672 13.024 66.7672 12.78C66.7672 12.456 66.7952 12.178 66.8512 11.946C66.9072 11.714 66.9812 11.54 67.0732 11.424C67.1652 11.304 67.2632 11.244 67.3672 11.244H67.9672C68.2592 11.244 68.5672 11.22 68.8912 11.172C69.2152 11.12 69.4852 11.056 69.7012 10.98C69.9212 10.9 70.0312 10.818 70.0312 10.734C70.0312 10.662 69.9512 10.536 69.7912 10.356C69.6312 10.176 69.4272 9.98 69.1792 9.768C68.9352 9.556 68.6952 9.37 68.4592 9.21C68.6152 9.006 68.7872 8.714 68.9752 8.334C69.1632 7.95 69.3052 7.612 69.4012 7.32H69.4792C69.4952 7.372 69.5352 7.464 69.5992 7.596C69.7912 8.028 69.9512 8.468 70.0792 8.916C70.2112 9.364 70.2772 9.874 70.2772 10.446ZM68.0032 18.084C67.8712 17.952 67.6972 17.804 67.4812 17.64C67.2652 17.476 67.0752 17.358 66.9112 17.286V17.208L67.7152 16.194C67.9232 16.294 68.1332 16.432 68.3452 16.608C68.5612 16.788 68.7132 16.94 68.8012 17.064L68.0032 18.084ZM68.9512 14.592C69.2952 14.592 69.5492 14.634 69.7132 14.718C69.8812 14.806 69.9652 14.958 69.9652 15.174C69.9652 15.242 69.9552 15.314 69.9352 15.39C69.9152 15.466 69.8832 15.564 69.8392 15.684C69.7552 15.928 69.7012 16.122 69.6772 16.266H69.6052C69.6052 16.126 69.5312 16.03 69.3832 15.978C69.2392 15.926 68.9972 15.9 68.6572 15.9H68.6272C68.4032 15.9 67.9972 15.908 67.4092 15.924C66.8252 15.944 66.3452 15.97 65.9692 16.002C66.0452 15.87 66.1392 15.656 66.2512 15.36C66.3632 15.068 66.4372 14.846 66.4732 14.694C66.9412 14.662 67.4072 14.636 67.8712 14.616C68.3352 14.6 68.6952 14.592 68.9512 14.592ZM68.8672 14.964L68.9512 14.592L68.8672 14.964Z" fill="#090909"/>
<path d="M24.0726 25.7C24.2226 26.3 24.3066 26.786 24.3066 27.008C24.3066 27.56 24.0426 28.142 23.5146 28.49C23.1126 28.784 22.4526 29.024 21.8226 29.096C21.7146 29.054 21.6126 28.838 21.4686 28.616C23.1426 28.4 23.8866 27.842 24.0186 27.362C24.0066 27.104 23.8266 26.444 23.6586 25.958L24.0726 25.7ZM23.9466 24.992C23.7666 24.884 23.5866 24.752 23.4366 24.602L23.7666 24.182C23.9166 24.332 24.0966 24.464 24.2766 24.572L23.9466 24.992ZM26.3597 27.5C25.6637 27.5 25.3517 27.134 25.3277 26.288C25.3097 25.652 25.2437 23.546 25.2317 23.03L25.6877 22.88V26.03C25.6877 26.636 25.9157 26.954 26.4557 26.954L26.3597 27.5ZM28.773 22.802L26.889 23.696V23.36L28.743 22.484L28.773 22.802ZM26.493 24.758C27.633 25.55 27.921 25.91 27.921 26.39C27.921 26.696 27.705 27.122 27.459 27.272C27.183 27.446 26.727 27.5 26.361 27.5C26.331 27.5 26.301 27.44 26.301 27.332C26.301 27.152 26.373 26.954 26.457 26.954C27.057 26.954 27.555 26.858 27.645 26.666C27.603 26.264 27.393 25.964 26.217 25.106L26.397 24.362L29.505 22.88L29.517 23.36L26.493 24.758ZM31.4448 25.46C32.1108 25.46 32.4588 26.33 32.4588 27.104C32.4588 27.716 32.2548 28.178 31.8288 28.484C31.4028 28.814 30.5148 29.054 29.6568 29.108C29.5488 29.066 29.4648 28.874 29.2968 28.598C31.1748 28.472 32.0808 28.106 32.1888 27.53C32.1888 27.458 32.1888 27.386 32.1828 27.314C31.9128 27.458 31.5828 27.53 31.2348 27.53C30.7548 27.53 30.5328 27.284 30.5328 26.906C30.5328 26.144 30.9228 25.46 31.4448 25.46ZM30.7848 26.636C30.7848 26.846 30.9648 26.984 31.3248 26.984C31.6188 26.984 31.8948 26.942 32.1168 26.87C31.9908 26.336 31.7088 25.982 31.3608 25.982C31.0368 25.982 30.7848 26.3 30.7848 26.636ZM39.6562 27.5C39.1282 27.5 38.8342 27.296 38.7802 26.78C38.7322 26.9 38.6722 26.972 38.6362 26.996C38.4142 27.296 37.4122 27.59 36.1162 27.59C34.8802 27.59 34.4482 27.206 34.4482 26.564C34.4482 26.288 34.5382 25.928 34.6882 25.49L34.9042 25.568C34.8202 25.874 34.7782 26.156 34.7782 26.306C34.7782 26.738 35.1562 27.044 36.2182 27.044C37.6762 27.044 38.6242 26.744 38.7082 26.486L38.7202 25.844L39.0322 25.784V26.252C39.0322 26.696 39.2242 26.954 39.7522 26.954L39.6562 27.5ZM36.2122 24.59C36.3082 24.71 36.5122 24.86 36.6922 24.98L36.3622 25.37C36.1822 25.25 35.9782 25.1 35.8822 24.98L36.2122 24.59ZM37.2922 25.37C37.1122 25.25 36.9082 25.1 36.8122 24.98L37.1422 24.59C37.2382 24.71 37.4422 24.86 37.6222 24.98L37.2922 25.37ZM42.272 27.5C41.66 27.5 41.204 27.434 40.904 27.308C40.568 27.434 40.136 27.5 39.656 27.5C39.626 27.5 39.596 27.44 39.596 27.332C39.596 27.152 39.668 26.954 39.752 26.954C39.902 26.954 40.07 26.948 40.232 26.936C40.178 26.846 40.148 26.738 40.148 26.612C40.148 25.958 40.64 25.112 41.12 25.112C41.57 25.112 41.948 25.58 41.948 26.09C41.948 26.39 41.81 26.672 41.558 26.93C41.75 26.948 42.02 26.954 42.368 26.954L42.272 27.5ZM41.156 24.584C40.976 24.476 40.796 24.344 40.646 24.194L40.976 23.774C41.126 23.924 41.306 24.056 41.486 24.164L41.156 24.584ZM40.406 26.39C40.406 26.6 40.604 26.798 40.922 26.876C41.384 26.726 41.636 26.498 41.678 26.366C41.666 26.024 41.36 25.634 41.006 25.634C40.724 25.634 40.406 26.108 40.406 26.39ZM43.4932 25.4C43.5652 25.712 43.6672 26.264 43.6672 26.468C43.6672 26.774 43.4692 27.212 43.2232 27.344C42.9892 27.47 42.6232 27.5 42.2692 27.5C42.2392 27.5 42.2092 27.44 42.2092 27.332C42.2092 27.152 42.2812 26.954 42.3652 26.954C43.0552 26.954 43.3192 26.888 43.3672 26.78C43.3432 26.552 43.2292 26.042 43.0852 25.652L43.4932 25.4ZM43.2832 24.932C43.1032 24.824 42.9232 24.692 42.7732 24.542L43.1032 24.122C43.2532 24.272 43.4332 24.404 43.6132 24.512L43.2832 24.932ZM47.7992 26.624C47.6192 26.516 47.4392 26.384 47.2892 26.234L47.6192 25.814C47.7692 25.964 47.9492 26.096 48.1292 26.204L47.7992 26.624ZM49.5632 25.1C49.6952 25.628 49.7852 26.27 49.7852 26.714C49.7852 27.212 49.5932 27.692 49.3052 27.932C48.9092 28.262 47.9852 28.58 47.2052 28.58C46.1312 28.58 45.6572 28.1 45.6572 27.38C45.6572 26.996 45.7592 26.444 45.9812 25.742L46.2152 25.814C46.0652 26.378 45.9992 26.846 45.9992 27.104C45.9992 27.674 46.4612 28.034 47.3192 28.034C48.1772 28.034 49.2392 27.656 49.4372 27.362C49.4672 27.32 49.4732 27.23 49.4732 27.152C49.4732 26.738 49.3172 25.952 49.1492 25.358L49.5632 25.1ZM50.7022 23.24C51.2422 24.344 51.9622 25.55 52.0942 26.414C52.5742 26.042 52.7722 25.556 52.7662 24.866C52.7602 24.386 52.7362 23.42 52.7242 23.048L53.1502 22.88V25.79C53.1502 26.6 53.3902 26.954 53.9122 26.954L53.8162 27.5C53.1982 27.5 52.8202 27.182 52.7962 26.066V25.724C52.7242 26.078 52.6342 26.3 52.5142 26.492C52.1722 27.02 51.5122 27.404 50.8162 27.584C50.7502 27.548 50.6242 27.35 50.4562 27.14C51.0142 26.984 51.4582 26.816 51.7942 26.618C51.6082 25.784 50.9002 24.626 50.3722 23.618L50.7022 23.24ZM53.9501 24.758C55.0901 25.55 55.3781 25.91 55.3781 26.39C55.3781 26.696 55.1621 27.122 54.9161 27.272C54.6401 27.446 54.1841 27.5 53.8181 27.5C53.7881 27.5 53.7581 27.44 53.7581 27.332C53.7581 27.152 53.8301 26.954 53.9141 26.954C54.5141 26.954 55.0121 26.858 55.1021 26.666C55.0601 26.264 54.8501 25.964 53.6741 25.106L53.8541 24.362L56.9621 22.88L56.9741 23.36L53.9501 24.758ZM61.9438 25.238C61.7938 25.082 61.6618 25.004 61.5238 25.004C61.0858 25.004 60.3778 25.808 60.3778 26.126C60.3778 26.246 60.5038 26.342 60.8698 26.408L61.6078 26.546C61.9078 26.6 62.0218 26.786 62.0218 27.002C62.0218 27.266 61.8778 27.656 61.6018 27.884C61.0678 28.328 60.1378 28.58 59.3458 28.58C58.2718 28.58 57.7978 28.1 57.7978 27.38C57.7978 26.996 57.8998 26.444 58.1218 25.742L58.3558 25.814C58.2058 26.378 58.1398 26.846 58.1398 27.104C58.1398 27.674 58.6018 28.034 59.4598 28.034C60.7198 28.034 61.7398 27.434 61.7518 27.248C61.7458 27.2 61.6918 27.146 61.3918 27.092L60.6838 26.96C60.2458 26.876 60.0958 26.684 60.0958 26.396C60.0958 25.604 61.0018 24.482 61.6378 24.482C61.8718 24.482 62.0698 24.632 62.2258 24.902L61.9438 25.238ZM64.2757 27.5C63.5797 27.5 63.2677 27.134 63.2437 26.288C63.2257 25.652 63.1597 23.546 63.1477 23.03L63.6037 22.88V26.03C63.6037 26.636 63.8317 26.954 64.3717 26.954L64.2757 27.5ZM65.267 24.554C66.419 25.538 67.739 25.814 67.739 26.606C67.739 27.062 67.391 27.59 67.049 27.59C66.719 27.59 65.975 27.44 65.543 27.284C65.195 27.422 64.763 27.5 64.277 27.5C64.247 27.5 64.217 27.44 64.217 27.332C64.217 27.152 64.289 26.954 64.373 26.954C64.547 26.954 64.703 26.948 64.847 26.936C64.775 26.828 64.739 26.702 64.739 26.57C64.739 26.12 65.045 25.562 65.405 25.292C65.291 25.208 65.177 25.124 65.069 25.028L65.267 24.554ZM65.003 26.306C65.003 26.522 65.207 26.696 65.585 26.816C65.969 26.702 66.179 26.534 66.233 26.366C66.209 25.952 65.969 25.58 65.693 25.58C65.351 25.58 65.003 26.12 65.003 26.306ZM66.137 26.912C66.581 27.02 67.025 27.098 67.283 27.098C67.379 27.074 67.439 26.948 67.439 26.81C67.439 26.522 67.031 26.276 66.497 25.97C66.503 26.006 66.503 26.036 66.503 26.066C66.503 26.396 66.371 26.684 66.137 26.912ZM69.5194 25.118C69.9574 25.118 70.9234 25.676 72.1294 25.838L71.9374 26.318C71.8594 26.306 71.7274 26.294 71.6614 26.294C70.7194 26.522 68.9734 27.242 68.9134 28.304C68.9494 29.054 69.6634 29.594 70.9234 29.594C71.3674 29.594 71.7874 29.57 72.1534 29.534L72.0394 29.972C71.6434 30.086 71.1214 30.14 70.6774 30.14C69.3634 30.14 68.6494 29.504 68.6494 28.526C68.6494 27.482 69.3814 26.648 70.9234 26.084C70.1494 25.844 69.6814 25.64 69.3994 25.64C69.2674 25.64 69.1894 25.718 69.0034 26.042L68.8174 25.904C69.1114 25.316 69.2554 25.118 69.5194 25.118ZM74.6352 27.5C74.3712 27.5 74.1552 27.44 74.0292 27.314C73.9752 28.382 73.3392 28.91 72.3072 29.114C72.2232 29.078 72.1092 28.856 71.9712 28.658C73.1712 28.382 73.6752 27.974 73.7472 27.572C73.7352 27.152 73.5672 26.468 73.4112 25.976L73.8132 25.742C74.0052 26.732 74.1492 26.954 74.7312 26.954L74.6352 27.5ZM76.9884 25.19C77.5164 25.19 78.0444 25.802 78.0444 26.324C78.0444 26.66 77.8164 27.068 77.5224 27.212C77.1084 27.41 76.4064 27.5 75.6924 27.5H74.6364C74.6064 27.5 74.5764 27.44 74.5764 27.332C74.5764 27.152 74.6484 26.954 74.7324 26.954H74.9184C75.0864 26.744 75.2424 26.558 75.3924 26.384L75.2784 23.03L75.7284 22.88L75.7164 26.018C76.2204 25.478 76.6164 25.19 76.9884 25.19ZM75.2304 26.954H75.8244C76.8564 26.954 77.6724 26.78 77.7564 26.6C77.7564 26.288 77.3004 25.712 76.8324 25.712C76.4364 25.712 75.9684 26.126 75.2304 26.954Z" fill="#090909"/>
</svg>
