<svg width="100" height="32" viewBox="0 0 100 32" fill="none" xmlns="http://www.w3.org/2000/svg">
<path d="M15.2391 13.5C14.7911 13.5 14.4171 13.406 14.1171 13.218C13.8211 13.026 13.5911 12.706 13.4271 12.258C13.2631 11.81 13.1691 11.206 13.1451 10.446H13.0731C13.0251 11.01 12.9231 11.468 12.7671 11.82C12.6151 12.168 12.3971 12.426 12.1131 12.594C11.8331 12.762 11.4751 12.846 11.0391 12.846C10.5351 12.846 10.1531 12.728 9.89306 12.492C9.63706 12.252 9.50906 11.91 9.50906 11.466C9.50906 11.046 9.59906 10.662 9.77906 10.314C9.95906 9.962 10.2811 9.586 10.7451 9.186C11.2131 8.782 11.8831 8.306 12.7551 7.758C12.7111 7.502 12.6711 7.306 12.6351 7.17C12.8351 7.014 13.0551 6.802 13.2951 6.534C13.5391 6.266 13.7471 5.994 13.9191 5.718H13.9731L13.9971 5.928C14.0451 6.336 14.0851 6.806 14.1171 7.338C14.1491 7.866 14.1651 8.61 14.1651 9.57C14.1651 10.138 14.2831 10.56 14.5191 10.836C14.7551 11.108 15.0951 11.244 15.5391 11.244L15.2391 13.5ZM10.1631 10.23C10.1631 10.33 10.1951 10.412 10.2591 10.476C10.3231 10.536 10.4331 10.582 10.5891 10.614C10.7491 10.646 10.9711 10.662 11.2551 10.662C11.7631 10.662 12.1811 10.602 12.5091 10.482C12.8371 10.358 13.0011 10.176 13.0011 9.936C13.0011 9.572 12.9531 9.06 12.8571 8.4C12.1731 8.724 11.6311 9.01 11.2311 9.258C10.8311 9.506 10.5531 9.71 10.3971 9.87C10.2411 10.026 10.1631 10.146 10.1631 10.23ZM24.5391 13.5C24.0231 13.5 23.6271 13.374 23.3511 13.122C23.0751 12.87 22.9371 12.486 22.9371 11.97C22.9371 11.854 22.9431 11.734 22.9551 11.61H22.8831C22.8111 12.266 22.6591 12.746 22.4271 13.05C22.1951 13.35 21.8631 13.5 21.4311 13.5C21.0711 13.5 20.7931 13.384 20.5971 13.152C20.4051 12.916 20.3091 12.558 20.3091 12.078C20.3091 11.954 20.3191 11.798 20.3391 11.61H20.2671C20.1991 12.238 20.0051 12.71 19.6851 13.026C19.3691 13.342 18.9811 13.5 18.5211 13.5C18.1411 13.5 17.8431 13.39 17.6271 13.17C17.4151 12.95 17.3091 12.616 17.3091 12.168C17.3091 11.976 17.3251 11.79 17.3571 11.61H17.2851C17.1811 12.25 16.9531 12.726 16.6011 13.038C16.2531 13.346 15.7991 13.5 15.2391 13.5C15.1351 13.5 15.0591 13.442 15.0111 13.326C14.9631 13.206 14.9391 13.024 14.9391 12.78C14.9391 12.456 14.9671 12.178 15.0231 11.946C15.0791 11.714 15.1531 11.54 15.2451 11.424C15.3371 11.304 15.4351 11.244 15.5391 11.244C15.9711 11.244 16.3211 11.202 16.5891 11.118C16.8611 11.034 17.0811 10.882 17.2491 10.662C17.4211 10.442 17.5551 10.128 17.6511 9.72H17.7951L17.6211 10.98C17.8891 11.156 18.2851 11.244 18.8091 11.244C19.1811 11.244 19.4791 11.198 19.7031 11.106C19.9311 11.01 20.1111 10.854 20.2431 10.638C20.3791 10.418 20.4831 10.112 20.5551 9.72H20.7051L20.5431 10.938C20.7871 11.142 21.1311 11.244 21.5751 11.244C21.8831 11.244 22.1451 11.188 22.3611 11.076C22.5811 10.96 22.7311 10.822 22.8111 10.662C22.8111 10.502 22.7851 10.294 22.7331 10.038C22.6851 9.778 22.6391 9.574 22.5951 9.426C22.7231 9.378 22.8931 9.282 23.1051 9.138V10.152C23.1051 10.476 23.2411 10.74 23.5131 10.944C23.7891 11.144 24.2311 11.244 24.8391 11.244L24.5391 13.5ZM20.4471 6.432C20.3151 6.3 20.1411 6.152 19.9251 5.988C19.7091 5.824 19.5191 5.706 19.3551 5.634V5.562L20.1591 4.542C20.3671 4.642 20.5771 4.782 20.7891 4.962C21.0051 5.138 21.1591 5.288 21.2511 5.412L20.4471 6.432ZM19.3551 8.178C19.0111 8.178 18.7551 8.136 18.5871 8.052C18.4231 7.964 18.3411 7.812 18.3411 7.596C18.3411 7.528 18.3511 7.456 18.3711 7.38C18.3911 7.304 18.4231 7.206 18.4671 7.086C18.5511 6.842 18.6051 6.648 18.6291 6.504H18.7011C18.7011 6.644 18.7731 6.74 18.9171 6.792C19.0651 6.844 19.3091 6.87 19.6491 6.87H19.6791C19.9031 6.87 20.3071 6.862 20.8911 6.846C21.4791 6.826 21.9611 6.8 22.3371 6.768C22.2611 6.9 22.1671 7.114 22.0551 7.41C21.9431 7.702 21.8691 7.924 21.8331 8.076C21.3651 8.108 20.8991 8.134 20.4351 8.154C19.9711 8.17 19.6111 8.178 19.3551 8.178ZM27.7538 10.446C27.7538 11.45 27.5358 12.21 27.0998 12.726C26.6678 13.242 26.0458 13.5 25.2338 13.5H24.5437C24.4397 13.5 24.3637 13.442 24.3157 13.326C24.2677 13.206 24.2437 13.024 24.2437 12.78C24.2437 12.456 24.2717 12.178 24.3277 11.946C24.3837 11.714 24.4577 11.54 24.5497 11.424C24.6417 11.304 24.7397 11.244 24.8438 11.244H25.4438C25.7358 11.244 26.0438 11.22 26.3678 11.172C26.6918 11.12 26.9618 11.056 27.1778 10.98C27.3978 10.9 27.5078 10.818 27.5078 10.734C27.5078 10.662 27.4278 10.536 27.2678 10.356C27.1078 10.176 26.9038 9.98 26.6558 9.768C26.4118 9.556 26.1718 9.37 25.9358 9.21C26.0918 9.006 26.2638 8.714 26.4518 8.334C26.6398 7.95 26.7818 7.612 26.8778 7.32H26.9558C26.9718 7.372 27.0118 7.464 27.0758 7.596C27.2678 8.028 27.4278 8.468 27.5558 8.916C27.6878 9.364 27.7538 9.874 27.7538 10.446ZM26.4277 14.592C26.7718 14.592 27.0258 14.634 27.1898 14.718C27.3578 14.806 27.4418 14.958 27.4418 15.174C27.4418 15.246 27.4298 15.324 27.4058 15.408C27.3858 15.496 27.3538 15.606 27.3098 15.738C27.2338 15.974 27.1818 16.174 27.1538 16.338H27.0818C27.0818 16.198 27.0078 16.102 26.8598 16.05C26.7158 15.998 26.4738 15.972 26.1338 15.972H26.1038C25.8798 15.972 25.4738 15.98 24.8858 15.996C24.3017 16.016 23.8217 16.042 23.4457 16.074C23.5177 15.946 23.6097 15.724 23.7217 15.408C23.8337 15.096 23.9097 14.858 23.9497 14.694C24.4177 14.662 24.8838 14.636 25.3478 14.616C25.8118 14.6 26.1718 14.592 26.4277 14.592ZM26.1638 15.834L26.4277 14.592L26.1638 15.834ZM35.8266 13.5C34.5066 13.5 33.7166 12.53 33.4566 10.59H33.3846C33.3126 11.582 33.0686 12.328 32.6526 12.828C32.2366 13.324 31.6326 13.572 30.8406 13.572C30.2926 13.572 29.8766 13.426 29.5926 13.134C29.3086 12.842 29.1666 12.406 29.1666 11.826C29.1666 11.63 29.1786 11.408 29.2026 11.16C29.2306 10.912 29.2666 10.614 29.3106 10.266H29.4246C29.4246 10.55 29.4706 10.766 29.5626 10.914C29.6586 11.062 29.8166 11.166 30.0366 11.226C30.2566 11.286 30.5726 11.316 30.9846 11.316C31.3886 11.316 31.7566 11.28 32.0886 11.208C32.4246 11.136 32.6886 11.04 32.8806 10.92C33.0726 10.796 33.1686 10.662 33.1686 10.518C33.1686 10.434 33.1266 10.234 33.0426 9.918C32.9586 9.598 32.8446 9.24 32.7006 8.844C32.5566 8.448 32.3966 8.084 32.2206 7.752C32.3686 7.572 32.5786 7.238 32.8506 6.75C33.1226 6.258 33.2766 5.938 33.3126 5.79H33.3846C33.4366 6.058 33.5126 6.396 33.6126 6.804C33.7166 7.212 33.8446 7.702 33.9966 8.274L34.3326 9.57C34.4366 9.982 34.5686 10.312 34.7286 10.56C34.8926 10.804 35.0866 10.98 35.3106 11.088C35.5386 11.192 35.8106 11.244 36.1266 11.244L35.8266 13.5ZM39.0389 10.446C39.0389 11.45 38.8209 12.21 38.3849 12.726C37.9529 13.242 37.3309 13.5 36.5189 13.5H35.8289C35.7249 13.5 35.6489 13.442 35.6009 13.326C35.5529 13.206 35.5289 13.024 35.5289 12.78C35.5289 12.456 35.5569 12.178 35.6129 11.946C35.6689 11.714 35.7429 11.54 35.8349 11.424C35.9269 11.304 36.0249 11.244 36.1289 11.244H36.7289C37.0209 11.244 37.3289 11.22 37.6529 11.172C37.9769 11.12 38.2469 11.056 38.4629 10.98C38.6829 10.9 38.7929 10.818 38.7929 10.734C38.7929 10.662 38.7129 10.536 38.5529 10.356C38.3929 10.176 38.1889 9.98 37.9409 9.768C37.6969 9.556 37.4569 9.37 37.2209 9.21C37.3769 9.006 37.5489 8.714 37.7369 8.334C37.9249 7.95 38.0669 7.612 38.1629 7.32H38.2409C38.2569 7.372 38.2969 7.464 38.3609 7.596C38.5529 8.028 38.7129 8.468 38.8409 8.916C38.9729 9.364 39.0389 9.874 39.0389 10.446ZM37.5209 6.672C37.4089 6.52 37.2309 6.344 36.9869 6.144C36.7429 5.944 36.5329 5.806 36.3569 5.73V5.652L37.3049 4.488C37.5249 4.596 37.7569 4.76 38.0009 4.98C38.2489 5.196 38.4289 5.396 38.5409 5.58L37.5209 6.672ZM41.8317 3.174C41.8317 3.338 41.8457 3.778 41.8737 4.494C41.9417 6.27 41.9757 7.6 41.9757 8.484C41.9757 9.376 41.9537 10.082 41.9097 10.602C41.8657 11.118 41.8077 11.518 41.7357 11.802C41.6677 12.082 41.5637 12.412 41.4237 12.792C41.2837 13.164 41.1777 13.472 41.1057 13.716H41.0277C41.0317 13.64 41.0337 13.512 41.0337 13.332C41.0337 12.664 40.9877 11.74 40.8957 10.56C40.8077 9.38 40.7037 8.25 40.5837 7.17C40.4677 6.09 40.3737 5.388 40.3017 5.064C40.5417 4.824 40.7937 4.53 41.0577 4.182C41.3217 3.83 41.5557 3.494 41.7597 3.174H41.8317ZM52.8296 11.466C52.8296 12.466 52.6556 13.314 52.3076 14.01C51.9636 14.706 51.4756 15.23 50.8436 15.582C50.2116 15.938 49.4676 16.116 48.6116 16.116C47.5996 16.116 46.8256 15.838 46.2896 15.282C45.7536 14.73 45.4856 13.942 45.4856 12.918C45.4856 11.834 45.7276 10.768 46.2116 9.72H46.3616C46.1176 10.384 45.9956 11.038 45.9956 11.682C45.9956 12.142 46.1056 12.536 46.3256 12.864C46.5456 13.188 46.8676 13.436 47.2916 13.608C47.7196 13.78 48.2336 13.866 48.8336 13.866C49.5456 13.866 50.1856 13.766 50.7536 13.566C51.3256 13.37 51.7716 13.124 52.0916 12.828C52.4116 12.532 52.5716 12.246 52.5716 11.97C52.5716 11.858 52.4496 11.646 52.2056 11.334C51.9616 11.018 51.6036 10.626 51.1316 10.158C51.2876 9.926 51.4576 9.62 51.6416 9.24C51.8296 8.86 51.9756 8.512 52.0796 8.196H52.1516C52.1756 8.276 52.2216 8.412 52.2896 8.604C52.3976 8.916 52.4876 9.196 52.5596 9.444C52.6316 9.692 52.6936 9.99 52.7456 10.338C52.8016 10.686 52.8296 11.062 52.8296 11.466ZM48.8876 10.872C48.7756 10.72 48.5976 10.544 48.3536 10.344C48.1096 10.144 47.8996 10.006 47.7236 9.93V9.852L48.6716 8.688C48.8916 8.796 49.1236 8.96 49.3676 9.18C49.6156 9.396 49.7956 9.596 49.9076 9.78L48.8876 10.872ZM55.6247 3.174C55.6247 3.338 55.6387 3.778 55.6667 4.494C55.7347 6.27 55.7687 7.6 55.7687 8.484C55.7687 9.376 55.7467 10.082 55.7027 10.602C55.6587 11.118 55.6007 11.518 55.5287 11.802C55.4607 12.082 55.3567 12.412 55.2167 12.792C55.0767 13.164 54.9707 13.472 54.8987 13.716H54.8207C54.8247 13.64 54.8267 13.512 54.8267 13.332C54.8267 12.664 54.7807 11.74 54.6887 10.56C54.6007 9.38 54.4967 8.25 54.3767 7.17C54.2607 6.09 54.1667 5.388 54.0947 5.064C54.3347 4.824 54.5867 4.53 54.8507 4.182C55.1147 3.83 55.3487 3.494 55.5527 3.174H55.6247ZM60.15 13.5C59.862 13.5 59.594 13.422 59.346 13.266C59.262 14.01 59.092 14.644 58.836 15.168C58.58 15.696 58.262 16.094 57.882 16.362C57.506 16.634 57.092 16.77 56.64 16.77C56.336 16.77 56.05 16.72 55.782 16.62C55.514 16.524 55.202 16.386 54.846 16.206C54.534 16.05 54.308 15.948 54.168 15.9V15.828C54.796 15.688 55.458 15.456 56.154 15.132C56.85 14.808 57.47 14.458 58.014 14.082C58.558 13.71 58.928 13.382 59.124 13.098C58.644 12.69 58.18 11.928 57.732 10.812C57.84 10.664 57.972 10.418 58.128 10.074C58.288 9.726 58.422 9.39 58.53 9.066H58.602C58.838 9.878 59.11 10.444 59.418 10.764C59.726 11.084 60.07 11.244 60.45 11.244L60.15 13.5ZM67.9393 13.5C67.4673 13.5 67.0613 13.4 66.7213 13.2C66.3853 12.996 66.0593 12.69 65.7433 12.282C65.4273 11.874 64.9713 11.214 64.3753 10.302H64.2973C64.2413 11.054 64.0913 11.662 63.8473 12.126C63.6033 12.586 63.2153 12.93 62.6833 13.158C62.1513 13.386 61.4293 13.5 60.5173 13.5H60.1453C60.0413 13.5 59.9653 13.442 59.9173 13.326C59.8693 13.206 59.8453 13.024 59.8453 12.78C59.8453 12.456 59.8733 12.178 59.9293 11.946C59.9853 11.714 60.0593 11.54 60.1513 11.424C60.2433 11.304 60.3413 11.244 60.4453 11.244H60.8113C61.5833 11.244 62.2113 11.204 62.6953 11.124C63.1793 11.044 63.5253 10.954 63.7333 10.854C63.9413 10.75 64.0453 10.662 64.0453 10.59C64.0453 10.354 63.7953 10.044 63.2953 9.66C62.7953 9.272 61.8213 8.758 60.3733 8.118C60.4853 7.874 60.6353 7.504 60.8233 7.008C61.0113 6.512 61.1473 6.13 61.2313 5.862L61.2733 5.706C61.3093 5.578 61.3393 5.484 61.3633 5.424C61.3913 5.364 61.4333 5.312 61.4893 5.268C61.5493 5.22 61.6373 5.176 61.7533 5.136L67.5013 3.174L67.5733 3.204C67.3573 3.576 67.1653 3.952 66.9973 4.332C66.8333 4.708 66.7093 5.048 66.6253 5.352L61.2433 6.588V6.666C62.0273 6.942 62.6993 7.248 63.2593 7.584C63.8233 7.916 64.3113 8.272 64.7233 8.652C65.1393 9.028 65.6033 9.504 66.1153 10.08C66.4873 10.5 66.8313 10.8 67.1473 10.98C67.4673 11.156 67.8313 11.244 68.2393 11.244L67.9393 13.5ZM65.7493 2.826L61.7353 4.5L61.9573 3.918L66.1153 2.172L65.7493 2.826ZM76.1643 10.734C76.1643 11.618 76.0163 12.3 75.7203 12.78C75.4283 13.26 74.9943 13.5 74.4183 13.5C73.4823 13.5 73.0143 13.006 73.0143 12.018C73.0143 11.874 73.0223 11.738 73.0383 11.61H72.9663C72.8983 12.238 72.7043 12.71 72.3843 13.026C72.0683 13.342 71.6803 13.5 71.2203 13.5C70.8403 13.5 70.5423 13.39 70.3263 13.17C70.1143 12.95 70.0083 12.616 70.0083 12.168C70.0083 11.976 70.0243 11.79 70.0563 11.61H69.9843C69.8803 12.25 69.6523 12.726 69.3003 13.038C68.9523 13.346 68.4983 13.5 67.9383 13.5C67.8343 13.5 67.7583 13.442 67.7103 13.326C67.6623 13.206 67.6383 13.024 67.6383 12.78C67.6383 12.456 67.6663 12.178 67.7223 11.946C67.7783 11.714 67.8523 11.54 67.9443 11.424C68.0363 11.304 68.1343 11.244 68.2383 11.244C68.6703 11.244 69.0203 11.202 69.2883 11.118C69.5603 11.034 69.7803 10.882 69.9483 10.662C70.1203 10.442 70.2543 10.128 70.3503 9.72H70.4943L70.3203 10.98C70.5883 11.156 70.9843 11.244 71.5083 11.244C71.8803 11.244 72.1783 11.198 72.4023 11.106C72.6303 11.01 72.8103 10.854 72.9423 10.638C73.0783 10.418 73.1823 10.112 73.2543 9.72H73.4043L73.2423 10.932C73.3623 11.028 73.5383 11.104 73.7703 11.16C74.0023 11.216 74.2683 11.244 74.5683 11.244C74.7963 11.244 75.0143 11.226 75.2223 11.19C75.4303 11.15 75.5983 11.102 75.7263 11.046C75.8543 10.986 75.9183 10.932 75.9183 10.884C75.9183 10.804 75.8163 10.668 75.6123 10.476C75.4123 10.284 75.0383 9.982 74.4903 9.57C74.6423 9.342 74.8003 9.062 74.9643 8.73C75.1283 8.398 75.2623 8.072 75.3663 7.752H75.4383L75.5223 7.944C75.6423 8.212 75.7443 8.466 75.8283 8.706C75.9163 8.946 75.9943 9.242 76.0623 9.594C76.1303 9.942 76.1643 10.322 76.1643 10.734ZM72.6963 6.432C72.5643 6.3 72.3903 6.152 72.1743 5.988C71.9583 5.824 71.7683 5.706 71.6043 5.634V5.562L72.4083 4.542C72.6163 4.642 72.8263 4.782 73.0383 4.962C73.2543 5.138 73.4083 5.288 73.5003 5.412L72.6963 6.432ZM71.6043 8.178C71.2603 8.178 71.0043 8.136 70.8363 8.052C70.6723 7.964 70.5903 7.812 70.5903 7.596C70.5903 7.528 70.6003 7.456 70.6203 7.38C70.6403 7.304 70.6723 7.206 70.7163 7.086C70.8003 6.842 70.8543 6.648 70.8783 6.504H70.9503C70.9503 6.644 71.0223 6.74 71.1663 6.792C71.3143 6.844 71.5583 6.87 71.8983 6.87H71.9283C72.1523 6.87 72.5563 6.862 73.1403 6.846C73.7283 6.826 74.2103 6.8 74.5863 6.768C74.5103 6.9 74.4163 7.114 74.3043 7.41C74.1923 7.702 74.1183 7.924 74.0823 8.076C73.6143 8.108 73.1483 8.134 72.6843 8.154C72.2203 8.17 71.8603 8.178 71.6043 8.178ZM79.6674 8.262C80.1234 8.262 80.5154 8.416 80.8434 8.724C81.1714 9.028 81.4214 9.466 81.5934 10.038C81.7654 10.606 81.8514 11.276 81.8514 12.048C81.8514 13.072 81.7174 13.938 81.4494 14.646C81.1814 15.358 80.8214 15.89 80.3694 16.242C79.9174 16.594 79.4174 16.77 78.8694 16.77C78.5414 16.77 78.2254 16.72 77.9214 16.62C77.6214 16.524 77.2694 16.386 76.8654 16.206C76.7294 16.146 76.5934 16.088 76.4574 16.032C76.3214 15.976 76.2034 15.932 76.1034 15.9V15.828C76.8354 15.7 77.6374 15.462 78.5094 15.114C79.3814 14.766 80.1194 14.368 80.7234 13.92C81.3274 13.476 81.6294 13.05 81.6294 12.642C81.6294 12.502 81.6094 12.326 81.5694 12.114C81.5294 11.898 81.4874 11.73 81.4434 11.61H81.3834C81.3514 12.234 81.1694 12.71 80.8374 13.038C80.5094 13.366 80.0234 13.53 79.3794 13.53C78.7754 13.53 78.3214 13.364 78.0174 13.032C77.7134 12.7 77.5614 12.228 77.5614 11.616C77.5614 11 77.6474 10.438 77.8194 9.93C77.9914 9.418 78.2354 9.012 78.5514 8.712C78.8714 8.412 79.2434 8.262 79.6674 8.262ZM81.2874 11.058C81.0954 10.682 80.8354 10.39 80.5074 10.182C80.1794 9.97 79.8034 9.864 79.3794 9.864C79.1074 9.864 78.8534 9.914 78.6174 10.014C78.3854 10.114 78.1994 10.234 78.0594 10.374C77.9194 10.514 77.8494 10.634 77.8494 10.734C77.8494 10.842 77.8994 10.946 77.9994 11.046C78.1034 11.146 78.2734 11.228 78.5094 11.292C78.7494 11.356 79.0634 11.388 79.4514 11.388C79.8034 11.388 80.1274 11.364 80.4234 11.316C80.7194 11.264 81.0074 11.178 81.2874 11.058ZM86.0803 13.5C85.5123 13.5 85.0623 13.414 84.7303 13.242C84.3983 13.07 84.1503 12.78 83.9863 12.372C83.8223 11.964 83.7243 11.394 83.6923 10.662C83.6443 9.462 83.5943 8.528 83.5423 7.86C83.4943 7.192 83.4383 6.672 83.3743 6.3C83.3103 5.928 83.2223 5.516 83.1103 5.064C83.3503 4.824 83.6023 4.53 83.8663 4.182C84.1303 3.83 84.3643 3.494 84.5683 3.174H84.6403C84.6403 3.322 84.6483 3.6 84.6643 4.008C84.6963 4.576 84.7123 5.146 84.7123 5.718C84.7123 6.074 84.7003 6.684 84.6763 7.548C84.6523 8.492 84.6403 9.216 84.6403 9.72C84.6403 10.236 84.7783 10.62 85.0543 10.872C85.3343 11.12 85.7763 11.244 86.3803 11.244L86.0803 13.5ZM89.8589 10.152C89.8589 11.32 89.5329 12.17 88.8809 12.702C88.2329 13.234 87.2689 13.5 85.9889 13.5C85.8849 13.5 85.8089 13.442 85.7609 13.326C85.7129 13.206 85.6889 13.024 85.6889 12.78C85.6889 12.456 85.7169 12.178 85.7729 11.946C85.8289 11.714 85.9029 11.54 85.9949 11.424C86.0869 11.304 86.1849 11.244 86.2889 11.244C87.0289 11.244 87.6509 11.196 88.1549 11.1C88.6589 11 89.0329 10.882 89.2769 10.746C89.5209 10.61 89.6429 10.486 89.6429 10.374C89.6429 10.294 89.4749 10.136 89.1389 9.9C88.8069 9.66 88.3309 9.382 87.7109 9.066C87.0909 8.75 86.3769 8.434 85.5689 8.118C85.6809 7.874 85.8309 7.504 86.0189 7.008C86.2069 6.512 86.3429 6.13 86.4269 5.862L86.4689 5.712C86.5049 5.584 86.5349 5.49 86.5589 5.43C86.5869 5.37 86.6289 5.318 86.6849 5.274C86.7409 5.23 86.8289 5.184 86.9489 5.136L91.9649 3.174L92.0429 3.204C91.8269 3.572 91.6349 3.946 91.4669 4.326C91.3029 4.702 91.1789 5.044 91.0949 5.352L86.4389 6.588V6.666C87.4189 7.098 88.1509 7.486 88.6349 7.83C89.1229 8.17 89.4489 8.514 89.6129 8.862C89.7769 9.21 89.8589 9.64 89.8589 10.152Z" fill="#090909"/>
<path d="M20.8918 27.5H20.5678C20.6398 27.572 20.6758 27.668 20.6758 27.782C20.6758 28.04 20.5318 28.388 20.2558 28.604C19.7698 28.982 18.8218 29.24 18.0118 29.24C16.9378 29.24 16.4638 28.76 16.4638 28.04C16.4638 27.656 16.5658 27.104 16.7878 26.402L17.0218 26.474C16.8718 27.038 16.8058 27.506 16.8058 27.764C16.8058 28.334 17.2678 28.694 18.1258 28.694C19.3378 28.694 20.3878 28.184 20.4118 27.968C20.3878 27.758 20.0878 27.614 18.8218 27.404L19.0138 26.924C19.5778 26.954 19.8658 26.954 20.4658 26.954H20.9878L20.8918 27.5ZM23.0463 25.4C23.1183 25.712 23.2203 26.264 23.2203 26.468C23.2203 26.774 23.0223 27.212 22.7763 27.344C22.5423 27.47 22.0563 27.5 21.4923 27.5H20.8923C20.8623 27.5 20.8323 27.44 20.8323 27.332C20.8323 27.152 20.9043 26.954 20.9883 26.954H21.5883C22.4883 26.954 22.8723 26.888 22.9203 26.78C22.8963 26.552 22.7523 25.994 22.6383 25.652L23.0463 25.4ZM21.3003 28.16C21.3963 28.28 21.6003 28.43 21.7803 28.55L21.4503 28.94C21.2703 28.82 21.0663 28.67 20.9703 28.55L21.3003 28.16ZM22.3803 28.94C22.2003 28.82 21.9963 28.67 21.9003 28.55L22.2303 28.16C22.3263 28.28 22.5303 28.43 22.7103 28.55L22.3803 28.94ZM25.2737 27.5C24.5777 27.5 24.2657 27.134 24.2417 26.288C24.2237 25.652 24.1577 23.546 24.1457 23.03L24.6017 22.88V26.03C24.6017 26.636 24.8297 26.954 25.3697 26.954L25.2737 27.5ZM27.4891 27.5C26.9971 27.5 26.7091 27.326 26.6251 26.876C26.4391 27.314 26.0731 27.5 25.3831 27.5H25.2751C25.2451 27.5 25.2151 27.446 25.2151 27.332C25.2151 27.152 25.2871 26.954 25.3711 26.954H25.4791C26.2351 26.954 26.5291 26.78 26.5411 26.348L26.5531 25.844L26.8651 25.784V26.252C26.8651 26.696 27.0571 26.954 27.5851 26.954L27.4891 27.5ZM25.1791 28.16C25.2751 28.28 25.4791 28.43 25.6591 28.55L25.3291 28.94C25.1491 28.82 24.9451 28.67 24.8491 28.55L25.1791 28.16ZM26.2591 28.94C26.0791 28.82 25.8751 28.67 25.7791 28.55L26.1091 28.16C26.2051 28.28 26.4091 28.43 26.5891 28.55L26.2591 28.94ZM30.9639 27.5C30.6039 27.5 30.2739 27.368 30.1179 27.056C30.0099 27.368 29.8359 27.59 29.6319 27.59C29.2239 27.59 28.6299 27.278 28.4679 26.894C28.1679 27.38 27.8979 27.5 27.4899 27.5C27.4599 27.5 27.4299 27.44 27.4299 27.332C27.4299 27.152 27.5019 26.954 27.5859 26.954C28.0479 26.954 28.2819 26.828 28.5399 26.294C28.8579 25.646 29.2059 25.448 29.6979 25.448C29.9619 25.448 30.0939 25.562 30.1479 25.892C30.2919 26.762 30.5079 26.954 31.0599 26.954L30.9639 27.5ZM28.7079 26.462C28.8999 26.798 29.4879 27.056 29.8419 27.068C29.8779 26.972 29.8839 26.786 29.8479 26.54C29.8299 26.12 29.7759 25.952 29.6079 25.952C29.1759 25.952 28.9059 26.09 28.7439 26.384L28.7079 26.462ZM33.1785 27.5C32.6865 27.5 32.3985 27.326 32.3145 26.876C32.1285 27.314 31.7625 27.5 31.0725 27.5H30.9645C30.9345 27.5 30.9045 27.446 30.9045 27.332C30.9045 27.152 30.9765 26.954 31.0605 26.954H31.1685C31.9245 26.954 32.2185 26.78 32.2305 26.348L32.2425 25.844L32.5545 25.784V26.252C32.5545 26.696 32.7465 26.954 33.2745 26.954L33.1785 27.5ZM30.8685 28.16C30.9645 28.28 31.1685 28.43 31.3485 28.55L31.0185 28.94C30.8385 28.82 30.6345 28.67 30.5385 28.55L30.8685 28.16ZM31.9485 28.94C31.7685 28.82 31.5645 28.67 31.4685 28.55L31.7985 28.16C31.8945 28.28 32.0985 28.43 32.2785 28.55L31.9485 28.94ZM37.1874 25.472C37.2714 25.85 37.3194 26.282 37.3194 26.546C37.3194 27.026 36.9954 27.5 36.7314 27.5C36.2934 27.5 35.9634 27.29 35.8674 26.978C35.6874 27.338 35.4174 27.5 35.0814 27.5C34.7154 27.5 34.4154 27.32 34.3374 26.948C34.1394 27.338 33.7974 27.5 33.1794 27.5C33.1494 27.5 33.1194 27.44 33.1194 27.332C33.1194 27.152 33.1914 26.954 33.2754 26.954C33.9594 26.954 34.2654 26.78 34.3134 26.312L34.3494 25.976L34.6134 25.952V26.354C34.6134 26.714 34.8054 26.954 35.1654 26.954C35.5554 26.954 35.7774 26.72 35.8074 26.396L35.8314 26.06L36.0954 26.036V26.354C36.0954 26.714 36.4134 26.954 36.8574 26.954C36.9354 26.954 36.9954 26.918 37.0134 26.858C36.9954 26.624 36.9054 26.126 36.7794 25.724L37.1874 25.472ZM35.7954 24.38C35.6154 24.26 35.4414 24.11 35.3454 23.99L35.6754 23.6C35.7714 23.72 35.9454 23.87 36.1254 23.99L35.7954 24.38ZM35.2854 24.44C35.3814 24.56 35.5854 24.71 35.7654 24.83L35.4354 25.22C35.2554 25.1 35.0514 24.95 34.9554 24.83L35.2854 24.44ZM36.3654 25.22C36.1854 25.1 35.9814 24.95 35.8854 24.83L36.2154 24.44C36.3114 24.56 36.5154 24.71 36.6954 24.83L36.3654 25.22ZM40.3355 24.746C41.2415 25.598 41.7455 25.76 41.7455 26.306C41.7455 26.57 41.5775 26.972 41.3735 27.14C41.0375 27.422 40.4255 27.62 39.8555 27.62C39.4355 27.62 39.2495 27.404 39.2495 26.966C39.2495 26.876 39.2615 26.636 39.2615 26.552L39.5075 26.534V26.69C39.5075 26.954 39.5975 27.074 39.9695 27.074C40.5695 27.074 41.4035 26.762 41.4875 26.54C41.4635 26.198 40.6955 25.82 40.1015 25.22L40.3355 24.746ZM43.1232 27.476L42.7932 27.542L42.6672 23.03L43.1232 22.88V27.476ZM46.2741 27.5H45.9561C45.8841 27.92 45.6861 28.25 45.3561 28.484C44.9301 28.814 44.0421 29.054 43.1841 29.108C43.0761 29.066 42.9921 28.874 42.8241 28.598C44.7021 28.472 45.6081 28.106 45.7161 27.53V27.494C45.4221 27.512 45.0681 27.53 44.7621 27.53C44.2821 27.53 44.0601 27.284 44.0601 26.906C44.0601 26.144 44.4501 25.46 44.9721 25.46C45.5961 25.46 45.9381 26.222 45.9801 26.954H46.3701L46.2741 27.5ZM44.3121 26.636C44.3121 26.846 44.4921 26.984 44.8521 26.984C45.1221 26.984 45.3741 26.978 45.6621 26.96C45.5481 26.378 45.2601 25.982 44.8881 25.982C44.5641 25.982 44.3121 26.3 44.3121 26.636ZM48.3811 25.334C48.6571 25.334 48.8251 25.472 48.9151 25.748C48.9871 25.976 49.0411 26.324 49.0411 26.63C49.0411 27.056 48.7351 27.5 48.4891 27.5C48.1591 27.5 47.4631 27.29 47.2951 26.864C46.9891 27.374 46.7011 27.5 46.2751 27.5C46.2451 27.5 46.2151 27.44 46.2151 27.332C46.2151 27.152 46.2871 26.954 46.3711 26.954C46.8091 26.954 47.0611 26.828 47.3191 26.3C47.6731 25.568 47.9011 25.334 48.3811 25.334ZM47.5111 26.438C47.6911 26.75 48.2971 26.978 48.7051 26.978C48.7291 26.978 48.7411 26.954 48.7411 26.882C48.7411 26.75 48.6691 26.27 48.5791 26.048C48.5251 25.922 48.4351 25.838 48.2911 25.838C47.9431 25.838 47.7391 25.988 47.5411 26.372C47.5291 26.396 47.5231 26.42 47.5111 26.438ZM52.1381 25.46C52.8041 25.46 53.1521 26.33 53.1521 27.104C53.1521 27.716 52.9481 28.178 52.5221 28.484C52.0961 28.814 51.2081 29.054 50.3501 29.108C50.2421 29.066 50.1581 28.874 49.9901 28.598C51.8681 28.472 52.7741 28.106 52.8821 27.53C52.8821 27.458 52.8821 27.386 52.8761 27.314C52.6061 27.458 52.2761 27.53 51.9281 27.53C51.4481 27.53 51.2261 27.284 51.2261 26.906C51.2261 26.144 51.6161 25.46 52.1381 25.46ZM51.4781 26.636C51.4781 26.846 51.6581 26.984 52.0181 26.984C52.3121 26.984 52.5881 26.942 52.8101 26.87C52.6841 26.336 52.4021 25.982 52.0541 25.982C51.7301 25.982 51.4781 26.3 51.4781 26.636ZM59.5695 27.5H59.2455C59.3175 27.572 59.3535 27.668 59.3535 27.782C59.3535 28.04 59.2095 28.388 58.9335 28.604C58.4475 28.982 57.4995 29.24 56.6895 29.24C55.6155 29.24 55.1415 28.76 55.1415 28.04C55.1415 27.656 55.2435 27.104 55.4655 26.402L55.6995 26.474C55.5495 27.038 55.4835 27.506 55.4835 27.764C55.4835 28.334 55.9455 28.694 56.8035 28.694C58.0155 28.694 59.0655 28.184 59.0895 27.968C59.0655 27.758 58.7655 27.614 57.4995 27.404L57.6915 26.924C58.2555 26.954 58.5435 26.954 59.1435 26.954H59.6655L59.5695 27.5ZM60.794 25.4C60.866 25.712 60.968 26.264 60.968 26.468C60.968 26.774 60.77 27.212 60.524 27.344C60.29 27.47 59.924 27.5 59.57 27.5C59.54 27.5 59.51 27.44 59.51 27.332C59.51 27.152 59.582 26.954 59.666 26.954C60.356 26.954 60.62 26.888 60.668 26.78C60.644 26.552 60.53 26.042 60.386 25.652L60.794 25.4ZM60.584 24.932C60.404 24.824 60.224 24.692 60.074 24.542L60.404 24.122C60.554 24.272 60.734 24.404 60.914 24.512L60.584 24.932ZM64.8618 27.5C64.3758 27.5 64.0698 27.296 63.9018 26.732C63.8778 26.84 63.8478 26.93 63.8238 26.96C63.5418 27.326 62.9118 27.602 62.4018 27.602C62.0058 27.602 61.8198 27.386 61.8198 26.948C61.8198 26.858 61.8318 26.618 61.8318 26.534L62.0778 26.516C62.0778 26.534 62.0778 26.642 62.0778 26.672C62.0778 26.936 62.1678 27.056 62.5158 27.056C62.9418 27.056 63.4518 26.84 63.7758 26.528C63.6978 26.066 63.5238 25.43 63.3018 24.848L63.6618 24.554C63.8178 24.992 63.9378 25.448 64.0818 26.084C64.2318 26.744 64.4658 26.954 64.9578 26.954L64.8618 27.5ZM68.317 27.5C67.567 27.5 67.051 27.404 66.643 27.074C66.085 27.404 65.449 27.5 64.861 27.5C64.831 27.5 64.801 27.44 64.801 27.332C64.801 27.152 64.873 26.954 64.957 26.954C65.449 26.954 65.875 26.906 66.259 26.774C66.049 26.54 65.821 26.234 65.599 25.892C65.515 25.916 65.443 25.94 65.371 25.97L65.359 25.568C65.653 25.382 66.319 25.232 66.859 25.232C67.651 25.232 68.041 25.412 68.041 25.682C68.041 25.784 67.969 26.03 67.933 26.12C67.801 26.288 67.453 26.594 67.159 26.822C67.531 26.924 67.939 26.954 68.413 26.954L68.317 27.5ZM65.983 25.802C66.247 26.174 66.511 26.456 66.751 26.642C67.045 26.462 67.537 26.102 67.717 25.934V25.868C67.513 25.778 67.165 25.724 66.727 25.724C66.535 25.724 66.259 25.754 65.983 25.802ZM70.4241 25.334C70.7001 25.334 70.8681 25.472 70.9581 25.748C71.0301 25.976 71.0841 26.324 71.0841 26.63C71.0841 27.056 70.7781 27.5 70.5321 27.5C70.2021 27.5 69.5061 27.29 69.3381 26.864C69.0321 27.374 68.7441 27.5 68.3181 27.5C68.2881 27.5 68.2581 27.44 68.2581 27.332C68.2581 27.152 68.3301 26.954 68.4141 26.954C68.8521 26.954 69.1041 26.828 69.3621 26.3C69.7161 25.568 69.9441 25.334 70.4241 25.334ZM69.5541 26.438C69.7341 26.75 70.3401 26.978 70.7481 26.978C70.7721 26.978 70.7841 26.954 70.7841 26.882C70.7841 26.75 70.7121 26.27 70.6221 26.048C70.5681 25.922 70.4781 25.838 70.3341 25.838C69.9861 25.838 69.7821 25.988 69.5841 26.372C69.5721 26.396 69.5661 26.42 69.5541 26.438ZM73.6291 24.734C74.4211 25.544 74.9551 25.964 74.9551 26.504C74.9551 26.912 74.7151 27.248 74.4391 27.386C74.2891 27.476 74.0611 27.53 73.8151 27.53C73.3171 27.53 73.0771 27.266 73.0771 26.876C73.0771 26.552 73.2391 26.114 73.6951 25.502C73.5931 25.4 73.4911 25.292 73.3831 25.178L73.6291 24.734ZM73.4071 26.612C73.4071 26.816 73.5751 26.984 73.9291 26.984C74.3011 26.984 74.6491 26.888 74.6971 26.75C74.6791 26.48 74.3491 26.168 73.8691 25.682C73.5451 26.12 73.4071 26.438 73.4071 26.612ZM76.5238 25.7C76.6738 26.3 76.7578 26.786 76.7578 27.008C76.7578 27.56 76.4938 28.142 75.9658 28.49C75.5638 28.784 74.9038 29.024 74.2738 29.096C74.1658 29.054 74.0638 28.838 73.9198 28.616C75.5938 28.4 76.3378 27.842 76.4698 27.362C76.4578 27.104 76.2778 26.444 76.1098 25.958L76.5238 25.7ZM76.3978 24.992C76.2178 24.884 76.0378 24.752 75.8878 24.602L76.2178 24.182C76.3678 24.332 76.5478 24.464 76.7278 24.572L76.3978 24.992ZM79.8718 27.5H79.5538C79.4818 27.92 79.2838 28.25 78.9538 28.484C78.5698 28.79 77.8438 29.048 77.0818 29.108C76.9738 29.066 76.8898 28.856 76.7338 28.61C78.4558 28.436 79.2178 28.058 79.3138 27.53V27.494C79.0198 27.512 78.6658 27.53 78.3598 27.53C77.8798 27.53 77.6578 27.284 77.6578 26.906C77.6578 26.144 78.0478 25.46 78.5698 25.46C79.1938 25.46 79.5358 26.222 79.5778 26.954H79.9678L79.8718 27.5ZM77.9098 26.636C77.9098 26.846 78.0898 26.984 78.4498 26.984C78.7198 26.984 78.9718 26.978 79.2598 26.96C79.1458 26.378 78.8578 25.982 78.4858 25.982C78.1618 25.982 77.9098 26.3 77.9098 26.636ZM81.0428 25.184C81.4688 25.184 82.4408 25.826 83.6648 25.97L83.4728 26.42C83.3888 26.414 83.2328 26.396 83.1428 26.384C82.4288 26.624 81.5828 27.5 79.8727 27.5C79.8427 27.5 79.8127 27.44 79.8127 27.332C79.8127 27.152 79.8847 26.954 79.9688 26.954C81.0368 26.954 81.6848 26.708 82.6808 26.276C81.6908 25.988 81.2228 25.706 80.9228 25.706C80.7908 25.706 80.7128 25.784 80.5268 26.108L80.3408 25.97C80.6348 25.382 80.7788 25.184 81.0428 25.184Z" fill="#090909"/>
</svg>
