<svg width="100" height="32" viewBox="0 0 100 32" fill="none" xmlns="http://www.w3.org/2000/svg">
<path d="M30.5959 7.248C30.8599 7.248 31.1539 7.298 31.4779 7.398C31.8059 7.494 32.2459 7.646 32.7979 7.854C33.4979 8.114 34.0939 8.316 34.5859 8.46C35.0819 8.6 35.5799 8.68 36.0799 8.7V8.772C35.9119 8.924 35.7099 9.178 35.4739 9.534C35.2379 9.886 35.0559 10.214 34.9279 10.518C33.6559 10.786 32.5639 11.098 31.6519 11.454C30.7439 11.806 30.0499 12.188 29.5699 12.6C29.0899 13.012 28.8499 13.436 28.8499 13.872C28.8499 14.264 29.0359 14.626 29.4079 14.958C29.7799 15.29 30.2819 15.552 30.9139 15.744C31.5459 15.94 32.2339 16.038 32.9779 16.038C33.5059 16.038 34.0499 16.02 34.6099 15.984C35.1739 15.952 35.6539 15.9 36.0499 15.828V15.906C35.9179 16.022 35.7659 16.166 35.5939 16.338C35.2419 16.682 34.9179 16.964 34.6219 17.184C34.3299 17.408 33.9559 17.6 33.4999 17.76C33.0479 17.92 32.5159 18 31.9039 18C31.2399 18 30.6539 17.862 30.1459 17.586C29.6419 17.31 29.2499 16.92 28.9699 16.416C28.6939 15.916 28.5559 15.334 28.5559 14.67C28.5559 13.81 28.7119 13.082 29.0239 12.486C29.3399 11.89 29.8459 11.378 30.5419 10.95C31.2379 10.518 32.1759 10.132 33.3559 9.792V9.72C33.2159 9.708 33.0479 9.674 32.8519 9.618C32.6559 9.558 32.3979 9.474 32.0779 9.366C31.6419 9.222 31.2799 9.112 30.9919 9.036C30.7039 8.956 30.4499 8.916 30.2299 8.916C29.9339 8.916 29.6759 8.976 29.4559 9.096C29.2399 9.212 29.0619 9.396 28.9219 9.648H28.8499C29.0139 8.988 29.1819 8.486 29.3539 8.142C29.5299 7.794 29.7139 7.558 29.9059 7.434C30.0979 7.31 30.3279 7.248 30.5959 7.248ZM41.8375 13.5C41.5495 13.5 41.2815 13.422 41.0335 13.266C40.9495 14.01 40.7795 14.644 40.5235 15.168C40.2675 15.696 39.9495 16.094 39.5695 16.362C39.1935 16.634 38.7795 16.77 38.3275 16.77C38.0235 16.77 37.7375 16.72 37.4695 16.62C37.2015 16.524 36.8895 16.386 36.5335 16.206C36.2215 16.05 35.9955 15.948 35.8555 15.9V15.828C36.4835 15.688 37.1455 15.456 37.8415 15.132C38.5375 14.808 39.1575 14.458 39.7015 14.082C40.2455 13.71 40.6155 13.382 40.8115 13.098C40.3315 12.69 39.8675 11.928 39.4195 10.812C39.5275 10.664 39.6595 10.418 39.8155 10.074C39.9755 9.726 40.1095 9.39 40.2175 9.066H40.2895C40.5255 9.878 40.7975 10.444 41.1055 10.764C41.4135 11.084 41.7575 11.244 42.1375 11.244L41.8375 13.5ZM46.5668 7.536C46.9268 7.536 47.2368 7.628 47.4968 7.812C47.7608 7.992 47.9628 8.246 48.1028 8.574C48.2428 8.902 48.3128 9.284 48.3128 9.72C48.3128 10.46 48.1468 11.118 47.8148 11.694C47.4868 12.266 47.0248 12.71 46.4288 13.026C45.8368 13.342 45.1568 13.5 44.3888 13.5H41.8328C41.7288 13.5 41.6528 13.442 41.6048 13.326C41.5568 13.206 41.5328 13.024 41.5328 12.78C41.5328 12.456 41.5608 12.178 41.6168 11.946C41.6728 11.714 41.7468 11.54 41.8388 11.424C41.9308 11.304 42.0288 11.244 42.1328 11.244H42.4628C43.0108 10.472 43.2848 9.542 43.2848 8.454C43.2848 7.958 43.2408 7.374 43.1528 6.702C43.0688 6.03 42.9808 5.484 42.8888 5.064C43.1288 4.824 43.3808 4.528 43.6448 4.176C43.9128 3.824 44.1448 3.49 44.3408 3.174H44.4188C44.4188 3.266 44.4348 3.744 44.4668 4.608C44.5108 5.796 44.5328 6.506 44.5328 6.738C44.5328 7.094 44.4928 7.422 44.4128 7.722C44.3368 8.022 44.1868 8.39 43.9628 8.826C43.7428 9.262 43.3988 9.874 42.9308 10.662H43.0028C43.5068 9.882 43.9548 9.266 44.3468 8.814C44.7428 8.362 45.1168 8.036 45.4688 7.836C45.8208 7.636 46.1868 7.536 46.5668 7.536ZM44.7488 11.244C45.7008 11.244 46.4768 11.188 47.0768 11.076C47.6808 10.964 47.9828 10.802 47.9828 10.59C47.9828 10.45 47.9088 10.276 47.7608 10.068C47.6128 9.856 47.3988 9.672 47.1188 9.516C46.8428 9.36 46.5148 9.282 46.1348 9.282C45.7788 9.282 45.3888 9.366 44.9648 9.534C44.5448 9.702 44.1388 9.936 43.7468 10.236C43.3548 10.536 43.0268 10.872 42.7628 11.244H44.7488ZM61.349 9.936C61.349 10.764 61.173 11.444 60.821 11.976C60.469 12.504 59.889 12.902 59.081 13.17C58.273 13.438 57.187 13.572 55.823 13.572C54.839 13.572 54.041 13.47 53.429 13.266C52.821 13.058 52.377 12.752 52.097 12.348C51.817 11.944 51.677 11.432 51.677 10.812C51.677 10.42 51.711 10.018 51.779 9.606C51.851 9.194 51.987 8.722 52.187 8.19H52.331C52.263 8.438 52.215 8.662 52.187 8.862C52.159 9.062 52.145 9.274 52.145 9.498C52.145 9.846 52.291 10.158 52.583 10.434C52.875 10.706 53.313 10.922 53.897 11.082C54.481 11.238 55.195 11.316 56.039 11.316C57.127 11.316 58.051 11.25 58.811 11.118C59.575 10.986 60.147 10.834 60.527 10.662C60.911 10.49 61.103 10.346 61.103 10.23C61.103 10.158 61.023 10.032 60.863 9.852C60.703 9.668 60.499 9.47 60.251 9.258C60.007 9.046 59.767 8.86 59.531 8.7C59.687 8.496 59.859 8.204 60.047 7.824C60.235 7.44 60.377 7.102 60.473 6.81H60.551L60.659 7.062C60.783 7.342 60.891 7.608 60.983 7.86C61.079 8.112 61.163 8.42 61.235 8.784C61.311 9.144 61.349 9.528 61.349 9.936ZM55.193 9.048C54.849 9.048 54.593 9.006 54.425 8.922C54.261 8.834 54.179 8.682 54.179 8.466C54.179 8.394 54.189 8.316 54.209 8.232C54.233 8.144 54.267 8.034 54.311 7.902C54.387 7.666 54.439 7.466 54.467 7.302H54.539C54.539 7.442 54.611 7.538 54.755 7.59C54.903 7.642 55.147 7.668 55.487 7.668H55.517C55.741 7.668 56.145 7.66 56.729 7.644C57.317 7.624 57.799 7.598 58.175 7.566C58.103 7.694 58.011 7.916 57.899 8.232C57.787 8.544 57.711 8.782 57.671 8.946C57.203 8.978 56.737 9.004 56.273 9.024C55.809 9.04 55.449 9.048 55.193 9.048ZM62.0697 16.77C61.7657 16.77 61.4797 16.72 61.2117 16.62C60.9437 16.524 60.6317 16.386 60.2757 16.206C59.9637 16.05 59.7377 15.948 59.5977 15.9V15.828C60.3177 15.664 61.0717 15.386 61.8597 14.994C62.6517 14.602 63.3137 14.194 63.8457 13.77C64.3817 13.346 64.6497 13.014 64.6497 12.774C64.6497 12.63 64.5017 12.414 64.2057 12.126C63.9097 11.838 63.4637 11.472 62.8677 11.028C63.0237 10.796 63.1937 10.49 63.3777 10.11C63.5657 9.73 63.7117 9.382 63.8157 9.066H63.8877C63.9117 9.126 63.9637 9.236 64.0437 9.396C64.1917 9.692 64.3177 9.968 64.4217 10.224C64.5297 10.48 64.6257 10.78 64.7097 11.124C64.7937 11.468 64.8357 11.824 64.8357 12.192C64.8357 13.156 64.7137 13.982 64.4697 14.67C64.2257 15.362 63.8937 15.884 63.4737 16.236C63.0577 16.592 62.5897 16.77 62.0697 16.77ZM69.0686 13.5C68.5006 13.5 68.0506 13.414 67.7186 13.242C67.3866 13.07 67.1386 12.78 66.9746 12.372C66.8106 11.964 66.7126 11.394 66.6806 10.662C66.6326 9.462 66.5826 8.528 66.5306 7.86C66.4826 7.192 66.4266 6.672 66.3626 6.3C66.2986 5.928 66.2106 5.516 66.0986 5.064C66.3386 4.824 66.5906 4.53 66.8546 4.182C67.1186 3.83 67.3526 3.494 67.5566 3.174H67.6286C67.6286 3.322 67.6366 3.6 67.6526 4.008C67.6846 4.576 67.7006 5.146 67.7006 5.718C67.7006 6.074 67.6886 6.684 67.6646 7.548C67.6406 8.492 67.6286 9.216 67.6286 9.72C67.6286 10.236 67.7666 10.62 68.0426 10.872C68.3226 11.12 68.7646 11.244 69.3686 11.244L69.0686 13.5ZM72.2772 10.446C72.2772 11.45 72.0592 12.21 71.6232 12.726C71.1912 13.242 70.5692 13.5 69.7572 13.5H69.0672C68.9632 13.5 68.8872 13.442 68.8392 13.326C68.7912 13.206 68.7672 13.024 68.7672 12.78C68.7672 12.456 68.7952 12.178 68.8512 11.946C68.9072 11.714 68.9812 11.54 69.0732 11.424C69.1652 11.304 69.2632 11.244 69.3672 11.244H69.9672C70.2592 11.244 70.5672 11.22 70.8912 11.172C71.2152 11.12 71.4852 11.056 71.7012 10.98C71.9212 10.9 72.0312 10.818 72.0312 10.734C72.0312 10.662 71.9512 10.536 71.7912 10.356C71.6312 10.176 71.4272 9.98 71.1792 9.768C70.9352 9.556 70.6952 9.37 70.4592 9.21C70.6152 9.006 70.7872 8.714 70.9752 8.334C71.1632 7.95 71.3052 7.612 71.4012 7.32H71.4792C71.4952 7.372 71.5352 7.464 71.5992 7.596C71.7912 8.028 71.9512 8.468 72.0792 8.916C72.2112 9.364 72.2772 9.874 72.2772 10.446ZM70.0032 18.084C69.8712 17.952 69.6972 17.804 69.4812 17.64C69.2652 17.476 69.0752 17.358 68.9112 17.286V17.208L69.7152 16.194C69.9232 16.294 70.1332 16.432 70.3452 16.608C70.5612 16.788 70.7132 16.94 70.8012 17.064L70.0032 18.084ZM70.9512 14.592C71.2952 14.592 71.5492 14.634 71.7132 14.718C71.8812 14.806 71.9652 14.958 71.9652 15.174C71.9652 15.242 71.9552 15.314 71.9352 15.39C71.9152 15.466 71.8832 15.564 71.8392 15.684C71.7552 15.928 71.7012 16.122 71.6772 16.266H71.6052C71.6052 16.126 71.5312 16.03 71.3832 15.978C71.2392 15.926 70.9972 15.9 70.6572 15.9H70.6272C70.4032 15.9 69.9972 15.908 69.4092 15.924C68.8252 15.944 68.3452 15.97 67.9692 16.002C68.0452 15.87 68.1392 15.656 68.2512 15.36C68.3632 15.068 68.4372 14.846 68.4732 14.694C68.9412 14.662 69.4072 14.636 69.8712 14.616C70.3352 14.6 70.6952 14.592 70.9512 14.592ZM70.8672 14.964L70.9512 14.592L70.8672 14.964Z" fill="#090909"/>
<path d="M17.5246 27.5H17.2006C17.2726 27.572 17.3086 27.668 17.3086 27.782C17.3086 28.04 17.1646 28.388 16.8886 28.604C16.4026 28.982 15.4546 29.24 14.6446 29.24C13.5706 29.24 13.0966 28.76 13.0966 28.04C13.0966 27.656 13.1986 27.104 13.4206 26.402L13.6546 26.474C13.5046 27.038 13.4386 27.506 13.4386 27.764C13.4386 28.334 13.9006 28.694 14.7586 28.694C15.9706 28.694 17.0206 28.184 17.0446 27.968C17.0206 27.758 16.7206 27.614 15.4546 27.404L15.6466 26.924C16.2106 26.954 16.4986 26.954 17.0986 26.954H17.6206L17.5246 27.5ZM21.5331 25.472C21.6171 25.85 21.6651 26.282 21.6651 26.546C21.6651 27.026 21.3411 27.5 21.0771 27.5C20.6391 27.5 20.3091 27.29 20.2131 26.978C20.0331 27.338 19.7631 27.5 19.4271 27.5C19.0611 27.5 18.7611 27.32 18.6831 26.948C18.4851 27.338 18.1431 27.5 17.5251 27.5C17.4951 27.5 17.4651 27.44 17.4651 27.332C17.4651 27.152 17.5371 26.954 17.6211 26.954C18.3051 26.954 18.6111 26.78 18.6591 26.312L18.6951 25.976L18.9591 25.952V26.354C18.9591 26.714 19.1511 26.954 19.5111 26.954C19.9011 26.954 20.1231 26.72 20.1531 26.396L20.1771 26.06L20.4411 26.036V26.354C20.4411 26.714 20.7591 26.954 21.2031 26.954C21.2811 26.954 21.3411 26.918 21.3591 26.858C21.3411 26.624 21.2511 26.126 21.1251 25.724L21.5331 25.472ZM25.5591 27.5C25.0731 27.5 24.7671 27.296 24.5991 26.732C24.5751 26.84 24.5451 26.93 24.5211 26.96C24.2391 27.326 23.6091 27.602 23.0991 27.602C22.7031 27.602 22.5171 27.386 22.5171 26.948C22.5171 26.858 22.5291 26.618 22.5291 26.534L22.7751 26.516C22.7751 26.534 22.7751 26.642 22.7751 26.672C22.7751 26.936 22.8651 27.056 23.2131 27.056C23.6391 27.056 24.1491 26.84 24.4731 26.528C24.3951 26.066 24.2211 25.43 23.9991 24.848L24.3591 24.554C24.5151 24.992 24.6351 25.448 24.7791 26.084C24.9291 26.744 25.1631 26.954 25.6551 26.954L25.5591 27.5ZM27.7723 27.5C27.2803 27.5 26.9923 27.326 26.9083 26.876C26.7223 27.314 26.3563 27.5 25.6663 27.5H25.5583C25.5283 27.5 25.4983 27.446 25.4983 27.332C25.4983 27.152 25.5703 26.954 25.6543 26.954H25.7623C26.5183 26.954 26.8123 26.78 26.8243 26.348L26.8363 25.844L27.1483 25.784V26.252C27.1483 26.696 27.3403 26.954 27.8683 26.954L27.7723 27.5ZM26.7763 25.196C26.5963 25.088 26.4163 24.956 26.2663 24.806L26.5963 24.386C26.7463 24.536 26.9263 24.668 27.1063 24.776L26.7763 25.196ZM30.6771 27.5H30.3531C30.4251 27.608 30.4611 27.734 30.4611 27.884C30.4611 28.094 30.2751 28.448 30.0711 28.58C29.8791 28.694 29.5611 28.778 29.2671 28.778C28.6311 28.778 28.2291 28.388 28.2291 27.566V27.47C28.0671 27.488 27.9111 27.5 27.7731 27.5C27.7431 27.5 27.7131 27.44 27.7131 27.332C27.7131 27.152 27.7851 26.954 27.8691 26.954C27.9831 26.954 28.1691 26.948 28.3071 26.942C28.4571 26.306 28.8351 25.622 29.5011 24.968L29.7411 24.95C29.7891 25.412 29.8611 26.006 29.8611 26.222C29.8611 26.486 29.7471 26.804 29.5491 26.978C29.7471 26.96 29.9151 26.954 30.1251 26.954H30.7731L30.6771 27.5ZM28.4751 27.482C28.5111 27.974 28.8411 28.256 29.3991 28.256C29.8371 28.256 30.1731 28.124 30.2211 28.034C30.2211 27.77 29.9931 27.47 29.3811 27.47C29.1111 27.47 28.7631 27.47 28.4751 27.482ZM28.5411 26.966C29.0931 26.918 29.5071 26.774 29.5551 26.534C29.5491 26.408 29.4771 25.928 29.4171 25.544C28.9971 25.916 28.6731 26.468 28.5411 26.966ZM32.7854 25.334C33.0614 25.334 33.2294 25.472 33.3194 25.748C33.3914 25.976 33.4454 26.324 33.4454 26.63C33.4454 27.056 33.1394 27.5 32.8934 27.5C32.5634 27.5 31.8674 27.29 31.6994 26.864C31.3934 27.374 31.1054 27.5 30.6794 27.5C30.6494 27.5 30.6194 27.44 30.6194 27.332C30.6194 27.152 30.6914 26.954 30.7754 26.954C31.2134 26.954 31.4654 26.828 31.7234 26.3C32.0774 25.568 32.3054 25.334 32.7854 25.334ZM31.9154 26.438C32.0954 26.75 32.7014 26.978 33.1094 26.978C33.1334 26.978 33.1454 26.954 33.1454 26.882C33.1454 26.75 33.0734 26.27 32.9834 26.048C32.9294 25.922 32.8394 25.838 32.6954 25.838C32.3474 25.838 32.1434 25.988 31.9454 26.372C31.9334 26.396 31.9274 26.42 31.9154 26.438ZM35.9904 24.734C36.7824 25.544 37.3164 25.964 37.3164 26.504C37.3164 26.912 37.0764 27.248 36.8004 27.386C36.6504 27.476 36.4224 27.53 36.1764 27.53C35.6784 27.53 35.4384 27.266 35.4384 26.876C35.4384 26.552 35.6004 26.114 36.0564 25.502C35.9544 25.4 35.8524 25.292 35.7444 25.178L35.9904 24.734ZM35.7684 26.612C35.7684 26.816 35.9364 26.984 36.2904 26.984C36.6624 26.984 37.0104 26.888 37.0584 26.75C37.0404 26.48 36.7104 26.168 36.2304 25.682C35.9064 26.12 35.7684 26.438 35.7684 26.612ZM38.8851 25.7C39.0351 26.3 39.1191 26.786 39.1191 27.008C39.1191 27.56 38.8551 28.142 38.3271 28.49C37.9251 28.784 37.2651 29.024 36.6351 29.096C36.5271 29.054 36.4251 28.838 36.2811 28.616C37.9551 28.4 38.6991 27.842 38.8311 27.362C38.8191 27.104 38.6391 26.444 38.4711 25.958L38.8851 25.7ZM40.9311 25.46C41.5971 25.46 41.9451 26.33 41.9451 27.104C41.9451 27.716 41.7411 28.178 41.3151 28.484C40.9311 28.79 40.2051 29.048 39.4431 29.108C39.3351 29.066 39.2511 28.856 39.0951 28.61C40.8171 28.436 41.5791 28.058 41.6751 27.53C41.6751 27.458 41.6751 27.386 41.6691 27.314C41.3991 27.458 41.0691 27.53 40.7211 27.53C40.2411 27.53 40.0191 27.284 40.0191 26.906C40.0191 26.144 40.4091 25.46 40.9311 25.46ZM40.2711 26.636C40.2711 26.846 40.4511 26.984 40.8111 26.984C41.1051 26.984 41.3811 26.942 41.6031 26.87C41.4771 26.336 41.1951 25.982 40.8471 25.982C40.5231 25.982 40.2711 26.3 40.2711 26.636ZM43.9964 27.5C43.3004 27.5 42.9884 27.134 42.9644 26.288C42.9464 25.652 42.8804 23.546 42.8684 23.03L43.3244 22.88V26.03C43.3244 26.636 43.5524 26.954 44.0924 26.954L43.9964 27.5ZM48.7378 27.5C48.2878 27.5 48.0058 27.344 47.9038 27.014C47.7418 27.392 47.5138 27.5 47.3038 27.5C46.9858 27.5 46.7338 27.308 46.6678 27.008C46.4878 27.35 46.2298 27.5 45.8998 27.5C45.5338 27.5 45.2338 27.32 45.1558 26.948C44.9578 27.338 44.6158 27.5 43.9977 27.5C43.9677 27.5 43.9377 27.44 43.9377 27.332C43.9377 27.152 44.0097 26.954 44.0938 26.954C44.7778 26.954 45.0838 26.78 45.1318 26.312L45.1678 25.976L45.4318 25.952V26.354C45.4318 26.714 45.6238 26.954 45.9838 26.954C46.3738 26.954 46.5958 26.72 46.6258 26.396L46.6498 26.06L46.9138 26.036V26.354C46.9138 26.732 47.1058 26.954 47.3997 26.954C47.6278 26.954 47.7778 26.792 47.7898 26.366L47.8018 25.844L48.1138 25.784V26.252C48.1138 26.696 48.3058 26.954 48.8338 26.954L48.7378 27.5ZM46.6738 24.38C46.4938 24.26 46.3198 24.11 46.2238 23.99L46.5538 23.6C46.6498 23.72 46.8238 23.87 47.0038 23.99L46.6738 24.38ZM46.1638 24.44C46.2598 24.56 46.4638 24.71 46.6438 24.83L46.3138 25.22C46.1338 25.1 45.9298 24.95 45.8338 24.83L46.1638 24.44ZM47.2438 25.22C47.0638 25.1 46.8598 24.95 46.7638 24.83L47.0938 24.44C47.1898 24.56 47.3938 24.71 47.5738 24.83L47.2438 25.22ZM50.844 25.334C51.12 25.334 51.288 25.472 51.378 25.748C51.45 25.976 51.504 26.324 51.504 26.63C51.504 27.056 51.198 27.5 50.952 27.5C50.622 27.5 49.926 27.29 49.758 26.864C49.452 27.374 49.164 27.5 48.738 27.5C48.708 27.5 48.678 27.44 48.678 27.332C48.678 27.152 48.75 26.954 48.834 26.954C49.272 26.954 49.524 26.828 49.782 26.3C50.136 25.568 50.364 25.334 50.844 25.334ZM49.974 26.438C50.154 26.75 50.76 26.978 51.168 26.978C51.192 26.978 51.204 26.954 51.204 26.882C51.204 26.75 51.132 26.27 51.042 26.048C50.988 25.922 50.898 25.838 50.754 25.838C50.406 25.838 50.202 25.988 50.004 26.372C49.992 26.396 49.986 26.42 49.974 26.438ZM54.601 25.46C55.267 25.46 55.615 26.33 55.615 27.104C55.615 27.716 55.411 28.178 54.985 28.484C54.559 28.814 53.671 29.054 52.813 29.108C52.705 29.066 52.621 28.874 52.453 28.598C54.331 28.472 55.237 28.106 55.345 27.53C55.345 27.458 55.345 27.386 55.339 27.314C55.069 27.458 54.739 27.53 54.391 27.53C53.911 27.53 53.689 27.284 53.689 26.906C53.689 26.144 54.079 25.46 54.601 25.46ZM53.941 26.636C53.941 26.846 54.121 26.984 54.481 26.984C54.775 26.984 55.051 26.942 55.273 26.87C55.147 26.336 54.865 25.982 54.517 25.982C54.193 25.982 53.941 26.3 53.941 26.636ZM58.1564 24.734C58.9484 25.544 59.4824 25.964 59.4824 26.504C59.4824 26.912 59.2424 27.248 58.9664 27.386C58.8164 27.476 58.5884 27.53 58.3424 27.53C57.8444 27.53 57.6044 27.266 57.6044 26.876C57.6044 26.552 57.7664 26.114 58.2224 25.502C58.1204 25.4 58.0184 25.292 57.9104 25.178L58.1564 24.734ZM57.9344 26.612C57.9344 26.816 58.1024 26.984 58.4564 26.984C58.8284 26.984 59.1764 26.888 59.2244 26.75C59.2064 26.48 58.8764 26.168 58.3964 25.682C58.0724 26.12 57.9344 26.438 57.9344 26.612ZM61.0512 25.7C61.2012 26.3 61.2852 26.786 61.2852 27.008C61.2852 27.56 61.0212 28.142 60.4932 28.49C60.0912 28.784 59.4312 29.024 58.8012 29.096C58.6932 29.054 58.5912 28.838 58.4472 28.616C60.1212 28.4 60.8652 27.842 60.9972 27.362C60.9852 27.104 60.8052 26.444 60.6372 25.958L61.0512 25.7ZM60.8052 24.152C60.6252 24.032 60.4512 23.882 60.3552 23.762L60.6852 23.372C60.7812 23.492 60.9552 23.642 61.1352 23.762L60.8052 24.152ZM60.2952 24.212C60.3912 24.332 60.5952 24.482 60.7752 24.602L60.4452 24.992C60.2652 24.872 60.0612 24.722 59.9652 24.602L60.2952 24.212ZM61.3752 24.992C61.1952 24.872 60.9912 24.722 60.8952 24.602L61.2252 24.212C61.3212 24.332 61.5252 24.482 61.7052 24.602L61.3752 24.992ZM63.0971 25.46C63.7631 25.46 64.1111 26.33 64.1111 27.104C64.1111 27.716 63.9071 28.178 63.4811 28.484C63.0971 28.79 62.3711 29.048 61.6091 29.108C61.5011 29.066 61.4171 28.856 61.2611 28.61C62.9831 28.436 63.7451 28.058 63.8411 27.53C63.8411 27.458 63.8411 27.386 63.8351 27.314C63.5651 27.458 63.2351 27.53 62.8871 27.53C62.4071 27.53 62.1851 27.284 62.1851 26.906C62.1851 26.144 62.5751 25.46 63.0971 25.46ZM62.4371 26.636C62.4371 26.846 62.6171 26.984 62.9771 26.984C63.2711 26.984 63.5471 26.942 63.7691 26.87C63.6431 26.336 63.3611 25.982 63.0131 25.982C62.6891 25.982 62.4371 26.3 62.4371 26.636ZM66.602 27.5C66.338 27.5 66.122 27.44 65.996 27.314C65.942 28.382 65.306 28.91 64.274 29.114C64.19 29.078 64.076 28.856 63.938 28.658C65.138 28.382 65.642 27.974 65.714 27.572C65.702 27.152 65.534 26.468 65.378 25.976L65.78 25.742C65.972 26.732 66.116 26.954 66.698 26.954L66.602 27.5ZM67.8272 25.4C67.8992 25.712 68.0012 26.264 68.0012 26.468C68.0012 26.774 67.8032 27.212 67.5572 27.344C67.3232 27.47 66.9572 27.5 66.6032 27.5C66.5732 27.5 66.5432 27.44 66.5432 27.332C66.5432 27.152 66.6152 26.954 66.6992 26.954C67.3892 26.954 67.6532 26.888 67.7012 26.78C67.6772 26.552 67.5632 26.042 67.4192 25.652L67.8272 25.4ZM66.4952 28.16C66.5912 28.28 66.7952 28.43 66.9752 28.55L66.6452 28.94C66.4652 28.82 66.2612 28.67 66.1652 28.55L66.4952 28.16ZM67.5752 28.94C67.3952 28.82 67.1912 28.67 67.0952 28.55L67.4252 28.16C67.5212 28.28 67.7252 28.43 67.9052 28.55L67.5752 28.94ZM67.1852 29.78C67.0052 29.66 66.8312 29.51 66.7352 29.39L67.0652 29C67.1612 29.12 67.3352 29.27 67.5152 29.39L67.1852 29.78ZM75.1992 27.5C74.6712 27.5 74.3772 27.296 74.3232 26.78C74.2752 26.9 74.2152 26.972 74.1792 26.996C73.9572 27.296 72.9552 27.59 71.6592 27.59C70.4232 27.59 69.9912 27.206 69.9912 26.564C69.9912 26.288 70.0812 25.928 70.2312 25.49L70.4472 25.568C70.3632 25.874 70.3212 26.156 70.3212 26.306C70.3212 26.738 70.6992 27.044 71.7612 27.044C73.2192 27.044 74.1672 26.744 74.2512 26.486L74.2632 25.844L74.5752 25.784V26.252C74.5752 26.696 74.7672 26.954 75.2952 26.954L75.1992 27.5ZM71.7552 24.59C71.8512 24.71 72.0552 24.86 72.2352 24.98L71.9052 25.37C71.7252 25.25 71.5212 25.1 71.4252 24.98L71.7552 24.59ZM72.8352 25.37C72.6552 25.25 72.4512 25.1 72.3552 24.98L72.6852 24.59C72.7812 24.71 72.9852 24.86 73.1652 24.98L72.8352 25.37ZM76.3629 25.4C76.4349 25.712 76.5369 26.264 76.5369 26.468C76.5369 26.774 76.3389 27.212 76.0929 27.344C75.8589 27.47 75.5289 27.5 75.1989 27.5C75.1689 27.5 75.1389 27.44 75.1389 27.332C75.1389 27.152 75.2109 26.954 75.2949 26.954C75.8769 26.954 76.1889 26.888 76.2369 26.78C76.2129 26.552 76.0689 25.994 75.9549 25.652L76.3629 25.4ZM74.5749 28.16C74.6709 28.28 74.8749 28.43 75.0549 28.55L74.7249 28.94C74.5449 28.82 74.3409 28.67 74.2449 28.55L74.5749 28.16ZM75.6549 28.94C75.4749 28.82 75.2709 28.67 75.1749 28.55L75.5049 28.16C75.6009 28.28 75.8049 28.43 75.9849 28.55L75.6549 28.94ZM78.9828 27.5C78.7188 27.5 78.5028 27.44 78.3768 27.314C78.3228 28.382 77.6868 28.91 76.6548 29.114C76.5708 29.078 76.4568 28.856 76.3188 28.658C77.5188 28.382 78.0228 27.974 78.0948 27.572C78.0828 27.152 77.9148 26.468 77.7588 25.976L78.1608 25.742C78.3528 26.732 78.4968 26.954 79.0788 26.954L78.9828 27.5ZM80.2081 25.4C80.2801 25.712 80.3821 26.264 80.3821 26.468C80.3821 26.774 80.1841 27.212 79.9381 27.344C79.7041 27.47 79.3381 27.5 78.9841 27.5C78.9541 27.5 78.9241 27.44 78.9241 27.332C78.9241 27.152 78.9961 26.954 79.0801 26.954C79.7701 26.954 80.0341 26.888 80.0821 26.78C80.0581 26.552 79.9441 26.042 79.8001 25.652L80.2081 25.4ZM78.8761 28.16C78.9721 28.28 79.1761 28.43 79.3561 28.55L79.0261 28.94C78.8461 28.82 78.6421 28.67 78.5461 28.55L78.8761 28.16ZM79.9561 28.94C79.7761 28.82 79.5721 28.67 79.4761 28.55L79.8061 28.16C79.9021 28.28 80.1061 28.43 80.2861 28.55L79.9561 28.94ZM84.2759 27.5C83.7899 27.5 83.4839 27.296 83.3159 26.732C83.2919 26.84 83.2619 26.93 83.2379 26.96C82.9559 27.326 82.3259 27.602 81.8159 27.602C81.4199 27.602 81.2339 27.386 81.2339 26.948C81.2339 26.858 81.2459 26.618 81.2459 26.534L81.4919 26.516C81.4919 26.534 81.4919 26.642 81.4919 26.672C81.4919 26.936 81.5819 27.056 81.9299 27.056C82.3559 27.056 82.8659 26.84 83.1899 26.528C83.1119 26.066 82.9379 25.43 82.7159 24.848L83.0759 24.554C83.2319 24.992 83.3519 25.448 83.4959 26.084C83.6459 26.744 83.8799 26.954 84.3719 26.954L84.2759 27.5ZM86.3811 25.334C86.6571 25.334 86.8251 25.472 86.9151 25.748C86.9871 25.976 87.0411 26.324 87.0411 26.63C87.0411 27.056 86.7351 27.5 86.4891 27.5C86.1591 27.5 85.4631 27.29 85.2951 26.864C84.9891 27.374 84.7011 27.5 84.2751 27.5C84.2451 27.5 84.2151 27.44 84.2151 27.332C84.2151 27.152 84.2871 26.954 84.3711 26.954C84.8091 26.954 85.0611 26.828 85.3191 26.3C85.6731 25.568 85.9011 25.334 86.3811 25.334ZM85.5111 26.438C85.6911 26.75 86.2971 26.978 86.7051 26.978C86.7291 26.978 86.7411 26.954 86.7411 26.882C86.7411 26.75 86.6691 26.27 86.5791 26.048C86.5251 25.922 86.4351 25.838 86.2911 25.838C85.9431 25.838 85.7391 25.988 85.5411 26.372C85.5291 26.396 85.5231 26.42 85.5111 26.438Z" fill="#090909"/>
</svg>
