<svg width="100" height="32" viewBox="0 0 100 32" fill="none" xmlns="http://www.w3.org/2000/svg">
<path d="M27.8711 10.734C27.8711 11.618 27.7231 12.3 27.4271 12.78C27.1351 13.26 26.7011 13.5 26.1251 13.5C25.1891 13.5 24.7211 13.012 24.7211 12.036C24.7211 11.884 24.7291 11.742 24.7451 11.61H24.6671C24.5991 12.238 24.4071 12.71 24.0911 13.026C23.7751 13.342 23.3871 13.5 22.9271 13.5C22.3831 13.5 21.9571 13.328 21.6491 12.984C21.5651 13.812 21.3411 14.514 20.9771 15.09C20.6131 15.67 20.1311 16.108 19.5311 16.404C18.9351 16.7 18.2471 16.848 17.4671 16.848C16.4551 16.848 15.6811 16.57 15.1451 16.014C14.6091 15.458 14.3411 14.668 14.3411 13.644C14.3411 12.56 14.5831 11.494 15.0671 10.446H15.2171C14.9731 11.11 14.8511 11.764 14.8511 12.408C14.8511 12.868 14.9611 13.26 15.1811 13.584C15.4011 13.912 15.7231 14.162 16.1471 14.334C16.5751 14.506 17.0891 14.592 17.6891 14.592C18.4011 14.592 19.0411 14.492 19.6091 14.292C20.1811 14.096 20.6271 13.85 20.9471 13.554C21.2671 13.262 21.4271 12.978 21.4271 12.702C21.4271 12.59 21.3271 12.354 21.1271 11.994C20.9311 11.63 20.6571 11.186 20.3051 10.662C20.4131 10.522 20.5451 10.28 20.7011 9.936C20.8571 9.588 20.9911 9.248 21.1031 8.916H21.1811C21.4491 9.792 21.7511 10.4 22.0871 10.74C22.4271 11.076 22.8031 11.244 23.2151 11.244C23.5871 11.244 23.8851 11.198 24.1091 11.106C24.3371 11.01 24.5171 10.854 24.6491 10.638C24.7851 10.418 24.8891 10.112 24.9611 9.72H25.1051L24.9431 10.932C25.0631 11.028 25.2391 11.104 25.4711 11.16C25.7031 11.216 25.9691 11.244 26.2691 11.244C26.4971 11.244 26.7151 11.226 26.9231 11.19C27.1351 11.15 27.3051 11.102 27.4331 11.046C27.5611 10.986 27.6251 10.932 27.6251 10.884C27.6251 10.804 27.5231 10.668 27.3191 10.476C27.1191 10.284 26.7451 9.982 26.1971 9.57C26.3491 9.342 26.5051 9.062 26.6651 8.73C26.8291 8.394 26.9631 8.068 27.0671 7.752H27.1451L27.2291 7.944C27.3491 8.212 27.4511 8.466 27.5351 8.706C27.6231 8.946 27.7011 9.242 27.7691 9.594C27.8371 9.942 27.8711 10.322 27.8711 10.734ZM27.8027 15.828C28.3987 15.724 29.0507 15.542 29.7587 15.282C30.4667 15.026 31.1207 14.724 31.7207 14.376C32.3247 14.032 32.7727 13.684 33.0647 13.332V13.242C32.7727 13.342 32.4687 13.416 32.1527 13.464C31.8367 13.508 31.4787 13.53 31.0787 13.53C30.4747 13.53 30.0207 13.364 29.7167 13.032C29.4127 12.7 29.2607 12.228 29.2607 11.616C29.2607 11 29.3467 10.438 29.5187 9.93C29.6907 9.418 29.9347 9.012 30.2507 8.712C30.5707 8.412 30.9427 8.262 31.3667 8.262C31.7667 8.262 32.1167 8.382 32.4167 8.622C32.7207 8.858 32.9647 9.2 33.1487 9.648C33.3367 10.092 33.4587 10.624 33.5147 11.244H34.3427L34.0427 13.5H33.4427C33.3267 14.212 33.1287 14.814 32.8487 15.306C32.5687 15.798 32.2327 16.164 31.8407 16.404C31.4487 16.648 31.0247 16.77 30.5687 16.77C30.2407 16.77 29.9247 16.72 29.6207 16.62C29.3207 16.524 28.9687 16.386 28.5647 16.206C28.4287 16.146 28.2927 16.088 28.1567 16.032C28.0207 15.976 27.9027 15.932 27.8027 15.9V15.828ZM31.1507 11.388C31.8987 11.388 32.5527 11.36 33.1127 11.304C32.9327 10.856 32.6667 10.504 32.3147 10.248C31.9667 9.992 31.5547 9.864 31.0787 9.864C30.8067 9.864 30.5527 9.914 30.3167 10.014C30.0847 10.114 29.8987 10.234 29.7587 10.374C29.6187 10.514 29.5487 10.634 29.5487 10.734C29.5487 10.842 29.5987 10.946 29.6987 11.046C29.8027 11.146 29.9727 11.228 30.2087 11.292C30.4487 11.356 30.7627 11.388 31.1507 11.388ZM37.2498 10.446C37.2498 11.45 37.0318 12.21 36.5958 12.726C36.1638 13.242 35.5418 13.5 34.7298 13.5H34.0398C33.9358 13.5 33.8598 13.442 33.8118 13.326C33.7638 13.206 33.7398 13.024 33.7398 12.78C33.7398 12.456 33.7678 12.178 33.8238 11.946C33.8798 11.714 33.9538 11.54 34.0458 11.424C34.1378 11.304 34.2358 11.244 34.3398 11.244H34.9398C35.2318 11.244 35.5398 11.22 35.8638 11.172C36.1878 11.12 36.4578 11.056 36.6738 10.98C36.8938 10.9 37.0038 10.818 37.0038 10.734C37.0038 10.662 36.9238 10.536 36.7638 10.356C36.6038 10.176 36.3998 9.98 36.1518 9.768C35.9078 9.556 35.6678 9.37 35.4318 9.21C35.5878 9.006 35.7598 8.714 35.9478 8.334C36.1358 7.95 36.2778 7.612 36.3738 7.32H36.4518C36.4678 7.372 36.5078 7.464 36.5718 7.596C36.7638 8.028 36.9238 8.468 37.0518 8.916C37.1838 9.364 37.2498 9.874 37.2498 10.446ZM34.6758 6.528C34.3318 6.528 34.0778 6.486 33.9138 6.402C33.7458 6.314 33.6618 6.162 33.6618 5.946C33.6618 5.874 33.6738 5.796 33.6978 5.712C33.7178 5.624 33.7498 5.514 33.7938 5.382C33.8698 5.146 33.9218 4.946 33.9498 4.782H34.0218C34.0218 4.922 34.0958 5.018 34.2438 5.07C34.3878 5.122 34.6298 5.148 34.9698 5.148H34.9998C35.2238 5.148 35.6278 5.14 36.2118 5.124C36.7998 5.104 37.2818 5.078 37.6578 5.046C37.5858 5.174 37.4938 5.396 37.3818 5.712C37.2698 6.024 37.1938 6.262 37.1538 6.426C36.6858 6.458 36.2198 6.484 35.7558 6.504C35.2918 6.52 34.9318 6.528 34.6758 6.528ZM52.4045 13.5C51.9325 13.5 51.5265 13.4 51.1865 13.2C50.8505 12.996 50.5225 12.69 50.2025 12.282C49.8865 11.87 49.4305 11.21 48.8345 10.302H48.7625C48.7065 11.078 48.5445 11.7 48.2765 12.168C48.0085 12.632 47.5565 12.982 46.9205 13.218C46.2845 13.454 45.3945 13.572 44.2505 13.572C43.0185 13.572 42.1045 13.342 41.5085 12.882C40.9125 12.418 40.6145 11.728 40.6145 10.812C40.6145 10.408 40.6485 10.002 40.7165 9.594C40.7845 9.186 40.9205 8.718 41.1245 8.19H41.2685C41.1965 8.43 41.1465 8.648 41.1185 8.844C41.0945 9.036 41.0825 9.254 41.0825 9.498C41.0825 9.838 41.2185 10.146 41.4905 10.422C41.7665 10.698 42.1605 10.916 42.6725 11.076C43.1845 11.236 43.7845 11.316 44.4725 11.316C45.4765 11.316 46.2785 11.27 46.8785 11.178C47.4825 11.086 47.9045 10.984 48.1445 10.872C48.3845 10.756 48.5045 10.662 48.5045 10.59C48.5045 10.354 48.2545 10.042 47.7545 9.654C47.2585 9.266 46.2845 8.754 44.8325 8.118C44.9485 7.866 45.1005 7.492 45.2885 6.996C45.4765 6.5 45.6105 6.122 45.6905 5.862L45.7325 5.718C45.7685 5.586 45.7985 5.49 45.8225 5.43C45.8505 5.366 45.8945 5.312 45.9545 5.268C46.0145 5.22 46.1025 5.176 46.2185 5.136L51.9605 3.174L52.0325 3.204C51.8125 3.576 51.6205 3.952 51.4565 4.332C51.2925 4.712 51.1705 5.052 51.0905 5.352L45.7085 6.588V6.666C46.4925 6.942 47.1645 7.248 47.7245 7.584C48.2885 7.916 48.7765 8.272 49.1885 8.652C49.6045 9.028 50.0685 9.504 50.5805 10.08C50.9485 10.5 51.2925 10.8 51.6125 10.98C51.9325 11.156 52.2965 11.244 52.7045 11.244L52.4045 13.5ZM55.6131 10.446C55.6131 11.45 55.3951 12.21 54.9591 12.726C54.5271 13.242 53.9051 13.5 53.0931 13.5H52.4031C52.2991 13.5 52.2231 13.442 52.1751 13.326C52.1271 13.206 52.1031 13.024 52.1031 12.78C52.1031 12.456 52.1311 12.178 52.1871 11.946C52.2431 11.714 52.3171 11.54 52.4091 11.424C52.5011 11.304 52.5991 11.244 52.7031 11.244H53.3031C53.5951 11.244 53.9031 11.22 54.2271 11.172C54.5511 11.12 54.8211 11.056 55.0371 10.98C55.2571 10.9 55.3671 10.818 55.3671 10.734C55.3671 10.662 55.2871 10.536 55.1271 10.356C54.9671 10.176 54.7631 9.98 54.5151 9.768C54.2711 9.556 54.0311 9.37 53.7951 9.21C53.9511 9.006 54.1231 8.714 54.3111 8.334C54.4991 7.95 54.6411 7.612 54.7371 7.32H54.8151C54.8311 7.372 54.8711 7.464 54.9351 7.596C55.1271 8.028 55.2871 8.468 55.4151 8.916C55.5471 9.364 55.6131 9.874 55.6131 10.446ZM53.0391 6.528C52.6951 6.528 52.4411 6.486 52.2771 6.402C52.1091 6.314 52.0251 6.162 52.0251 5.946C52.0251 5.874 52.0371 5.796 52.0611 5.712C52.0811 5.624 52.1131 5.514 52.1571 5.382C52.2331 5.146 52.2851 4.946 52.3131 4.782H52.3851C52.3851 4.922 52.4591 5.018 52.6071 5.07C52.7511 5.122 52.9931 5.148 53.3331 5.148H53.3631C53.5871 5.148 53.9911 5.14 54.5751 5.124C55.1631 5.104 55.6451 5.078 56.0211 5.046C55.9491 5.174 55.8571 5.396 55.7451 5.712C55.6331 6.024 55.5571 6.262 55.5171 6.426C55.0491 6.458 54.5831 6.484 54.1191 6.504C53.6551 6.52 53.2951 6.528 53.0391 6.528ZM59.1167 8.262C59.5727 8.262 59.9647 8.416 60.2927 8.724C60.6207 9.028 60.8707 9.466 61.0427 10.038C61.2147 10.606 61.3007 11.276 61.3007 12.048C61.3007 13.072 61.1667 13.938 60.8987 14.646C60.6307 15.358 60.2707 15.89 59.8187 16.242C59.3667 16.594 58.8667 16.77 58.3187 16.77C57.9907 16.77 57.6747 16.72 57.3707 16.62C57.0707 16.524 56.7187 16.386 56.3147 16.206C56.1787 16.146 56.0427 16.088 55.9067 16.032C55.7707 15.976 55.6527 15.932 55.5527 15.9V15.828C56.2847 15.7 57.0867 15.462 57.9587 15.114C58.8307 14.766 59.5687 14.368 60.1727 13.92C60.7767 13.476 61.0787 13.05 61.0787 12.642C61.0787 12.502 61.0587 12.326 61.0187 12.114C60.9787 11.898 60.9367 11.73 60.8927 11.61H60.8327C60.8007 12.234 60.6187 12.71 60.2867 13.038C59.9587 13.366 59.4727 13.53 58.8287 13.53C58.2247 13.53 57.7707 13.364 57.4667 13.032C57.1627 12.7 57.0107 12.228 57.0107 11.616C57.0107 11 57.0967 10.438 57.2687 9.93C57.4407 9.418 57.6847 9.012 58.0007 8.712C58.3207 8.412 58.6927 8.262 59.1167 8.262ZM60.7367 11.058C60.5447 10.682 60.2847 10.39 59.9567 10.182C59.6287 9.97 59.2527 9.864 58.8287 9.864C58.5567 9.864 58.3027 9.914 58.0667 10.014C57.8347 10.114 57.6487 10.234 57.5087 10.374C57.3687 10.514 57.2987 10.634 57.2987 10.734C57.2987 10.842 57.3487 10.946 57.4487 11.046C57.5527 11.146 57.7227 11.228 57.9587 11.292C58.1987 11.356 58.5127 11.388 58.9007 11.388C59.2527 11.388 59.5767 11.364 59.8727 11.316C60.1687 11.264 60.4567 11.178 60.7367 11.058ZM62.9603 16.77C62.6563 16.77 62.3703 16.72 62.1023 16.62C61.8343 16.524 61.5223 16.386 61.1663 16.206C60.8543 16.05 60.6283 15.948 60.4883 15.9V15.828C61.2083 15.664 61.9623 15.386 62.7503 14.994C63.5423 14.602 64.2043 14.194 64.7363 13.77C65.2723 13.346 65.5403 13.014 65.5403 12.774C65.5403 12.63 65.3923 12.414 65.0963 12.126C64.8003 11.838 64.3543 11.472 63.7583 11.028C63.9143 10.796 64.0843 10.49 64.2683 10.11C64.4563 9.73 64.6023 9.382 64.7063 9.066H64.7783C64.8023 9.126 64.8543 9.236 64.9343 9.396C65.0823 9.692 65.2083 9.968 65.3123 10.224C65.4203 10.48 65.5163 10.78 65.6003 11.124C65.6843 11.468 65.7263 11.824 65.7263 12.192C65.7263 13.156 65.6043 13.982 65.3603 14.67C65.1163 15.362 64.7843 15.884 64.3643 16.236C63.9483 16.592 63.4803 16.77 62.9603 16.77ZM73.7992 13.5C72.4792 13.5 71.6892 12.53 71.4292 10.59H71.3572C71.2852 11.582 71.0412 12.328 70.6252 12.828C70.2092 13.324 69.6052 13.572 68.8132 13.572C68.2652 13.572 67.8492 13.426 67.5652 13.134C67.2812 12.842 67.1392 12.406 67.1392 11.826C67.1392 11.63 67.1512 11.408 67.1752 11.16C67.2032 10.912 67.2392 10.614 67.2832 10.266H67.3972C67.3972 10.55 67.4432 10.766 67.5352 10.914C67.6312 11.062 67.7892 11.166 68.0092 11.226C68.2292 11.286 68.5452 11.316 68.9572 11.316C69.3612 11.316 69.7292 11.28 70.0612 11.208C70.3972 11.136 70.6612 11.04 70.8532 10.92C71.0452 10.796 71.1412 10.662 71.1412 10.518C71.1412 10.434 71.0992 10.234 71.0152 9.918C70.9312 9.598 70.8172 9.24 70.6732 8.844C70.5292 8.448 70.3692 8.084 70.1932 7.752C70.3412 7.572 70.5512 7.238 70.8232 6.75C71.0952 6.258 71.2492 5.938 71.2852 5.79H71.3572C71.4092 6.058 71.4852 6.396 71.5852 6.804C71.6892 7.212 71.8172 7.702 71.9692 8.274L72.3052 9.57C72.4092 9.982 72.5412 10.312 72.7012 10.56C72.8652 10.804 73.0592 10.98 73.2832 11.088C73.5112 11.192 73.7832 11.244 74.0992 11.244L73.7992 13.5ZM78.7636 13.5C78.2316 13.5 77.7956 13.35 77.4556 13.05C77.1156 12.746 76.9456 12.23 76.9456 11.502C76.9456 11.302 76.9556 11.12 76.9756 10.956H76.8976C76.8896 11.56 76.7776 12.048 76.5616 12.42C76.3496 12.792 76.0316 13.066 75.6076 13.242C75.1836 13.414 74.6416 13.5 73.9816 13.5H73.8016C73.6976 13.5 73.6216 13.442 73.5736 13.326C73.5256 13.206 73.5016 13.024 73.5016 12.78C73.5016 12.456 73.5296 12.178 73.5856 11.946C73.6416 11.714 73.7156 11.54 73.8076 11.424C73.8996 11.304 73.9976 11.244 74.1016 11.244H74.2816C75.0616 11.244 75.6396 11.192 76.0156 11.088C76.3916 10.984 76.6616 10.8 76.8256 10.536C76.9936 10.268 77.1296 9.85 77.2336 9.282H77.3776V10.008C77.3776 10.4 77.5116 10.704 77.7796 10.92C78.0516 11.136 78.4996 11.244 79.1236 11.244L78.7636 13.5ZM75.8056 14.592C76.1496 14.592 76.4036 14.634 76.5676 14.718C76.7356 14.806 76.8196 14.958 76.8196 15.174C76.8196 15.246 76.8076 15.324 76.7836 15.408C76.7636 15.496 76.7316 15.606 76.6876 15.738C76.6116 15.974 76.5596 16.174 76.5316 16.338H76.4596C76.4596 16.198 76.3856 16.102 76.2376 16.05C76.0936 15.998 75.8516 15.972 75.5116 15.972H75.4816C75.2576 15.972 74.8516 15.98 74.2636 15.996C73.6796 16.016 73.1996 16.042 72.8236 16.074C72.8956 15.946 72.9876 15.724 73.0996 15.408C73.2116 15.096 73.2876 14.858 73.3276 14.694C73.7956 14.662 74.2616 14.636 74.7256 14.616C75.1896 14.6 75.5496 14.592 75.8056 14.592ZM75.5416 15.834L75.8056 14.592L75.5416 15.834ZM81.4209 8.988C81.1849 8.988 80.9709 9.03 80.7789 9.114C80.5909 9.198 80.4429 9.308 80.3349 9.444C80.2309 9.576 80.1789 9.716 80.1789 9.864C80.1789 10.1 80.3209 10.322 80.6049 10.53C80.8889 10.734 81.2669 10.912 81.7389 11.064C82.2069 10.896 82.5369 10.744 82.7289 10.608C82.9209 10.472 83.0169 10.346 83.0169 10.23C83.0169 10.042 82.9349 9.852 82.7709 9.66C82.6069 9.464 82.3989 9.304 82.1469 9.18C81.8989 9.052 81.6569 8.988 81.4209 8.988ZM85.7829 10.734C85.7829 11.298 85.6709 11.842 85.4469 12.366C85.2229 12.89 84.9229 13.34 84.5469 13.716C84.3829 13.62 84.0389 13.494 83.5149 13.338C82.9949 13.178 82.2909 12.978 81.4029 12.738C81.1509 12.978 80.8049 13.166 80.3649 13.302C79.9289 13.434 79.4169 13.5 78.8289 13.5C78.7249 13.5 78.6489 13.442 78.6009 13.326C78.5529 13.206 78.5289 13.024 78.5289 12.78C78.5289 12.456 78.5569 12.178 78.6129 11.946C78.6689 11.714 78.7429 11.54 78.8349 11.424C78.9269 11.304 79.0249 11.244 79.1289 11.244H79.8909C79.8429 11.088 79.8189 10.894 79.8189 10.662C79.8189 10.254 79.8989 9.85 80.0589 9.45C80.2189 9.046 80.4249 8.698 80.6769 8.406C80.3369 8.246 80.1229 8.15 80.0349 8.118C80.1389 7.878 80.2269 7.586 80.2989 7.242C80.3709 6.894 80.4149 6.58 80.4309 6.3H80.5029C80.6829 6.452 80.9229 6.614 81.2229 6.786C81.5229 6.954 81.9829 7.204 82.6029 7.536L83.1609 7.83C83.8529 8.198 84.3849 8.526 84.7569 8.814C85.1329 9.102 85.3969 9.396 85.5489 9.696C85.7049 9.992 85.7829 10.338 85.7829 10.734ZM82.8129 11.334C84.0769 11.642 84.8729 11.88 85.2009 12.048C85.2529 11.972 85.3009 11.874 85.3449 11.754C85.3929 11.63 85.4169 11.534 85.4169 11.466C85.4169 11.294 85.3509 11.128 85.2189 10.968C85.0909 10.808 84.8729 10.628 84.5649 10.428C84.2609 10.224 83.8189 9.964 83.2389 9.648C83.2389 9.96 83.2029 10.26 83.1309 10.548C83.0629 10.836 82.9569 11.098 82.8129 11.334Z" fill="#090909"/>
<path d="M16.5117 25.286C16.5837 25.598 16.6857 26.15 16.6857 26.354C16.6857 26.642 16.4817 27.032 16.2897 27.14C15.7977 27.428 14.5917 27.59 13.7217 27.59C12.4857 27.59 12.0537 27.206 12.0537 26.564C12.0537 26.288 12.1437 25.928 12.2937 25.49L12.5097 25.568C12.4257 25.874 12.3837 26.156 12.3837 26.306C12.3837 26.738 12.7617 27.044 13.8237 27.044C15.0957 27.044 16.2177 26.822 16.3917 26.618C16.3617 26.438 16.2177 25.88 16.1037 25.538L16.5117 25.286ZM14.3157 29C14.1357 28.892 13.9557 28.76 13.8057 28.61L14.1357 28.19C14.2857 28.34 14.4657 28.472 14.6457 28.58L14.3157 29ZM17.3741 23.24C17.9141 24.344 18.6341 25.55 18.7661 26.414C19.2461 26.042 19.4441 25.556 19.4381 24.866C19.4321 24.386 19.4081 23.42 19.3961 23.048L19.8221 22.88V25.79C19.8221 26.6 20.0621 26.954 20.5841 26.954L20.4881 27.5C19.8701 27.5 19.4921 27.182 19.4681 26.066V25.724C19.3961 26.078 19.3061 26.3 19.1861 26.492C18.8441 27.02 18.1841 27.404 17.4881 27.584C17.4221 27.548 17.2961 27.35 17.1281 27.14C17.6861 26.984 18.1301 26.816 18.4661 26.618C18.2801 25.784 17.5721 24.626 17.0441 23.618L17.3741 23.24ZM24.1559 25.19C24.6839 25.19 25.2119 25.802 25.2119 26.324C25.2119 26.66 24.9839 27.068 24.6899 27.212C24.2759 27.41 23.5739 27.5 23.0039 27.5C22.2419 27.5 21.7799 27.266 21.7019 26.846C21.4619 27.368 21.0899 27.5 20.4899 27.5C20.4599 27.5 20.4299 27.44 20.4299 27.332C20.4299 27.152 20.5019 26.954 20.5859 26.954C21.2699 26.954 21.5759 26.78 21.6239 26.312L21.6599 25.976L21.9239 25.952V26.252C21.9239 26.48 22.0259 26.654 22.2299 26.774C23.0699 25.748 23.6399 25.19 24.1559 25.19ZM24.1919 24.512C24.0119 24.404 23.8319 24.272 23.6819 24.122L24.0119 23.702C24.1619 23.852 24.3419 23.984 24.5219 24.092L24.1919 24.512ZM22.4639 26.876C22.6439 26.924 22.8659 26.954 23.1359 26.954C23.9879 26.954 24.8399 26.78 24.9239 26.6C24.9239 26.288 24.4679 25.712 23.9999 25.712C23.6159 25.712 23.1659 26.096 22.4639 26.876ZM27.262 27.5C26.566 27.5 26.254 27.134 26.23 26.288C26.212 25.652 26.146 23.546 26.134 23.03L26.59 22.88V26.03C26.59 26.636 26.818 26.954 27.358 26.954L27.262 27.5ZM28.6074 24.446C29.2374 24.446 29.5794 25.208 29.5794 26.228C29.5794 26.654 29.3934 27.128 29.0934 27.272C28.8114 27.422 28.2714 27.5 27.6054 27.5H27.2634C27.2334 27.5 27.2034 27.44 27.2034 27.332C27.2034 27.152 27.2754 26.954 27.3594 26.954H27.7554C28.3854 26.954 28.9794 26.9 29.2374 26.756C29.2854 26.732 29.3094 26.672 29.3094 26.564C29.3094 26.45 29.3034 26.348 29.2974 26.246C29.0514 26.348 28.7154 26.414 28.3974 26.414C27.9354 26.414 27.7074 26.168 27.7074 25.82C27.7074 25.106 28.0854 24.446 28.6074 24.446ZM28.6794 23.852C28.4994 23.744 28.3194 23.612 28.1694 23.462L28.4994 23.042C28.6494 23.192 28.8294 23.324 29.0094 23.432L28.6794 23.852ZM27.9594 25.574C27.9594 25.772 28.1634 25.91 28.4634 25.91C28.7454 25.91 28.9914 25.88 29.2374 25.814C29.1114 25.262 28.8474 24.938 28.5054 24.938C28.1994 24.938 27.9594 25.238 27.9594 25.574ZM32.6752 25.46C33.3412 25.46 33.6892 26.33 33.6892 27.104C33.6892 27.716 33.4852 28.178 33.0592 28.484C32.6332 28.814 31.7452 29.054 30.8872 29.108C30.7792 29.066 30.6952 28.874 30.5272 28.598C32.4052 28.472 33.3112 28.106 33.4192 27.53C33.4192 27.458 33.4192 27.386 33.4132 27.314C33.1432 27.458 32.8132 27.53 32.4652 27.53C31.9852 27.53 31.7632 27.284 31.7632 26.906C31.7632 26.144 32.1532 25.46 32.6752 25.46ZM32.0152 26.636C32.0152 26.846 32.1952 26.984 32.5552 26.984C32.8492 26.984 33.1252 26.942 33.3472 26.87C33.2212 26.336 32.9392 25.982 32.5912 25.982C32.2672 25.982 32.0152 26.3 32.0152 26.636ZM40.1367 25.286C40.2087 25.598 40.3107 26.15 40.3107 26.354C40.3107 26.642 40.1067 27.032 39.9147 27.14C39.4227 27.428 38.2167 27.59 37.3467 27.59C36.1107 27.59 35.6787 27.206 35.6787 26.564C35.6787 26.288 35.7687 25.928 35.9187 25.49L36.1347 25.568C36.0507 25.874 36.0087 26.156 36.0087 26.306C36.0087 26.738 36.3867 27.044 37.4487 27.044C38.7207 27.044 39.8427 26.822 40.0167 26.618C39.9867 26.438 39.8427 25.88 39.7287 25.538L40.1367 25.286ZM37.9407 29C37.7607 28.892 37.5807 28.76 37.4307 28.61L37.7607 28.19C37.9107 28.34 38.0907 28.472 38.2707 28.58L37.9407 29ZM41.6776 27.476L41.3476 27.542L41.2336 23.75L41.6776 23.6V27.476ZM42.4696 22.79C42.2056 22.952 41.7736 23.024 41.4796 23.024C41.1496 23.024 40.8916 22.964 40.6996 22.868L40.5136 23.33L40.3036 23.156L40.5316 22.712C40.6216 22.532 40.6876 22.442 40.7956 22.442C40.9336 22.442 41.0896 22.574 41.5816 22.574C41.8696 22.574 42.2416 22.532 42.4876 22.43L42.4696 22.79ZM43.952 27.56L43.706 27.344L45.986 23.18L46.304 23.48L43.952 27.56ZM50.1978 27.5C49.7118 27.5 49.4058 27.296 49.2378 26.732C49.2138 26.84 49.1838 26.93 49.1598 26.96C48.8778 27.326 48.2478 27.602 47.7378 27.602C47.3418 27.602 47.1558 27.386 47.1558 26.948C47.1558 26.858 47.1678 26.618 47.1678 26.534L47.4138 26.516C47.4138 26.534 47.4138 26.642 47.4138 26.672C47.4138 26.936 47.5038 27.056 47.8518 27.056C48.2778 27.056 48.7878 26.84 49.1118 26.528C49.0338 26.066 48.8598 25.43 48.6378 24.848L48.9978 24.554C49.1538 24.992 49.2738 25.448 49.4178 26.084C49.5678 26.744 49.8018 26.954 50.2938 26.954L50.1978 27.5ZM52.411 27.5C51.919 27.5 51.631 27.326 51.547 26.876C51.361 27.314 50.995 27.5 50.305 27.5H50.197C50.167 27.5 50.137 27.446 50.137 27.332C50.137 27.152 50.209 26.954 50.293 26.954H50.401C51.157 26.954 51.451 26.78 51.463 26.348L51.475 25.844L51.787 25.784V26.252C51.787 26.696 51.979 26.954 52.507 26.954L52.411 27.5ZM51.415 25.196C51.235 25.088 51.055 24.956 50.905 24.806L51.235 24.386C51.385 24.536 51.565 24.668 51.745 24.776L51.415 25.196ZM55.8858 27.5C55.5258 27.5 55.1958 27.368 55.0398 27.056C54.9318 27.368 54.7578 27.59 54.5538 27.59C54.1458 27.59 53.5518 27.278 53.3898 26.894C53.0898 27.38 52.8198 27.5 52.4118 27.5C52.3818 27.5 52.3518 27.44 52.3518 27.332C52.3518 27.152 52.4238 26.954 52.5078 26.954C52.9698 26.954 53.2038 26.828 53.4618 26.294C53.7798 25.646 54.1278 25.448 54.6198 25.448C54.8838 25.448 55.0158 25.562 55.0698 25.892C55.2138 26.762 55.4298 26.954 55.9818 26.954L55.8858 27.5ZM53.6298 26.462C53.8218 26.798 54.4098 27.056 54.7638 27.068C54.7998 26.972 54.8058 26.786 54.7698 26.54C54.7518 26.12 54.6978 25.952 54.5298 25.952C54.0978 25.952 53.8278 26.09 53.6658 26.384L53.6298 26.462ZM59.8944 25.472C59.9784 25.85 60.0264 26.282 60.0264 26.546C60.0264 27.026 59.7024 27.5 59.4384 27.5C59.0004 27.5 58.6704 27.29 58.5744 26.978C58.3944 27.338 58.1244 27.5 57.7884 27.5C57.4224 27.5 57.1224 27.32 57.0444 26.948C56.8464 27.338 56.5044 27.5 55.8864 27.5C55.8564 27.5 55.8264 27.44 55.8264 27.332C55.8264 27.152 55.8984 26.954 55.9824 26.954C56.6664 26.954 56.9724 26.78 57.0204 26.312L57.0564 25.976L57.3204 25.952V26.354C57.3204 26.714 57.5124 26.954 57.8724 26.954C58.2624 26.954 58.4844 26.72 58.5144 26.396L58.5384 26.06L58.8024 26.036V26.354C58.8024 26.714 59.1204 26.954 59.5644 26.954C59.6424 26.954 59.7024 26.918 59.7204 26.858C59.7024 26.624 59.6124 26.126 59.4864 25.724L59.8944 25.472ZM58.5024 24.38C58.3224 24.26 58.1484 24.11 58.0524 23.99L58.3824 23.6C58.4784 23.72 58.6524 23.87 58.8324 23.99L58.5024 24.38ZM57.9924 24.44C58.0884 24.56 58.2924 24.71 58.4724 24.83L58.1424 25.22C57.9624 25.1 57.7584 24.95 57.6624 24.83L57.9924 24.44ZM59.0724 25.22C58.8924 25.1 58.6884 24.95 58.5924 24.83L58.9224 24.44C59.0184 24.56 59.2224 24.71 59.4024 24.83L59.0724 25.22ZM63.1393 27.5H62.8213C62.7493 27.92 62.5513 28.25 62.2213 28.484C61.7953 28.814 60.9073 29.054 60.0493 29.108C59.9413 29.066 59.8573 28.874 59.6893 28.598C61.5673 28.472 62.4733 28.106 62.5813 27.53V27.494C62.2873 27.512 61.9333 27.53 61.6273 27.53C61.1473 27.53 60.9253 27.284 60.9253 26.906C60.9253 26.144 61.3153 25.46 61.8373 25.46C62.4613 25.46 62.8033 26.222 62.8453 26.954H63.2353L63.1393 27.5ZM61.1773 26.636C61.1773 26.846 61.3573 26.984 61.7173 26.984C61.9873 26.984 62.2393 26.978 62.5273 26.96C62.4133 26.378 62.1253 25.982 61.7533 25.982C61.4293 25.982 61.1773 26.3 61.1773 26.636ZM64.1303 24.554C65.2823 25.538 66.6023 25.814 66.6023 26.606C66.6023 27.062 66.2543 27.59 65.9123 27.59C65.5823 27.59 64.8383 27.44 64.4063 27.284C64.0583 27.422 63.6263 27.5 63.1403 27.5C63.1103 27.5 63.0803 27.44 63.0803 27.332C63.0803 27.152 63.1523 26.954 63.2363 26.954C63.4103 26.954 63.5663 26.948 63.7103 26.936C63.6383 26.828 63.6023 26.702 63.6023 26.57C63.6023 26.12 63.9083 25.562 64.2683 25.292C64.1543 25.208 64.0403 25.124 63.9323 25.028L64.1303 24.554ZM63.8663 26.306C63.8663 26.522 64.0703 26.696 64.4483 26.816C64.8323 26.702 65.0423 26.534 65.0963 26.366C65.0723 25.952 64.8323 25.58 64.5563 25.58C64.2143 25.58 63.8663 26.12 63.8663 26.306ZM65.0003 26.912C65.4443 27.02 65.8883 27.098 66.1463 27.098C66.2423 27.074 66.3023 26.948 66.3023 26.81C66.3023 26.522 65.8943 26.276 65.3603 25.97C65.3663 26.006 65.3663 26.036 65.3663 26.066C65.3663 26.396 65.2343 26.684 65.0003 26.912ZM71.3028 27.5C70.7628 27.5 70.4388 27.308 70.3008 26.72C70.1328 26.834 69.6348 26.918 69.2568 26.918C68.7828 26.918 68.5908 26.732 68.5908 26.504C68.5908 26.24 68.8128 25.85 69.0768 25.61C69.3408 25.37 69.7008 25.136 70.0848 24.89C70.0608 24.728 70.0428 24.584 70.0308 24.488L70.4328 24.302C70.4808 24.776 70.5468 25.67 70.5888 26.078C70.6488 26.678 70.8288 26.954 71.3988 26.954L71.3028 27.5ZM68.8908 26.204C68.9028 26.324 69.1068 26.384 69.4248 26.384C69.6528 26.384 69.9708 26.342 70.2348 26.294C70.2108 26.072 70.1748 25.676 70.1328 25.298C69.2568 25.826 68.9028 26.096 68.8908 26.204ZM72.5264 25.4C72.5984 25.712 72.7004 26.264 72.7004 26.468C72.7004 26.774 72.5024 27.212 72.2564 27.344C72.0224 27.47 71.6564 27.5 71.3024 27.5C71.2724 27.5 71.2424 27.44 71.2424 27.332C71.2424 27.152 71.3144 26.954 71.3984 26.954C72.0884 26.954 72.3524 26.888 72.4004 26.78C72.3764 26.552 72.2624 26.042 72.1184 25.652L72.5264 25.4ZM72.3164 24.932C72.1364 24.824 71.9564 24.692 71.8064 24.542L72.1364 24.122C72.2864 24.272 72.4664 24.404 72.6464 24.512L72.3164 24.932ZM74.7523 27.5C74.0563 27.5 73.7443 27.134 73.7203 26.288C73.7023 25.652 73.6363 23.546 73.6243 23.03L74.0803 22.88V26.03C74.0803 26.636 74.3083 26.954 74.8483 26.954L74.7523 27.5ZM75.9236 25.184C76.3496 25.184 77.3216 25.826 78.5456 25.97L78.3536 26.42C78.2696 26.414 78.1136 26.396 78.0236 26.384C77.3096 26.624 76.4636 27.5 74.7536 27.5C74.7236 27.5 74.6936 27.44 74.6936 27.332C74.6936 27.152 74.7656 26.954 74.8496 26.954C75.9176 26.954 76.5656 26.708 77.5616 26.276C76.5716 25.988 76.1036 25.706 75.8036 25.706C75.6716 25.706 75.5936 25.784 75.4076 26.108L75.2216 25.97C75.5156 25.382 75.6596 25.184 75.9236 25.184ZM76.1996 24.41C76.0196 24.302 75.8396 24.17 75.6896 24.02L76.0196 23.6C76.1696 23.75 76.3496 23.882 76.5296 23.99L76.1996 24.41ZM82.02 27.5C81.534 27.5 81.228 27.296 81.06 26.732C81.036 26.84 81.006 26.93 80.982 26.96C80.7 27.326 80.07 27.602 79.56 27.602C79.164 27.602 78.978 27.386 78.978 26.948C78.978 26.858 78.99 26.618 78.99 26.534L79.236 26.516C79.236 26.534 79.236 26.642 79.236 26.672C79.236 26.936 79.326 27.056 79.674 27.056C80.1 27.056 80.61 26.84 80.934 26.528C80.856 26.066 80.682 25.43 80.46 24.848L80.82 24.554C80.976 24.992 81.096 25.448 81.24 26.084C81.39 26.744 81.624 26.954 82.116 26.954L82.02 27.5ZM85.6852 25.19C86.2132 25.19 86.7412 25.802 86.7412 26.324C86.7412 26.66 86.5132 27.068 86.2192 27.212C85.8052 27.41 85.1032 27.5 84.5332 27.5C83.7712 27.5 83.3092 27.266 83.2312 26.846C82.9912 27.368 82.6192 27.5 82.0192 27.5C81.9892 27.5 81.9592 27.44 81.9592 27.332C81.9592 27.152 82.0312 26.954 82.1152 26.954C82.7992 26.954 83.1052 26.78 83.1532 26.312L83.1892 25.976L83.4532 25.952V26.252C83.4532 26.48 83.5552 26.654 83.7592 26.774C84.5992 25.748 85.1692 25.19 85.6852 25.19ZM83.9932 26.876C84.1732 26.924 84.3952 26.954 84.6652 26.954C85.5172 26.954 86.3692 26.78 86.4532 26.6C86.4532 26.288 85.9972 25.712 85.5292 25.712C85.1452 25.712 84.6952 26.096 83.9932 26.876ZM88.309 25.7C88.459 26.3 88.543 26.786 88.543 27.008C88.543 27.56 88.279 28.142 87.751 28.49C87.349 28.784 86.689 29.024 86.059 29.096C85.951 29.054 85.849 28.838 85.705 28.616C87.379 28.4 88.123 27.842 88.255 27.362C88.243 27.104 88.063 26.444 87.895 25.958L88.309 25.7Z" fill="#090909"/>
</svg>
