<svg width="100" height="32" viewBox="0 0 100 32" fill="none" xmlns="http://www.w3.org/2000/svg">
<path d="M29.0797 13.5C28.7917 13.5 28.5237 13.422 28.2757 13.266C28.1917 14.01 28.0217 14.644 27.7657 15.168C27.5097 15.696 27.1917 16.094 26.8117 16.362C26.4357 16.634 26.0217 16.77 25.5697 16.77C25.2657 16.77 24.9797 16.72 24.7117 16.62C24.4437 16.524 24.1317 16.386 23.7757 16.206C23.4637 16.05 23.2377 15.948 23.0977 15.9V15.828C23.7257 15.688 24.3877 15.456 25.0837 15.132C25.7797 14.808 26.3997 14.458 26.9437 14.082C27.4877 13.71 27.8577 13.382 28.0537 13.098C27.5737 12.69 27.1097 11.928 26.6617 10.812C26.7697 10.664 26.9017 10.418 27.0577 10.074C27.2177 9.726 27.3517 9.39 27.4597 9.066H27.5317C27.7677 9.878 28.0397 10.444 28.3477 10.764C28.6557 11.084 28.9997 11.244 29.3797 11.244L29.0797 13.5ZM34.931 13.5C34.399 13.5 33.963 13.35 33.623 13.05C33.283 12.746 33.113 12.23 33.113 11.502C33.113 11.302 33.123 11.12 33.143 10.956H33.065C33.057 11.568 32.939 12.06 32.711 12.432C32.487 12.8 32.135 13.07 31.655 13.242C31.179 13.414 30.549 13.5 29.765 13.5H29.075C28.971 13.5 28.895 13.442 28.847 13.326C28.799 13.206 28.775 13.024 28.775 12.78C28.775 12.456 28.803 12.178 28.859 11.946C28.915 11.714 28.989 11.54 29.081 11.424C29.173 11.304 29.271 11.244 29.375 11.244H29.975C30.907 11.244 31.593 11.192 32.033 11.088C32.473 10.984 32.785 10.8 32.969 10.536C33.153 10.272 33.297 9.854 33.401 9.282H33.545V10.008C33.545 10.396 33.675 10.7 33.935 10.92C34.199 11.136 34.631 11.244 35.231 11.244L34.931 13.5ZM32.009 14.472C32.353 14.472 32.607 14.514 32.771 14.598C32.939 14.686 33.023 14.838 33.023 15.054C33.023 15.126 33.011 15.204 32.987 15.288C32.967 15.376 32.935 15.486 32.891 15.618C32.815 15.854 32.763 16.054 32.735 16.218H32.663C32.663 16.078 32.589 15.982 32.441 15.93C32.297 15.878 32.055 15.852 31.715 15.852H31.685C31.461 15.852 31.055 15.86 30.467 15.876C29.883 15.896 29.403 15.922 29.027 15.954C29.099 15.826 29.191 15.604 29.303 15.288C29.415 14.976 29.491 14.738 29.531 14.574C29.999 14.542 30.465 14.516 30.929 14.496C31.393 14.48 31.753 14.472 32.009 14.472ZM31.745 15.714L32.009 14.472L31.745 15.714ZM38.1444 10.446C38.1444 11.45 37.9264 12.21 37.4904 12.726C37.0584 13.242 36.4364 13.5 35.6244 13.5H34.9344C34.8304 13.5 34.7544 13.442 34.7064 13.326C34.6584 13.206 34.6344 13.024 34.6344 12.78C34.6344 12.456 34.6624 12.178 34.7184 11.946C34.7744 11.714 34.8484 11.54 34.9404 11.424C35.0324 11.304 35.1304 11.244 35.2344 11.244H35.8344C36.1264 11.244 36.4344 11.22 36.7584 11.172C37.0824 11.12 37.3524 11.056 37.5684 10.98C37.7884 10.9 37.8984 10.818 37.8984 10.734C37.8984 10.662 37.8184 10.536 37.6584 10.356C37.4984 10.176 37.2944 9.98 37.0464 9.768C36.8024 9.556 36.5624 9.37 36.3264 9.21C36.4824 9.006 36.6544 8.714 36.8424 8.334C37.0304 7.95 37.1724 7.612 37.2684 7.32H37.3464C37.3624 7.372 37.4024 7.464 37.4664 7.596C37.6584 8.028 37.8184 8.468 37.9464 8.916C38.0784 9.364 38.1444 9.874 38.1444 10.446ZM35.9064 16.632C35.7704 16.472 35.5864 16.292 35.3544 16.092C35.1224 15.896 34.9184 15.76 34.7424 15.684V15.612L35.6904 14.448C35.9104 14.556 36.1424 14.718 36.3864 14.934C36.6344 15.154 36.8144 15.356 36.9264 15.54L35.9064 16.632ZM46.2172 13.5C44.8972 13.5 44.1072 12.53 43.8472 10.59H43.7752C43.7032 11.582 43.4592 12.328 43.0432 12.828C42.6272 13.324 42.0232 13.572 41.2312 13.572C40.6832 13.572 40.2672 13.426 39.9832 13.134C39.6992 12.842 39.5572 12.406 39.5572 11.826C39.5572 11.63 39.5692 11.408 39.5932 11.16C39.6212 10.912 39.6572 10.614 39.7012 10.266H39.8152C39.8152 10.55 39.8612 10.766 39.9532 10.914C40.0492 11.062 40.2072 11.166 40.4272 11.226C40.6472 11.286 40.9632 11.316 41.3752 11.316C41.7792 11.316 42.1472 11.28 42.4792 11.208C42.8152 11.136 43.0792 11.04 43.2712 10.92C43.4632 10.796 43.5592 10.662 43.5592 10.518C43.5592 10.434 43.5172 10.234 43.4332 9.918C43.3492 9.598 43.2352 9.24 43.0912 8.844C42.9472 8.448 42.7872 8.084 42.6112 7.752C42.7592 7.572 42.9692 7.238 43.2412 6.75C43.5132 6.258 43.6672 5.938 43.7032 5.79H43.7752C43.8272 6.058 43.9032 6.396 44.0032 6.804C44.1072 7.212 44.2352 7.702 44.3872 8.274L44.7232 9.57C44.8272 9.982 44.9592 10.312 45.1192 10.56C45.2832 10.804 45.4772 10.98 45.7012 11.088C45.9292 11.192 46.2012 11.244 46.5172 11.244L46.2172 13.5ZM49.4295 10.446C49.4295 11.45 49.2115 12.21 48.7755 12.726C48.3435 13.242 47.7215 13.5 46.9095 13.5H46.2195C46.1155 13.5 46.0395 13.442 45.9915 13.326C45.9435 13.206 45.9195 13.024 45.9195 12.78C45.9195 12.456 45.9475 12.178 46.0035 11.946C46.0595 11.714 46.1335 11.54 46.2255 11.424C46.3175 11.304 46.4155 11.244 46.5195 11.244H47.1195C47.4115 11.244 47.7195 11.22 48.0435 11.172C48.3675 11.12 48.6375 11.056 48.8535 10.98C49.0735 10.9 49.1835 10.818 49.1835 10.734C49.1835 10.662 49.1035 10.536 48.9435 10.356C48.7835 10.176 48.5795 9.98 48.3315 9.768C48.0875 9.556 47.8475 9.37 47.6115 9.21C47.7675 9.006 47.9395 8.714 48.1275 8.334C48.3155 7.95 48.4575 7.612 48.5535 7.32H48.6315C48.6475 7.372 48.6875 7.464 48.7515 7.596C48.9435 8.028 49.1035 8.468 49.2315 8.916C49.3635 9.364 49.4295 9.874 49.4295 10.446ZM46.8555 6.528C46.5115 6.528 46.2575 6.486 46.0935 6.402C45.9255 6.314 45.8415 6.162 45.8415 5.946C45.8415 5.874 45.8535 5.796 45.8775 5.712C45.8975 5.624 45.9295 5.514 45.9735 5.382C46.0495 5.146 46.1015 4.946 46.1295 4.782H46.2015C46.2015 4.922 46.2755 5.018 46.4235 5.07C46.5675 5.122 46.8095 5.148 47.1495 5.148H47.1795C47.4035 5.148 47.8075 5.14 48.3915 5.124C48.9795 5.104 49.4615 5.078 49.8375 5.046C49.7655 5.174 49.6735 5.396 49.5615 5.712C49.4495 6.024 49.3735 6.262 49.3335 6.426C48.8655 6.458 48.3995 6.484 47.9355 6.504C47.4715 6.52 47.1115 6.528 46.8555 6.528ZM56.9042 10.446C56.9042 11.506 56.7062 12.292 56.3102 12.804C55.9142 13.316 55.3002 13.572 54.4682 13.572C53.9282 13.572 53.5142 13.428 53.2262 13.14C52.9382 12.852 52.7942 12.462 52.7942 11.97C52.7942 11.514 52.8742 11.028 53.0342 10.512C53.1942 9.996 53.4402 9.438 53.7722 8.838L53.4482 8.7C53.5562 8.488 53.6842 8.176 53.8322 7.764C53.9802 7.352 54.0802 7.034 54.1322 6.81H54.2042C54.2642 6.866 54.3482 6.93 54.4562 7.002C54.5642 7.07 54.6782 7.14 54.7982 7.212C55.2022 7.452 55.5462 7.69 55.8302 7.926C56.1182 8.162 56.3682 8.49 56.5802 8.91C56.7962 9.326 56.9042 9.838 56.9042 10.446ZM53.3762 10.59C53.3762 10.718 53.4262 10.838 53.5262 10.95C53.6302 11.058 53.7862 11.146 53.9942 11.214C54.2022 11.282 54.4562 11.316 54.7562 11.316C55.1402 11.316 55.4782 11.284 55.7702 11.22C56.0662 11.152 56.2922 11.072 56.4482 10.98C56.6082 10.888 56.6882 10.806 56.6882 10.734C56.6882 10.558 56.4622 10.314 56.0102 10.002C55.5582 9.69 54.8882 9.336 54.0002 8.94C53.7882 9.32 53.6302 9.642 53.5262 9.906C53.4262 10.17 53.3762 10.398 53.3762 10.59ZM64.9789 13.5C63.6589 13.5 62.8689 12.53 62.6089 10.59H62.5369C62.4649 11.582 62.2209 12.328 61.8049 12.828C61.3889 13.324 60.7849 13.572 59.9929 13.572C59.4449 13.572 59.0289 13.426 58.7449 13.134C58.4609 12.842 58.3189 12.406 58.3189 11.826C58.3189 11.63 58.3309 11.408 58.3549 11.16C58.3829 10.912 58.4189 10.614 58.4629 10.266H58.5769C58.5769 10.55 58.6229 10.766 58.7149 10.914C58.8109 11.062 58.9689 11.166 59.1889 11.226C59.4089 11.286 59.7249 11.316 60.1369 11.316C60.5409 11.316 60.9089 11.28 61.2409 11.208C61.5769 11.136 61.8409 11.04 62.0329 10.92C62.2249 10.796 62.3209 10.662 62.3209 10.518C62.3209 10.434 62.2789 10.234 62.1949 9.918C62.1109 9.598 61.9969 9.24 61.8529 8.844C61.7089 8.448 61.5489 8.084 61.3729 7.752C61.5209 7.572 61.7309 7.238 62.0029 6.75C62.2749 6.258 62.4289 5.938 62.4649 5.79H62.5369C62.5889 6.058 62.6649 6.396 62.7649 6.804C62.8689 7.212 62.9969 7.702 63.1489 8.274L63.4849 9.57C63.5889 9.982 63.7209 10.312 63.8809 10.56C64.0449 10.804 64.2389 10.98 64.4629 11.088C64.6909 11.192 64.9629 11.244 65.2789 11.244L64.9789 13.5ZM69.9433 13.5C69.4113 13.5 68.9753 13.35 68.6353 13.05C68.2953 12.746 68.1253 12.23 68.1253 11.502C68.1253 11.302 68.1353 11.12 68.1553 10.956H68.0773C68.0693 11.56 67.9573 12.048 67.7413 12.42C67.5293 12.792 67.2113 13.066 66.7873 13.242C66.3633 13.414 65.8213 13.5 65.1612 13.5H64.9812C64.8772 13.5 64.8012 13.442 64.7532 13.326C64.7052 13.206 64.6812 13.024 64.6812 12.78C64.6812 12.456 64.7092 12.178 64.7652 11.946C64.8212 11.714 64.8952 11.54 64.9872 11.424C65.0792 11.304 65.1772 11.244 65.2812 11.244H65.4613C66.2413 11.244 66.8193 11.192 67.1953 11.088C67.5713 10.984 67.8413 10.8 68.0053 10.536C68.1733 10.268 68.3093 9.85 68.4133 9.282H68.5573V10.008C68.5573 10.4 68.6913 10.704 68.9593 10.92C69.2313 11.136 69.6793 11.244 70.3033 11.244L69.9433 13.5ZM67.4533 8.322C67.3413 8.17 67.1633 7.994 66.9193 7.794C66.6753 7.594 66.4653 7.456 66.2893 7.38V7.302L67.2373 6.138C67.4573 6.246 67.6893 6.41 67.9333 6.63C68.1813 6.846 68.3613 7.046 68.4733 7.23L67.4533 8.322ZM73.2186 10.446C73.2186 11.45 73.0006 12.21 72.5646 12.726C72.1326 13.242 71.5106 13.5 70.6986 13.5H70.0086C69.9046 13.5 69.8286 13.442 69.7806 13.326C69.7326 13.206 69.7086 13.024 69.7086 12.78C69.7086 12.456 69.7366 12.178 69.7926 11.946C69.8486 11.714 69.9226 11.54 70.0146 11.424C70.1066 11.304 70.2046 11.244 70.3086 11.244H70.9086C71.2006 11.244 71.5086 11.22 71.8326 11.172C72.1566 11.12 72.4266 11.056 72.6426 10.98C72.8626 10.9 72.9726 10.818 72.9726 10.734C72.9726 10.662 72.8926 10.536 72.7326 10.356C72.5726 10.176 72.3686 9.98 72.1206 9.768C71.8766 9.556 71.6366 9.37 71.4006 9.21C71.5566 9.006 71.7286 8.714 71.9166 8.334C72.1046 7.95 72.2466 7.612 72.3426 7.32H72.4206C72.4366 7.372 72.4766 7.464 72.5406 7.596C72.7326 8.028 72.8926 8.468 73.0206 8.916C73.1526 9.364 73.2186 9.874 73.2186 10.446ZM71.8926 14.592C72.2366 14.592 72.4906 14.634 72.6546 14.718C72.8226 14.806 72.9066 14.958 72.9066 15.174C72.9066 15.246 72.8946 15.324 72.8706 15.408C72.8506 15.496 72.8186 15.606 72.7746 15.738C72.6986 15.974 72.6466 16.174 72.6186 16.338H72.5466C72.5466 16.198 72.4726 16.102 72.3246 16.05C72.1806 15.998 71.9386 15.972 71.5986 15.972H71.5686C71.3446 15.972 70.9386 15.98 70.3506 15.996C69.7666 16.016 69.2866 16.042 68.9106 16.074C68.9826 15.946 69.0746 15.724 69.1866 15.408C69.2986 15.096 69.3746 14.858 69.4146 14.694C69.8826 14.662 70.3486 14.636 70.8126 14.616C71.2766 14.6 71.6366 14.592 71.8926 14.592ZM71.6286 15.834L71.8926 14.592L71.6286 15.834ZM75.9814 3.9C75.9814 4.064 75.9954 4.434 76.0234 5.01C76.0554 5.67 76.0794 6.266 76.0954 6.798C76.1154 7.33 76.1254 7.892 76.1254 8.484C76.1254 9.376 76.1034 10.082 76.0594 10.602C76.0154 11.118 75.9574 11.518 75.8854 11.802C75.8174 12.082 75.7134 12.412 75.5734 12.792C75.4334 13.164 75.3274 13.472 75.2554 13.716H75.1774C75.1814 13.636 75.1834 13.506 75.1834 13.326C75.1834 12.682 75.1394 11.83 75.0514 10.77C74.9674 9.706 74.8694 8.688 74.7574 7.716C74.6454 6.74 74.5534 6.088 74.4814 5.76C74.7174 5.524 74.9634 5.238 75.2194 4.902C75.4754 4.562 75.7054 4.228 75.9094 3.9H75.9814ZM78.1894 0.774C77.9574 1.498 77.6174 2.068 77.1694 2.484C76.7214 2.896 76.1634 3.102 75.4954 3.102C75.1314 3.102 74.8114 3.058 74.5354 2.97C74.2594 2.878 73.9714 2.758 73.6714 2.61C73.5834 2.566 73.5014 2.528 73.4254 2.496C73.3494 2.464 73.2894 2.448 73.2454 2.448C73.1654 2.448 73.0814 2.486 72.9934 2.562C72.9014 2.638 72.7474 2.786 72.5314 3.006L72.1534 3.39V3.318C72.4894 2.798 72.7614 2.396 72.9694 2.112C73.1734 1.828 73.3494 1.62 73.4974 1.488C73.6454 1.352 73.7794 1.284 73.8994 1.284C73.9634 1.284 74.0334 1.298 74.1094 1.326C74.1894 1.354 74.2914 1.396 74.4154 1.452C74.6754 1.56 74.9054 1.644 75.1054 1.704C75.3054 1.764 75.5334 1.794 75.7894 1.794C76.1454 1.794 76.4554 1.764 76.7194 1.704C76.9834 1.644 77.2274 1.54 77.4514 1.392C77.6794 1.244 77.9014 1.038 78.1174 0.774H78.1894Z" fill="#090909"/>
<path d="M25.7492 27.5H25.4252C25.4972 27.572 25.5332 27.668 25.5332 27.782C25.5332 28.04 25.3892 28.388 25.1132 28.604C24.6272 28.982 23.6792 29.24 22.8692 29.24C21.7952 29.24 21.3212 28.76 21.3212 28.04C21.3212 27.656 21.4232 27.104 21.6452 26.402L21.8792 26.474C21.7292 27.038 21.6632 27.506 21.6632 27.764C21.6632 28.334 22.1252 28.694 22.9832 28.694C24.1952 28.694 25.2452 28.184 25.2692 27.968C25.2452 27.758 24.9452 27.614 23.6792 27.404L23.8712 26.924C24.4352 26.954 24.7232 26.954 25.3232 26.954H25.8452L25.7492 27.5ZM26.9017 26.384C26.9017 26.744 26.6917 27.188 26.4877 27.326C26.2837 27.47 25.9957 27.5 25.7497 27.5C25.7197 27.5 25.6897 27.44 25.6897 27.332C25.6897 27.152 25.7617 26.954 25.8457 26.954C26.1877 26.954 26.5297 26.906 26.5897 26.726L26.4457 23.03L26.9017 22.88V26.384ZM28.9886 27.5C28.2926 27.5 27.9806 27.134 27.9566 26.288C27.9386 25.652 27.8726 23.546 27.8606 23.03L28.3166 22.88V26.03C28.3166 26.636 28.5446 26.954 29.0846 26.954L28.9886 27.5ZM31.0959 25.334C31.3719 25.334 31.5399 25.472 31.6299 25.748C31.7019 25.976 31.7559 26.324 31.7559 26.63C31.7559 27.056 31.4499 27.5 31.2039 27.5C30.8739 27.5 30.1779 27.29 30.0099 26.864C29.7039 27.374 29.4159 27.5 28.9899 27.5C28.9599 27.5 28.9299 27.44 28.9299 27.332C28.9299 27.152 29.0019 26.954 29.0859 26.954C29.5239 26.954 29.7759 26.828 30.0339 26.3C30.3879 25.568 30.6159 25.334 31.0959 25.334ZM30.2259 26.438C30.4059 26.75 31.0119 26.978 31.4199 26.978C31.4439 26.978 31.4559 26.954 31.4559 26.882C31.4559 26.75 31.3839 26.27 31.2939 26.048C31.2399 25.922 31.1499 25.838 31.0059 25.838C30.6579 25.838 30.4539 25.988 30.2559 26.372C30.2439 26.396 30.2379 26.42 30.2259 26.438ZM35.309 25.7C35.459 26.3 35.543 26.786 35.543 27.008C35.543 27.56 35.279 28.142 34.751 28.49C34.349 28.784 33.689 29.024 33.059 29.096C32.951 29.054 32.849 28.838 32.705 28.616C34.379 28.4 35.123 27.842 35.255 27.362C35.243 27.104 35.063 26.444 34.895 25.958L35.309 25.7ZM38.6569 27.5H38.3389C38.2669 27.92 38.0689 28.25 37.7389 28.484C37.3549 28.79 36.6289 29.048 35.8669 29.108C35.7589 29.066 35.6749 28.856 35.5189 28.61C37.2409 28.436 38.0029 28.058 38.0989 27.53V27.494C37.8049 27.512 37.4509 27.53 37.1449 27.53C36.6649 27.53 36.4429 27.284 36.4429 26.906C36.4429 26.144 36.8329 25.46 37.3549 25.46C37.9789 25.46 38.3209 26.222 38.3629 26.954H38.7529L38.6569 27.5ZM36.6949 26.636C36.6949 26.846 36.8749 26.984 37.2349 26.984C37.5049 26.984 37.7569 26.978 38.0449 26.96C37.9309 26.378 37.6429 25.982 37.2709 25.982C36.9469 25.982 36.6949 26.3 36.6949 26.636ZM40.7639 25.334C41.0399 25.334 41.2079 25.472 41.2979 25.748C41.3699 25.976 41.4239 26.324 41.4239 26.63C41.4239 27.056 41.1179 27.5 40.8719 27.5C40.5419 27.5 39.8459 27.29 39.6779 26.864C39.3719 27.374 39.0839 27.5 38.6579 27.5C38.6279 27.5 38.5979 27.44 38.5979 27.332C38.5979 27.152 38.6699 26.954 38.7539 26.954C39.1919 26.954 39.4439 26.828 39.7019 26.3C40.0559 25.568 40.2839 25.334 40.7639 25.334ZM39.8939 26.438C40.0739 26.75 40.6799 26.978 41.0879 26.978C41.1119 26.978 41.1239 26.954 41.1239 26.882C41.1239 26.75 41.0519 26.27 40.9619 26.048C40.9079 25.922 40.8179 25.838 40.6739 25.838C40.3259 25.838 40.1219 25.988 39.9239 26.372C39.9119 26.396 39.9059 26.42 39.8939 26.438ZM42.8068 27.476L42.4768 27.542L42.3508 23.03L42.8068 22.88V27.476ZM45.9389 25.46C46.6049 25.46 46.9529 26.33 46.9529 27.104C46.9529 27.716 46.7489 28.178 46.3229 28.484C45.8969 28.814 45.0089 29.054 44.1509 29.108C44.0429 29.066 43.9589 28.874 43.7909 28.598C45.6689 28.472 46.5749 28.106 46.6829 27.53C46.6829 27.458 46.6829 27.386 46.6769 27.314C46.4069 27.458 46.0769 27.53 45.7289 27.53C45.2489 27.53 45.0269 27.284 45.0269 26.906C45.0269 26.144 45.4169 25.46 45.9389 25.46ZM45.2789 26.636C45.2789 26.846 45.4589 26.984 45.8189 26.984C46.1129 26.984 46.3889 26.942 46.6109 26.87C46.4849 26.336 46.2029 25.982 45.8549 25.982C45.5309 25.982 45.2789 26.3 45.2789 26.636ZM53.0883 25.238C52.9383 25.082 52.8063 25.004 52.6683 25.004C52.2303 25.004 51.5223 25.808 51.5223 26.126C51.5223 26.246 51.6483 26.342 52.0143 26.408L52.7523 26.546C53.0523 26.6 53.1663 26.786 53.1663 27.002C53.1663 27.266 53.0223 27.656 52.7463 27.884C52.2123 28.328 51.2823 28.58 50.4903 28.58C49.4163 28.58 48.9423 28.1 48.9423 27.38C48.9423 26.996 49.0443 26.444 49.2663 25.742L49.5003 25.814C49.3503 26.378 49.2843 26.846 49.2843 27.104C49.2843 27.674 49.7463 28.034 50.6043 28.034C51.8643 28.034 52.8843 27.434 52.8963 27.248C52.8903 27.2 52.8363 27.146 52.5363 27.092L51.8283 26.96C51.3903 26.876 51.2403 26.684 51.2403 26.396C51.2403 25.604 52.1463 24.482 52.7823 24.482C53.0163 24.482 53.2143 24.632 53.3703 24.902L53.0883 25.238ZM54.9379 25.7C55.0879 26.3 55.1719 26.822 55.1719 27.152C55.1719 28.328 54.5299 28.898 53.4439 29.114C53.3599 29.078 53.2459 28.856 53.1079 28.658C54.3079 28.382 54.8119 27.974 54.8839 27.572C54.8719 27.188 54.7039 26.468 54.5239 25.958L54.9379 25.7ZM56.5529 27.476L56.2229 27.542L56.0969 23.03L56.5529 22.88V27.476ZM60.4849 27.5C59.9989 27.5 59.6929 27.296 59.5249 26.732C59.5009 26.84 59.4709 26.93 59.4469 26.96C59.1649 27.326 58.5349 27.602 58.0249 27.602C57.6289 27.602 57.4429 27.386 57.4429 26.948C57.4429 26.858 57.4549 26.618 57.4549 26.534L57.7009 26.516C57.7009 26.534 57.7009 26.642 57.7009 26.672C57.7009 26.936 57.7909 27.056 58.1389 27.056C58.5649 27.056 59.0749 26.84 59.3989 26.528C59.3209 26.066 59.1469 25.43 58.9249 24.848L59.2849 24.554C59.4409 24.992 59.5609 25.448 59.7049 26.084C59.8549 26.744 60.0889 26.954 60.5809 26.954L60.4849 27.5ZM59.0929 24.068C58.9129 23.96 58.7329 23.828 58.5829 23.678L58.9129 23.258C59.0629 23.408 59.2429 23.54 59.4229 23.648L59.0929 24.068ZM63.0581 22.778L61.2221 23.648L61.2041 23.33L63.0281 22.46L63.0581 22.778ZM61.1201 24.572C61.9481 25.61 62.2181 26 62.2181 26.396C62.2181 26.714 62.0081 27.122 61.7801 27.266C61.5041 27.44 60.9221 27.5 60.4841 27.5C60.4541 27.5 60.4241 27.44 60.4241 27.332C60.4241 27.152 60.4961 26.954 60.5801 26.954C61.3541 26.954 61.8401 26.846 61.9541 26.684C61.9301 26.36 61.6601 25.97 60.8261 24.914L61.0061 24.176L63.6461 22.958L63.6401 23.456L61.1201 24.572ZM66.2793 27.5C65.7393 27.5 65.4153 27.308 65.2773 26.72C65.1093 26.834 64.6113 26.918 64.2333 26.918C63.7593 26.918 63.5673 26.732 63.5673 26.504C63.5673 26.24 63.7893 25.85 64.0533 25.61C64.3173 25.37 64.6773 25.136 65.0613 24.89C65.0373 24.728 65.0193 24.584 65.0073 24.488L65.4093 24.302C65.4573 24.776 65.5233 25.67 65.5653 26.078C65.6253 26.678 65.8053 26.954 66.3753 26.954L66.2793 27.5ZM63.8673 26.204C63.8793 26.324 64.0833 26.384 64.4013 26.384C64.6293 26.384 64.9473 26.342 65.2113 26.294C65.1873 26.072 65.1513 25.676 65.1093 25.298C64.2333 25.826 63.8793 26.096 63.8673 26.204ZM67.503 25.4C67.575 25.712 67.677 26.264 67.677 26.468C67.677 26.774 67.479 27.212 67.233 27.344C66.999 27.47 66.633 27.5 66.279 27.5C66.249 27.5 66.219 27.44 66.219 27.332C66.219 27.152 66.291 26.954 66.375 26.954C67.065 26.954 67.329 26.888 67.377 26.78C67.353 26.552 67.239 26.042 67.095 25.652L67.503 25.4ZM66.171 28.16C66.267 28.28 66.471 28.43 66.651 28.55L66.321 28.94C66.141 28.82 65.937 28.67 65.841 28.55L66.171 28.16ZM67.251 28.94C67.071 28.82 66.867 28.67 66.771 28.55L67.101 28.16C67.197 28.28 67.401 28.43 67.581 28.55L67.251 28.94ZM69.7288 27.5C69.0328 27.5 68.7208 27.134 68.6968 26.288C68.6788 25.652 68.6128 23.546 68.6008 23.03L69.0568 22.88V26.03C69.0568 26.636 69.2848 26.954 69.8248 26.954L69.7288 27.5ZM71.8362 25.334C72.1122 25.334 72.2802 25.472 72.3702 25.748C72.4422 25.976 72.4962 26.324 72.4962 26.63C72.4962 27.056 72.1902 27.5 71.9442 27.5C71.6142 27.5 70.9182 27.29 70.7502 26.864C70.4442 27.374 70.1562 27.5 69.7302 27.5C69.7002 27.5 69.6702 27.44 69.6702 27.332C69.6702 27.152 69.7422 26.954 69.8262 26.954C70.2642 26.954 70.5162 26.828 70.7742 26.3C71.1282 25.568 71.3562 25.334 71.8362 25.334ZM70.9662 26.438C71.1462 26.75 71.7522 26.978 72.1602 26.978C72.1842 26.978 72.1962 26.954 72.1962 26.882C72.1962 26.75 72.1242 26.27 72.0342 26.048C71.9802 25.922 71.8902 25.838 71.7462 25.838C71.3982 25.838 71.1942 25.988 70.9962 26.372C70.9842 26.396 70.9782 26.42 70.9662 26.438ZM74.9027 27.5C74.6207 27.5 74.3987 27.434 74.2787 27.296C74.2007 27.752 73.9487 28.202 73.5107 28.49C73.1087 28.784 72.4487 29.024 71.8187 29.096C71.7107 29.054 71.6087 28.838 71.4647 28.616C73.1387 28.4 73.8827 27.842 74.0147 27.362C74.0027 27.104 73.8347 26.444 73.6787 25.976L74.0807 25.742C74.2727 26.732 74.4167 26.954 74.9987 26.954L74.9027 27.5ZM78.912 25.472C78.996 25.85 79.044 26.282 79.044 26.546C79.044 27.026 78.72 27.5 78.456 27.5C78.018 27.5 77.688 27.29 77.592 26.978C77.412 27.338 77.142 27.5 76.806 27.5C76.44 27.5 76.14 27.32 76.062 26.948C75.864 27.338 75.522 27.5 74.904 27.5C74.874 27.5 74.844 27.44 74.844 27.332C74.844 27.152 74.916 26.954 75 26.954C75.684 26.954 75.99 26.78 76.038 26.312L76.074 25.976L76.338 25.952V26.354C76.338 26.714 76.53 26.954 76.89 26.954C77.28 26.954 77.502 26.72 77.532 26.396L77.556 26.06L77.82 26.036V26.354C77.82 26.714 78.138 26.954 78.582 26.954C78.66 26.954 78.72 26.918 78.738 26.858C78.72 26.624 78.63 26.126 78.504 25.724L78.912 25.472Z" fill="#090909"/>
</svg>
