<svg width="100" height="32" viewBox="0 0 100 32" fill="none" xmlns="http://www.w3.org/2000/svg">
<path d="M35.7848 10.59C35.7848 11.254 35.6808 11.808 35.4728 12.252C35.2648 12.696 34.9728 13.028 34.5968 13.248C34.2248 13.464 33.7868 13.572 33.2828 13.572C32.9428 13.572 32.6428 13.534 32.3828 13.458C32.1268 13.378 31.9048 13.282 31.7168 13.17C31.5328 13.054 31.3048 12.892 31.0328 12.684C30.6848 12.412 30.3768 12.2 30.1088 12.048V11.97C31.1488 11.586 32.0028 11.156 32.6708 10.68C33.3428 10.204 33.8488 9.678 34.1888 9.102C33.7288 8.682 33.1728 8.258 32.5208 7.83C31.8688 7.402 31.1128 6.988 30.2528 6.588C30.3168 6.368 30.3728 6.078 30.4208 5.718C30.4688 5.358 30.4928 5.018 30.4928 4.698C30.4928 4.542 30.4868 4.398 30.4748 4.266H30.5468C32.4548 5.778 33.8168 7.03 34.6328 8.022C34.7208 7.666 34.7648 7.286 34.7648 6.882C34.7648 6.622 34.7448 6.284 34.7048 5.868C34.6648 5.452 34.6128 5.112 34.5488 4.848C34.7688 4.66 35.0048 4.406 35.2568 4.086C35.5128 3.762 35.7128 3.458 35.8568 3.174H35.9288C35.9288 3.266 35.9368 3.48 35.9528 3.816C35.9848 4.312 36.0008 4.776 36.0008 5.208C36.0008 6.616 35.7268 7.8 35.1788 8.76C35.3948 9.1 35.5488 9.418 35.6408 9.714C35.7368 10.01 35.7848 10.302 35.7848 10.59ZM32.1248 11.268C32.3288 11.3 32.6508 11.316 33.0908 11.316C33.6028 11.316 34.0448 11.296 34.4168 11.256C34.7928 11.216 35.0768 11.164 35.2688 11.1C35.4648 11.032 35.5628 10.96 35.5628 10.884C35.5628 10.832 35.5288 10.742 35.4608 10.614C35.3968 10.486 35.2948 10.328 35.1548 10.14C35.0148 9.952 34.8408 9.75 34.6328 9.534C34.0208 10.25 33.1848 10.828 32.1248 11.268ZM40.3811 13.5C39.8131 13.5 39.3631 13.414 39.0311 13.242C38.6991 13.07 38.4511 12.78 38.2871 12.372C38.1231 11.964 38.0251 11.394 37.9931 10.662C37.9451 9.462 37.8951 8.528 37.8431 7.86C37.7951 7.192 37.7391 6.672 37.6751 6.3C37.6111 5.928 37.5231 5.516 37.4111 5.064C37.6511 4.824 37.9031 4.53 38.1671 4.182C38.4311 3.83 38.6651 3.494 38.8691 3.174H38.9411C38.9411 3.322 38.9491 3.6 38.9651 4.008C38.9971 4.576 39.0131 5.146 39.0131 5.718C39.0131 6.074 39.0011 6.684 38.9771 7.548C38.9531 8.492 38.9411 9.216 38.9411 9.72C38.9411 10.236 39.0791 10.62 39.3551 10.872C39.6351 11.12 40.0771 11.244 40.6811 11.244L40.3811 13.5ZM44.1597 10.152C44.1597 11.32 43.8337 12.17 43.1817 12.702C42.5337 13.234 41.5697 13.5 40.2897 13.5C40.1857 13.5 40.1097 13.442 40.0617 13.326C40.0137 13.206 39.9897 13.024 39.9897 12.78C39.9897 12.456 40.0177 12.178 40.0737 11.946C40.1297 11.714 40.2037 11.54 40.2957 11.424C40.3877 11.304 40.4857 11.244 40.5897 11.244C41.3297 11.244 41.9517 11.196 42.4557 11.1C42.9597 11 43.3337 10.882 43.5777 10.746C43.8217 10.61 43.9437 10.486 43.9437 10.374C43.9437 10.294 43.7757 10.136 43.4397 9.9C43.1077 9.66 42.6317 9.382 42.0117 9.066C41.3917 8.75 40.6777 8.434 39.8697 8.118C39.9817 7.874 40.1317 7.504 40.3197 7.008C40.5077 6.512 40.6437 6.13 40.7277 5.862L40.7697 5.712C40.8057 5.584 40.8357 5.49 40.8597 5.43C40.8877 5.37 40.9297 5.318 40.9857 5.274C41.0417 5.23 41.1297 5.184 41.2497 5.136L46.2657 3.174L46.3437 3.204C46.1277 3.572 45.9357 3.946 45.7677 4.326C45.6037 4.702 45.4797 5.044 45.3957 5.352L40.7397 6.588V6.666C41.7197 7.098 42.4517 7.486 42.9357 7.83C43.4237 8.17 43.7497 8.514 43.9137 8.862C44.0777 9.21 44.1597 9.64 44.1597 10.152ZM57.0827 9.066C56.8107 9.066 56.5467 9.112 56.2907 9.204C56.0387 9.296 55.8327 9.41 55.6727 9.546C55.5167 9.682 55.4387 9.812 55.4387 9.936C55.4387 10.052 55.5027 10.192 55.6307 10.356C55.7627 10.52 55.9467 10.682 56.1827 10.842C56.4187 11.002 56.6847 11.134 56.9807 11.238C57.3567 11.162 57.6727 11.068 57.9287 10.956C58.1887 10.844 58.3807 10.73 58.5047 10.614C58.6327 10.498 58.6967 10.394 58.6967 10.302C58.6967 10.11 58.6187 9.918 58.4627 9.726C58.3067 9.534 58.1027 9.376 57.8507 9.252C57.6027 9.128 57.3467 9.066 57.0827 9.066ZM59.2727 13.5C58.4967 13.5 57.9067 13.412 57.5027 13.236C57.1027 13.056 56.8467 12.78 56.7347 12.408H56.6627C56.4427 12.812 56.0067 13.108 55.3547 13.296C54.7067 13.48 53.7847 13.572 52.5887 13.572C51.6047 13.572 50.8067 13.47 50.1947 13.266C49.5867 13.058 49.1427 12.752 48.8627 12.348C48.5827 11.944 48.4427 11.432 48.4427 10.812C48.4427 10.42 48.4767 10.018 48.5447 9.606C48.6167 9.194 48.7527 8.722 48.9527 8.19H49.0967C49.0287 8.438 48.9807 8.662 48.9527 8.862C48.9247 9.062 48.9107 9.274 48.9107 9.498C48.9107 9.846 49.0567 10.158 49.3487 10.434C49.6407 10.706 50.0787 10.922 50.6627 11.082C51.2467 11.238 51.9607 11.316 52.8047 11.316C53.7487 11.316 54.5527 11.298 55.2167 11.262C55.1607 11.102 55.1327 10.926 55.1327 10.734C55.1327 10.158 55.2287 9.62 55.4207 9.12C55.6127 8.616 55.8747 8.214 56.2067 7.914C56.5427 7.614 56.9127 7.464 57.3167 7.464C57.6527 7.464 57.9467 7.556 58.1987 7.74C58.4547 7.924 58.6507 8.186 58.7867 8.526C58.9227 8.866 58.9907 9.264 58.9907 9.72C58.9907 10.324 58.8567 10.832 58.5887 11.244H59.5727L59.2727 13.5ZM57.3947 6.372C57.2827 6.22 57.1047 6.044 56.8607 5.844C56.6167 5.644 56.4067 5.506 56.2307 5.43V5.352L57.1787 4.188C57.3987 4.296 57.6307 4.46 57.8747 4.68C58.1227 4.896 58.3027 5.096 58.4147 5.28L57.3947 6.372ZM64.2323 13.5C63.7003 13.5 63.2643 13.35 62.9243 13.05C62.5843 12.746 62.4143 12.23 62.4143 11.502C62.4143 11.302 62.4243 11.12 62.4443 10.956H62.3663C62.3583 11.56 62.2463 12.048 62.0303 12.42C61.8183 12.792 61.5003 13.066 61.0763 13.242C60.6523 13.414 60.1103 13.5 59.4503 13.5H59.2703C59.1663 13.5 59.0903 13.442 59.0423 13.326C58.9943 13.206 58.9703 13.024 58.9703 12.78C58.9703 12.456 58.9983 12.178 59.0543 11.946C59.1103 11.714 59.1843 11.54 59.2763 11.424C59.3683 11.304 59.4663 11.244 59.5703 11.244H59.7503C60.5303 11.244 61.1083 11.192 61.4843 11.088C61.8603 10.984 62.1303 10.8 62.2943 10.536C62.4623 10.268 62.5983 9.85 62.7023 9.282H62.8463V10.008C62.8463 10.4 62.9803 10.704 63.2483 10.92C63.5203 11.136 63.9683 11.244 64.5923 11.244L64.2323 13.5ZM61.2743 14.592C61.6183 14.592 61.8723 14.634 62.0363 14.718C62.2043 14.806 62.2883 14.958 62.2883 15.174C62.2883 15.246 62.2763 15.324 62.2523 15.408C62.2323 15.496 62.2003 15.606 62.1563 15.738C62.0803 15.974 62.0283 16.174 62.0003 16.338H61.9283C61.9283 16.198 61.8543 16.102 61.7063 16.05C61.5623 15.998 61.3203 15.972 60.9803 15.972H60.9503C60.7263 15.972 60.3203 15.98 59.7323 15.996C59.1483 16.016 58.6683 16.042 58.2923 16.074C58.3643 15.946 58.4563 15.724 58.5683 15.408C58.6803 15.096 58.7563 14.858 58.7963 14.694C59.2643 14.662 59.7303 14.636 60.1943 14.616C60.6583 14.6 61.0183 14.592 61.2743 14.592ZM61.0103 15.834L61.2743 14.592L61.0103 15.834ZM69.0317 7.536C69.3917 7.536 69.7017 7.628 69.9617 7.812C70.2257 7.992 70.4277 8.246 70.5677 8.574C70.7077 8.902 70.7777 9.284 70.7777 9.72C70.7777 10.46 70.6117 11.118 70.2797 11.694C69.9517 12.266 69.4897 12.71 68.8937 13.026C68.3017 13.342 67.6217 13.5 66.8537 13.5H64.2977C64.1937 13.5 64.1177 13.442 64.0697 13.326C64.0217 13.206 63.9977 13.024 63.9977 12.78C63.9977 12.456 64.0257 12.178 64.0817 11.946C64.1377 11.714 64.2117 11.54 64.3037 11.424C64.3957 11.304 64.4937 11.244 64.5977 11.244H64.9277C65.4757 10.472 65.7497 9.542 65.7497 8.454C65.7497 7.958 65.7057 7.374 65.6177 6.702C65.5337 6.03 65.4457 5.484 65.3537 5.064C65.5937 4.824 65.8457 4.528 66.1097 4.176C66.3777 3.824 66.6097 3.49 66.8057 3.174H66.8837C66.8837 3.266 66.8997 3.744 66.9317 4.608C66.9757 5.796 66.9977 6.506 66.9977 6.738C66.9977 7.094 66.9577 7.422 66.8777 7.722C66.8017 8.022 66.6517 8.39 66.4277 8.826C66.2077 9.262 65.8637 9.874 65.3957 10.662H65.4677C65.9717 9.882 66.4197 9.266 66.8117 8.814C67.2077 8.362 67.5817 8.036 67.9337 7.836C68.2857 7.636 68.6517 7.536 69.0317 7.536ZM67.2137 11.244C68.1657 11.244 68.9417 11.188 69.5417 11.076C70.1457 10.964 70.4477 10.802 70.4477 10.59C70.4477 10.45 70.3737 10.276 70.2257 10.068C70.0777 9.856 69.8637 9.672 69.5837 9.516C69.3077 9.36 68.9797 9.282 68.5997 9.282C68.2437 9.282 67.8537 9.366 67.4297 9.534C67.0097 9.702 66.6037 9.936 66.2117 10.236C65.8197 10.536 65.4917 10.872 65.2277 11.244H67.2137Z" fill="#090909"/>
<path d="M16.0031 27.5H15.6791C15.7511 27.572 15.7871 27.668 15.7871 27.782C15.7871 28.04 15.6431 28.388 15.3671 28.604C14.8811 28.982 13.9331 29.24 13.1231 29.24C12.0491 29.24 11.5751 28.76 11.5751 28.04C11.5751 27.656 11.6771 27.104 11.8991 26.402L12.1331 26.474C11.9831 27.038 11.9171 27.506 11.9171 27.764C11.9171 28.334 12.3791 28.694 13.2371 28.694C14.4491 28.694 15.4991 28.184 15.5231 27.968C15.4991 27.758 15.1991 27.614 13.9331 27.404L14.1251 26.924C14.6891 26.954 14.9771 26.954 15.5771 26.954H16.0991L16.0031 27.5ZM19.6336 27.5C19.0396 27.5 18.6196 27.242 17.6776 26.294C17.6596 26.774 17.4256 27.116 17.2156 27.242C16.9756 27.392 16.5376 27.5 16.0036 27.5C15.9736 27.5 15.9436 27.44 15.9436 27.332C15.9436 27.152 16.0156 26.954 16.0996 26.954C16.7956 26.954 17.2996 26.822 17.4076 26.606C17.3836 26.282 17.2456 25.988 16.1956 24.968L16.3756 24.23L19.2916 22.88L19.3036 23.36L16.4716 24.626C16.8376 24.956 17.3956 25.466 17.7556 25.796C18.7696 26.72 19.1596 26.954 19.7296 26.954L19.6336 27.5ZM21.8504 27.5C21.3584 27.5 21.0704 27.326 20.9864 26.876C20.8004 27.314 20.4344 27.5 19.7444 27.5H19.6364C19.6064 27.5 19.5764 27.446 19.5764 27.332C19.5764 27.152 19.6484 26.954 19.7324 26.954H19.8404C20.5964 26.954 20.8904 26.78 20.9024 26.348L20.9144 25.844L21.2264 25.784V26.252C21.2264 26.696 21.4184 26.954 21.9464 26.954L21.8504 27.5ZM19.5404 28.16C19.6364 28.28 19.8404 28.43 20.0204 28.55L19.6904 28.94C19.5104 28.82 19.3064 28.67 19.2104 28.55L19.5404 28.16ZM20.6204 28.94C20.4404 28.82 20.2364 28.67 20.1404 28.55L20.4704 28.16C20.5664 28.28 20.7704 28.43 20.9504 28.55L20.6204 28.94ZM23.0753 25.4C23.1473 25.712 23.2493 26.264 23.2493 26.468C23.2493 26.774 23.0513 27.212 22.8053 27.344C22.5713 27.47 22.2053 27.5 21.8513 27.5C21.8213 27.5 21.7913 27.44 21.7913 27.332C21.7913 27.152 21.8633 26.954 21.9473 26.954C22.6373 26.954 22.9013 26.888 22.9493 26.78C22.9253 26.552 22.8113 26.042 22.6673 25.652L23.0753 25.4ZM22.8653 24.932C22.6853 24.824 22.5053 24.692 22.3553 24.542L22.6853 24.122C22.8353 24.272 23.0153 24.404 23.1953 24.512L22.8653 24.932ZM25.06 25.46C25.726 25.46 26.074 26.33 26.074 27.104C26.074 27.716 25.87 28.178 25.444 28.484C25.018 28.814 24.13 29.054 23.272 29.108C23.164 29.066 23.08 28.874 22.912 28.598C24.79 28.472 25.696 28.106 25.804 27.53C25.804 27.458 25.804 27.386 25.798 27.314C25.528 27.458 25.198 27.53 24.85 27.53C24.37 27.53 24.148 27.284 24.148 26.906C24.148 26.144 24.538 25.46 25.06 25.46ZM24.4 26.636C24.4 26.846 24.58 26.984 24.94 26.984C25.234 26.984 25.51 26.942 25.732 26.87C25.606 26.336 25.324 25.982 24.976 25.982C24.652 25.982 24.4 26.3 24.4 26.636ZM28.5648 27.5C28.3008 27.5 28.0848 27.44 27.9588 27.314C27.9048 28.382 27.2688 28.91 26.2368 29.114C26.1528 29.078 26.0388 28.856 25.9008 28.658C27.1008 28.382 27.6048 27.974 27.6768 27.572C27.6648 27.152 27.4968 26.468 27.3408 25.976L27.7428 25.742C27.9348 26.732 28.0788 26.954 28.6608 26.954L28.5648 27.5ZM30.7801 27.5C30.2881 27.5 30.0001 27.326 29.9161 26.876C29.7301 27.314 29.3641 27.5 28.6741 27.5H28.5661C28.5361 27.5 28.5061 27.446 28.5061 27.332C28.5061 27.152 28.5781 26.954 28.6621 26.954H28.7701C29.5261 26.954 29.8201 26.78 29.8321 26.348L29.8441 25.844L30.1561 25.784V26.252C30.1561 26.696 30.3481 26.954 30.8761 26.954L30.7801 27.5ZM29.0941 24.416C29.1901 24.536 29.3941 24.686 29.5741 24.806L29.2441 25.196C29.0641 25.076 28.8601 24.926 28.7641 24.806L29.0941 24.416ZM30.1741 25.196C29.9941 25.076 29.7901 24.926 29.6941 24.806L30.0241 24.416C30.1201 24.536 30.3241 24.686 30.5041 24.806L30.1741 25.196ZM34.411 27.5C33.817 27.5 33.397 27.242 32.455 26.294C32.437 26.774 32.203 27.116 31.993 27.242C31.753 27.392 31.315 27.5 30.781 27.5C30.751 27.5 30.721 27.44 30.721 27.332C30.721 27.152 30.793 26.954 30.877 26.954C31.573 26.954 32.077 26.822 32.185 26.606C32.161 26.282 32.023 25.988 30.973 24.968L31.153 24.23L34.069 22.88L34.081 23.36L31.249 24.626C31.615 24.956 32.173 25.466 32.533 25.796C33.547 26.72 33.937 26.954 34.507 26.954L34.411 27.5ZM35.5658 26.384C35.5658 26.744 35.3558 27.188 35.1518 27.326C34.9478 27.47 34.6598 27.5 34.4138 27.5C34.3838 27.5 34.3538 27.44 34.3538 27.332C34.3538 27.152 34.4258 26.954 34.5098 26.954C34.8518 26.954 35.1938 26.906 35.2538 26.726L35.1098 23.03L35.5658 22.88V26.384ZM36.9806 27.476L36.6506 27.542L36.5246 23.03L36.9806 22.88V27.476ZM40.1127 25.46C40.7787 25.46 41.1267 26.33 41.1267 27.104C41.1267 27.716 40.9227 28.178 40.4967 28.484C40.0707 28.814 39.1827 29.054 38.3247 29.108C38.2167 29.066 38.1327 28.874 37.9647 28.598C39.8427 28.472 40.7487 28.106 40.8567 27.53C40.8567 27.458 40.8567 27.386 40.8507 27.314C40.5807 27.458 40.2507 27.53 39.9027 27.53C39.4227 27.53 39.2007 27.284 39.2007 26.906C39.2007 26.144 39.5907 25.46 40.1127 25.46ZM39.4527 26.636C39.4527 26.846 39.6327 26.984 39.9927 26.984C40.2867 26.984 40.5627 26.942 40.7847 26.87C40.6587 26.336 40.3767 25.982 40.0287 25.982C39.7047 25.982 39.4527 26.3 39.4527 26.636ZM47.5442 27.5H47.2202C47.2922 27.572 47.3282 27.668 47.3282 27.782C47.3282 28.04 47.1842 28.388 46.9082 28.604C46.4222 28.982 45.4742 29.24 44.6642 29.24C43.5902 29.24 43.1162 28.76 43.1162 28.04C43.1162 27.656 43.2182 27.104 43.4402 26.402L43.6742 26.474C43.5242 27.038 43.4582 27.506 43.4582 27.764C43.4582 28.334 43.9202 28.694 44.7782 28.694C45.9902 28.694 47.0402 28.184 47.0642 27.968C47.0402 27.758 46.7402 27.614 45.4742 27.404L45.6662 26.924C46.2302 26.954 46.5182 26.954 47.1182 26.954H47.6402L47.5442 27.5ZM50.1066 22.76L48.2226 23.672L48.2046 23.354L50.0766 22.442L50.1066 22.76ZM51.1746 27.5C50.5806 27.5 50.1606 27.242 49.2186 26.294C49.2006 26.774 48.9666 27.116 48.7566 27.242C48.5166 27.392 48.0786 27.5 47.5446 27.5C47.5146 27.5 47.4846 27.44 47.4846 27.332C47.4846 27.152 47.5566 26.954 47.6406 26.954C48.3366 26.954 48.8406 26.822 48.9486 26.606C48.9246 26.282 48.7866 25.988 47.7366 24.968L47.9166 24.23L50.8326 22.88L50.8446 23.36L48.0126 24.626C48.3786 24.956 48.9366 25.466 49.2966 25.796C50.3106 26.72 50.7006 26.954 51.2706 26.954L51.1746 27.5ZM52.4014 25.4C52.4734 25.712 52.5754 26.264 52.5754 26.468C52.5754 26.774 52.3774 27.212 52.1314 27.344C51.8974 27.47 51.5314 27.5 51.1774 27.5C51.1474 27.5 51.1174 27.44 51.1174 27.332C51.1174 27.152 51.1894 26.954 51.2734 26.954C51.9634 26.954 52.2274 26.888 52.2754 26.78C52.2514 26.552 52.1374 26.042 51.9934 25.652L52.4014 25.4ZM52.1914 24.932C52.0114 24.824 51.8314 24.692 51.6814 24.542L52.0114 24.122C52.1614 24.272 52.3414 24.404 52.5214 24.512L52.1914 24.932ZM54.6273 27.5C53.9313 27.5 53.6193 27.134 53.5953 26.288C53.5773 25.652 53.5113 23.546 53.4993 23.03L53.9553 22.88V26.03C53.9553 26.636 54.1833 26.954 54.7233 26.954L54.6273 27.5ZM55.7986 25.184C56.2246 25.184 57.1966 25.826 58.4206 25.97L58.2286 26.42C58.1446 26.414 57.9886 26.396 57.8986 26.384C57.1846 26.624 56.3386 27.5 54.6286 27.5C54.5986 27.5 54.5686 27.44 54.5686 27.332C54.5686 27.152 54.6406 26.954 54.7246 26.954C55.7926 26.954 56.4406 26.708 57.4366 26.276C56.4466 25.988 55.9786 25.706 55.6786 25.706C55.5466 25.706 55.4686 25.784 55.2826 26.108L55.0966 25.97C55.3906 25.382 55.5346 25.184 55.7986 25.184ZM56.0746 24.41C55.8946 24.302 55.7146 24.17 55.5646 24.02L55.8946 23.6C56.0446 23.75 56.2246 23.882 56.4046 23.99L56.0746 24.41ZM62.078 25.388C62.576 25.388 62.858 25.832 62.858 26.672C62.858 27.068 62.588 27.5 62.318 27.5C62.054 27.5 61.244 27.356 60.986 27.356C60.884 27.356 60.77 27.386 60.722 27.422C60.656 27.5 60.65 27.626 60.65 27.77C60.65 28.136 60.68 28.97 60.752 29.918L60.332 30.08C60.302 29.276 60.29 28.532 60.29 28.094C60.29 27.572 60.62 26.984 60.992 26.858C61.28 25.682 61.652 25.388 62.078 25.388ZM61.226 26.834C61.598 26.858 62.3 26.978 62.546 26.978C62.564 26.978 62.582 26.954 62.582 26.918C62.558 26.264 62.336 25.91 61.976 25.91C61.67 25.91 61.418 26.09 61.226 26.834ZM64.4281 25.7C64.5781 26.3 64.6621 26.786 64.6621 27.008C64.6621 27.56 64.3981 28.142 63.8701 28.49C63.4681 28.784 62.8081 29.024 62.1781 29.096C62.0701 29.054 61.9681 28.838 61.8241 28.616C63.4981 28.4 64.2421 27.842 64.3741 27.362C64.3621 27.104 64.1821 26.444 64.0141 25.958L64.4281 25.7ZM64.3021 24.992C64.1221 24.884 63.9421 24.752 63.7921 24.602L64.1221 24.182C64.2721 24.332 64.4521 24.464 64.6321 24.572L64.3021 24.992ZM66.0431 27.476L65.7131 27.542L65.5871 23.03L66.0431 22.88V27.476ZM69.194 27.5H68.876C68.804 27.92 68.606 28.25 68.276 28.484C67.85 28.814 66.962 29.054 66.104 29.108C65.996 29.066 65.912 28.874 65.744 28.598C67.622 28.472 68.528 28.106 68.636 27.53V27.494C68.342 27.512 67.988 27.53 67.682 27.53C67.202 27.53 66.98 27.284 66.98 26.906C66.98 26.144 67.37 25.46 67.892 25.46C68.516 25.46 68.858 26.222 68.9 26.954H69.29L69.194 27.5ZM67.232 26.636C67.232 26.846 67.412 26.984 67.772 26.984C68.042 26.984 68.294 26.978 68.582 26.96C68.468 26.378 68.18 25.982 67.808 25.982C67.484 25.982 67.232 26.3 67.232 26.636ZM70.347 26.384C70.347 26.744 70.137 27.188 69.933 27.326C69.729 27.47 69.441 27.5 69.195 27.5C69.165 27.5 69.135 27.44 69.135 27.332C69.135 27.152 69.207 26.954 69.291 26.954C69.633 26.954 69.975 26.906 70.035 26.726L69.891 23.03L70.347 22.88V26.384ZM76.8 27.5H76.476C76.548 27.572 76.584 27.668 76.584 27.782C76.584 28.04 76.44 28.388 76.164 28.604C75.678 28.982 74.73 29.24 73.92 29.24C72.846 29.24 72.372 28.76 72.372 28.04C72.372 27.656 72.474 27.104 72.696 26.402L72.93 26.474C72.78 27.038 72.714 27.506 72.714 27.764C72.714 28.334 73.176 28.694 74.034 28.694C75.246 28.694 76.296 28.184 76.32 27.968C76.296 27.758 75.996 27.614 74.73 27.404L74.922 26.924C75.486 26.954 75.774 26.954 76.374 26.954H76.896L76.8 27.5ZM78.0245 25.4C78.0965 25.712 78.1985 26.264 78.1985 26.468C78.1985 26.774 78.0005 27.212 77.7545 27.344C77.5205 27.47 77.1545 27.5 76.8005 27.5C76.7705 27.5 76.7405 27.44 76.7405 27.332C76.7405 27.152 76.8125 26.954 76.8965 26.954C77.5865 26.954 77.8505 26.888 77.8985 26.78C77.8745 26.552 77.7605 26.042 77.6165 25.652L78.0245 25.4ZM77.8145 24.932C77.6345 24.824 77.4545 24.692 77.3045 24.542L77.6345 24.122C77.7845 24.272 77.9645 24.404 78.1445 24.512L77.8145 24.932ZM80.2503 27.5C79.5543 27.5 79.2423 27.134 79.2183 26.288C79.2003 25.652 79.1343 23.546 79.1223 23.03L79.5783 22.88V26.03C79.5783 26.636 79.8063 26.954 80.3463 26.954L80.2503 27.5ZM82.6637 22.802L80.7797 23.696V23.36L82.6337 22.484L82.6637 22.802ZM80.3837 24.758C81.5237 25.55 81.8117 25.91 81.8117 26.39C81.8117 26.696 81.5957 27.122 81.3497 27.272C81.0737 27.446 80.6177 27.5 80.2517 27.5C80.2217 27.5 80.1917 27.44 80.1917 27.332C80.1917 27.152 80.2637 26.954 80.3477 26.954C80.9477 26.954 81.4457 26.858 81.5357 26.666C81.4937 26.264 81.2837 25.964 80.1077 25.106L80.2877 24.362L83.3957 22.88L83.4077 23.36L80.3837 24.758ZM83.4652 25.7C83.6152 26.3 83.6992 26.786 83.6992 27.008C83.6992 27.56 83.4352 28.142 82.9072 28.49C82.5052 28.784 81.8452 29.024 81.2152 29.096C81.1072 29.054 81.0052 28.838 80.8612 28.616C82.5352 28.4 83.2792 27.842 83.4112 27.362C83.3992 27.104 83.2192 26.444 83.0512 25.958L83.4652 25.7ZM85.3578 25.7C85.5078 26.3 85.5918 26.822 85.5918 27.152C85.5918 28.328 84.9498 28.898 83.8638 29.114C83.7798 29.078 83.6658 28.856 83.5278 28.658C84.7278 28.382 85.2318 27.974 85.3038 27.572C85.2918 27.188 85.1238 26.468 84.9438 25.958L85.3578 25.7ZM85.2318 24.992C85.0518 24.884 84.8718 24.752 84.7218 24.602L85.0518 24.182C85.2018 24.332 85.3818 24.464 85.5618 24.572L85.2318 24.992ZM87.6448 27.5C86.9488 27.5 86.6368 27.134 86.6128 26.288C86.5948 25.652 86.5288 23.546 86.5168 23.03L86.9728 22.88V26.03C86.9728 26.636 87.2008 26.954 87.7408 26.954L87.6448 27.5ZM88.8702 25.4C88.9422 25.712 89.0442 26.264 89.0442 26.468C89.0442 26.774 88.8462 27.212 88.6002 27.344C88.3662 27.47 88.0002 27.5 87.6462 27.5C87.6162 27.5 87.5862 27.44 87.5862 27.332C87.5862 27.152 87.6582 26.954 87.7422 26.954C88.4322 26.954 88.6962 26.888 88.7442 26.78C88.7202 26.552 88.6062 26.042 88.4622 25.652L88.8702 25.4ZM88.2642 28.97C88.0842 28.862 87.9042 28.73 87.7542 28.58L88.0842 28.16C88.2342 28.31 88.4142 28.442 88.5942 28.55L88.2642 28.97Z" fill="#090909"/>
</svg>
