<svg width="156" height="36" viewBox="0 0 156 36" fill="none" xmlns="http://www.w3.org/2000/svg">
<g clip-path="url(#clip0_300_421)">
<path d="M111.115 3.19355L97.5968 25.7298L84.0786 3.19355C82.8992 1.21573 80.7581 0 78.4536 0C74.8246 0 71.8851 2.93951 71.8851 6.56855V18C71.8851 22.2641 68.4375 25.7117 64.1734 25.7117C59.9093 25.7117 56.4617 22.2641 56.4617 18V0H47.9153C41.9819 0 37.1734 4.80846 37.1734 10.7419C37.1734 14.752 33.9254 18 29.9153 18H12.75V9H24.3266C29.2984 9 33.3266 4.97177 33.3266 0H2.4617V36H12.75V27H34.5968C40.9839 27 46.1734 21.8105 46.1734 15.4234V18C46.1734 27.9435 54.2298 36 64.1734 36C74.1169 36 82.1734 27.9435 82.1734 18L90.5383 31.9355C93.7319 37.2702 101.48 37.2702 104.673 31.9355L113.038 18V36H123.327V27H140.038C147.496 27 153.538 20.9577 153.538 13.5C153.538 6.04234 147.496 0 140.038 0H116.758C114.435 0 112.313 1.21573 111.115 3.19355ZM139.385 18H123.308V9H139.385C141.871 9 143.885 11.0141 143.885 13.5C143.885 15.9859 141.871 18 139.385 18Z" fill="#822984"/>
</g>
<defs>
<clipPath id="clip0_300_421">
<rect width="156" height="36" fill="white"/>
</clipPath>
</defs>
</svg>
