<svg width="200" height="32" viewBox="0 0 200 32" fill="none" xmlns="http://www.w3.org/2000/svg">
<path d="M71.5491 13.5C70.9811 13.5 70.5311 13.414 70.1991 13.242C69.8671 13.07 69.6191 12.78 69.4551 12.372C69.2911 11.964 69.1931 11.394 69.1611 10.662C69.1131 9.462 69.0631 8.528 69.0111 7.86C68.9631 7.192 68.9071 6.672 68.8431 6.3C68.7791 5.928 68.6911 5.516 68.5791 5.064C68.8191 4.824 69.0711 4.53 69.3351 4.182C69.5991 3.83 69.8331 3.494 70.0371 3.174H70.1091C70.1091 3.322 70.1171 3.6 70.1331 4.008C70.1651 4.576 70.1811 5.146 70.1811 5.718C70.1811 6.074 70.1691 6.684 70.1451 7.548C70.1211 8.492 70.1091 9.216 70.1091 9.72C70.1091 10.236 70.2471 10.62 70.5231 10.872C70.8031 11.12 71.2451 11.244 71.8491 11.244L71.5491 13.5ZM75.9174 6.5L75.6294 6.644L75.5574 4.316L75.9894 4.028L75.9174 6.5ZM75.4117 9.72C74.7677 9.72 74.3077 9.938 74.0317 10.374C74.1877 10.578 74.4237 10.764 74.7397 10.932C75.0557 11.1 75.3897 11.232 75.7417 11.328C76.0937 11.42 76.3957 11.466 76.6477 11.466C76.8837 11.466 77.0637 11.438 77.1877 11.382C77.3117 11.322 77.3737 11.252 77.3737 11.172C77.3737 10.992 77.2877 10.788 77.1157 10.56C76.9437 10.328 76.7077 10.13 76.4077 9.966C76.1077 9.802 75.7757 9.72 75.4117 9.72ZM79.3177 13.5C78.8377 13.5 78.4517 13.324 78.1597 12.972C77.8677 12.62 77.7037 12.092 77.6677 11.388H77.5957C77.5597 12.164 77.4317 12.746 77.2117 13.134C76.9917 13.522 76.7077 13.716 76.3597 13.716C75.8517 13.716 75.3737 13.634 74.9257 13.47C74.4817 13.306 74.1237 13.08 73.8517 12.792C73.5837 12.5 73.4497 12.178 73.4497 11.826C73.4497 11.658 73.4637 11.476 73.4917 11.28C73.5197 11.08 73.5537 10.898 73.5937 10.734H73.5217C73.4777 10.846 73.4197 11.048 73.3477 11.34C73.2477 11.76 73.1397 12.116 73.0237 12.408C72.9077 12.7 72.7297 12.956 72.4897 13.176C72.2537 13.392 71.9397 13.5 71.5477 13.5C71.4437 13.5 71.3677 13.442 71.3197 13.326C71.2717 13.206 71.2477 13.024 71.2477 12.78C71.2477 12.456 71.2757 12.178 71.3317 11.946C71.3877 11.714 71.4617 11.54 71.5537 11.424C71.6457 11.304 71.7437 11.244 71.8477 11.244C72.1397 11.244 72.3777 11.216 72.5617 11.16C72.7497 11.104 72.9197 10.994 73.0717 10.83C73.2277 10.662 73.3777 10.412 73.5217 10.08L73.8097 10.302C74.0817 9.734 74.3257 9.294 74.5417 8.982C74.7577 8.67 74.9737 8.448 75.1897 8.316C75.4057 8.184 75.6497 8.118 75.9217 8.118C76.1577 8.118 76.3717 8.166 76.5637 8.262C76.7557 8.354 76.9517 8.526 77.1517 8.778C77.3557 9.03 77.5757 9.392 77.8117 9.864C78.0517 10.348 78.3137 10.7 78.5977 10.92C78.8857 11.136 79.2257 11.244 79.6177 11.244L79.3177 13.5ZM79.3172 13.5C79.2132 13.5 79.1372 13.442 79.0892 13.326C79.0412 13.206 79.0172 13.024 79.0172 12.78C79.0172 12.456 79.0452 12.178 79.1012 11.946C79.1572 11.714 79.2312 11.54 79.3232 11.424C79.4152 11.304 79.5132 11.244 79.6172 11.244H82.1672L81.8672 13.5H79.3172ZM81.8719 13.5C81.7679 13.5 81.6919 13.442 81.6439 13.326C81.5959 13.206 81.5719 13.024 81.5719 12.78C81.5719 12.456 81.5999 12.178 81.6559 11.946C81.7119 11.714 81.7859 11.54 81.8779 11.424C81.9699 11.304 82.0679 11.244 82.1719 11.244H84.7219L84.4219 13.5H81.8719ZM84.4266 13.5C84.3226 13.5 84.2466 13.442 84.1986 13.326C84.1506 13.206 84.1266 13.024 84.1266 12.78C84.1266 12.456 84.1546 12.178 84.2106 11.946C84.2666 11.714 84.3406 11.54 84.4326 11.424C84.5246 11.304 84.6226 11.244 84.7266 11.244H87.2766L86.9766 13.5H84.4266ZM86.9812 13.5C86.8772 13.5 86.8012 13.442 86.7532 13.326C86.7052 13.206 86.6812 13.024 86.6812 12.78C86.6812 12.456 86.7092 12.178 86.7652 11.946C86.8212 11.714 86.8952 11.54 86.9872 11.424C87.0792 11.304 87.1772 11.244 87.2812 11.244H89.8313L89.5313 13.5H86.9812ZM89.5359 13.5C89.4319 13.5 89.3559 13.442 89.3079 13.326C89.2599 13.206 89.2359 13.024 89.2359 12.78C89.2359 12.456 89.2639 12.178 89.3199 11.946C89.3759 11.714 89.4499 11.54 89.5419 11.424C89.6339 11.304 89.7319 11.244 89.8359 11.244H92.3859L92.0859 13.5H89.5359ZM92.0906 13.5C91.9866 13.5 91.9106 13.442 91.8626 13.326C91.8146 13.206 91.7906 13.024 91.7906 12.78C91.7906 12.456 91.8186 12.178 91.8746 11.946C91.9306 11.714 92.0046 11.54 92.0966 11.424C92.1886 11.304 92.2866 11.244 92.3906 11.244H94.9406L94.6406 13.5H92.0906ZM94.6453 13.5C94.5413 13.5 94.4653 13.442 94.4173 13.326C94.3693 13.206 94.3453 13.024 94.3453 12.78C94.3453 12.456 94.3733 12.178 94.4293 11.946C94.4853 11.714 94.5593 11.54 94.6513 11.424C94.7433 11.304 94.8413 11.244 94.9453 11.244H97.4953L97.1953 13.5H94.6453ZM97.2 13.5C97.096 13.5 97.02 13.442 96.972 13.326C96.924 13.206 96.9 13.024 96.9 12.78C96.9 12.456 96.928 12.178 96.984 11.946C97.04 11.714 97.114 11.54 97.206 11.424C97.298 11.304 97.396 11.244 97.5 11.244H100.05L99.75 13.5H97.2ZM99.7547 13.5C99.6507 13.5 99.5747 13.442 99.5267 13.326C99.4787 13.206 99.4547 13.024 99.4547 12.78C99.4547 12.456 99.4827 12.178 99.5387 11.946C99.5947 11.714 99.6687 11.54 99.7607 11.424C99.8527 11.304 99.9507 11.244 100.055 11.244H102.605L102.305 13.5H99.7547ZM102.309 13.5C102.205 13.5 102.129 13.442 102.081 13.326C102.033 13.206 102.009 13.024 102.009 12.78C102.009 12.456 102.037 12.178 102.093 11.946C102.149 11.714 102.223 11.54 102.315 11.424C102.407 11.304 102.505 11.244 102.609 11.244H105.159L104.859 13.5H102.309ZM104.864 13.5C104.76 13.5 104.684 13.442 104.636 13.326C104.588 13.206 104.564 13.024 104.564 12.78C104.564 12.456 104.592 12.178 104.648 11.946C104.704 11.714 104.778 11.54 104.87 11.424C104.962 11.304 105.06 11.244 105.164 11.244H107.714L107.414 13.5H104.864ZM107.419 13.5C107.315 13.5 107.239 13.442 107.191 13.326C107.143 13.206 107.119 13.024 107.119 12.78C107.119 12.456 107.147 12.178 107.203 11.946C107.259 11.714 107.333 11.54 107.425 11.424C107.517 11.304 107.615 11.244 107.719 11.244H110.269L109.969 13.5H107.419ZM109.973 13.5C109.869 13.5 109.793 13.442 109.745 13.326C109.697 13.206 109.673 13.024 109.673 12.78C109.673 12.456 109.701 12.178 109.757 11.946C109.813 11.714 109.887 11.54 109.979 11.424C110.071 11.304 110.169 11.244 110.273 11.244H112.823L112.523 13.5H109.973ZM112.528 13.5C112.424 13.5 112.348 13.442 112.3 13.326C112.252 13.206 112.228 13.024 112.228 12.78C112.228 12.456 112.256 12.178 112.312 11.946C112.368 11.714 112.442 11.54 112.534 11.424C112.626 11.304 112.724 11.244 112.828 11.244H115.378L115.078 13.5H112.528ZM118.422 3.212C118.734 3.132 119.048 3.036 119.364 2.924C119.68 2.812 119.956 2.69 120.192 2.558C119.848 2.398 119.6 2.248 119.448 2.108C119.296 1.964 119.22 1.818 119.22 1.67C119.22 1.514 119.278 1.346 119.394 1.166C119.506 0.986 119.648 0.836 119.82 0.716C119.996 0.592 120.164 0.53 120.324 0.53C120.564 0.53 120.742 0.616 120.858 0.788C120.978 0.956 121.038 1.166 121.038 1.418C121.038 1.69 120.988 1.944 120.888 2.18C120.792 2.416 120.654 2.614 120.474 2.774C120.262 2.962 119.982 3.128 119.634 3.272C119.286 3.412 118.858 3.536 118.35 3.644L118.422 3.212ZM119.538 1.508C119.538 1.572 119.612 1.658 119.76 1.766C119.908 1.874 120.168 2.008 120.54 2.168C120.596 2.048 120.634 1.944 120.654 1.856C120.678 1.764 120.69 1.668 120.69 1.568C120.69 1.388 120.648 1.246 120.564 1.142C120.48 1.038 120.372 0.986 120.24 0.986C120.14 0.986 120.034 1.016 119.922 1.076C119.814 1.136 119.724 1.208 119.652 1.292C119.576 1.372 119.538 1.444 119.538 1.508ZM123.309 10.734C123.309 11.618 123.161 12.3 122.865 12.78C122.573 13.26 122.139 13.5 121.563 13.5C120.627 13.5 120.159 13.006 120.159 12.018C120.159 11.874 120.167 11.738 120.183 11.61H120.111C120.043 12.238 119.849 12.71 119.529 13.026C119.213 13.342 118.825 13.5 118.365 13.5C117.985 13.5 117.687 13.39 117.471 13.17C117.259 12.95 117.153 12.616 117.153 12.168C117.153 11.976 117.169 11.79 117.201 11.61H117.129C117.025 12.25 116.797 12.726 116.445 13.038C116.097 13.346 115.643 13.5 115.083 13.5C114.979 13.5 114.903 13.442 114.855 13.326C114.807 13.206 114.783 13.024 114.783 12.78C114.783 12.456 114.811 12.178 114.867 11.946C114.923 11.714 114.997 11.54 115.089 11.424C115.181 11.304 115.279 11.244 115.383 11.244C115.815 11.244 116.165 11.202 116.433 11.118C116.705 11.034 116.925 10.882 117.093 10.662C117.265 10.442 117.399 10.128 117.495 9.72H117.639L117.465 10.98C117.733 11.156 118.129 11.244 118.653 11.244C119.025 11.244 119.323 11.198 119.547 11.106C119.775 11.01 119.955 10.854 120.087 10.638C120.223 10.418 120.327 10.112 120.399 9.72H120.549L120.387 10.932C120.507 11.028 120.683 11.104 120.915 11.16C121.147 11.216 121.413 11.244 121.713 11.244C121.941 11.244 122.159 11.226 122.367 11.19C122.575 11.15 122.743 11.102 122.871 11.046C122.999 10.986 123.063 10.932 123.063 10.884C123.063 10.804 122.961 10.668 122.757 10.476C122.557 10.284 122.183 9.982 121.635 9.57C121.787 9.342 121.945 9.062 122.109 8.73C122.273 8.398 122.407 8.072 122.511 7.752H122.583L122.667 7.944C122.787 8.212 122.889 8.466 122.973 8.706C123.061 8.946 123.139 9.242 123.207 9.594C123.275 9.942 123.309 10.322 123.309 10.734ZM119.841 6.432C119.709 6.3 119.535 6.152 119.319 5.988C119.103 5.824 118.913 5.706 118.749 5.634V5.562L119.553 4.542C119.761 4.642 119.971 4.782 120.183 4.962C120.399 5.138 120.553 5.288 120.645 5.412L119.841 6.432ZM118.749 8.178C118.405 8.178 118.149 8.136 117.981 8.052C117.817 7.964 117.735 7.812 117.735 7.596C117.735 7.528 117.745 7.456 117.765 7.38C117.785 7.304 117.817 7.206 117.861 7.086C117.945 6.842 117.999 6.648 118.023 6.504H118.095C118.095 6.644 118.167 6.74 118.311 6.792C118.459 6.844 118.703 6.87 119.043 6.87H119.073C119.297 6.87 119.701 6.862 120.285 6.846C120.873 6.826 121.355 6.8 121.731 6.768C121.655 6.9 121.561 7.114 121.449 7.41C121.337 7.702 121.263 7.924 121.227 8.076C120.759 8.108 120.293 8.134 119.829 8.154C119.365 8.17 119.005 8.178 118.749 8.178ZM130.333 6.408L127.573 7.644L127.645 7.212L130.405 5.97L130.333 6.408ZM129.097 8.262C129.553 8.262 129.945 8.416 130.273 8.724C130.601 9.028 130.851 9.466 131.023 10.038C131.195 10.606 131.281 11.276 131.281 12.048C131.281 13.072 131.147 13.938 130.879 14.646C130.611 15.358 130.251 15.89 129.799 16.242C129.347 16.594 128.847 16.77 128.299 16.77C127.971 16.77 127.655 16.72 127.351 16.62C127.051 16.524 126.699 16.386 126.295 16.206C126.159 16.146 126.023 16.088 125.887 16.032C125.751 15.976 125.633 15.932 125.533 15.9V15.828C126.265 15.7 127.067 15.462 127.939 15.114C128.811 14.766 129.549 14.368 130.153 13.92C130.757 13.476 131.059 13.05 131.059 12.642C131.059 12.502 131.039 12.326 130.999 12.114C130.959 11.898 130.917 11.73 130.873 11.61H130.813C130.781 12.234 130.599 12.71 130.267 13.038C129.939 13.366 129.453 13.53 128.809 13.53C128.205 13.53 127.751 13.364 127.447 13.032C127.143 12.7 126.991 12.228 126.991 11.616C126.991 11 127.077 10.438 127.249 9.93C127.421 9.418 127.665 9.012 127.981 8.712C128.301 8.412 128.673 8.262 129.097 8.262ZM130.717 11.058C130.525 10.682 130.265 10.39 129.937 10.182C129.609 9.97 129.233 9.864 128.809 9.864C128.537 9.864 128.283 9.914 128.047 10.014C127.815 10.114 127.629 10.234 127.489 10.374C127.349 10.514 127.279 10.634 127.279 10.734C127.279 10.842 127.329 10.946 127.429 11.046C127.533 11.146 127.703 11.228 127.939 11.292C128.179 11.356 128.493 11.388 128.881 11.388C129.233 11.388 129.557 11.364 129.853 11.316C130.149 11.264 130.437 11.178 130.717 11.058Z" fill="#822984"/>
<path d="M78.2487 27.5C77.8947 27.5 77.6547 27.38 77.5827 27.092C77.5287 27.14 77.4687 27.182 77.4087 27.212C76.9947 27.41 76.2927 27.5 75.7227 27.5C75.1827 27.5 74.8587 27.398 74.7207 27.26C74.7147 27.848 74.5227 28.298 74.2407 28.532C73.8447 28.862 72.9207 29.18 72.1407 29.18C71.0667 29.18 70.5927 28.7 70.5927 27.98C70.5927 27.596 70.6947 27.044 70.9167 26.342L71.1507 26.414C71.0007 26.978 70.9347 27.446 70.9347 27.704C70.9347 28.274 71.3967 28.634 72.2547 28.634C73.1127 28.634 74.1747 28.256 74.3727 27.962C74.4027 27.92 74.4087 27.83 74.4087 27.752C74.4087 27.362 74.2767 26.624 74.1087 25.958L74.5107 25.724C74.6067 26.3 74.7147 26.612 74.9487 26.78C75.7887 25.754 76.3587 25.19 76.8747 25.19C77.4027 25.19 77.9307 25.802 77.9307 26.324C77.9307 26.51 77.8587 26.714 77.7507 26.888C77.9007 26.93 78.1047 26.954 78.3447 26.954L78.2487 27.5ZM75.1767 26.888C75.3447 26.936 75.5667 26.954 75.8547 26.954C76.7067 26.954 77.5587 26.78 77.6427 26.6C77.6427 26.288 77.1867 25.712 76.7187 25.712C76.3347 25.712 75.8787 26.102 75.1767 26.888ZM83.2897 27.5C82.9357 27.5 82.6957 27.38 82.6237 27.092C82.5697 27.14 82.5097 27.182 82.4497 27.212C82.0357 27.41 81.3337 27.5 80.7637 27.5C80.0017 27.5 79.5397 27.266 79.4617 26.846C79.2217 27.368 78.8497 27.5 78.2497 27.5C78.2197 27.5 78.1897 27.44 78.1897 27.332C78.1897 27.152 78.2617 26.954 78.3457 26.954C79.0297 26.954 79.3357 26.78 79.3837 26.312L79.4197 25.976L79.6837 25.952V26.252C79.6837 26.48 79.7857 26.654 79.9897 26.774C80.8297 25.748 81.3997 25.19 81.9157 25.19C82.4437 25.19 82.9717 25.802 82.9717 26.324C82.9717 26.51 82.8997 26.714 82.7917 26.888C82.9417 26.93 83.1457 26.954 83.3857 26.954L83.2897 27.5ZM80.2237 26.876C80.4037 26.924 80.6257 26.954 80.8957 26.954C81.7477 26.954 82.5997 26.78 82.6837 26.6C82.6837 26.288 82.2277 25.712 81.7597 25.712C81.3757 25.712 80.9257 26.096 80.2237 26.876ZM84.4588 25.184C84.8848 25.184 85.8568 25.826 87.0808 25.97L86.9068 26.39C86.7448 26.39 86.5348 26.42 86.3248 26.48C86.3968 26.822 86.6428 26.954 87.3448 26.954H87.4288L87.3328 27.5H87.2488C86.5108 27.5 86.1988 27.266 86.1088 26.564C85.3348 26.978 84.6628 27.5 83.2888 27.5C83.2588 27.5 83.2288 27.44 83.2288 27.332C83.2288 27.152 83.3008 26.954 83.3848 26.954C84.4528 26.954 85.1008 26.708 86.0968 26.276C85.1068 25.988 84.6388 25.706 84.3388 25.706C84.2068 25.706 84.1288 25.784 83.9428 26.108L83.7568 25.97C84.0508 25.382 84.1948 25.184 84.4588 25.184ZM84.7348 24.41C84.5548 24.302 84.3748 24.17 84.2248 24.02L84.5548 23.6C84.7048 23.75 84.8848 23.882 85.0648 23.99L84.7348 24.41ZM89.5457 27.5C89.0537 27.5 88.7657 27.326 88.6817 26.876C88.4957 27.314 88.1297 27.5 87.4397 27.5H87.3317C87.3017 27.5 87.2717 27.446 87.2717 27.332C87.2717 27.152 87.3437 26.954 87.4277 26.954H87.5357C88.2917 26.954 88.5857 26.78 88.5977 26.348L88.6097 25.844L88.9217 25.784V26.252C88.9217 26.696 89.1137 26.954 89.6417 26.954L89.5457 27.5ZM87.8597 24.416C87.9557 24.536 88.1597 24.686 88.3397 24.806L88.0097 25.196C87.8297 25.076 87.6257 24.926 87.5297 24.806L87.8597 24.416ZM88.9397 25.196C88.7597 25.076 88.5557 24.926 88.4597 24.806L88.7897 24.416C88.8857 24.536 89.0897 24.686 89.2697 24.806L88.9397 25.196ZM91.6526 25.334C91.9286 25.334 92.0966 25.472 92.1866 25.748C92.2586 25.976 92.3126 26.324 92.3126 26.63C92.3126 27.056 92.0066 27.5 91.7606 27.5C91.4306 27.5 90.7346 27.29 90.5666 26.864C90.2606 27.374 89.9726 27.5 89.5466 27.5C89.5166 27.5 89.4866 27.44 89.4866 27.332C89.4866 27.152 89.5586 26.954 89.6426 26.954C90.0806 26.954 90.3326 26.828 90.5906 26.3C90.9446 25.568 91.1726 25.334 91.6526 25.334ZM90.7826 26.438C90.9626 26.75 91.5686 26.978 91.9766 26.978C92.0006 26.978 92.0126 26.954 92.0126 26.882C92.0126 26.75 91.9406 26.27 91.8506 26.048C91.7966 25.922 91.7066 25.838 91.5626 25.838C91.2146 25.838 91.0106 25.988 90.8126 26.372C90.8006 26.396 90.7946 26.42 90.7826 26.438ZM95.4096 25.46C96.0756 25.46 96.4236 26.33 96.4236 27.104C96.4236 27.716 96.2196 28.178 95.7936 28.484C95.3676 28.814 94.4796 29.054 93.6216 29.108C93.5136 29.066 93.4296 28.874 93.2616 28.598C95.1396 28.472 96.0456 28.106 96.1536 27.53C96.1536 27.458 96.1536 27.386 96.1476 27.314C95.8776 27.458 95.5476 27.53 95.1996 27.53C94.7196 27.53 94.4976 27.284 94.4976 26.906C94.4976 26.144 94.8876 25.46 95.4096 25.46ZM94.7496 26.636C94.7496 26.846 94.9296 26.984 95.2896 26.984C95.5836 26.984 95.8596 26.942 96.0816 26.87C95.9556 26.336 95.6736 25.982 95.3256 25.982C95.0016 25.982 94.7496 26.3 94.7496 26.636ZM101.395 27.5C100.909 27.5 100.603 27.296 100.435 26.732C100.411 26.84 100.381 26.93 100.357 26.96C100.075 27.326 99.445 27.602 98.935 27.602C98.539 27.602 98.353 27.386 98.353 26.948C98.353 26.858 98.365 26.618 98.365 26.534L98.611 26.516C98.611 26.534 98.611 26.642 98.611 26.672C98.611 26.936 98.701 27.056 99.049 27.056C99.475 27.056 99.985 26.84 100.309 26.528C100.231 26.066 100.057 25.43 99.835 24.848L100.195 24.554C100.351 24.992 100.471 25.448 100.615 26.084C100.765 26.744 100.999 26.954 101.491 26.954L101.395 27.5ZM103.608 27.5C103.116 27.5 102.828 27.326 102.744 26.876C102.558 27.314 102.192 27.5 101.502 27.5H101.394C101.364 27.5 101.334 27.446 101.334 27.332C101.334 27.152 101.406 26.954 101.49 26.954H101.598C102.354 26.954 102.648 26.78 102.66 26.348L102.672 25.844L102.984 25.784V26.252C102.984 26.696 103.176 26.954 103.704 26.954L103.608 27.5ZM102.612 25.196C102.432 25.088 102.252 24.956 102.102 24.806L102.432 24.386C102.582 24.536 102.762 24.668 102.942 24.776L102.612 25.196ZM107.083 27.5C106.723 27.5 106.393 27.368 106.237 27.056C106.129 27.368 105.955 27.59 105.751 27.59C105.343 27.59 104.749 27.278 104.587 26.894C104.287 27.38 104.017 27.5 103.609 27.5C103.579 27.5 103.549 27.44 103.549 27.332C103.549 27.152 103.621 26.954 103.705 26.954C104.167 26.954 104.401 26.828 104.659 26.294C104.977 25.646 105.325 25.448 105.817 25.448C106.081 25.448 106.213 25.562 106.267 25.892C106.411 26.762 106.627 26.954 107.179 26.954L107.083 27.5ZM104.827 26.462C105.019 26.798 105.607 27.056 105.961 27.068C105.997 26.972 106.003 26.786 105.967 26.54C105.949 26.12 105.895 25.952 105.727 25.952C105.295 25.952 105.025 26.09 104.863 26.384L104.827 26.462ZM108.308 25.4C108.38 25.712 108.482 26.264 108.482 26.468C108.482 26.774 108.284 27.212 108.038 27.344C107.804 27.47 107.438 27.5 107.084 27.5C107.054 27.5 107.024 27.44 107.024 27.332C107.024 27.152 107.096 26.954 107.18 26.954C107.87 26.954 108.134 26.888 108.182 26.78C108.158 26.552 108.044 26.042 107.9 25.652L108.308 25.4ZM108.098 24.932C107.918 24.824 107.738 24.692 107.588 24.542L107.918 24.122C108.068 24.272 108.248 24.404 108.428 24.512L108.098 24.932ZM109.862 27.476L109.532 27.542L109.406 23.03L109.862 22.88V27.476ZM113.012 27.5H112.694C112.622 27.92 112.424 28.25 112.094 28.484C111.668 28.814 110.78 29.054 109.922 29.108C109.814 29.066 109.73 28.874 109.562 28.598C111.44 28.472 112.346 28.106 112.454 27.53V27.494C112.16 27.512 111.806 27.53 111.5 27.53C111.02 27.53 110.798 27.284 110.798 26.906C110.798 26.144 111.188 25.46 111.71 25.46C112.334 25.46 112.676 26.222 112.718 26.954H113.108L113.012 27.5ZM111.05 26.636C111.05 26.846 111.23 26.984 111.59 26.984C111.86 26.984 112.112 26.978 112.4 26.96C112.286 26.378 111.998 25.982 111.626 25.982C111.302 25.982 111.05 26.3 111.05 26.636ZM114.237 25.4C114.309 25.712 114.411 26.264 114.411 26.468C114.411 26.774 114.213 27.212 113.967 27.344C113.733 27.47 113.367 27.5 113.013 27.5C112.983 27.5 112.953 27.44 112.953 27.332C112.953 27.152 113.025 26.954 113.109 26.954C113.799 26.954 114.063 26.888 114.111 26.78C114.087 26.552 113.973 26.042 113.829 25.652L114.237 25.4ZM113.301 24.152C113.397 24.272 113.601 24.422 113.781 24.542L113.451 24.932C113.271 24.812 113.067 24.662 112.971 24.542L113.301 24.152ZM114.381 24.932C114.201 24.812 113.997 24.662 113.901 24.542L114.231 24.152C114.327 24.272 114.531 24.422 114.711 24.542L114.381 24.932ZM120.547 25.238C120.397 25.082 120.265 25.004 120.127 25.004C119.689 25.004 118.981 25.808 118.981 26.126C118.981 26.246 119.107 26.342 119.473 26.408L120.211 26.546C120.511 26.6 120.625 26.786 120.625 27.002C120.625 27.266 120.481 27.656 120.205 27.884C119.671 28.328 118.741 28.58 117.949 28.58C116.875 28.58 116.401 28.1 116.401 27.38C116.401 26.996 116.503 26.444 116.725 25.742L116.959 25.814C116.809 26.378 116.743 26.846 116.743 27.104C116.743 27.674 117.205 28.034 118.063 28.034C119.323 28.034 120.343 27.434 120.355 27.248C120.349 27.2 120.295 27.146 119.995 27.092L119.287 26.96C118.849 26.876 118.699 26.684 118.699 26.396C118.699 25.604 119.605 24.482 120.241 24.482C120.475 24.482 120.673 24.632 120.829 24.902L120.547 25.238ZM123.231 27.5C122.967 27.5 122.751 27.44 122.625 27.314C122.571 28.382 121.935 28.91 120.903 29.114C120.819 29.078 120.705 28.856 120.567 28.658C121.767 28.382 122.271 27.974 122.343 27.572C122.331 27.152 122.163 26.468 122.007 25.976L122.409 25.742C122.601 26.732 122.745 26.954 123.327 26.954L123.231 27.5ZM124.402 25.184C124.828 25.184 125.8 25.826 127.024 25.97L126.85 26.39C126.688 26.39 126.478 26.42 126.268 26.48C126.34 26.822 126.586 26.954 127.288 26.954H127.372L127.276 27.5H127.192C126.454 27.5 126.142 27.266 126.052 26.564C125.278 26.978 124.606 27.5 123.232 27.5C123.202 27.5 123.172 27.44 123.172 27.332C123.172 27.152 123.244 26.954 123.328 26.954C124.396 26.954 125.044 26.708 126.04 26.276C125.05 25.988 124.582 25.706 124.282 25.706C124.15 25.706 124.072 25.784 123.886 26.108L123.7 25.97C123.994 25.382 124.138 25.184 124.402 25.184ZM124.744 28.97C124.564 28.862 124.384 28.73 124.234 28.58L124.564 28.16C124.714 28.31 124.894 28.442 125.074 28.55L124.744 28.97ZM129.381 25.334C129.657 25.334 129.825 25.472 129.915 25.748C129.987 25.976 130.041 26.324 130.041 26.63C130.041 27.056 129.735 27.5 129.489 27.5C129.159 27.5 128.463 27.29 128.295 26.864C127.989 27.374 127.701 27.5 127.275 27.5C127.245 27.5 127.215 27.44 127.215 27.332C127.215 27.152 127.287 26.954 127.371 26.954C127.809 26.954 128.061 26.828 128.319 26.3C128.673 25.568 128.901 25.334 129.381 25.334ZM128.511 26.438C128.691 26.75 129.297 26.978 129.705 26.978C129.729 26.978 129.741 26.954 129.741 26.882C129.741 26.75 129.669 26.27 129.579 26.048C129.525 25.922 129.435 25.838 129.291 25.838C128.943 25.838 128.739 25.988 128.541 26.372C128.529 26.396 128.523 26.42 128.511 26.438Z" fill="#822984"/>
</svg>
