<svg width="100" height="32" viewBox="0 0 100 32" fill="none" xmlns="http://www.w3.org/2000/svg">
<path d="M28.8725 9.936C28.8725 10.764 28.6965 11.444 28.3445 11.976C27.9925 12.504 27.4125 12.902 26.6045 13.17C25.7965 13.438 24.7105 13.572 23.3465 13.572C22.3625 13.572 21.5645 13.47 20.9525 13.266C20.3445 13.058 19.9005 12.752 19.6205 12.348C19.3405 11.944 19.2005 11.432 19.2005 10.812C19.2005 10.42 19.2345 10.018 19.3025 9.606C19.3745 9.194 19.5105 8.722 19.7105 8.19H19.8545C19.7865 8.438 19.7385 8.662 19.7105 8.862C19.6825 9.062 19.6685 9.274 19.6685 9.498C19.6685 9.846 19.8145 10.158 20.1065 10.434C20.3985 10.706 20.8365 10.922 21.4205 11.082C22.0045 11.238 22.7185 11.316 23.5625 11.316C24.6505 11.316 25.5745 11.25 26.3345 11.118C27.0985 10.986 27.6705 10.834 28.0505 10.662C28.4345 10.49 28.6265 10.346 28.6265 10.23C28.6265 10.158 28.5465 10.032 28.3865 9.852C28.2265 9.668 28.0225 9.47 27.7745 9.258C27.5305 9.046 27.2905 8.86 27.0545 8.7C27.2105 8.496 27.3825 8.204 27.5705 7.824C27.7585 7.44 27.9005 7.102 27.9965 6.81H28.0745L28.1825 7.062C28.3065 7.342 28.4145 7.608 28.5065 7.86C28.6025 8.112 28.6865 8.42 28.7585 8.784C28.8345 9.144 28.8725 9.528 28.8725 9.936ZM22.7165 9.048C22.3725 9.048 22.1165 9.006 21.9485 8.922C21.7845 8.834 21.7025 8.682 21.7025 8.466C21.7025 8.394 21.7125 8.316 21.7325 8.232C21.7565 8.144 21.7905 8.034 21.8345 7.902C21.9105 7.666 21.9625 7.466 21.9905 7.302H22.0625C22.0625 7.442 22.1345 7.538 22.2785 7.59C22.4265 7.642 22.6705 7.668 23.0105 7.668H23.0405C23.2645 7.668 23.6685 7.66 24.2525 7.644C24.8405 7.624 25.3225 7.598 25.6985 7.566C25.6265 7.694 25.5345 7.916 25.4225 8.232C25.3105 8.544 25.2345 8.782 25.1945 8.946C24.7265 8.978 24.2605 9.004 23.7965 9.024C23.3325 9.04 22.9725 9.048 22.7165 9.048ZM31.6598 3.174C31.6598 3.338 31.6738 3.778 31.7018 4.494C31.7698 6.27 31.8038 7.6 31.8038 8.484C31.8038 9.376 31.7818 10.082 31.7378 10.602C31.6938 11.118 31.6358 11.518 31.5638 11.802C31.4958 12.082 31.3918 12.412 31.2518 12.792C31.1118 13.164 31.0058 13.472 30.9338 13.716H30.8558C30.8598 13.64 30.8618 13.512 30.8618 13.332C30.8618 12.664 30.8158 11.74 30.7238 10.56C30.6358 9.38 30.5318 8.25 30.4118 7.17C30.2958 6.09 30.2018 5.388 30.1298 5.064C30.3698 4.824 30.6218 4.53 30.8858 4.182C31.1498 3.83 31.3838 3.494 31.5878 3.174H31.6598ZM32.6752 16.77C32.3712 16.77 32.0852 16.72 31.8172 16.62C31.5492 16.524 31.2372 16.386 30.8812 16.206C30.5692 16.05 30.3432 15.948 30.2032 15.9V15.828C30.9232 15.664 31.6772 15.386 32.4652 14.994C33.2572 14.602 33.9192 14.194 34.4512 13.77C34.9872 13.346 35.2552 13.014 35.2552 12.774C35.2552 12.63 35.1072 12.414 34.8112 12.126C34.5152 11.838 34.0692 11.472 33.4732 11.028C33.6292 10.796 33.7992 10.49 33.9832 10.11C34.1712 9.73 34.3172 9.382 34.4212 9.066H34.4932C34.5172 9.126 34.5692 9.236 34.6492 9.396C34.7972 9.692 34.9232 9.968 35.0272 10.224C35.1352 10.48 35.2312 10.78 35.3152 11.124C35.3992 11.468 35.4412 11.824 35.4412 12.192C35.4412 13.156 35.3192 13.982 35.0752 14.67C34.8312 15.362 34.4992 15.884 34.0792 16.236C33.6632 16.592 33.1952 16.77 32.6752 16.77ZM41.4381 10.446C41.4381 11.202 41.3361 11.808 41.1321 12.264C40.9321 12.72 40.6201 13.052 40.1961 13.26C39.7721 13.468 39.2161 13.572 38.5281 13.572C37.9801 13.572 37.5641 13.426 37.2801 13.134C36.9961 12.842 36.8541 12.406 36.8541 11.826C36.8541 11.63 36.8661 11.408 36.8901 11.16C36.9181 10.912 36.9541 10.614 36.9981 10.266H37.1121C37.1121 10.55 37.1581 10.766 37.2501 10.914C37.3461 11.062 37.5041 11.166 37.7241 11.226C37.9441 11.286 38.2601 11.316 38.6721 11.316C39.2361 11.316 39.7081 11.286 40.0881 11.226C40.4721 11.162 40.7561 11.086 40.9401 10.998C41.1241 10.906 41.2161 10.818 41.2161 10.734C41.2161 10.574 41.0581 10.33 40.7421 10.002C40.4301 9.674 40.0501 9.34 39.6021 9C39.1541 8.656 38.7481 8.386 38.3841 8.19C38.5001 7.914 38.6301 7.574 38.7741 7.17C38.9181 6.762 39.0061 6.472 39.0381 6.3H39.1101C39.1461 6.344 39.2481 6.446 39.4161 6.606C39.7641 6.934 40.0761 7.262 40.3521 7.59C40.6281 7.918 40.8781 8.33 41.1021 8.826C41.3261 9.318 41.4381 9.858 41.4381 10.446ZM45.6623 13.5C45.0943 13.5 44.6443 13.414 44.3123 13.242C43.9803 13.07 43.7323 12.78 43.5683 12.372C43.4043 11.964 43.3063 11.394 43.2743 10.662C43.2263 9.462 43.1763 8.528 43.1243 7.86C43.0763 7.192 43.0203 6.672 42.9563 6.3C42.8923 5.928 42.8043 5.516 42.6923 5.064C42.9323 4.824 43.1843 4.53 43.4483 4.182C43.7123 3.83 43.9463 3.494 44.1503 3.174H44.2223C44.2223 3.322 44.2303 3.6 44.2463 4.008C44.2783 4.576 44.2943 5.146 44.2943 5.718C44.2943 6.074 44.2823 6.684 44.2583 7.548C44.2343 8.492 44.2223 9.216 44.2223 9.72C44.2223 10.236 44.3603 10.62 44.6363 10.872C44.9163 11.12 45.3583 11.244 45.9623 11.244L45.6623 13.5ZM53.0169 7.536C53.3769 7.536 53.6869 7.628 53.9469 7.812C54.2109 7.992 54.4129 8.246 54.5529 8.574C54.6929 8.902 54.7629 9.284 54.7629 9.72C54.7629 10.46 54.5969 11.118 54.2649 11.694C53.9369 12.266 53.4749 12.71 52.8789 13.026C52.2829 13.342 51.6009 13.5 50.8329 13.5C48.9049 13.5 47.8629 12.87 47.7069 11.61H47.6349C47.5469 12.25 47.3229 12.726 46.9629 13.038C46.6069 13.346 46.1729 13.5 45.6609 13.5C45.5569 13.5 45.4809 13.442 45.4329 13.326C45.3849 13.206 45.3609 13.024 45.3609 12.78C45.3609 12.456 45.3889 12.178 45.4449 11.946C45.5009 11.714 45.5749 11.54 45.6669 11.424C45.7589 11.304 45.8569 11.244 45.9609 11.244C46.3929 11.244 46.7429 11.202 47.0109 11.118C47.2829 11.034 47.5029 10.882 47.6709 10.662C47.8429 10.442 47.9769 10.128 48.0729 9.72H48.2169C48.2609 10.012 48.3649 10.262 48.5289 10.47C48.6969 10.674 48.9329 10.838 49.2369 10.962C49.7769 10.106 50.2569 9.43 50.6769 8.934C51.0969 8.438 51.4929 8.082 51.8649 7.866C52.2369 7.646 52.6209 7.536 53.0169 7.536ZM49.3869 11.016C49.8429 11.168 50.4469 11.244 51.1989 11.244C52.1509 11.244 52.9269 11.188 53.5269 11.076C54.1269 10.964 54.4269 10.802 54.4269 10.59C54.4269 10.45 54.3529 10.276 54.2049 10.068C54.0569 9.856 53.8429 9.672 53.5629 9.516C53.2869 9.36 52.9589 9.282 52.5789 9.282C52.2469 9.282 51.8849 9.356 51.4929 9.504C51.1049 9.648 50.7249 9.852 50.3529 10.116C49.9849 10.38 49.6629 10.68 49.3869 11.016ZM66.4702 13.5C66.2702 13.5 66.0862 13.462 65.9182 13.386C65.7502 13.306 65.5882 13.172 65.4322 12.984C65.3442 13.816 65.1182 14.52 64.7542 15.096C64.3902 15.676 63.9102 16.112 63.3142 16.404C62.7222 16.7 62.0362 16.848 61.2562 16.848C60.2442 16.848 59.4702 16.57 58.9342 16.014C58.3982 15.458 58.1302 14.668 58.1302 13.644C58.1302 12.56 58.3722 11.494 58.8562 10.446H59.0062C58.7622 11.11 58.6402 11.764 58.6402 12.408C58.6402 12.868 58.7502 13.26 58.9702 13.584C59.1902 13.912 59.5122 14.162 59.9362 14.334C60.3642 14.506 60.8782 14.592 61.4782 14.592C62.1902 14.592 62.8302 14.492 63.3982 14.292C63.9702 14.096 64.4162 13.85 64.7362 13.554C65.0562 13.262 65.2162 12.978 65.2162 12.702C65.2162 12.59 65.1162 12.354 64.9162 11.994C64.7202 11.63 64.4462 11.186 64.0942 10.662C64.2022 10.522 64.3342 10.28 64.4902 9.936C64.6462 9.588 64.7802 9.248 64.8922 8.916H64.9702C65.1582 9.524 65.3482 9.998 65.5402 10.338C65.7362 10.678 65.9322 10.914 66.1282 11.046C66.3242 11.178 66.5382 11.244 66.7702 11.244L66.4702 13.5ZM61.5322 11.472C61.4202 11.32 61.2422 11.144 60.9982 10.944C60.7542 10.744 60.5442 10.606 60.3682 10.53V10.452L61.3162 9.288C61.5362 9.396 61.7682 9.56 62.0122 9.78C62.2602 9.996 62.4402 10.196 62.5522 10.38L61.5322 11.472ZM72.3294 13.5C71.7974 13.5 71.3614 13.35 71.0214 13.05C70.6814 12.746 70.5114 12.23 70.5114 11.502C70.5114 11.302 70.5214 11.12 70.5414 10.956H70.4634C70.4554 11.568 70.3374 12.06 70.1094 12.432C69.8854 12.8 69.5334 13.07 69.0534 13.242C68.5774 13.414 67.9474 13.5 67.1634 13.5H66.4734C66.3694 13.5 66.2934 13.442 66.2454 13.326C66.1974 13.206 66.1734 13.024 66.1734 12.78C66.1734 12.456 66.2014 12.178 66.2574 11.946C66.3134 11.714 66.3874 11.54 66.4794 11.424C66.5714 11.304 66.6694 11.244 66.7734 11.244H67.3734C68.3054 11.244 68.9914 11.192 69.4314 11.088C69.8714 10.984 70.1834 10.8 70.3674 10.536C70.5514 10.272 70.6954 9.854 70.7994 9.282H70.9434V10.008C70.9434 10.396 71.0734 10.7 71.3334 10.92C71.5974 11.136 72.0294 11.244 72.6294 11.244L72.3294 13.5ZM69.4074 14.472C69.7514 14.472 70.0054 14.514 70.1694 14.598C70.3374 14.686 70.4214 14.838 70.4214 15.054C70.4214 15.126 70.4094 15.204 70.3854 15.288C70.3654 15.376 70.3334 15.486 70.2894 15.618C70.2134 15.854 70.1614 16.054 70.1334 16.218H70.0614C70.0614 16.078 69.9874 15.982 69.8394 15.93C69.6954 15.878 69.4534 15.852 69.1134 15.852H69.0834C68.8594 15.852 68.4534 15.86 67.8654 15.876C67.2814 15.896 66.8014 15.922 66.4254 15.954C66.4974 15.826 66.5894 15.604 66.7014 15.288C66.8134 14.976 66.8894 14.738 66.9294 14.574C67.3974 14.542 67.8634 14.516 68.3274 14.496C68.7914 14.48 69.1514 14.472 69.4074 14.472ZM69.1434 15.714L69.4074 14.472L69.1434 15.714ZM78.5728 13.5C78.3608 13.5 78.1588 13.486 77.9668 13.458C77.7788 13.426 77.5668 13.368 77.3308 13.284V13.356C77.5428 13.496 77.6928 13.64 77.7808 13.788C77.8688 13.94 77.9128 14.11 77.9128 14.298C77.9128 14.762 77.8188 15.182 77.6308 15.558C77.4468 15.934 77.1828 16.23 76.8388 16.446C76.4988 16.662 76.1048 16.77 75.6568 16.77C75.1328 16.77 74.6788 16.642 74.2948 16.386C73.9108 16.134 73.6168 15.778 73.4128 15.318C73.2128 14.858 73.1128 14.324 73.1128 13.716L73.1188 13.5H72.3328C72.2288 13.5 72.1528 13.442 72.1048 13.326C72.0568 13.206 72.0328 13.024 72.0328 12.78C72.0328 12.456 72.0608 12.178 72.1168 11.946C72.1728 11.714 72.2468 11.54 72.3388 11.424C72.4308 11.304 72.5288 11.244 72.6328 11.244H73.6108C73.8748 10.568 74.1968 9.946 74.5768 9.378C74.9568 8.806 75.3928 8.208 75.8848 7.584C76.0128 7.424 76.1288 7.274 76.2328 7.134C76.3408 6.994 76.4148 6.886 76.4548 6.81H76.5268C76.5268 7.174 76.5468 7.536 76.5868 7.896C76.6308 8.256 76.6888 8.66 76.7608 9.108C76.8048 9.4 76.8368 9.63 76.8568 9.798C76.8808 9.966 76.8928 10.11 76.8928 10.23C76.8928 10.43 76.8068 10.628 76.6348 10.824C76.4668 11.016 76.1928 11.192 75.8128 11.352V11.43C76.2128 11.354 76.5528 11.304 76.8328 11.28C77.1128 11.256 77.4728 11.244 77.9128 11.244H78.8728L78.5728 13.5ZM76.1368 14.808C76.4808 14.808 76.7688 14.788 77.0008 14.748C77.2368 14.712 77.4108 14.666 77.5228 14.61C77.6348 14.554 77.6908 14.5 77.6908 14.448C77.6908 14.268 77.5848 14.09 77.3728 13.914C77.1608 13.742 76.8468 13.6 76.4308 13.488C76.0148 13.376 75.5188 13.32 74.9428 13.32C74.4628 13.32 74.0628 13.356 73.7428 13.428C73.8948 13.88 74.1788 14.222 74.5948 14.454C75.0148 14.69 75.5288 14.808 76.1368 14.808ZM73.8688 11.34C74.3328 11.336 74.7028 11.32 74.9788 11.292C75.2588 11.264 75.4648 11.218 75.5968 11.154C75.7328 11.086 75.8008 10.996 75.8008 10.884C75.8008 10.796 75.7888 10.678 75.7648 10.53C75.7448 10.382 75.7208 10.224 75.6928 10.056C75.5848 9.404 75.5148 8.856 75.4828 8.412C75.1228 8.848 74.8028 9.324 74.5228 9.84C74.2468 10.352 74.0288 10.852 73.8688 11.34ZM81.7772 10.446C81.7772 11.45 81.5592 12.21 81.1232 12.726C80.6912 13.242 80.0692 13.5 79.2572 13.5H78.5672C78.4632 13.5 78.3872 13.442 78.3392 13.326C78.2912 13.206 78.2672 13.024 78.2672 12.78C78.2672 12.456 78.2952 12.178 78.3512 11.946C78.4072 11.714 78.4812 11.54 78.5732 11.424C78.6652 11.304 78.7632 11.244 78.8672 11.244H79.4672C79.7592 11.244 80.0672 11.22 80.3912 11.172C80.7152 11.12 80.9852 11.056 81.2012 10.98C81.4212 10.9 81.5312 10.818 81.5312 10.734C81.5312 10.662 81.4512 10.536 81.2912 10.356C81.1312 10.176 80.9272 9.98 80.6792 9.768C80.4352 9.556 80.1952 9.37 79.9592 9.21C80.1152 9.006 80.2872 8.714 80.4752 8.334C80.6632 7.95 80.8052 7.612 80.9012 7.32H80.9792C80.9952 7.372 81.0352 7.464 81.0992 7.596C81.2912 8.028 81.4512 8.468 81.5792 8.916C81.7112 9.364 81.7772 9.874 81.7772 10.446ZM79.5392 16.632C79.4032 16.472 79.2192 16.292 78.9872 16.092C78.7552 15.896 78.5512 15.76 78.3752 15.684V15.612L79.3232 14.448C79.5432 14.556 79.7752 14.718 80.0192 14.934C80.2672 15.154 80.4472 15.356 80.5592 15.54L79.5392 16.632Z" fill="#090909"/>
<path d="M34.9902 25.286C35.0622 25.598 35.1642 26.15 35.1642 26.354C35.1642 26.642 34.9602 27.032 34.7682 27.14C34.2762 27.428 33.0702 27.59 32.2002 27.59C30.9642 27.59 30.5322 27.206 30.5322 26.564C30.5322 26.288 30.6222 25.928 30.7722 25.49L30.9882 25.568C30.9042 25.874 30.8622 26.156 30.8622 26.306C30.8622 26.738 31.2402 27.044 32.3022 27.044C33.5742 27.044 34.6962 26.822 34.8702 26.618C34.8402 26.438 34.6962 25.88 34.5822 25.538L34.9902 25.286ZM32.2842 24.59C32.3802 24.71 32.5842 24.86 32.7642 24.98L32.4342 25.37C32.2542 25.25 32.0502 25.1 31.9542 24.98L32.2842 24.59ZM33.3642 25.37C33.1842 25.25 32.9802 25.1 32.8842 24.98L33.2142 24.59C33.3102 24.71 33.5142 24.86 33.6942 24.98L33.3642 25.37ZM36.5431 27.476L36.2131 27.542L36.0871 23.03L36.5431 22.88V27.476ZM38.5191 24.746C39.4251 25.598 39.9291 25.76 39.9291 26.306C39.9291 26.57 39.7611 26.972 39.5571 27.14C39.2211 27.422 38.6091 27.62 38.0391 27.62C37.6191 27.62 37.4331 27.404 37.4331 26.966C37.4331 26.876 37.4451 26.636 37.4451 26.552L37.6911 26.534V26.69C37.6911 26.954 37.7811 27.074 38.1531 27.074C38.7531 27.074 39.5871 26.762 39.6711 26.54C39.6471 26.198 38.8791 25.82 38.2851 25.22L38.5191 24.746ZM41.4965 25.7C41.6465 26.3 41.7305 26.786 41.7305 27.008C41.7305 27.56 41.4665 28.142 40.9385 28.49C40.5365 28.784 39.8765 29.024 39.2465 29.096C39.1385 29.054 39.0365 28.838 38.8925 28.616C40.5665 28.4 41.3105 27.842 41.4425 27.362C41.4305 27.104 41.2505 26.444 41.0825 25.958L41.4965 25.7ZM43.1115 27.476L42.7815 27.542L42.6555 23.03L43.1115 22.88V27.476ZM44.9604 25.46C45.6264 25.46 45.9744 26.33 45.9744 27.104C45.9744 27.716 45.7704 28.178 45.3444 28.484C44.9184 28.814 44.0304 29.054 43.1724 29.108C43.0644 29.066 42.9804 28.874 42.8124 28.598C44.6904 28.472 45.5964 28.106 45.7044 27.53C45.7044 27.458 45.7044 27.386 45.6984 27.314C45.4284 27.458 45.0984 27.53 44.7504 27.53C44.2704 27.53 44.0484 27.284 44.0484 26.906C44.0484 26.144 44.4384 25.46 44.9604 25.46ZM44.3004 26.636C44.3004 26.846 44.4804 26.984 44.8404 26.984C45.1344 26.984 45.4104 26.942 45.6324 26.87C45.5064 26.336 45.2244 25.982 44.8764 25.982C44.5524 25.982 44.3004 26.3 44.3004 26.636ZM49.0678 25.46C49.7338 25.46 50.0818 26.33 50.0818 27.104C50.0818 27.716 49.8778 28.178 49.4518 28.484C49.0258 28.814 48.1378 29.054 47.2798 29.108C47.1718 29.066 47.0878 28.874 46.9198 28.598C48.7978 28.472 49.7038 28.106 49.8118 27.53C49.8118 27.458 49.8118 27.386 49.8058 27.314C49.5358 27.458 49.2058 27.53 48.8578 27.53C48.3778 27.53 48.1558 27.284 48.1558 26.906C48.1558 26.144 48.5458 25.46 49.0678 25.46ZM48.4078 26.636C48.4078 26.846 48.5878 26.984 48.9478 26.984C49.2418 26.984 49.5178 26.942 49.7398 26.87C49.6138 26.336 49.3318 25.982 48.9838 25.982C48.6598 25.982 48.4078 26.3 48.4078 26.636ZM56.5292 25.286C56.6012 25.598 56.7032 26.15 56.7032 26.354C56.7032 26.642 56.4992 27.032 56.3072 27.14C55.8152 27.428 54.6092 27.59 53.7392 27.59C52.5032 27.59 52.0712 27.206 52.0712 26.564C52.0712 26.288 52.1612 25.928 52.3112 25.49L52.5272 25.568C52.4432 25.874 52.4012 26.156 52.4012 26.306C52.4012 26.738 52.7792 27.044 53.8412 27.044C55.1132 27.044 56.2352 26.822 56.4092 26.618C56.3792 26.438 56.2352 25.88 56.1212 25.538L56.5292 25.286ZM53.8232 24.59C53.9192 24.71 54.1232 24.86 54.3032 24.98L53.9732 25.37C53.7932 25.25 53.5892 25.1 53.4932 24.98L53.8232 24.59ZM54.9032 25.37C54.7232 25.25 54.5192 25.1 54.4232 24.98L54.7532 24.59C54.8492 24.71 55.0532 24.86 55.2332 24.98L54.9032 25.37ZM58.0822 27.476L57.7522 27.542L57.6262 23.03L58.0822 22.88V27.476ZM59.6898 25.7C59.8398 26.3 59.9238 26.786 59.9238 27.008C59.9238 27.56 59.6598 28.142 59.1318 28.49C58.7298 28.784 58.0698 29.024 57.4398 29.096C57.3318 29.054 57.2298 28.838 57.0858 28.616C58.7598 28.4 59.5038 27.842 59.6358 27.362C59.6238 27.104 59.4438 26.444 59.2758 25.958L59.6898 25.7ZM61.8629 24.746C62.7689 25.598 63.2729 25.76 63.2729 26.306C63.2729 26.57 63.1049 26.972 62.9009 27.14C62.5649 27.422 61.9529 27.62 61.3829 27.62C60.9629 27.62 60.7769 27.404 60.7769 26.966C60.7769 26.876 60.7889 26.636 60.7889 26.552L61.0349 26.534V26.69C61.0349 26.954 61.1249 27.074 61.4969 27.074C62.0969 27.074 62.9309 26.762 63.0149 26.54C62.9909 26.198 62.2229 25.82 61.6289 25.22L61.8629 24.746ZM65.3226 27.5C64.6266 27.5 64.3146 27.134 64.2906 26.288C64.2726 25.652 64.2066 23.546 64.1946 23.03L64.6506 22.88V26.03C64.6506 26.636 64.8786 26.954 65.4186 26.954L65.3226 27.5ZM68.9899 25.19C69.5179 25.19 70.0459 25.802 70.0459 26.324C70.0459 26.66 69.8179 27.068 69.5239 27.212C69.1099 27.41 68.4079 27.5 67.8379 27.5C67.0759 27.5 66.6139 27.266 66.5359 26.846C66.2959 27.368 65.9239 27.5 65.3239 27.5C65.2939 27.5 65.2639 27.44 65.2639 27.332C65.2639 27.152 65.3359 26.954 65.4199 26.954C66.1039 26.954 66.4099 26.78 66.4579 26.312L66.4939 25.976L66.7579 25.952V26.252C66.7579 26.48 66.8599 26.654 67.0639 26.774C67.9039 25.748 68.4739 25.19 68.9899 25.19ZM67.2979 26.876C67.4779 26.924 67.6999 26.954 67.9699 26.954C68.8219 26.954 69.6739 26.78 69.7579 26.6C69.7579 26.288 69.3019 25.712 68.8339 25.712C68.4499 25.712 67.9999 26.096 67.2979 26.876Z" fill="#090909"/>
</svg>
