<svg width="100" height="32" viewBox="0 0 100 32" fill="none" xmlns="http://www.w3.org/2000/svg">
<path d="M21.2826 9.936C21.2826 10.764 21.1066 11.444 20.7546 11.976C20.4026 12.504 19.8226 12.902 19.0146 13.17C18.2066 13.438 17.1206 13.572 15.7566 13.572C14.7726 13.572 13.9746 13.47 13.3626 13.266C12.7546 13.058 12.3106 12.752 12.0306 12.348C11.7506 11.944 11.6106 11.432 11.6106 10.812C11.6106 10.42 11.6446 10.018 11.7126 9.606C11.7846 9.194 11.9206 8.722 12.1206 8.19H12.2646C12.1966 8.438 12.1486 8.662 12.1206 8.862C12.0926 9.062 12.0786 9.274 12.0786 9.498C12.0786 9.846 12.2246 10.158 12.5166 10.434C12.8086 10.706 13.2466 10.922 13.8306 11.082C14.4146 11.238 15.1286 11.316 15.9726 11.316C17.0606 11.316 17.9846 11.25 18.7446 11.118C19.5086 10.986 20.0806 10.834 20.4606 10.662C20.8446 10.49 21.0366 10.346 21.0366 10.23C21.0366 10.158 20.9566 10.032 20.7966 9.852C20.6366 9.668 20.4326 9.47 20.1846 9.258C19.9406 9.046 19.7006 8.86 19.4646 8.7C19.6206 8.496 19.7926 8.204 19.9806 7.824C20.1686 7.44 20.3106 7.102 20.4066 6.81H20.4846L20.5926 7.062C20.7166 7.342 20.8246 7.608 20.9166 7.86C21.0126 8.112 21.0966 8.42 21.1686 8.784C21.2446 9.144 21.2826 9.528 21.2826 9.936ZM15.1266 9.048C14.7826 9.048 14.5266 9.006 14.3586 8.922C14.1946 8.834 14.1126 8.682 14.1126 8.466C14.1126 8.394 14.1226 8.316 14.1426 8.232C14.1666 8.144 14.2006 8.034 14.2446 7.902C14.3206 7.666 14.3726 7.466 14.4006 7.302H14.4726C14.4726 7.442 14.5446 7.538 14.6886 7.59C14.8366 7.642 15.0806 7.668 15.4206 7.668H15.4506C15.6746 7.668 16.0786 7.66 16.6626 7.644C17.2506 7.624 17.7326 7.598 18.1086 7.566C18.0366 7.694 17.9446 7.916 17.8326 8.232C17.7206 8.544 17.6446 8.782 17.6046 8.946C17.1366 8.978 16.6706 9.004 16.2066 9.024C15.7426 9.04 15.3826 9.048 15.1266 9.048ZM25.51 13.5C24.942 13.5 24.492 13.414 24.16 13.242C23.828 13.07 23.58 12.78 23.416 12.372C23.252 11.964 23.154 11.394 23.122 10.662C23.074 9.462 23.024 8.528 22.972 7.86C22.924 7.192 22.868 6.672 22.804 6.3C22.74 5.928 22.652 5.516 22.54 5.064C22.78 4.824 23.032 4.53 23.296 4.182C23.56 3.83 23.794 3.494 23.998 3.174H24.07C24.07 3.322 24.078 3.6 24.094 4.008C24.126 4.576 24.142 5.146 24.142 5.718C24.142 6.074 24.13 6.684 24.106 7.548C24.082 8.492 24.07 9.216 24.07 9.72C24.07 10.236 24.208 10.62 24.484 10.872C24.764 11.12 25.206 11.244 25.81 11.244L25.51 13.5ZM28.9346 6.882C29.2506 6.882 29.5226 6.942 29.7506 7.062C29.9826 7.178 30.1586 7.342 30.2786 7.554C30.4026 7.766 30.4646 8.012 30.4646 8.292C30.4646 8.532 30.4166 8.79 30.3206 9.066H30.2426C30.2426 8.886 30.1106 8.744 29.8466 8.64C29.5826 8.536 29.2306 8.484 28.7906 8.484C28.4386 8.484 28.0886 8.536 27.7406 8.64C27.3966 8.744 27.1146 8.886 26.8946 9.066C26.6786 9.242 26.5706 9.436 26.5706 9.648C26.5706 9.864 26.6626 10.068 26.8466 10.26C27.0306 10.448 27.2806 10.6 27.5966 10.716C27.9166 10.828 28.2666 10.884 28.6466 10.884C29.2346 10.884 29.7946 10.846 30.3266 10.77C30.8586 10.694 31.3406 10.58 31.7726 10.428V10.506C31.6246 10.654 31.4086 10.946 31.1246 11.382C30.8446 11.814 30.6286 12.19 30.4766 12.51C30.0886 12.598 29.5426 12.74 28.8386 12.936C28.3826 13.068 28.0006 13.172 27.6926 13.248C27.3886 13.32 27.0546 13.38 26.6906 13.428C26.3266 13.476 25.9326 13.5 25.5086 13.5C25.4046 13.5 25.3286 13.442 25.2806 13.326C25.2326 13.206 25.2086 13.024 25.2086 12.78C25.2086 12.456 25.2366 12.178 25.2926 11.946C25.3486 11.714 25.4226 11.54 25.5146 11.424C25.6066 11.304 25.7046 11.244 25.8086 11.244H26.4986C26.4106 11.128 26.3466 10.994 26.3066 10.842C26.2666 10.69 26.2466 10.51 26.2466 10.302C26.2466 9.706 26.3686 9.146 26.6126 8.622C26.8606 8.094 27.1906 7.672 27.6026 7.356C28.0146 7.04 28.4586 6.882 28.9346 6.882ZM39.3332 13.5C38.7932 13.5 38.3612 13.42 38.0372 13.26C37.7132 13.1 37.4692 12.804 37.3052 12.372C37.1412 11.936 37.0592 11.314 37.0592 10.506C37.0592 10.406 37.0632 10.24 37.0712 10.008H36.9992C36.9272 11.176 36.6632 12.05 36.2072 12.63C35.7552 13.21 35.1472 13.5 34.3832 13.5C34.0632 13.5 33.7632 13.458 33.4832 13.374C33.2032 13.286 32.8492 13.152 32.4212 12.972C32.1772 12.868 31.9572 12.778 31.7612 12.702V12.63C32.8212 12.266 33.6612 11.966 34.2812 11.73C34.9012 11.494 35.3932 11.28 35.7572 11.088C35.3812 9.596 34.0972 8.146 31.9052 6.738C31.9692 6.486 32.0252 6.168 32.0732 5.784C32.1212 5.396 32.1452 5.036 32.1452 4.704C32.1452 4.544 32.1392 4.398 32.1272 4.266H32.1992C32.2912 4.366 32.4552 4.524 32.6912 4.74C33.2512 5.256 33.7452 5.768 34.1732 6.276C34.6052 6.78 34.9912 7.422 35.3312 8.202C35.6712 8.982 35.8412 9.858 35.8412 10.83L35.8352 11.046C36.2072 10.842 36.4692 10.642 36.6212 10.446C36.7772 10.25 36.8552 10.032 36.8552 9.792C36.8552 9.196 36.8052 8.368 36.7052 7.308C36.6052 6.248 36.5092 5.5 36.4172 5.064C36.6572 4.824 36.9092 4.53 37.1732 4.182C37.4372 3.83 37.6712 3.494 37.8752 3.174H37.9472C37.9472 3.322 37.9552 3.6 37.9712 4.008C38.0032 4.576 38.0192 5.146 38.0192 5.718C38.0192 6.074 38.0072 6.684 37.9832 7.548C37.9592 8.492 37.9472 9.216 37.9472 9.72C37.9472 10.232 38.0832 10.614 38.3552 10.866C38.6272 11.118 39.0532 11.244 39.6332 11.244L39.3332 13.5ZM44.0707 7.536C44.4307 7.536 44.7407 7.628 45.0007 7.812C45.2647 7.992 45.4667 8.246 45.6067 8.574C45.7467 8.902 45.8167 9.284 45.8167 9.72C45.8167 10.46 45.6507 11.118 45.3187 11.694C44.9907 12.266 44.5287 12.71 43.9327 13.026C43.3407 13.342 42.6607 13.5 41.8927 13.5H39.3367C39.2327 13.5 39.1567 13.442 39.1087 13.326C39.0607 13.206 39.0367 13.024 39.0367 12.78C39.0367 12.456 39.0647 12.178 39.1207 11.946C39.1767 11.714 39.2507 11.54 39.3427 11.424C39.4347 11.304 39.5327 11.244 39.6367 11.244H39.9667C40.5147 10.472 40.7887 9.542 40.7887 8.454C40.7887 7.958 40.7447 7.374 40.6567 6.702C40.5727 6.03 40.4847 5.484 40.3927 5.064C40.6327 4.824 40.8847 4.528 41.1487 4.176C41.4167 3.824 41.6487 3.49 41.8447 3.174H41.9227C41.9227 3.266 41.9387 3.744 41.9707 4.608C42.0147 5.796 42.0367 6.506 42.0367 6.738C42.0367 7.094 41.9967 7.422 41.9167 7.722C41.8407 8.022 41.6907 8.39 41.4667 8.826C41.2467 9.262 40.9027 9.874 40.4347 10.662H40.5067C41.0107 9.882 41.4587 9.266 41.8507 8.814C42.2467 8.362 42.6207 8.036 42.9727 7.836C43.3247 7.636 43.6907 7.536 44.0707 7.536ZM42.2527 11.244C43.2047 11.244 43.9807 11.188 44.5807 11.076C45.1847 10.964 45.4867 10.802 45.4867 10.59C45.4867 10.45 45.4127 10.276 45.2647 10.068C45.1167 9.856 44.9027 9.672 44.6227 9.516C44.3467 9.36 44.0187 9.282 43.6387 9.282C43.2827 9.282 42.8927 9.366 42.4687 9.534C42.0487 9.702 41.6427 9.936 41.2507 10.236C40.8587 10.536 40.5307 10.872 40.2667 11.244H42.2527ZM48.6091 3.174C48.6091 3.338 48.6231 3.778 48.6511 4.494C48.7191 6.27 48.7531 7.6 48.7531 8.484C48.7531 9.376 48.7311 10.082 48.6871 10.602C48.6431 11.118 48.5851 11.518 48.5131 11.802C48.4451 12.082 48.3411 12.412 48.2011 12.792C48.0611 13.164 47.9551 13.472 47.8831 13.716H47.8051C47.8091 13.64 47.8111 13.512 47.8111 13.332C47.8111 12.664 47.7651 11.74 47.6731 10.56C47.5851 9.38 47.4811 8.25 47.3611 7.17C47.2451 6.09 47.1511 5.388 47.0791 5.064C47.3191 4.824 47.5711 4.53 47.8351 4.182C48.0991 3.83 48.3331 3.494 48.5371 3.174H48.6091ZM58.299 6.3C58.707 6.3 59.029 6.424 59.265 6.672C59.501 6.916 59.619 7.24 59.619 7.644C59.619 7.916 59.567 8.196 59.463 8.484H59.391C59.391 8.304 59.267 8.162 59.019 8.058C58.771 7.954 58.459 7.902 58.083 7.902C57.627 7.902 57.203 7.998 56.811 8.19C56.423 8.378 56.113 8.608 55.881 8.88C55.653 9.148 55.539 9.388 55.539 9.6C55.539 9.808 55.685 9.96 55.977 10.056C56.273 10.152 56.683 10.21 57.207 10.23L57.981 10.26C58.437 10.28 58.791 10.342 59.043 10.446C59.299 10.546 59.481 10.708 59.589 10.932C59.701 11.156 59.757 11.464 59.757 11.856C59.757 12.748 59.585 13.512 59.241 14.148C58.897 14.788 58.397 15.276 57.741 15.612C57.089 15.948 56.305 16.116 55.389 16.116C54.369 16.116 53.593 15.84 53.061 15.288C52.529 14.74 52.263 13.95 52.263 12.918C52.263 11.834 52.505 10.768 52.989 9.72H53.139C52.895 10.384 52.773 11.038 52.773 11.682C52.773 12.382 53.019 12.922 53.511 13.302C54.003 13.678 54.703 13.866 55.611 13.866C56.531 13.866 57.281 13.79 57.861 13.638C58.441 13.486 58.857 13.304 59.109 13.092C59.365 12.876 59.493 12.668 59.493 12.468C59.493 12.416 59.449 12.376 59.361 12.348C59.273 12.32 59.115 12.296 58.887 12.276C58.659 12.256 58.319 12.238 57.867 12.222L57.063 12.192C56.603 12.176 56.237 12.122 55.965 12.03C55.697 11.934 55.497 11.778 55.365 11.562C55.237 11.346 55.173 11.046 55.173 10.662C55.173 10.03 55.321 9.372 55.617 8.688C55.913 8.004 56.301 7.436 56.781 6.984C57.265 6.528 57.771 6.3 58.299 6.3ZM60.9681 16.77C60.6641 16.77 60.3781 16.72 60.1101 16.62C59.8421 16.524 59.5301 16.386 59.1741 16.206C58.8621 16.05 58.6361 15.948 58.4961 15.9V15.828C59.2161 15.664 59.9701 15.386 60.7581 14.994C61.5501 14.602 62.2121 14.194 62.7441 13.77C63.2801 13.346 63.5481 13.014 63.5481 12.774C63.5481 12.63 63.4001 12.414 63.1041 12.126C62.8081 11.838 62.3621 11.472 61.7661 11.028C61.9221 10.796 62.0921 10.49 62.2761 10.11C62.4641 9.73 62.6101 9.382 62.7141 9.066H62.7861C62.8101 9.126 62.8621 9.236 62.9421 9.396C63.0901 9.692 63.2161 9.968 63.3201 10.224C63.4281 10.48 63.5241 10.78 63.6081 11.124C63.6921 11.468 63.7341 11.824 63.7341 12.192C63.7341 13.156 63.6121 13.982 63.3681 14.67C63.1241 15.362 62.7921 15.884 62.3721 16.236C61.9561 16.592 61.4881 16.77 60.9681 16.77ZM67.967 13.5C67.399 13.5 66.949 13.414 66.617 13.242C66.285 13.07 66.037 12.78 65.873 12.372C65.709 11.964 65.611 11.394 65.579 10.662C65.531 9.462 65.481 8.528 65.429 7.86C65.381 7.192 65.325 6.672 65.261 6.3C65.197 5.928 65.109 5.516 64.997 5.064C65.237 4.824 65.489 4.53 65.753 4.182C66.017 3.83 66.251 3.494 66.455 3.174H66.527C66.527 3.322 66.535 3.6 66.551 4.008C66.583 4.576 66.599 5.146 66.599 5.718C66.599 6.074 66.587 6.684 66.563 7.548C66.539 8.492 66.527 9.216 66.527 9.72C66.527 10.236 66.665 10.62 66.941 10.872C67.221 11.12 67.663 11.244 68.267 11.244L67.967 13.5ZM71.8296 9.72C71.1856 9.72 70.7256 9.938 70.4496 10.374C70.6056 10.578 70.8416 10.764 71.1576 10.932C71.4736 11.1 71.8076 11.232 72.1596 11.328C72.5116 11.42 72.8136 11.466 73.0656 11.466C73.3016 11.466 73.4816 11.438 73.6056 11.382C73.7296 11.322 73.7916 11.252 73.7916 11.172C73.7916 10.992 73.7056 10.788 73.5336 10.56C73.3616 10.328 73.1256 10.13 72.8256 9.966C72.5256 9.802 72.1936 9.72 71.8296 9.72ZM75.7356 13.5C75.2556 13.5 74.8696 13.324 74.5776 12.972C74.2856 12.62 74.1216 12.092 74.0856 11.388H74.0136C73.9776 12.164 73.8496 12.746 73.6296 13.134C73.4096 13.522 73.1256 13.716 72.7776 13.716C72.2696 13.716 71.7916 13.634 71.3436 13.47C70.8996 13.306 70.5416 13.08 70.2696 12.792C70.0016 12.5 69.8676 12.178 69.8676 11.826C69.8676 11.658 69.8816 11.476 69.9096 11.28C69.9376 11.08 69.9716 10.898 70.0116 10.734H69.9396C69.8956 10.846 69.8376 11.048 69.7656 11.34C69.6656 11.76 69.5576 12.116 69.4416 12.408C69.3256 12.7 69.1476 12.956 68.9076 13.176C68.6716 13.392 68.3576 13.5 67.9656 13.5C67.8616 13.5 67.7856 13.442 67.7376 13.326C67.6896 13.206 67.6656 13.024 67.6656 12.78C67.6656 12.456 67.6936 12.178 67.7496 11.946C67.8056 11.714 67.8796 11.54 67.9716 11.424C68.0636 11.304 68.1616 11.244 68.2656 11.244C68.5576 11.244 68.7956 11.216 68.9796 11.16C69.1676 11.104 69.3376 10.994 69.4896 10.83C69.6456 10.662 69.7956 10.412 69.9396 10.08L70.2276 10.302C70.4996 9.734 70.7436 9.294 70.9596 8.982C71.1756 8.67 71.3916 8.448 71.6076 8.316C71.8236 8.184 72.0676 8.118 72.3396 8.118C72.5756 8.118 72.7896 8.166 72.9816 8.262C73.1736 8.354 73.3696 8.526 73.5696 8.778C73.7736 9.03 73.9936 9.392 74.2296 9.864C74.4696 10.348 74.7316 10.7 75.0156 10.92C75.3036 11.136 75.6436 11.244 76.0356 11.244L75.7356 13.5ZM82.4072 13.5C81.8392 13.5 81.3632 13.468 80.9792 13.404C80.5952 13.336 80.2632 13.216 79.9832 13.044C79.7072 12.872 79.4772 12.626 79.2932 12.306C78.7692 12.758 78.2532 13.07 77.7452 13.242C77.2412 13.414 76.6712 13.5 76.0352 13.5H75.7352C75.6312 13.5 75.5552 13.442 75.5072 13.326C75.4592 13.206 75.4352 13.024 75.4352 12.78C75.4352 12.456 75.4632 12.178 75.5192 11.946C75.5752 11.714 75.6492 11.54 75.7412 11.424C75.8332 11.304 75.9312 11.244 76.0352 11.244C77.0032 11.244 77.7512 11.214 78.2792 11.154C77.5912 10.21 77.1032 9.662 76.8152 9.51L76.2512 9.72L76.1792 9.648C76.2752 9.448 76.3932 9.18 76.5332 8.844C76.6732 8.508 76.7692 8.242 76.8212 8.046C77.2092 7.866 77.6852 7.712 78.2492 7.584C78.8172 7.456 79.3392 7.392 79.8152 7.392C80.3232 7.392 80.8332 7.446 81.3452 7.554C81.8572 7.658 82.3132 7.802 82.7132 7.986C82.5892 8.226 82.4392 8.55 82.2632 8.958C82.0912 9.366 81.9532 9.72 81.8492 10.02C81.8052 10.152 81.7052 10.304 81.5492 10.476C81.3932 10.644 81.1092 10.882 80.6972 11.19C80.8452 11.21 81.0672 11.224 81.3632 11.232C81.6632 11.24 82.1092 11.244 82.7012 11.244H82.9652L82.6652 13.5H82.4072ZM77.3432 9.402C77.4952 9.402 77.6432 9.436 77.7872 9.504C77.9352 9.572 78.1332 9.704 78.3812 9.9C78.6332 10.092 79.0212 10.414 79.5452 10.866C80.0172 10.638 80.4692 10.394 80.9012 10.134C81.3372 9.87 81.6952 9.612 81.9752 9.36C81.3232 9.112 80.5272 8.988 79.5872 8.988C79.2632 8.988 78.9072 9.016 78.5192 9.072C78.1352 9.124 77.7432 9.204 77.3432 9.312V9.402ZM86.5249 9.57C85.8809 9.57 85.4209 9.79 85.1449 10.23C85.2969 10.434 85.5309 10.614 85.8469 10.77C86.1629 10.922 86.4969 11.04 86.8489 11.124C87.2009 11.204 87.5049 11.244 87.7609 11.244C88.0129 11.244 88.1969 11.226 88.3129 11.19C88.4289 11.154 88.4869 11.1 88.4869 11.028C88.4869 10.848 88.4009 10.642 88.2289 10.41C88.0569 10.178 87.8209 9.98 87.5209 9.816C87.2209 9.652 86.8889 9.57 86.5249 9.57ZM86.9629 7.974C87.3389 7.974 87.6629 8.102 87.9349 8.358C88.2109 8.614 88.4209 8.958 88.5649 9.39C88.7089 9.818 88.7809 10.292 88.7809 10.812C88.7809 11.348 88.7189 11.82 88.5949 12.228C88.4709 12.636 88.3069 12.95 88.1029 13.17C87.9029 13.39 87.6929 13.5 87.4729 13.5C86.9609 13.5 86.4809 13.424 86.0329 13.272C85.5889 13.116 85.2329 12.9 84.9649 12.624C84.6969 12.348 84.5629 12.034 84.5629 11.682C84.5629 11.51 84.5769 11.326 84.6049 11.13C84.6329 10.934 84.6669 10.754 84.7069 10.59H84.6349C84.6069 10.662 84.5769 10.758 84.5449 10.878C84.5169 10.994 84.4889 11.116 84.4609 11.244C84.3649 11.684 84.2609 12.056 84.1489 12.36C84.0369 12.664 83.8609 12.93 83.6209 13.158C83.3809 13.386 83.0609 13.5 82.6609 13.5C82.5569 13.5 82.4809 13.442 82.4329 13.326C82.3849 13.206 82.3609 13.024 82.3609 12.78C82.3609 12.456 82.3889 12.178 82.4449 11.946C82.5009 11.714 82.5749 11.54 82.6669 11.424C82.7589 11.304 82.8569 11.244 82.9609 11.244C83.2569 11.244 83.4969 11.214 83.6809 11.154C83.8689 11.094 84.0389 10.972 84.1909 10.788C84.3429 10.6 84.4909 10.316 84.6349 9.936L84.9229 10.152C85.1949 9.592 85.4369 9.156 85.6489 8.844C85.8649 8.528 86.0749 8.304 86.2789 8.172C86.4869 8.04 86.7149 7.974 86.9629 7.974Z" fill="#090909"/>
<path d="M24.1503 25.286C24.2223 25.598 24.3243 26.15 24.3243 26.354C24.3243 26.642 24.1203 27.032 23.9283 27.14C23.4363 27.428 22.2303 27.59 21.3603 27.59C20.1243 27.59 19.6923 27.206 19.6923 26.564C19.6923 26.288 19.7823 25.928 19.9323 25.49L20.1483 25.568C20.0643 25.874 20.0223 26.156 20.0223 26.306C20.0223 26.738 20.4003 27.044 21.4623 27.044C22.7343 27.044 23.8563 26.822 24.0303 26.618C24.0003 26.438 23.8563 25.88 23.7423 25.538L24.1503 25.286ZM21.4443 24.59C21.5403 24.71 21.7443 24.86 21.9243 24.98L21.5943 25.37C21.4143 25.25 21.2103 25.1 21.1143 24.98L21.4443 24.59ZM22.5243 25.37C22.3443 25.25 22.1403 25.1 22.0443 24.98L22.3743 24.59C22.4703 24.71 22.6743 24.86 22.8543 24.98L22.5243 25.37ZM26.3753 27.5C25.6793 27.5 25.3673 27.134 25.3433 26.288C25.3253 25.652 25.2593 23.546 25.2473 23.03L25.7033 22.88V26.03C25.7033 26.636 25.9313 26.954 26.4713 26.954L26.3753 27.5ZM28.7287 25.19C29.2567 25.19 29.7847 25.802 29.7847 26.324C29.7847 26.66 29.5567 27.068 29.2627 27.212C28.8487 27.41 28.1467 27.5 27.4327 27.5H26.3767C26.3467 27.5 26.3167 27.44 26.3167 27.332C26.3167 27.152 26.3887 26.954 26.4727 26.954H26.6587C26.8267 26.744 26.9827 26.558 27.1327 26.384L27.0187 23.03L27.4687 22.88L27.4567 26.018C27.9607 25.478 28.3567 25.19 28.7287 25.19ZM26.9707 26.954H27.5647C28.5967 26.954 29.4127 26.78 29.4967 26.6C29.4967 26.288 29.0407 25.712 28.5727 25.712C28.1767 25.712 27.7087 26.126 26.9707 26.954ZM31.8362 27.5C31.1402 27.5 30.8282 27.134 30.8042 26.288C30.7862 25.652 30.7202 23.546 30.7082 23.03L31.1642 22.88V26.03C31.1642 26.636 31.3922 26.954 31.9322 26.954L31.8362 27.5ZM34.0516 27.5C33.5596 27.5 33.2716 27.326 33.1876 26.876C33.0016 27.314 32.6356 27.5 31.9456 27.5H31.8376C31.8076 27.5 31.7776 27.446 31.7776 27.332C31.7776 27.152 31.8496 26.954 31.9336 26.954H32.0416C32.7976 26.954 33.0916 26.78 33.1036 26.348L33.1156 25.844L33.4276 25.784V26.252C33.4276 26.696 33.6196 26.954 34.1476 26.954L34.0516 27.5ZM32.4916 28.97C32.3116 28.862 32.1316 28.73 31.9816 28.58L32.3116 28.16C32.4616 28.31 32.6416 28.442 32.8216 28.55L32.4916 28.97ZM35.2764 25.4C35.3484 25.712 35.4504 26.264 35.4504 26.468C35.4504 26.774 35.2524 27.212 35.0064 27.344C34.7724 27.47 34.4064 27.5 34.0524 27.5C34.0224 27.5 33.9924 27.44 33.9924 27.332C33.9924 27.152 34.0644 26.954 34.1484 26.954C34.8384 26.954 35.1024 26.888 35.1504 26.78C35.1264 26.552 35.0124 26.042 34.8684 25.652L35.2764 25.4ZM34.3404 24.152C34.4364 24.272 34.6404 24.422 34.8204 24.542L34.4904 24.932C34.3104 24.812 34.1064 24.662 34.0104 24.542L34.3404 24.152ZM35.4204 24.932C35.2404 24.812 35.0364 24.662 34.9404 24.542L35.2704 24.152C35.3664 24.272 35.5704 24.422 35.7504 24.542L35.4204 24.932ZM37.0199 25.7C37.1699 26.3 37.2539 26.786 37.2539 27.008C37.2539 27.56 36.9899 28.142 36.4619 28.49C36.0599 28.784 35.3999 29.024 34.7699 29.096C34.6619 29.054 34.5599 28.838 34.4159 28.616C36.0899 28.4 36.8339 27.842 36.9659 27.362C36.9539 27.104 36.7739 26.444 36.6059 25.958L37.0199 25.7ZM38.6349 27.476L38.3049 27.542L38.1789 23.03L38.6349 22.88V27.476ZM41.767 25.46C42.433 25.46 42.781 26.33 42.781 27.104C42.781 27.716 42.577 28.178 42.151 28.484C41.725 28.814 40.837 29.054 39.979 29.108C39.871 29.066 39.787 28.874 39.619 28.598C41.497 28.472 42.403 28.106 42.511 27.53C42.511 27.458 42.511 27.386 42.505 27.314C42.235 27.458 41.905 27.53 41.557 27.53C41.077 27.53 40.855 27.284 40.855 26.906C40.855 26.144 41.245 25.46 41.767 25.46ZM41.107 26.636C41.107 26.846 41.287 26.984 41.647 26.984C41.941 26.984 42.217 26.942 42.439 26.87C42.313 26.336 42.031 25.982 41.683 25.982C41.359 25.982 41.107 26.3 41.107 26.636ZM49.2285 25.286C49.3005 25.598 49.4025 26.15 49.4025 26.354C49.4025 26.642 49.1985 27.032 49.0065 27.14C48.5145 27.428 47.3085 27.59 46.4385 27.59C45.2025 27.59 44.7705 27.206 44.7705 26.564C44.7705 26.288 44.8605 25.928 45.0105 25.49L45.2265 25.568C45.1425 25.874 45.1005 26.156 45.1005 26.306C45.1005 26.738 45.4785 27.044 46.5405 27.044C47.8125 27.044 48.9345 26.822 49.1085 26.618C49.0785 26.438 48.9345 25.88 48.8205 25.538L49.2285 25.286ZM46.5225 24.59C46.6185 24.71 46.8225 24.86 47.0025 24.98L46.6725 25.37C46.4925 25.25 46.2885 25.1 46.1925 24.98L46.5225 24.59ZM47.6025 25.37C47.4225 25.25 47.2185 25.1 47.1225 24.98L47.4525 24.59C47.5485 24.71 47.7525 24.86 47.9325 24.98L47.6025 25.37ZM51.4534 27.5C50.7574 27.5 50.4454 27.134 50.4214 26.288C50.4034 25.652 50.3374 23.546 50.3254 23.03L50.7814 22.88V26.03C50.7814 26.636 51.0094 26.954 51.5494 26.954L51.4534 27.5ZM53.7048 25.556C53.5308 25.598 53.3748 25.61 53.0988 25.61C52.6548 25.61 52.4208 25.67 52.3248 25.778C52.2828 25.85 52.2648 25.946 52.2648 26.054C52.2648 26.516 52.6488 26.816 53.0328 26.816C53.3088 26.816 53.5908 26.744 54.2448 26.558L54.2088 27.044C53.0508 27.398 52.2288 27.5 51.4548 27.5C51.4248 27.5 51.3948 27.44 51.3948 27.332C51.3948 27.152 51.4668 26.954 51.5508 26.954C51.7248 26.954 51.9468 26.954 52.1568 26.936C52.0188 26.78 51.9528 26.564 51.9528 26.3C51.9528 25.61 52.4808 25.094 53.1048 25.094C53.3268 25.094 53.6448 25.118 53.8608 25.142L53.7048 25.556ZM54.9718 23.24C55.5118 24.344 56.2318 25.55 56.3638 26.414C56.8438 26.042 57.0418 25.556 57.0358 24.866C57.0298 24.386 57.0058 23.42 56.9938 23.048L57.4198 22.88V25.79C57.4198 26.6 57.6598 26.954 58.1818 26.954L58.0858 27.5C57.4678 27.5 57.0898 27.182 57.0658 26.066V25.724C56.9938 26.078 56.9038 26.3 56.7838 26.492C56.4418 27.02 55.7818 27.404 55.0858 27.584C55.0198 27.548 54.8938 27.35 54.7258 27.14C55.2838 26.984 55.7278 26.816 56.0638 26.618C55.8778 25.784 55.1698 24.626 54.6418 23.618L54.9718 23.24ZM60.4396 25.19C60.9676 25.19 61.4956 25.802 61.4956 26.324C61.4956 26.66 61.2676 27.068 60.9736 27.212C60.5596 27.41 59.8576 27.5 59.1436 27.5H58.0876C58.0576 27.5 58.0276 27.44 58.0276 27.332C58.0276 27.152 58.0996 26.954 58.1836 26.954H58.3696C58.5376 26.744 58.6936 26.558 58.8436 26.384L58.7296 23.03L59.1796 22.88L59.1676 26.018C59.6716 25.478 60.0676 25.19 60.4396 25.19ZM58.6816 26.954H59.2756C60.3076 26.954 61.1236 26.78 61.2076 26.6C61.2076 26.288 60.7516 25.712 60.2836 25.712C59.8876 25.712 59.4196 26.126 58.6816 26.954ZM62.8752 27.476L62.5452 27.542L62.4192 23.03L62.8752 22.88V27.476ZM69.0493 25.238C68.8993 25.082 68.7673 25.004 68.6293 25.004C68.1913 25.004 67.4833 25.808 67.4833 26.126C67.4833 26.246 67.6093 26.342 67.9753 26.408L68.7133 26.546C69.0133 26.6 69.1273 26.786 69.1273 27.002C69.1273 27.266 68.9833 27.656 68.7073 27.884C68.1733 28.328 67.2433 28.58 66.4513 28.58C65.3773 28.58 64.9033 28.1 64.9033 27.38C64.9033 26.996 65.0053 26.444 65.2273 25.742L65.4613 25.814C65.3113 26.378 65.2453 26.846 65.2453 27.104C65.2453 27.674 65.7073 28.034 66.5653 28.034C67.8253 28.034 68.8453 27.434 68.8573 27.248C68.8513 27.2 68.7973 27.146 68.4973 27.092L67.7893 26.96C67.3513 26.876 67.2013 26.684 67.2013 26.396C67.2013 25.604 68.1073 24.482 68.7433 24.482C68.9773 24.482 69.1753 24.632 69.3313 24.902L69.0493 25.238ZM70.8988 25.7C71.0488 26.3 71.1328 26.822 71.1328 27.152C71.1328 28.328 70.4908 28.898 69.4048 29.114C69.3208 29.078 69.2068 28.856 69.0688 28.658C70.2688 28.382 70.7728 27.974 70.8448 27.572C70.8328 27.188 70.6648 26.468 70.4848 25.958L70.8988 25.7ZM72.9448 25.46C73.6108 25.46 73.9588 26.33 73.9588 27.104C73.9588 27.716 73.7548 28.178 73.3288 28.484C72.9448 28.79 72.2188 29.048 71.4568 29.108C71.3488 29.066 71.2648 28.856 71.1088 28.61C72.8308 28.436 73.5928 28.058 73.6888 27.53C73.6888 27.458 73.6888 27.386 73.6828 27.314C73.4128 27.458 73.0828 27.53 72.7348 27.53C72.2548 27.53 72.0328 27.284 72.0328 26.906C72.0328 26.144 72.4228 25.46 72.9448 25.46ZM72.2848 26.636C72.2848 26.846 72.4648 26.984 72.8248 26.984C73.1188 26.984 73.3948 26.942 73.6168 26.87C73.4908 26.336 73.2088 25.982 72.8608 25.982C72.5368 25.982 72.2848 26.3 72.2848 26.636ZM76.0101 27.5C75.3141 27.5 75.0021 27.134 74.9781 26.288C74.9601 25.652 74.8941 23.546 74.8821 23.03L75.3381 22.88V26.03C75.3381 26.636 75.5661 26.954 76.1061 26.954L76.0101 27.5ZM78.2254 27.5C77.7334 27.5 77.4454 27.326 77.3614 26.876C77.1754 27.314 76.8094 27.5 76.1194 27.5H76.0114C75.9814 27.5 75.9514 27.446 75.9514 27.332C75.9514 27.152 76.0234 26.954 76.1074 26.954H76.2154C76.9714 26.954 77.2654 26.78 77.2774 26.348L77.2894 25.844L77.6014 25.784V26.252C77.6014 26.696 77.7934 26.954 78.3214 26.954L78.2254 27.5ZM77.2294 25.196C77.0494 25.088 76.8694 24.956 76.7194 24.806L77.0494 24.386C77.1994 24.536 77.3794 24.668 77.5594 24.776L77.2294 25.196ZM79.5703 24.446C80.2003 24.446 80.5423 25.208 80.5423 26.228C80.5423 26.654 80.3563 27.128 80.0563 27.272C79.7743 27.422 79.2343 27.5 78.5683 27.5H78.2263C78.1963 27.5 78.1663 27.44 78.1663 27.332C78.1663 27.152 78.2383 26.954 78.3223 26.954H78.7183C79.3483 26.954 79.9423 26.9 80.2003 26.756C80.2483 26.732 80.2723 26.672 80.2723 26.564C80.2723 26.45 80.2663 26.348 80.2603 26.246C80.0143 26.348 79.6783 26.414 79.3603 26.414C78.8983 26.414 78.6703 26.168 78.6703 25.82C78.6703 25.106 79.0483 24.446 79.5703 24.446ZM79.6423 23.852C79.4623 23.744 79.2823 23.612 79.1323 23.462L79.4623 23.042C79.6123 23.192 79.7923 23.324 79.9723 23.432L79.6423 23.852ZM78.9223 25.574C78.9223 25.772 79.1263 25.91 79.4263 25.91C79.7083 25.91 79.9543 25.88 80.2003 25.814C80.0743 25.262 79.8103 24.938 79.4683 24.938C79.1623 24.938 78.9223 25.238 78.9223 25.574Z" fill="#090909"/>
</svg>
