<svg width="100" height="32" viewBox="0 0 100 32" fill="none" xmlns="http://www.w3.org/2000/svg">
<path d="M34.0913 13.5C33.8913 13.5 33.7073 13.462 33.5393 13.386C33.3713 13.306 33.2093 13.172 33.0533 12.984C32.9653 13.816 32.7393 14.52 32.3753 15.096C32.0113 15.676 31.5313 16.112 30.9353 16.404C30.3433 16.7 29.6573 16.848 28.8773 16.848C27.8653 16.848 27.0913 16.57 26.5553 16.014C26.0193 15.458 25.7513 14.668 25.7513 13.644C25.7513 12.56 25.9933 11.494 26.4773 10.446H26.6273C26.3833 11.11 26.2613 11.764 26.2613 12.408C26.2613 12.868 26.3713 13.26 26.5913 13.584C26.8113 13.912 27.1333 14.162 27.5573 14.334C27.9853 14.506 28.4993 14.592 29.0993 14.592C29.8113 14.592 30.4513 14.492 31.0193 14.292C31.5913 14.096 32.0373 13.85 32.3573 13.554C32.6773 13.262 32.8373 12.978 32.8373 12.702C32.8373 12.59 32.7373 12.354 32.5373 11.994C32.3413 11.63 32.0673 11.186 31.7153 10.662C31.8233 10.522 31.9553 10.28 32.1113 9.936C32.2673 9.588 32.4013 9.248 32.5133 8.916H32.5913C32.7793 9.524 32.9693 9.998 33.1613 10.338C33.3573 10.678 33.5533 10.914 33.7493 11.046C33.9453 11.178 34.1593 11.244 34.3913 11.244L34.0913 13.5ZM29.1533 11.472C29.0413 11.32 28.8633 11.144 28.6193 10.944C28.3753 10.744 28.1653 10.606 27.9893 10.53V10.452L28.9373 9.288C29.1573 9.396 29.3893 9.56 29.6333 9.78C29.8813 9.996 30.0613 10.196 30.1733 10.38L29.1533 11.472ZM38.6245 10.446C38.6245 11.142 38.5105 11.714 38.2825 12.162C38.0585 12.606 37.6945 12.94 37.1905 13.164C36.6905 13.388 36.0285 13.5 35.2045 13.5H34.0945C33.9905 13.5 33.9145 13.442 33.8665 13.326C33.8185 13.206 33.7945 13.024 33.7945 12.78C33.7945 12.456 33.8225 12.178 33.8785 11.946C33.9345 11.714 34.0085 11.54 34.1005 11.424C34.1925 11.304 34.2905 11.244 34.3945 11.244H35.4145C35.9865 11.244 36.4965 11.22 36.9445 11.172C37.3965 11.124 37.7485 11.062 38.0005 10.986C38.2525 10.906 38.3785 10.822 38.3785 10.734C38.3785 10.662 38.2985 10.536 38.1385 10.356C37.9785 10.176 37.7745 9.98 37.5265 9.768C37.2825 9.556 37.0425 9.37 36.8065 9.21C36.9625 9.006 37.1345 8.714 37.3225 8.334C37.5105 7.95 37.6525 7.612 37.7485 7.32H37.8265C37.8425 7.372 37.8825 7.464 37.9465 7.596C38.1385 8.028 38.2985 8.468 38.4265 8.916C38.5585 9.364 38.6245 9.874 38.6245 10.446ZM36.5785 14.472C36.9225 14.472 37.1765 14.514 37.3405 14.598C37.5085 14.686 37.5925 14.838 37.5925 15.054C37.5925 15.126 37.5805 15.204 37.5565 15.288C37.5365 15.376 37.5045 15.486 37.4605 15.618C37.3845 15.854 37.3325 16.054 37.3045 16.218H37.2325C37.2325 16.078 37.1585 15.982 37.0105 15.93C36.8665 15.878 36.6245 15.852 36.2845 15.852H36.2545C36.0305 15.852 35.6245 15.86 35.0365 15.876C34.4525 15.896 33.9725 15.922 33.5965 15.954C33.6685 15.826 33.7605 15.604 33.8725 15.288C33.9845 14.976 34.0605 14.738 34.1005 14.574C34.5685 14.542 35.0345 14.516 35.4985 14.496C35.9625 14.48 36.3225 14.472 36.5785 14.472ZM36.3145 15.714L36.5785 14.472L36.3145 15.714ZM41.687 8.262C42.143 8.262 42.535 8.416 42.863 8.724C43.191 9.028 43.441 9.466 43.613 10.038C43.785 10.606 43.871 11.276 43.871 12.048C43.871 13.072 43.737 13.938 43.469 14.646C43.201 15.358 42.841 15.89 42.389 16.242C41.937 16.594 41.437 16.77 40.889 16.77C40.561 16.77 40.245 16.72 39.941 16.62C39.641 16.524 39.289 16.386 38.885 16.206C38.749 16.146 38.613 16.088 38.477 16.032C38.341 15.976 38.223 15.932 38.123 15.9V15.828C38.855 15.7 39.657 15.462 40.529 15.114C41.401 14.766 42.139 14.368 42.743 13.92C43.347 13.476 43.649 13.05 43.649 12.642C43.649 12.502 43.629 12.326 43.589 12.114C43.549 11.898 43.507 11.73 43.463 11.61H43.403C43.371 12.234 43.189 12.71 42.857 13.038C42.529 13.366 42.043 13.53 41.399 13.53C40.795 13.53 40.341 13.364 40.037 13.032C39.733 12.7 39.581 12.228 39.581 11.616C39.581 11 39.667 10.438 39.839 9.93C40.011 9.418 40.255 9.012 40.571 8.712C40.891 8.412 41.263 8.262 41.687 8.262ZM43.307 11.058C43.115 10.682 42.855 10.39 42.527 10.182C42.199 9.97 41.823 9.864 41.399 9.864C41.127 9.864 40.873 9.914 40.637 10.014C40.405 10.114 40.219 10.234 40.079 10.374C39.939 10.514 39.869 10.634 39.869 10.734C39.869 10.842 39.919 10.946 40.019 11.046C40.123 11.146 40.293 11.228 40.529 11.292C40.769 11.356 41.083 11.388 41.471 11.388C41.823 11.388 42.147 11.364 42.443 11.316C42.739 11.264 43.027 11.178 43.307 11.058ZM46.6598 3.174C46.6598 3.338 46.6738 3.778 46.7018 4.494C46.7698 6.27 46.8038 7.6 46.8038 8.484C46.8038 9.376 46.7818 10.082 46.7378 10.602C46.6938 11.118 46.6358 11.518 46.5638 11.802C46.4958 12.082 46.3918 12.412 46.2518 12.792C46.1118 13.164 46.0058 13.472 45.9338 13.716H45.8558C45.8598 13.64 45.8618 13.512 45.8618 13.332C45.8618 12.664 45.8158 11.74 45.7238 10.56C45.6358 9.38 45.5318 8.25 45.4118 7.17C45.2958 6.09 45.2018 5.388 45.1298 5.064C45.3698 4.824 45.6218 4.53 45.8858 4.182C46.1498 3.83 46.3838 3.494 46.5878 3.174H46.6598ZM47.6752 16.77C47.3712 16.77 47.0852 16.72 46.8172 16.62C46.5492 16.524 46.2372 16.386 45.8812 16.206C45.5692 16.05 45.3432 15.948 45.2032 15.9V15.828C45.9232 15.664 46.6772 15.386 47.4652 14.994C48.2572 14.602 48.9192 14.194 49.4512 13.77C49.9872 13.346 50.2552 13.014 50.2552 12.774C50.2552 12.63 50.1072 12.414 49.8112 12.126C49.5152 11.838 49.0692 11.472 48.4732 11.028C48.6292 10.796 48.7992 10.49 48.9832 10.11C49.1712 9.73 49.3172 9.382 49.4212 9.066H49.4932C49.5172 9.126 49.5692 9.236 49.6492 9.396C49.7972 9.692 49.9232 9.968 50.0272 10.224C50.1352 10.48 50.2312 10.78 50.3152 11.124C50.3992 11.468 50.4412 11.824 50.4412 12.192C50.4412 13.156 50.3192 13.982 50.0752 14.67C49.8312 15.362 49.4992 15.884 49.0792 16.236C48.6632 16.592 48.1952 16.77 47.6752 16.77ZM49.3072 8.322C49.1952 8.17 49.0172 7.994 48.7732 7.794C48.5292 7.594 48.3192 7.456 48.1432 7.38V7.302L49.0912 6.138C49.3112 6.246 49.5432 6.41 49.7872 6.63C50.0352 6.846 50.2152 7.046 50.3272 7.23L49.3072 8.322ZM58.4859 13.5C58.1979 13.5 57.9299 13.422 57.6819 13.266C57.5979 14.01 57.4279 14.644 57.1719 15.168C56.9159 15.696 56.5979 16.094 56.2179 16.362C55.8419 16.634 55.4279 16.77 54.9759 16.77C54.6719 16.77 54.3859 16.72 54.1179 16.62C53.8499 16.524 53.5379 16.386 53.1819 16.206C52.8699 16.05 52.6439 15.948 52.5039 15.9V15.828C53.1319 15.688 53.7939 15.456 54.4899 15.132C55.1859 14.808 55.8059 14.458 56.3499 14.082C56.8939 13.71 57.2639 13.382 57.4599 13.098C56.9799 12.69 56.5159 11.928 56.0679 10.812C56.1759 10.664 56.3079 10.418 56.4639 10.074C56.6239 9.726 56.7579 9.39 56.8659 9.066H56.9379C57.1739 9.878 57.4459 10.444 57.7539 10.764C58.0619 11.084 58.4059 11.244 58.7859 11.244L58.4859 13.5ZM63.4433 13.5C62.9113 13.5 62.4753 13.35 62.1353 13.05C61.7953 12.746 61.6253 12.23 61.6253 11.502C61.6253 11.302 61.6353 11.12 61.6553 10.956H61.5773C61.5693 11.56 61.4573 12.048 61.2413 12.42C61.0293 12.792 60.7113 13.066 60.2873 13.242C59.8633 13.414 59.3213 13.5 58.6612 13.5H58.4812C58.3772 13.5 58.3012 13.442 58.2532 13.326C58.2052 13.206 58.1812 13.024 58.1812 12.78C58.1812 12.456 58.2092 12.178 58.2652 11.946C58.3212 11.714 58.3952 11.54 58.4872 11.424C58.5792 11.304 58.6772 11.244 58.7812 11.244H58.9613C59.7413 11.244 60.3193 11.192 60.6953 11.088C61.0713 10.984 61.3413 10.8 61.5053 10.536C61.6733 10.268 61.8093 9.85 61.9133 9.282H62.0573V10.008C62.0573 10.4 62.1913 10.704 62.4593 10.92C62.7313 11.136 63.1793 11.244 63.8033 11.244L63.4433 13.5ZM59.8973 8.178C59.5533 8.178 59.2973 8.136 59.1293 8.052C58.9653 7.964 58.8833 7.812 58.8833 7.596C58.8833 7.524 58.8933 7.446 58.9133 7.362C58.9373 7.274 58.9713 7.164 59.0153 7.032C59.0913 6.796 59.1433 6.596 59.1713 6.432H59.2433C59.2433 6.572 59.3153 6.668 59.4593 6.72C59.6073 6.772 59.8513 6.798 60.1913 6.798H60.2213C60.4453 6.798 60.8493 6.79 61.4333 6.774C62.0213 6.754 62.5033 6.728 62.8793 6.696C62.8073 6.824 62.7153 7.046 62.6033 7.362C62.4913 7.674 62.4153 7.912 62.3753 8.076C61.9073 8.108 61.4413 8.134 60.9773 8.154C60.5133 8.17 60.1533 8.178 59.8973 8.178ZM68.0266 10.302C68.0266 11.094 67.8746 11.724 67.5706 12.192C67.2706 12.656 66.8186 12.99 66.2146 13.194C65.6106 13.398 64.8326 13.5 63.8806 13.5H63.5086C63.4046 13.5 63.3286 13.442 63.2806 13.326C63.2326 13.206 63.2086 13.024 63.2086 12.78C63.2086 12.456 63.2366 12.178 63.2926 11.946C63.3486 11.714 63.4226 11.54 63.5146 11.424C63.6066 11.304 63.7046 11.244 63.8086 11.244H64.1746C65.0106 11.244 65.7006 11.206 66.2446 11.13C66.7926 11.054 67.1906 10.96 67.4386 10.848C67.6866 10.736 67.8106 10.626 67.8106 10.518C67.8106 10.434 67.6406 10.262 67.3006 10.002C66.9606 9.738 66.4806 9.436 65.8606 9.096C65.2446 8.756 64.5366 8.43 63.7366 8.118C63.8486 7.874 63.9986 7.504 64.1866 7.008C64.3746 6.512 64.5106 6.13 64.5946 5.862L64.6366 5.712C64.6726 5.584 64.7026 5.49 64.7266 5.43C64.7546 5.37 64.7966 5.318 64.8526 5.274C64.9086 5.23 64.9966 5.184 65.1166 5.136L70.1386 3.174L70.2106 3.204C69.9946 3.576 69.8026 3.952 69.6346 4.332C69.4706 4.708 69.3466 5.048 69.2626 5.352L64.6066 6.588V6.666C65.5746 7.09 66.3046 7.486 66.7966 7.854C67.2886 8.222 67.6166 8.592 67.7806 8.964C67.9446 9.332 68.0266 9.778 68.0266 10.302ZM74.2857 10.446C74.2857 11.202 74.1837 11.808 73.9797 12.264C73.7797 12.72 73.4677 13.052 73.0437 13.26C72.6197 13.468 72.0637 13.572 71.3757 13.572C70.8277 13.572 70.4117 13.426 70.1277 13.134C69.8437 12.842 69.7017 12.406 69.7017 11.826C69.7017 11.63 69.7137 11.408 69.7377 11.16C69.7657 10.912 69.8017 10.614 69.8457 10.266H69.9597C69.9597 10.55 70.0057 10.766 70.0977 10.914C70.1937 11.062 70.3517 11.166 70.5717 11.226C70.7917 11.286 71.1077 11.316 71.5197 11.316C72.0837 11.316 72.5557 11.286 72.9357 11.226C73.3197 11.162 73.6037 11.086 73.7877 10.998C73.9717 10.906 74.0637 10.818 74.0637 10.734C74.0637 10.574 73.9057 10.33 73.5897 10.002C73.2777 9.674 72.8977 9.34 72.4497 9C72.0017 8.656 71.5957 8.386 71.2317 8.19C71.3477 7.914 71.4777 7.574 71.6217 7.17C71.7657 6.762 71.8537 6.472 71.8857 6.3H71.9577C71.9937 6.344 72.0957 6.446 72.2637 6.606C72.6117 6.934 72.9237 7.262 73.1997 7.59C73.4757 7.918 73.7257 8.33 73.9497 8.826C74.1737 9.318 74.2857 9.858 74.2857 10.446Z" fill="#090909"/>
<path d="M37.3664 27.5H37.0424C37.1144 27.572 37.1504 27.668 37.1504 27.782C37.1504 28.04 37.0064 28.388 36.7304 28.604C36.2444 28.982 35.2964 29.24 34.4864 29.24C33.4124 29.24 32.9384 28.76 32.9384 28.04C32.9384 27.656 33.0404 27.104 33.2624 26.402L33.4964 26.474C33.3464 27.038 33.2804 27.506 33.2804 27.764C33.2804 28.334 33.7424 28.694 34.6004 28.694C35.8124 28.694 36.8624 28.184 36.8864 27.968C36.8624 27.758 36.5624 27.614 35.2964 27.404L35.4884 26.924C36.0524 26.954 36.3404 26.954 36.9404 26.954H37.4624L37.3664 27.5ZM39.5209 25.4C39.5929 25.712 39.6949 26.264 39.6949 26.468C39.6949 26.774 39.4969 27.212 39.2509 27.344C39.0169 27.47 38.5309 27.5 37.9669 27.5H37.3669C37.3369 27.5 37.3069 27.44 37.3069 27.332C37.3069 27.152 37.3789 26.954 37.4629 26.954H38.0629C38.9629 26.954 39.3469 26.888 39.3949 26.78C39.3709 26.552 39.2269 25.994 39.1129 25.652L39.5209 25.4ZM37.7749 28.16C37.8709 28.28 38.0749 28.43 38.2549 28.55L37.9249 28.94C37.7449 28.82 37.5409 28.67 37.4449 28.55L37.7749 28.16ZM38.8549 28.94C38.6749 28.82 38.4709 28.67 38.3749 28.55L38.7049 28.16C38.8009 28.28 39.0049 28.43 39.1849 28.55L38.8549 28.94ZM41.7123 25.46C42.3783 25.46 42.7263 26.33 42.7263 27.104C42.7263 27.716 42.5223 28.178 42.0963 28.484C41.6703 28.814 40.7823 29.054 39.9243 29.108C39.8163 29.066 39.7323 28.874 39.5643 28.598C41.4423 28.472 42.3483 28.106 42.4563 27.53C42.4563 27.458 42.4563 27.386 42.4503 27.314C42.1803 27.458 41.8503 27.53 41.5023 27.53C41.0223 27.53 40.8003 27.284 40.8003 26.906C40.8003 26.144 41.1903 25.46 41.7123 25.46ZM41.0523 26.636C41.0523 26.846 41.2323 26.984 41.5923 26.984C41.8863 26.984 42.1623 26.942 42.3843 26.87C42.2583 26.336 41.9763 25.982 41.6283 25.982C41.3043 25.982 41.0523 26.3 41.0523 26.636ZM44.3832 25.7C44.5332 26.3 44.6172 26.822 44.6172 27.152C44.6172 28.328 43.9752 28.898 42.8892 29.114C42.8052 29.078 42.6912 28.856 42.5532 28.658C43.7532 28.382 44.2572 27.974 44.3292 27.572C44.3172 27.188 44.1492 26.468 43.9692 25.958L44.3832 25.7ZM45.9982 27.476L45.6682 27.542L45.5422 23.03L45.9982 22.88V27.476ZM47.9742 24.746C48.8802 25.598 49.3842 25.76 49.3842 26.306C49.3842 26.57 49.2162 26.972 49.0122 27.14C48.6762 27.422 48.0642 27.62 47.4942 27.62C47.0742 27.62 46.8882 27.404 46.8882 26.966C46.8882 26.876 46.9002 26.636 46.9002 26.552L47.1462 26.534V26.69C47.1462 26.954 47.2362 27.074 47.6082 27.074C48.2082 27.074 49.0422 26.762 49.1262 26.54C49.1022 26.198 48.3342 25.82 47.7402 25.22L47.9742 24.746ZM55.8 27.5H55.476C55.548 27.572 55.584 27.668 55.584 27.782C55.584 28.04 55.44 28.388 55.164 28.604C54.678 28.982 53.73 29.24 52.92 29.24C51.846 29.24 51.372 28.76 51.372 28.04C51.372 27.656 51.474 27.104 51.696 26.402L51.93 26.474C51.78 27.038 51.714 27.506 51.714 27.764C51.714 28.334 52.176 28.694 53.034 28.694C54.246 28.694 55.296 28.184 55.32 27.968C55.296 27.758 54.996 27.614 53.73 27.404L53.922 26.924C54.486 26.954 54.774 26.954 55.374 26.954H55.896L55.8 27.5ZM57.0245 25.4C57.0965 25.712 57.1985 26.264 57.1985 26.468C57.1985 26.774 57.0005 27.212 56.7545 27.344C56.5205 27.47 56.1545 27.5 55.8005 27.5C55.7705 27.5 55.7405 27.44 55.7405 27.332C55.7405 27.152 55.8125 26.954 55.8965 26.954C56.5865 26.954 56.8505 26.888 56.8985 26.78C56.8745 26.552 56.7605 26.042 56.6165 25.652L57.0245 25.4ZM56.8145 24.932C56.6345 24.824 56.4545 24.692 56.3045 24.542L56.6345 24.122C56.7845 24.272 56.9645 24.404 57.1445 24.512L56.8145 24.932ZM59.2503 27.5C58.5543 27.5 58.2423 27.134 58.2183 26.288C58.2003 25.652 58.1343 23.546 58.1223 23.03L58.5783 22.88V26.03C58.5783 26.636 58.8063 26.954 59.3463 26.954L59.2503 27.5ZM61.6637 22.802L59.7797 23.696V23.36L61.6337 22.484L61.6637 22.802ZM59.3837 24.758C60.5237 25.55 60.8117 25.91 60.8117 26.39C60.8117 26.696 60.5957 27.122 60.3497 27.272C60.0737 27.446 59.6177 27.5 59.2517 27.5C59.2217 27.5 59.1917 27.44 59.1917 27.332C59.1917 27.152 59.2637 26.954 59.3477 26.954C59.9477 26.954 60.4457 26.858 60.5357 26.666C60.4937 26.264 60.2837 25.964 59.1077 25.106L59.2877 24.362L62.3957 22.88L62.4077 23.36L59.3837 24.758ZM62.4652 25.7C62.6152 26.3 62.6992 26.786 62.6992 27.008C62.6992 27.56 62.4352 28.142 61.9072 28.49C61.5052 28.784 60.8452 29.024 60.2152 29.096C60.1072 29.054 60.0052 28.838 59.8612 28.616C61.5352 28.4 62.2792 27.842 62.4112 27.362C62.3992 27.104 62.2192 26.444 62.0512 25.958L62.4652 25.7ZM64.3578 25.7C64.5078 26.3 64.5918 26.822 64.5918 27.152C64.5918 28.328 63.9498 28.898 62.8638 29.114C62.7798 29.078 62.6658 28.856 62.5278 28.658C63.7278 28.382 64.2318 27.974 64.3038 27.572C64.2918 27.188 64.1238 26.468 63.9438 25.958L64.3578 25.7ZM64.2318 24.992C64.0518 24.884 63.8718 24.752 63.7218 24.602L64.0518 24.182C64.2018 24.332 64.3818 24.464 64.5618 24.572L64.2318 24.992ZM66.6448 27.5C65.9488 27.5 65.6368 27.134 65.6128 26.288C65.5948 25.652 65.5288 23.546 65.5168 23.03L65.9728 22.88V26.03C65.9728 26.636 66.2008 26.954 66.7408 26.954L66.6448 27.5ZM67.8702 25.4C67.9422 25.712 68.0442 26.264 68.0442 26.468C68.0442 26.774 67.8462 27.212 67.6002 27.344C67.3662 27.47 67.0002 27.5 66.6462 27.5C66.6162 27.5 66.5862 27.44 66.5862 27.332C66.5862 27.152 66.6582 26.954 66.7422 26.954C67.4322 26.954 67.6962 26.888 67.7442 26.78C67.7202 26.552 67.6062 26.042 67.4622 25.652L67.8702 25.4ZM67.2642 28.97C67.0842 28.862 66.9042 28.73 66.7542 28.58L67.0842 28.16C67.2342 28.31 67.4142 28.442 67.5942 28.55L67.2642 28.97Z" fill="#090909"/>
</svg>
