<svg width="100" height="32" viewBox="0 0 100 32" fill="none" xmlns="http://www.w3.org/2000/svg">
<path d="M25.6813 13.5C25.3933 13.5 25.1253 13.422 24.8773 13.266C24.7933 14.01 24.6233 14.644 24.3673 15.168C24.1113 15.696 23.7933 16.094 23.4133 16.362C23.0373 16.634 22.6233 16.77 22.1713 16.77C21.8673 16.77 21.5813 16.72 21.3133 16.62C21.0453 16.524 20.7333 16.386 20.3773 16.206C20.0652 16.05 19.8392 15.948 19.6992 15.9V15.828C20.3273 15.688 20.9893 15.456 21.6853 15.132C22.3813 14.808 23.0013 14.458 23.5453 14.082C24.0893 13.71 24.4593 13.382 24.6553 13.098C24.1753 12.69 23.7113 11.928 23.2633 10.812C23.3713 10.664 23.5033 10.418 23.6593 10.074C23.8193 9.726 23.9533 9.39 24.0613 9.066H24.1333C24.3693 9.878 24.6413 10.444 24.9493 10.764C25.2573 11.084 25.6013 11.244 25.9813 11.244L25.6813 13.5ZM23.9533 8.322C23.8413 8.17 23.6633 7.994 23.4193 7.794C23.1753 7.594 22.9653 7.456 22.7893 7.38V7.302L23.7373 6.138C23.9573 6.246 24.1893 6.41 24.4333 6.63C24.6813 6.846 24.8613 7.046 24.9733 7.23L23.9533 8.322ZM31.5326 13.5C31.0006 13.5 30.5646 13.35 30.2246 13.05C29.8846 12.746 29.7146 12.23 29.7146 11.502C29.7146 11.302 29.7246 11.12 29.7446 10.956H29.6666C29.6586 11.568 29.5406 12.06 29.3126 12.432C29.0886 12.8 28.7366 13.07 28.2566 13.242C27.7806 13.414 27.1506 13.5 26.3666 13.5H25.6766C25.5726 13.5 25.4966 13.442 25.4486 13.326C25.4006 13.206 25.3766 13.024 25.3766 12.78C25.3766 12.456 25.4046 12.178 25.4606 11.946C25.5166 11.714 25.5906 11.54 25.6826 11.424C25.7746 11.304 25.8726 11.244 25.9766 11.244H26.5766C27.5086 11.244 28.1946 11.192 28.6346 11.088C29.0746 10.984 29.3866 10.8 29.5706 10.536C29.7546 10.272 29.8986 9.854 30.0026 9.282H30.1466V10.008C30.1466 10.396 30.2766 10.7 30.5366 10.92C30.8006 11.136 31.2326 11.244 31.8326 11.244L31.5326 13.5ZM28.6106 14.472C28.9546 14.472 29.2086 14.514 29.3726 14.598C29.5406 14.686 29.6246 14.838 29.6246 15.054C29.6246 15.126 29.6126 15.204 29.5886 15.288C29.5686 15.376 29.5366 15.486 29.4926 15.618C29.4166 15.854 29.3646 16.054 29.3366 16.218H29.2646C29.2646 16.078 29.1906 15.982 29.0426 15.93C28.8986 15.878 28.6566 15.852 28.3166 15.852H28.2866C28.0626 15.852 27.6566 15.86 27.0686 15.876C26.4846 15.896 26.0046 15.922 25.6286 15.954C25.7006 15.826 25.7926 15.604 25.9046 15.288C26.0166 14.976 26.0926 14.738 26.1326 14.574C26.6006 14.542 27.0666 14.516 27.5306 14.496C27.9946 14.48 28.3546 14.472 28.6106 14.472ZM28.3466 15.714L28.6106 14.472L28.3466 15.714ZM37.7759 13.5C37.5639 13.5 37.3619 13.486 37.1699 13.458C36.9819 13.426 36.7699 13.368 36.5339 13.284V13.356C36.7459 13.496 36.8959 13.64 36.9839 13.788C37.0719 13.94 37.1159 14.11 37.1159 14.298C37.1159 14.762 37.0219 15.182 36.8339 15.558C36.6499 15.934 36.3859 16.23 36.0419 16.446C35.7019 16.662 35.3079 16.77 34.8599 16.77C34.3359 16.77 33.8819 16.642 33.4979 16.386C33.1139 16.134 32.8199 15.778 32.6159 15.318C32.4159 14.858 32.3159 14.324 32.3159 13.716L32.3219 13.5H31.5359C31.4319 13.5 31.3559 13.442 31.3079 13.326C31.2599 13.206 31.2359 13.024 31.2359 12.78C31.2359 12.456 31.2639 12.178 31.3199 11.946C31.3759 11.714 31.4499 11.54 31.5419 11.424C31.6339 11.304 31.7319 11.244 31.8359 11.244H32.8139C33.0779 10.568 33.3999 9.946 33.7799 9.378C34.1599 8.806 34.5959 8.208 35.0879 7.584C35.2159 7.424 35.3319 7.274 35.4359 7.134C35.5439 6.994 35.6179 6.886 35.6579 6.81H35.7299C35.7299 7.174 35.7499 7.536 35.7899 7.896C35.8339 8.256 35.8919 8.66 35.9639 9.108C36.0079 9.4 36.0399 9.63 36.0599 9.798C36.0839 9.966 36.0959 10.11 36.0959 10.23C36.0959 10.43 36.0099 10.628 35.8379 10.824C35.6699 11.016 35.3959 11.192 35.0159 11.352V11.43C35.4159 11.354 35.7559 11.304 36.0359 11.28C36.3159 11.256 36.6759 11.244 37.1159 11.244H38.0759L37.7759 13.5ZM35.3399 14.808C35.6839 14.808 35.9719 14.788 36.2039 14.748C36.4399 14.712 36.6139 14.666 36.7259 14.61C36.8379 14.554 36.8939 14.5 36.8939 14.448C36.8939 14.268 36.7879 14.09 36.5759 13.914C36.3639 13.742 36.0499 13.6 35.6339 13.488C35.2179 13.376 34.7219 13.32 34.1459 13.32C33.6659 13.32 33.2659 13.356 32.9459 13.428C33.0979 13.88 33.3819 14.222 33.7979 14.454C34.2179 14.69 34.7319 14.808 35.3399 14.808ZM33.0719 11.34C33.5359 11.336 33.9059 11.32 34.1819 11.292C34.4619 11.264 34.6679 11.218 34.7999 11.154C34.9359 11.086 35.0039 10.996 35.0039 10.884C35.0039 10.796 34.9919 10.678 34.9679 10.53C34.9479 10.382 34.9239 10.224 34.8959 10.056C34.7879 9.404 34.7179 8.856 34.6859 8.412C34.3259 8.848 34.0059 9.324 33.7259 9.84C33.4499 10.352 33.2319 10.852 33.0719 11.34ZM45.7083 13.5C45.1643 13.5 44.7463 13.444 44.4543 13.332C44.1623 13.216 43.9583 13.034 43.8423 12.786C43.7263 12.538 43.6683 12.194 43.6683 11.754C43.6683 11.518 43.6883 11.216 43.7283 10.848C43.5723 10.94 43.4203 11.044 43.2723 11.16C43.1283 11.276 42.9403 11.436 42.7083 11.64C42.2723 12.028 41.8723 12.346 41.5083 12.594C41.1443 12.842 40.6763 13.056 40.1043 13.236C39.5323 13.412 38.8543 13.5 38.0703 13.5H37.7703C37.6663 13.5 37.5903 13.442 37.5423 13.326C37.4943 13.206 37.4703 13.024 37.4703 12.78C37.4703 12.456 37.4983 12.178 37.5543 11.946C37.6103 11.714 37.6843 11.54 37.7763 11.424C37.8683 11.304 37.9663 11.244 38.0703 11.244C39.1743 11.244 40.0763 11.21 40.7763 11.142C41.4803 11.074 42.0203 10.994 42.3963 10.902C42.7763 10.806 43.1743 10.682 43.5903 10.53C43.8223 10.446 43.9703 10.394 44.0343 10.374V10.302C43.6223 10.226 43.2443 10.14 42.9003 10.044C42.5563 9.948 42.1523 9.826 41.6883 9.678C41.2643 9.542 40.9263 9.442 40.6743 9.378C40.4223 9.314 40.1843 9.282 39.9603 9.282C39.6643 9.282 39.4063 9.34 39.1863 9.456C38.9703 9.572 38.7923 9.756 38.6523 10.008H38.5803C38.7443 9.352 38.9123 8.85 39.0843 8.502C39.2603 8.154 39.4443 7.918 39.6363 7.794C39.8323 7.67 40.0623 7.608 40.3263 7.608C40.5863 7.608 40.8763 7.656 41.1963 7.752C41.5203 7.848 41.9603 7.998 42.5163 8.202C42.9883 8.378 43.3863 8.522 43.7103 8.634C44.0383 8.742 44.3903 8.838 44.7663 8.922C45.1463 9.006 45.5183 9.054 45.8823 9.066V9.138C45.7623 9.246 45.5963 9.448 45.3843 9.744C45.1763 10.04 45.0163 10.298 44.9043 10.518C44.5483 10.518 44.2103 10.598 43.8903 10.758C43.9583 10.894 44.0783 10.998 44.2503 11.07C44.4223 11.138 44.6483 11.184 44.9283 11.208C45.2123 11.232 45.5923 11.244 46.0683 11.244H46.2003L45.9003 13.5H45.7083ZM40.2423 16.632C40.1063 16.472 39.9223 16.292 39.6903 16.092C39.4583 15.896 39.2543 15.76 39.0783 15.684V15.612L40.0263 14.448C40.2463 14.556 40.4783 14.718 40.7223 14.934C40.9703 15.154 41.1503 15.356 41.2623 15.54L40.2423 16.632ZM49.1131 10.446C49.1131 11.45 48.8951 12.21 48.4591 12.726C48.0271 13.242 47.4051 13.5 46.5931 13.5H45.9031C45.7991 13.5 45.7231 13.442 45.6751 13.326C45.6271 13.206 45.6031 13.024 45.6031 12.78C45.6031 12.456 45.6311 12.178 45.6871 11.946C45.7431 11.714 45.8171 11.54 45.9091 11.424C46.0011 11.304 46.0991 11.244 46.2031 11.244H46.8031C47.0951 11.244 47.4031 11.22 47.7271 11.172C48.0511 11.12 48.3211 11.056 48.5371 10.98C48.7571 10.9 48.8671 10.818 48.8671 10.734C48.8671 10.662 48.7871 10.536 48.6271 10.356C48.4671 10.176 48.2631 9.98 48.0151 9.768C47.7711 9.556 47.5311 9.37 47.2951 9.21C47.4511 9.006 47.6231 8.714 47.8111 8.334C47.9991 7.95 48.1411 7.612 48.2371 7.32H48.3151C48.3311 7.372 48.3711 7.464 48.4351 7.596C48.6271 8.028 48.7871 8.468 48.9151 8.916C49.0471 9.364 49.1131 9.874 49.1131 10.446ZM46.5391 6.528C46.1951 6.528 45.9411 6.486 45.7771 6.402C45.6091 6.314 45.5251 6.162 45.5251 5.946C45.5251 5.874 45.5371 5.796 45.5611 5.712C45.5811 5.624 45.6131 5.514 45.6571 5.382C45.7331 5.146 45.7851 4.946 45.8131 4.782H45.8851C45.8851 4.922 45.9591 5.018 46.1071 5.07C46.2511 5.122 46.4931 5.148 46.8331 5.148H46.8631C47.0871 5.148 47.4911 5.14 48.0751 5.124C48.6631 5.104 49.1451 5.078 49.5211 5.046C49.4491 5.174 49.3571 5.396 49.2451 5.712C49.1331 6.024 49.0571 6.262 49.0171 6.426C48.5491 6.458 48.0831 6.484 47.6191 6.504C47.1551 6.52 46.7951 6.528 46.5391 6.528ZM52.6167 8.262C53.0727 8.262 53.4647 8.416 53.7927 8.724C54.1207 9.028 54.3707 9.466 54.5427 10.038C54.7147 10.606 54.8007 11.276 54.8007 12.048C54.8007 13.072 54.6667 13.938 54.3987 14.646C54.1307 15.358 53.7707 15.89 53.3187 16.242C52.8667 16.594 52.3667 16.77 51.8187 16.77C51.4907 16.77 51.1747 16.72 50.8707 16.62C50.5707 16.524 50.2187 16.386 49.8147 16.206C49.6787 16.146 49.5427 16.088 49.4067 16.032C49.2707 15.976 49.1527 15.932 49.0527 15.9V15.828C49.7847 15.7 50.5867 15.462 51.4587 15.114C52.3307 14.766 53.0687 14.368 53.6727 13.92C54.2767 13.476 54.5787 13.05 54.5787 12.642C54.5787 12.502 54.5587 12.326 54.5187 12.114C54.4787 11.898 54.4367 11.73 54.3927 11.61H54.3327C54.3007 12.234 54.1187 12.71 53.7867 13.038C53.4587 13.366 52.9727 13.53 52.3287 13.53C51.7247 13.53 51.2707 13.364 50.9667 13.032C50.6627 12.7 50.5107 12.228 50.5107 11.616C50.5107 11 50.5967 10.438 50.7687 9.93C50.9407 9.418 51.1847 9.012 51.5007 8.712C51.8207 8.412 52.1927 8.262 52.6167 8.262ZM54.2367 11.058C54.0447 10.682 53.7847 10.39 53.4567 10.182C53.1287 9.97 52.7527 9.864 52.3287 9.864C52.0567 9.864 51.8027 9.914 51.5667 10.014C51.3347 10.114 51.1487 10.234 51.0087 10.374C50.8687 10.514 50.7987 10.634 50.7987 10.734C50.7987 10.842 50.8487 10.946 50.9487 11.046C51.0527 11.146 51.2227 11.228 51.4587 11.292C51.6987 11.356 52.0127 11.388 52.4007 11.388C52.7527 11.388 53.0767 11.364 53.3727 11.316C53.6687 11.264 53.9567 11.178 54.2367 11.058ZM56.4603 16.77C56.1563 16.77 55.8703 16.72 55.6023 16.62C55.3343 16.524 55.0223 16.386 54.6663 16.206C54.3543 16.05 54.1283 15.948 53.9883 15.9V15.828C54.7083 15.664 55.4623 15.386 56.2503 14.994C57.0423 14.602 57.7043 14.194 58.2363 13.77C58.7723 13.346 59.0403 13.014 59.0403 12.774C59.0403 12.63 58.8923 12.414 58.5963 12.126C58.3003 11.838 57.8543 11.472 57.2583 11.028C57.4143 10.796 57.5843 10.49 57.7683 10.11C57.9563 9.73 58.1023 9.382 58.2063 9.066H58.2783C58.3023 9.126 58.3543 9.236 58.4343 9.396C58.5823 9.692 58.7083 9.968 58.8123 10.224C58.9203 10.48 59.0163 10.78 59.1003 11.124C59.1843 11.468 59.2263 11.824 59.2263 12.192C59.2263 13.156 59.1043 13.982 58.8603 14.67C58.6163 15.362 58.2843 15.884 57.8643 16.236C57.4483 16.592 56.9803 16.77 56.4603 16.77ZM67.2992 13.5C65.9792 13.5 65.1892 12.53 64.9292 10.59H64.8572C64.7852 11.582 64.5412 12.328 64.1252 12.828C63.7092 13.324 63.1052 13.572 62.3132 13.572C61.7652 13.572 61.3492 13.426 61.0652 13.134C60.7812 12.842 60.6392 12.406 60.6392 11.826C60.6392 11.63 60.6512 11.408 60.6752 11.16C60.7032 10.912 60.7392 10.614 60.7832 10.266H60.8972C60.8972 10.55 60.9432 10.766 61.0352 10.914C61.1312 11.062 61.2892 11.166 61.5092 11.226C61.7292 11.286 62.0452 11.316 62.4572 11.316C62.8612 11.316 63.2292 11.28 63.5612 11.208C63.8972 11.136 64.1612 11.04 64.3532 10.92C64.5452 10.796 64.6412 10.662 64.6412 10.518C64.6412 10.434 64.5992 10.234 64.5152 9.918C64.4312 9.598 64.3172 9.24 64.1732 8.844C64.0292 8.448 63.8692 8.084 63.6932 7.752C63.8412 7.572 64.0512 7.238 64.3232 6.75C64.5952 6.258 64.7492 5.938 64.7852 5.79H64.8572C64.9092 6.058 64.9852 6.396 65.0852 6.804C65.1892 7.212 65.3172 7.702 65.4692 8.274L65.8052 9.57C65.9092 9.982 66.0412 10.312 66.2012 10.56C66.3652 10.804 66.5592 10.98 66.7832 11.088C67.0112 11.192 67.2832 11.244 67.5992 11.244L67.2992 13.5ZM72.2636 13.5C71.7316 13.5 71.2956 13.35 70.9556 13.05C70.6156 12.746 70.4456 12.23 70.4456 11.502C70.4456 11.302 70.4556 11.12 70.4756 10.956H70.3976C70.3896 11.56 70.2776 12.048 70.0616 12.42C69.8496 12.792 69.5316 13.066 69.1076 13.242C68.6836 13.414 68.1416 13.5 67.4816 13.5H67.3016C67.1976 13.5 67.1216 13.442 67.0736 13.326C67.0256 13.206 67.0016 13.024 67.0016 12.78C67.0016 12.456 67.0296 12.178 67.0856 11.946C67.1416 11.714 67.2156 11.54 67.3076 11.424C67.3996 11.304 67.4976 11.244 67.6016 11.244H67.7816C68.5616 11.244 69.1396 11.192 69.5156 11.088C69.8916 10.984 70.1616 10.8 70.3256 10.536C70.4936 10.268 70.6296 9.85 70.7336 9.282H70.8776V10.008C70.8776 10.4 71.0116 10.704 71.2796 10.92C71.5516 11.136 71.9996 11.244 72.6236 11.244L72.2636 13.5ZM69.3056 14.592C69.6496 14.592 69.9036 14.634 70.0676 14.718C70.2356 14.806 70.3196 14.958 70.3196 15.174C70.3196 15.246 70.3076 15.324 70.2836 15.408C70.2636 15.496 70.2316 15.606 70.1876 15.738C70.1116 15.974 70.0596 16.174 70.0316 16.338H69.9596C69.9596 16.198 69.8856 16.102 69.7376 16.05C69.5936 15.998 69.3516 15.972 69.0116 15.972H68.9816C68.7576 15.972 68.3516 15.98 67.7636 15.996C67.1796 16.016 66.6996 16.042 66.3236 16.074C66.3956 15.946 66.4876 15.724 66.5996 15.408C66.7116 15.096 66.7876 14.858 66.8276 14.694C67.2956 14.662 67.7616 14.636 68.2256 14.616C68.6896 14.6 69.0496 14.592 69.3056 14.592ZM69.0416 15.834L69.3056 14.592L69.0416 15.834ZM74.9209 8.988C74.6849 8.988 74.4709 9.03 74.2789 9.114C74.0909 9.198 73.9429 9.308 73.8349 9.444C73.7309 9.576 73.6789 9.716 73.6789 9.864C73.6789 10.1 73.8209 10.322 74.1049 10.53C74.3889 10.734 74.7669 10.912 75.2389 11.064C75.7069 10.896 76.0369 10.744 76.2289 10.608C76.4209 10.472 76.5169 10.346 76.5169 10.23C76.5169 10.042 76.4349 9.852 76.2709 9.66C76.1069 9.464 75.8989 9.304 75.6469 9.18C75.3989 9.052 75.1569 8.988 74.9209 8.988ZM79.2829 10.734C79.2829 11.298 79.1709 11.842 78.9469 12.366C78.7229 12.89 78.4229 13.34 78.0469 13.716C77.8829 13.62 77.5389 13.494 77.0149 13.338C76.4949 13.178 75.7909 12.978 74.9029 12.738C74.6509 12.978 74.3049 13.166 73.8649 13.302C73.4289 13.434 72.9169 13.5 72.3289 13.5C72.2249 13.5 72.1489 13.442 72.1009 13.326C72.0529 13.206 72.0289 13.024 72.0289 12.78C72.0289 12.456 72.0569 12.178 72.1129 11.946C72.1689 11.714 72.2429 11.54 72.3349 11.424C72.4269 11.304 72.5249 11.244 72.6289 11.244H73.3909C73.3429 11.088 73.3189 10.894 73.3189 10.662C73.3189 10.254 73.3989 9.85 73.5589 9.45C73.7189 9.046 73.9249 8.698 74.1769 8.406C73.8369 8.246 73.6229 8.15 73.5349 8.118C73.6389 7.878 73.7269 7.586 73.7989 7.242C73.8709 6.894 73.9149 6.58 73.9309 6.3H74.0029C74.1829 6.452 74.4229 6.614 74.7229 6.786C75.0229 6.954 75.4829 7.204 76.1029 7.536L76.6609 7.83C77.3529 8.198 77.8849 8.526 78.2569 8.814C78.6329 9.102 78.8969 9.396 79.0489 9.696C79.2049 9.992 79.2829 10.338 79.2829 10.734ZM76.3129 11.334C77.5769 11.642 78.3729 11.88 78.7009 12.048C78.7529 11.972 78.8009 11.874 78.8449 11.754C78.8929 11.63 78.9169 11.534 78.9169 11.466C78.9169 11.294 78.8509 11.128 78.7189 10.968C78.5909 10.808 78.3729 10.628 78.0649 10.428C77.7609 10.224 77.3189 9.964 76.7389 9.648C76.7389 9.96 76.7029 10.26 76.6309 10.548C76.5629 10.836 76.4569 11.098 76.3129 11.334Z" fill="#090909"/>
<path d="M15.6184 27.5H15.2944C15.3664 27.572 15.4024 27.668 15.4024 27.782C15.4024 28.04 15.2584 28.388 14.9824 28.604C14.4964 28.982 13.5484 29.24 12.7384 29.24C11.6644 29.24 11.1904 28.76 11.1904 28.04C11.1904 27.656 11.2924 27.104 11.5144 26.402L11.7484 26.474C11.5984 27.038 11.5324 27.506 11.5324 27.764C11.5324 28.334 11.9944 28.694 12.8524 28.694C14.0644 28.694 15.1144 28.184 15.1384 27.968C15.1144 27.758 14.8144 27.614 13.5484 27.404L13.7404 26.924C14.3044 26.954 14.5924 26.954 15.1924 26.954H15.7144L15.6184 27.5ZM17.7728 25.4C17.8448 25.712 17.9468 26.264 17.9468 26.468C17.9468 26.774 17.7488 27.212 17.5028 27.344C17.2688 27.47 16.7828 27.5 16.2188 27.5H15.6188C15.5888 27.5 15.5588 27.44 15.5588 27.332C15.5588 27.152 15.6308 26.954 15.7148 26.954H16.3148C17.2148 26.954 17.5988 26.888 17.6468 26.78C17.6228 26.552 17.4788 25.994 17.3648 25.652L17.7728 25.4ZM16.0268 28.16C16.1228 28.28 16.3268 28.43 16.5068 28.55L16.1768 28.94C15.9968 28.82 15.7928 28.67 15.6968 28.55L16.0268 28.16ZM17.1068 28.94C16.9268 28.82 16.7228 28.67 16.6268 28.55L16.9568 28.16C17.0528 28.28 17.2568 28.43 17.4368 28.55L17.1068 28.94ZM19.9643 25.46C20.6303 25.46 20.9783 26.33 20.9783 27.104C20.9783 27.716 20.7743 28.178 20.3483 28.484C19.9223 28.814 19.0343 29.054 18.1763 29.108C18.0683 29.066 17.9843 28.874 17.8163 28.598C19.6943 28.472 20.6003 28.106 20.7083 27.53C20.7083 27.458 20.7083 27.386 20.7023 27.314C20.4323 27.458 20.1023 27.53 19.7543 27.53C19.2743 27.53 19.0523 27.284 19.0523 26.906C19.0523 26.144 19.4423 25.46 19.9643 25.46ZM19.3043 26.636C19.3043 26.846 19.4843 26.984 19.8443 26.984C20.1383 26.984 20.4143 26.942 20.6363 26.87C20.5103 26.336 20.2283 25.982 19.8803 25.982C19.5563 25.982 19.3043 26.3 19.3043 26.636ZM22.6351 25.7C22.7851 26.3 22.8691 26.822 22.8691 27.152C22.8691 28.328 22.2271 28.898 21.1411 29.114C21.0571 29.078 20.9431 28.856 20.8051 28.658C22.0051 28.382 22.5091 27.974 22.5811 27.572C22.5691 27.188 22.4011 26.468 22.2211 25.958L22.6351 25.7ZM24.2502 27.476L23.9202 27.542L23.7942 23.03L24.2502 22.88V27.476ZM26.2261 24.746C27.1321 25.598 27.6361 25.76 27.6361 26.306C27.6361 26.57 27.4681 26.972 27.2641 27.14C26.9281 27.422 26.3161 27.62 25.7461 27.62C25.3261 27.62 25.1401 27.404 25.1401 26.966C25.1401 26.876 25.1521 26.636 25.1521 26.552L25.3981 26.534V26.69C25.3981 26.954 25.4881 27.074 25.8601 27.074C26.4601 27.074 27.2941 26.762 27.3781 26.54C27.3541 26.198 26.5861 25.82 25.9921 25.22L26.2261 24.746ZM30.728 25.46C31.394 25.46 31.742 26.33 31.742 27.104C31.742 27.716 31.538 28.178 31.112 28.484C30.686 28.814 29.798 29.054 28.94 29.108C28.832 29.066 28.748 28.874 28.58 28.598C30.458 28.472 31.364 28.106 31.472 27.53C31.472 27.458 31.472 27.386 31.466 27.314C31.196 27.458 30.866 27.53 30.518 27.53C30.038 27.53 29.816 27.284 29.816 26.906C29.816 26.144 30.206 25.46 30.728 25.46ZM30.068 26.636C30.068 26.846 30.248 26.984 30.608 26.984C30.902 26.984 31.178 26.942 31.4 26.87C31.274 26.336 30.992 25.982 30.644 25.982C30.32 25.982 30.068 26.3 30.068 26.636ZM38.1594 27.5H37.8354C37.9074 27.572 37.9434 27.668 37.9434 27.782C37.9434 28.04 37.7994 28.388 37.5234 28.604C37.0374 28.982 36.0894 29.24 35.2794 29.24C34.2054 29.24 33.7314 28.76 33.7314 28.04C33.7314 27.656 33.8334 27.104 34.0554 26.402L34.2894 26.474C34.1394 27.038 34.0734 27.506 34.0734 27.764C34.0734 28.334 34.5354 28.694 35.3934 28.694C36.6054 28.694 37.6554 28.184 37.6794 27.968C37.6554 27.758 37.3554 27.614 36.0894 27.404L36.2814 26.924C36.8454 26.954 37.1334 26.954 37.7334 26.954H38.2554L38.1594 27.5ZM39.3839 25.4C39.4559 25.712 39.5579 26.264 39.5579 26.468C39.5579 26.774 39.3599 27.212 39.1139 27.344C38.8799 27.47 38.5139 27.5 38.1599 27.5C38.1299 27.5 38.0999 27.44 38.0999 27.332C38.0999 27.152 38.1719 26.954 38.2559 26.954C38.9459 26.954 39.2099 26.888 39.2579 26.78C39.2339 26.552 39.1199 26.042 38.9759 25.652L39.3839 25.4ZM39.1739 24.932C38.9939 24.824 38.8139 24.692 38.6639 24.542L38.9939 24.122C39.1439 24.272 39.3239 24.404 39.5039 24.512L39.1739 24.932ZM43.4517 27.5C42.9657 27.5 42.6597 27.296 42.4917 26.732C42.4677 26.84 42.4377 26.93 42.4137 26.96C42.1317 27.326 41.5017 27.602 40.9917 27.602C40.5957 27.602 40.4097 27.386 40.4097 26.948C40.4097 26.858 40.4217 26.618 40.4217 26.534L40.6677 26.516C40.6677 26.534 40.6677 26.642 40.6677 26.672C40.6677 26.936 40.7577 27.056 41.1057 27.056C41.5317 27.056 42.0417 26.84 42.3657 26.528C42.2877 26.066 42.1137 25.43 41.8917 24.848L42.2517 24.554C42.4077 24.992 42.5277 25.448 42.6717 26.084C42.8217 26.744 43.0557 26.954 43.5477 26.954L43.4517 27.5ZM45.6649 27.5C45.1729 27.5 44.8849 27.326 44.8009 26.876C44.6149 27.314 44.2489 27.5 43.5589 27.5H43.4509C43.4209 27.5 43.3909 27.446 43.3909 27.332C43.3909 27.152 43.4629 26.954 43.5469 26.954H43.6549C44.4109 26.954 44.7049 26.78 44.7169 26.348L44.7289 25.844L45.0409 25.784V26.252C45.0409 26.696 45.2329 26.954 45.7609 26.954L45.6649 27.5ZM43.3549 28.16C43.4509 28.28 43.6549 28.43 43.8349 28.55L43.5049 28.94C43.3249 28.82 43.1209 28.67 43.0249 28.55L43.3549 28.16ZM44.4349 28.94C44.2549 28.82 44.0509 28.67 43.9549 28.55L44.2849 28.16C44.3809 28.28 44.5849 28.43 44.7649 28.55L44.4349 28.94ZM49.6737 25.472C49.7577 25.85 49.8057 26.282 49.8057 26.546C49.8057 27.026 49.4817 27.5 49.2177 27.5C48.7797 27.5 48.4497 27.29 48.3537 26.978C48.1737 27.338 47.9037 27.5 47.5677 27.5C47.2017 27.5 46.9017 27.32 46.8237 26.948C46.6257 27.338 46.2837 27.5 45.6657 27.5C45.6357 27.5 45.6057 27.44 45.6057 27.332C45.6057 27.152 45.6777 26.954 45.7617 26.954C46.4457 26.954 46.7517 26.78 46.7997 26.312L46.8357 25.976L47.0997 25.952V26.354C47.0997 26.714 47.2917 26.954 47.6517 26.954C48.0417 26.954 48.2637 26.72 48.2937 26.396L48.3177 26.06L48.5817 26.036V26.354C48.5817 26.714 48.8997 26.954 49.3437 26.954C49.4217 26.954 49.4817 26.918 49.4997 26.858C49.4817 26.624 49.3917 26.126 49.2657 25.724L49.6737 25.472ZM48.2817 24.38C48.1017 24.26 47.9277 24.11 47.8317 23.99L48.1617 23.6C48.2577 23.72 48.4317 23.87 48.6117 23.99L48.2817 24.38ZM47.7717 24.44C47.8677 24.56 48.0717 24.71 48.2517 24.83L47.9217 25.22C47.7417 25.1 47.5377 24.95 47.4417 24.83L47.7717 24.44ZM48.8517 25.22C48.6717 25.1 48.4677 24.95 48.3717 24.83L48.7017 24.44C48.7977 24.56 49.0017 24.71 49.1817 24.83L48.8517 25.22ZM52.9186 27.5H52.6006C52.5286 27.92 52.3306 28.25 52.0006 28.484C51.5746 28.814 50.6866 29.054 49.8286 29.108C49.7206 29.066 49.6366 28.874 49.4686 28.598C51.3466 28.472 52.2526 28.106 52.3606 27.53V27.494C52.0666 27.512 51.7126 27.53 51.4066 27.53C50.9266 27.53 50.7046 27.284 50.7046 26.906C50.7046 26.144 51.0946 25.46 51.6166 25.46C52.2406 25.46 52.5826 26.222 52.6246 26.954H53.0146L52.9186 27.5ZM50.9566 26.636C50.9566 26.846 51.1366 26.984 51.4966 26.984C51.7666 26.984 52.0186 26.978 52.3066 26.96C52.1926 26.378 51.9046 25.982 51.5326 25.982C51.2086 25.982 50.9566 26.3 50.9566 26.636ZM54.1436 25.4C54.2156 25.712 54.3176 26.264 54.3176 26.468C54.3176 26.774 54.1196 27.212 53.8736 27.344C53.6396 27.47 53.2736 27.5 52.9196 27.5C52.8896 27.5 52.8596 27.44 52.8596 27.332C52.8596 27.152 52.9316 26.954 53.0156 26.954C53.7056 26.954 53.9696 26.888 54.0176 26.78C53.9936 26.552 53.8796 26.042 53.7356 25.652L54.1436 25.4ZM53.9336 24.932C53.7536 24.824 53.5736 24.692 53.4236 24.542L53.7536 24.122C53.9036 24.272 54.0836 24.404 54.2636 24.512L53.9336 24.932ZM57.1416 25.808C56.8296 26.144 56.6496 26.51 56.6436 26.708C56.6736 26.696 56.7396 26.684 56.7936 26.684C57.0156 26.684 57.1536 26.84 57.1536 27.056C57.1536 27.326 56.9556 27.5 56.7276 27.5C56.4756 27.5 56.3076 27.29 56.3076 27.002C56.3076 26.624 56.5116 26.126 57.0036 25.658L57.1416 25.808ZM62.4934 27.5H62.1694C62.2414 27.572 62.2774 27.668 62.2774 27.782C62.2774 28.04 62.1334 28.388 61.8574 28.604C61.3714 28.982 60.4234 29.24 59.6134 29.24C58.5394 29.24 58.0654 28.76 58.0654 28.04C58.0654 27.656 58.1674 27.104 58.3894 26.402L58.6234 26.474C58.4734 27.038 58.4074 27.506 58.4074 27.764C58.4074 28.334 58.8694 28.694 59.7274 28.694C60.9394 28.694 61.9894 28.184 62.0134 27.968C61.9894 27.758 61.6894 27.614 60.4234 27.404L60.6154 26.924C61.1794 26.954 61.4674 26.954 62.0674 26.954H62.5894L62.4934 27.5ZM64.6478 25.4C64.7198 25.712 64.8218 26.264 64.8218 26.468C64.8218 26.774 64.6238 27.212 64.3778 27.344C64.1438 27.47 63.6578 27.5 63.0938 27.5H62.4938C62.4638 27.5 62.4338 27.44 62.4338 27.332C62.4338 27.152 62.5058 26.954 62.5898 26.954H63.1898C64.0898 26.954 64.4738 26.888 64.5218 26.78C64.4978 26.552 64.3538 25.994 64.2398 25.652L64.6478 25.4ZM62.9018 28.16C62.9978 28.28 63.2018 28.43 63.3818 28.55L63.0518 28.94C62.8718 28.82 62.6678 28.67 62.5718 28.55L62.9018 28.16ZM63.9818 28.94C63.8018 28.82 63.5978 28.67 63.5018 28.55L63.8318 28.16C63.9278 28.28 64.1318 28.43 64.3118 28.55L63.9818 28.94ZM66.2033 27.476L65.8733 27.542L65.7473 23.03L66.2033 22.88V27.476ZM70.1353 27.5C69.6493 27.5 69.3433 27.296 69.1753 26.732C69.1513 26.84 69.1213 26.93 69.0973 26.96C68.8153 27.326 68.1853 27.602 67.6753 27.602C67.2793 27.602 67.0933 27.386 67.0933 26.948C67.0933 26.858 67.1053 26.618 67.1053 26.534L67.3513 26.516C67.3513 26.534 67.3513 26.642 67.3513 26.672C67.3513 26.936 67.4413 27.056 67.7893 27.056C68.2153 27.056 68.7253 26.84 69.0493 26.528C68.9713 26.066 68.7973 25.43 68.5753 24.848L68.9353 24.554C69.0913 24.992 69.2113 25.448 69.3553 26.084C69.5053 26.744 69.7393 26.954 70.2313 26.954L70.1353 27.5ZM68.7433 24.068C68.5633 23.96 68.3833 23.828 68.2333 23.678L68.5633 23.258C68.7133 23.408 68.8933 23.54 69.0733 23.648L68.7433 24.068ZM72.3845 25.556C72.2105 25.598 72.0545 25.61 71.7785 25.61C71.3345 25.61 71.1005 25.67 71.0045 25.778C70.9625 25.85 70.9445 25.946 70.9445 26.054C70.9445 26.516 71.3285 26.816 71.7125 26.816C71.9885 26.816 72.2705 26.744 72.9245 26.558L72.8885 27.044C71.7305 27.398 70.9085 27.5 70.1345 27.5C70.1045 27.5 70.0745 27.44 70.0745 27.332C70.0745 27.152 70.1465 26.954 70.2305 26.954C70.4045 26.954 70.6265 26.954 70.8365 26.936C70.6985 26.78 70.6325 26.564 70.6325 26.3C70.6325 25.61 71.1605 25.094 71.7845 25.094C72.0065 25.094 72.3245 25.118 72.5405 25.142L72.3845 25.556ZM71.7725 24.512C71.5925 24.404 71.4125 24.272 71.2625 24.122L71.5925 23.702C71.7425 23.852 71.9225 23.984 72.1025 24.092L71.7725 24.512ZM78.0241 27.5C77.2501 27.5 76.7221 27.398 76.3141 27.038C75.6661 27.44 75.2701 28.004 75.2161 28.484C75.2641 29.144 75.7981 29.594 77.0701 29.594C77.4721 29.594 77.8621 29.57 78.2281 29.534L78.1141 29.972C77.7181 30.086 77.2261 30.14 76.8241 30.14C75.4981 30.14 74.9521 29.588 74.9521 28.688C74.9521 28.01 75.2881 27.35 75.9781 26.792C75.7681 26.558 75.5341 26.246 75.3061 25.892C75.2221 25.916 75.1501 25.94 75.0781 25.97L75.0661 25.568C75.3601 25.382 76.0261 25.232 76.5661 25.232C77.3581 25.232 77.7481 25.412 77.7481 25.682C77.7481 25.778 77.6761 26.03 77.6401 26.12C77.5081 26.288 77.1601 26.594 76.8661 26.822C77.2381 26.924 77.6461 26.954 78.1201 26.954L78.0241 27.5ZM75.6901 25.802C75.9541 26.174 76.2181 26.456 76.4581 26.642C76.7521 26.462 77.2441 26.102 77.4241 25.934V25.868C77.2201 25.778 76.8721 25.724 76.4341 25.724C76.2421 25.724 75.9661 25.754 75.6901 25.802ZM78.0212 27.5C77.9912 27.5 77.9612 27.44 77.9612 27.332C77.9612 27.152 78.0332 26.954 78.1172 26.954H78.3212L78.2252 27.5H78.0212ZM80.3803 25.4C80.4523 25.712 80.5543 26.264 80.5543 26.468C80.5543 26.774 80.3563 27.212 80.1103 27.344C79.8763 27.47 79.3903 27.5 78.8263 27.5H78.2263C78.1963 27.5 78.1663 27.44 78.1663 27.332C78.1663 27.152 78.2383 26.954 78.3223 26.954H78.9223C79.8223 26.954 80.2063 26.888 80.2543 26.78C80.2303 26.552 80.0863 25.994 79.9723 25.652L80.3803 25.4ZM78.6343 28.16C78.7303 28.28 78.9343 28.43 79.1143 28.55L78.7843 28.94C78.6043 28.82 78.4003 28.67 78.3043 28.55L78.6343 28.16ZM79.7143 28.94C79.5343 28.82 79.3303 28.67 79.2343 28.55L79.5643 28.16C79.6603 28.28 79.8643 28.43 80.0443 28.55L79.7143 28.94ZM82.6077 27.5C81.9117 27.5 81.5997 27.134 81.5757 26.288C81.5577 25.652 81.4917 23.546 81.4797 23.03L81.9357 22.88V26.03C81.9357 26.636 82.1637 26.954 82.7037 26.954L82.6077 27.5ZM84.8231 27.5C84.3311 27.5 84.0431 27.326 83.9591 26.876C83.7731 27.314 83.4071 27.5 82.7171 27.5H82.6091C82.5791 27.5 82.5491 27.446 82.5491 27.332C82.5491 27.152 82.6211 26.954 82.7051 26.954H82.8131C83.5691 26.954 83.8631 26.78 83.8751 26.348L83.8871 25.844L84.1991 25.784V26.252C84.1991 26.696 84.3911 26.954 84.9191 26.954L84.8231 27.5ZM83.8271 25.196C83.6471 25.088 83.4671 24.956 83.3171 24.806L83.6471 24.386C83.7971 24.536 83.9771 24.668 84.1571 24.776L83.8271 25.196ZM88.4899 25.19C89.0179 25.19 89.5459 25.802 89.5459 26.324C89.5459 26.66 89.3179 27.068 89.0239 27.212C88.6099 27.41 87.9079 27.5 87.3379 27.5C86.5759 27.5 86.1139 27.266 86.0359 26.846C85.7959 27.368 85.4239 27.5 84.8239 27.5C84.7939 27.5 84.7639 27.44 84.7639 27.332C84.7639 27.152 84.8359 26.954 84.9199 26.954C85.6039 26.954 85.9099 26.78 85.9579 26.312L85.9939 25.976L86.2579 25.952V26.252C86.2579 26.48 86.3599 26.654 86.5639 26.774C87.4039 25.748 87.9739 25.19 88.4899 25.19ZM86.7979 26.876C86.9779 26.924 87.1999 26.954 87.4699 26.954C88.3219 26.954 89.1739 26.78 89.2579 26.6C89.2579 26.288 88.8019 25.712 88.3339 25.712C87.9499 25.712 87.4999 26.096 86.7979 26.876Z" fill="#090909"/>
</svg>
