<svg width="100" height="32" viewBox="0 0 100 32" fill="none" xmlns="http://www.w3.org/2000/svg">
<path d="M29.2328 13.5C27.9128 13.5 27.1228 12.53 26.8628 10.59H26.7908C26.7188 11.582 26.4748 12.328 26.0588 12.828C25.6428 13.324 25.0388 13.572 24.2468 13.572C23.6988 13.572 23.2828 13.426 22.9988 13.134C22.7148 12.842 22.5728 12.406 22.5728 11.826C22.5728 11.63 22.5848 11.408 22.6088 11.16C22.6368 10.912 22.6728 10.614 22.7168 10.266H22.8308C22.8308 10.55 22.8768 10.766 22.9688 10.914C23.0648 11.062 23.2228 11.166 23.4428 11.226C23.6628 11.286 23.9788 11.316 24.3908 11.316C24.7948 11.316 25.1628 11.28 25.4948 11.208C25.8308 11.136 26.0948 11.04 26.2868 10.92C26.4788 10.796 26.5748 10.662 26.5748 10.518C26.5748 10.434 26.5328 10.234 26.4488 9.918C26.3648 9.598 26.2508 9.24 26.1068 8.844C25.9628 8.448 25.8028 8.084 25.6268 7.752C25.7748 7.572 25.9848 7.238 26.2568 6.75C26.5288 6.258 26.6828 5.938 26.7188 5.79H26.7908C26.8428 6.058 26.9188 6.396 27.0188 6.804C27.1228 7.212 27.2508 7.702 27.4028 8.274L27.7388 9.57C27.8428 9.982 27.9748 10.312 28.1348 10.56C28.2988 10.804 28.4928 10.98 28.7168 11.088C28.9448 11.192 29.2168 11.244 29.5328 11.244L29.2328 13.5ZM34.1972 13.5C33.6652 13.5 33.2292 13.35 32.8892 13.05C32.5492 12.746 32.3792 12.23 32.3792 11.502C32.3792 11.302 32.3892 11.12 32.4092 10.956H32.3312C32.3232 11.56 32.2112 12.048 31.9952 12.42C31.7832 12.792 31.4652 13.066 31.0412 13.242C30.6172 13.414 30.0752 13.5 29.4152 13.5H29.2352C29.1312 13.5 29.0552 13.442 29.0072 13.326C28.9592 13.206 28.9352 13.024 28.9352 12.78C28.9352 12.456 28.9632 12.178 29.0192 11.946C29.0752 11.714 29.1492 11.54 29.2412 11.424C29.3332 11.304 29.4312 11.244 29.5352 11.244H29.7152C30.4952 11.244 31.0732 11.192 31.4492 11.088C31.8252 10.984 32.0952 10.8 32.2592 10.536C32.4272 10.268 32.5632 9.85 32.6672 9.282H32.8112V10.008C32.8112 10.4 32.9452 10.704 33.2132 10.92C33.4852 11.136 33.9332 11.244 34.5572 11.244L34.1972 13.5ZM31.2392 14.592C31.5832 14.592 31.8372 14.634 32.0012 14.718C32.1692 14.806 32.2532 14.958 32.2532 15.174C32.2532 15.246 32.2412 15.324 32.2172 15.408C32.1972 15.496 32.1652 15.606 32.1212 15.738C32.0452 15.974 31.9932 16.174 31.9652 16.338H31.8932C31.8932 16.198 31.8192 16.102 31.6712 16.05C31.5272 15.998 31.2852 15.972 30.9452 15.972H30.9152C30.6912 15.972 30.2852 15.98 29.6972 15.996C29.1132 16.016 28.6332 16.042 28.2572 16.074C28.3292 15.946 28.4212 15.724 28.5332 15.408C28.6452 15.096 28.7212 14.858 28.7612 14.694C29.2292 14.662 29.6952 14.636 30.1592 14.616C30.6232 14.6 30.9832 14.592 31.2392 14.592ZM30.9752 15.834L31.2392 14.592L30.9752 15.834ZM42.4885 10.734C42.4885 11.618 42.3405 12.3 42.0445 12.78C41.7525 13.26 41.3185 13.5 40.7425 13.5C39.8065 13.5 39.3385 13.006 39.3385 12.018C39.3385 11.874 39.3465 11.738 39.3625 11.61H39.2905C39.2225 12.238 39.0285 12.71 38.7085 13.026C38.3925 13.342 38.0045 13.5 37.5445 13.5C37.1645 13.5 36.8665 13.39 36.6505 13.17C36.4385 12.95 36.3325 12.616 36.3325 12.168C36.3325 11.976 36.3485 11.79 36.3805 11.61H36.3085C36.2045 12.25 35.9765 12.726 35.6245 13.038C35.2765 13.346 34.8225 13.5 34.2625 13.5C34.1585 13.5 34.0825 13.442 34.0345 13.326C33.9865 13.206 33.9625 13.024 33.9625 12.78C33.9625 12.456 33.9905 12.178 34.0465 11.946C34.1025 11.714 34.1765 11.54 34.2685 11.424C34.3605 11.304 34.4585 11.244 34.5625 11.244C34.9945 11.244 35.3445 11.202 35.6125 11.118C35.8845 11.034 36.1045 10.882 36.2725 10.662C36.4445 10.442 36.5785 10.128 36.6745 9.72H36.8185L36.6445 10.98C36.9125 11.156 37.3085 11.244 37.8325 11.244C38.2045 11.244 38.5025 11.198 38.7265 11.106C38.9545 11.01 39.1345 10.854 39.2665 10.638C39.4025 10.418 39.5065 10.112 39.5785 9.72H39.7285L39.5665 10.932C39.6865 11.028 39.8625 11.104 40.0945 11.16C40.3265 11.216 40.5925 11.244 40.8925 11.244C41.1205 11.244 41.3385 11.226 41.5465 11.19C41.7545 11.15 41.9225 11.102 42.0505 11.046C42.1785 10.986 42.2425 10.932 42.2425 10.884C42.2425 10.804 42.1405 10.668 41.9365 10.476C41.7365 10.284 41.3625 9.982 40.8145 9.57C40.9665 9.342 41.1245 9.062 41.2885 8.73C41.4525 8.398 41.5865 8.072 41.6905 7.752H41.7625L41.8465 7.944C41.9665 8.212 42.0685 8.466 42.1525 8.706C42.2405 8.946 42.3185 9.242 42.3865 9.594C42.4545 9.942 42.4885 10.322 42.4885 10.734ZM39.0205 6.432C38.8885 6.3 38.7145 6.152 38.4985 5.988C38.2825 5.824 38.0925 5.706 37.9285 5.634V5.562L38.7325 4.542C38.9405 4.642 39.1505 4.782 39.3625 4.962C39.5785 5.138 39.7325 5.288 39.8245 5.412L39.0205 6.432ZM37.9285 8.178C37.5845 8.178 37.3285 8.136 37.1605 8.052C36.9965 7.964 36.9145 7.812 36.9145 7.596C36.9145 7.528 36.9245 7.456 36.9445 7.38C36.9645 7.304 36.9965 7.206 37.0405 7.086C37.1245 6.842 37.1785 6.648 37.2025 6.504H37.2745C37.2745 6.644 37.3465 6.74 37.4905 6.792C37.6385 6.844 37.8825 6.87 38.2225 6.87H38.2525C38.4765 6.87 38.8805 6.862 39.4645 6.846C40.0525 6.826 40.5345 6.8 40.9105 6.768C40.8345 6.9 40.7405 7.114 40.6285 7.41C40.5165 7.702 40.4425 7.924 40.4065 8.076C39.9385 8.108 39.4725 8.134 39.0085 8.154C38.5445 8.17 38.1845 8.178 37.9285 8.178ZM43.2142 16.77C42.9102 16.77 42.6242 16.72 42.3562 16.62C42.0882 16.524 41.7762 16.386 41.4202 16.206C41.1082 16.05 40.8822 15.948 40.7422 15.9V15.828C41.4622 15.664 42.2162 15.386 43.0042 14.994C43.7962 14.602 44.4582 14.194 44.9902 13.77C45.5262 13.346 45.7942 13.014 45.7942 12.774C45.7942 12.63 45.6462 12.414 45.3502 12.126C45.0542 11.838 44.6082 11.472 44.0122 11.028C44.1682 10.796 44.3382 10.49 44.5222 10.11C44.7102 9.73 44.8562 9.382 44.9602 9.066H45.0322C45.0562 9.126 45.1082 9.236 45.1882 9.396C45.3362 9.692 45.4622 9.968 45.5662 10.224C45.6742 10.48 45.7702 10.78 45.8542 11.124C45.9382 11.468 45.9802 11.824 45.9802 12.192C45.9802 13.156 45.8582 13.982 45.6142 14.67C45.3702 15.362 45.0382 15.884 44.6182 16.236C44.2022 16.592 43.7342 16.77 43.2142 16.77ZM45.9198 15.828C46.5158 15.724 47.1678 15.542 47.8758 15.282C48.5838 15.026 49.2378 14.724 49.8378 14.376C50.4418 14.032 50.8898 13.684 51.1818 13.332V13.242C50.8898 13.342 50.5858 13.416 50.2698 13.464C49.9538 13.508 49.5958 13.53 49.1958 13.53C48.5918 13.53 48.1378 13.364 47.8338 13.032C47.5298 12.7 47.3778 12.228 47.3778 11.616C47.3778 11 47.4638 10.438 47.6358 9.93C47.8078 9.418 48.0518 9.012 48.3678 8.712C48.6878 8.412 49.0598 8.262 49.4838 8.262C49.8838 8.262 50.2338 8.382 50.5338 8.622C50.8378 8.858 51.0818 9.2 51.2658 9.648C51.4538 10.092 51.5758 10.624 51.6318 11.244H52.4598L52.1598 13.5H51.5598C51.4438 14.212 51.2458 14.814 50.9658 15.306C50.6858 15.798 50.3498 16.164 49.9578 16.404C49.5658 16.648 49.1418 16.77 48.6858 16.77C48.3578 16.77 48.0418 16.72 47.7378 16.62C47.4378 16.524 47.0858 16.386 46.6818 16.206C46.5458 16.146 46.4098 16.088 46.2738 16.032C46.1378 15.976 46.0198 15.932 45.9198 15.9V15.828ZM49.2678 11.388C50.0158 11.388 50.6698 11.36 51.2298 11.304C51.0498 10.856 50.7838 10.504 50.4318 10.248C50.0838 9.992 49.6718 9.864 49.1958 9.864C48.9238 9.864 48.6698 9.914 48.4338 10.014C48.2018 10.114 48.0158 10.234 47.8758 10.374C47.7358 10.514 47.6658 10.634 47.6658 10.734C47.6658 10.842 47.7158 10.946 47.8158 11.046C47.9198 11.146 48.0898 11.228 48.3258 11.292C48.5658 11.356 48.8798 11.388 49.2678 11.388ZM54.713 7.608C54.973 7.608 55.263 7.656 55.583 7.752C55.907 7.848 56.347 7.998 56.903 8.202C57.375 8.378 57.773 8.522 58.097 8.634C58.425 8.742 58.777 8.838 59.153 8.922C59.533 9.006 59.905 9.054 60.269 9.066V9.138C60.149 9.246 59.983 9.448 59.771 9.744C59.563 10.04 59.403 10.298 59.291 10.518C59.003 10.518 58.737 10.566 58.493 10.662C58.253 10.758 58.035 10.88 57.839 11.028C57.643 11.172 57.397 11.376 57.101 11.64C56.665 12.028 56.263 12.346 55.895 12.594C55.531 12.842 55.063 13.056 54.491 13.236C53.919 13.412 53.241 13.5 52.457 13.5H52.157C52.053 13.5 51.977 13.442 51.929 13.326C51.881 13.206 51.857 13.024 51.857 12.78C51.857 12.456 51.885 12.178 51.941 11.946C51.997 11.714 52.071 11.54 52.163 11.424C52.255 11.304 52.353 11.244 52.457 11.244C53.561 11.244 54.463 11.21 55.163 11.142C55.867 11.074 56.407 10.994 56.783 10.902C57.163 10.806 57.561 10.682 57.977 10.53C58.209 10.446 58.357 10.394 58.421 10.374V10.302C58.009 10.226 57.631 10.14 57.287 10.044C56.943 9.948 56.539 9.826 56.075 9.678C55.651 9.542 55.313 9.442 55.061 9.378C54.809 9.314 54.571 9.282 54.347 9.282C54.051 9.282 53.793 9.34 53.573 9.456C53.357 9.572 53.179 9.756 53.039 10.008H52.967C53.131 9.352 53.299 8.85 53.471 8.502C53.647 8.154 53.831 7.918 54.023 7.794C54.219 7.67 54.449 7.608 54.713 7.608ZM55.529 6.072C55.417 5.92 55.239 5.744 54.995 5.544C54.751 5.344 54.541 5.206 54.365 5.13V5.052L55.313 3.888C55.533 3.996 55.765 4.16 56.009 4.38C56.257 4.596 56.437 4.796 56.549 4.98L55.529 6.072ZM64.863 3.174C64.863 3.338 64.877 3.778 64.905 4.494C64.973 6.27 65.007 7.6 65.007 8.484C65.007 9.376 64.985 10.082 64.941 10.602C64.897 11.118 64.839 11.518 64.767 11.802C64.699 12.082 64.595 12.412 64.455 12.792C64.315 13.164 64.209 13.472 64.137 13.716H64.059C64.063 13.64 64.065 13.512 64.065 13.332C64.065 12.664 64.019 11.74 63.927 10.56C63.839 9.38 63.735 8.25 63.615 7.17C63.499 6.09 63.405 5.388 63.333 5.064C63.573 4.824 63.825 4.53 64.089 4.182C64.353 3.83 64.587 3.494 64.791 3.174H64.863ZM65.0917 15.828C65.6877 15.724 66.3397 15.542 67.0477 15.282C67.7557 15.026 68.4097 14.724 69.0097 14.376C69.6137 14.032 70.0617 13.684 70.3537 13.332V13.242C70.0617 13.342 69.7577 13.416 69.4417 13.464C69.1257 13.508 68.7677 13.53 68.3677 13.53C67.7637 13.53 67.3097 13.364 67.0057 13.032C66.7017 12.7 66.5497 12.228 66.5497 11.616C66.5497 11 66.6357 10.438 66.8077 9.93C66.9797 9.418 67.2237 9.012 67.5397 8.712C67.8597 8.412 68.2317 8.262 68.6557 8.262C69.0557 8.262 69.4057 8.382 69.7057 8.622C70.0097 8.858 70.2537 9.2 70.4377 9.648C70.6257 10.092 70.7477 10.624 70.8037 11.244H71.6317L71.3317 13.5H70.7317C70.6157 14.212 70.4177 14.814 70.1377 15.306C69.8577 15.798 69.5217 16.164 69.1297 16.404C68.7377 16.648 68.3137 16.77 67.8577 16.77C67.5297 16.77 67.2137 16.72 66.9097 16.62C66.6097 16.524 66.2577 16.386 65.8537 16.206C65.7177 16.146 65.5817 16.088 65.4457 16.032C65.3097 15.976 65.1917 15.932 65.0917 15.9V15.828ZM68.4397 11.388C69.1877 11.388 69.8417 11.36 70.4017 11.304C70.2217 10.856 69.9557 10.504 69.6037 10.248C69.2557 9.992 68.8437 9.864 68.3677 9.864C68.0957 9.864 67.8417 9.914 67.6057 10.014C67.3737 10.114 67.1877 10.234 67.0477 10.374C66.9077 10.514 66.8377 10.634 66.8377 10.734C66.8377 10.842 66.8877 10.946 66.9877 11.046C67.0917 11.146 67.2617 11.228 67.4977 11.292C67.7377 11.356 68.0517 11.388 68.4397 11.388ZM73.9209 8.988C73.6849 8.988 73.4709 9.03 73.2789 9.114C73.0909 9.198 72.9429 9.308 72.8349 9.444C72.7309 9.576 72.6789 9.716 72.6789 9.864C72.6789 10.1 72.8209 10.322 73.1049 10.53C73.3889 10.734 73.7669 10.912 74.2389 11.064C74.7069 10.896 75.0369 10.744 75.2289 10.608C75.4209 10.472 75.5169 10.346 75.5169 10.23C75.5169 10.042 75.4349 9.852 75.2709 9.66C75.1069 9.464 74.8989 9.304 74.6469 9.18C74.3989 9.052 74.1569 8.988 73.9209 8.988ZM78.2829 10.734C78.2829 11.298 78.1709 11.842 77.9469 12.366C77.7229 12.89 77.4229 13.34 77.0469 13.716C76.8829 13.62 76.5389 13.494 76.0149 13.338C75.4949 13.178 74.7909 12.978 73.9029 12.738C73.6509 12.978 73.3049 13.166 72.8649 13.302C72.4289 13.434 71.9169 13.5 71.3289 13.5C71.2249 13.5 71.1489 13.442 71.1009 13.326C71.0529 13.206 71.0289 13.024 71.0289 12.78C71.0289 12.456 71.0569 12.178 71.1129 11.946C71.1689 11.714 71.2429 11.54 71.3349 11.424C71.4269 11.304 71.5249 11.244 71.6289 11.244H72.3909C72.3429 11.088 72.3189 10.894 72.3189 10.662C72.3189 10.254 72.3989 9.85 72.5589 9.45C72.7189 9.046 72.9249 8.698 73.1769 8.406C72.8369 8.246 72.6229 8.15 72.5349 8.118C72.6389 7.878 72.7269 7.586 72.7989 7.242C72.8709 6.894 72.9149 6.58 72.9309 6.3H73.0029C73.1829 6.452 73.4229 6.614 73.7229 6.786C74.0229 6.954 74.4829 7.204 75.1029 7.536L75.6609 7.83C76.3529 8.198 76.8849 8.526 77.2569 8.814C77.6329 9.102 77.8969 9.396 78.0489 9.696C78.2049 9.992 78.2829 10.338 78.2829 10.734ZM75.3129 11.334C76.5769 11.642 77.3729 11.88 77.7009 12.048C77.7529 11.972 77.8009 11.874 77.8449 11.754C77.8929 11.63 77.9169 11.534 77.9169 11.466C77.9169 11.294 77.8509 11.128 77.7189 10.968C77.5909 10.808 77.3729 10.628 77.0649 10.428C76.7609 10.224 76.3189 9.964 75.7389 9.648C75.7389 9.96 75.7029 10.26 75.6309 10.548C75.5629 10.836 75.4569 11.098 75.3129 11.334Z" fill="#090909"/>
<path d="M28.2699 27.5C27.9879 27.5 27.7659 27.434 27.6459 27.296C27.5679 27.752 27.3159 28.202 26.8779 28.49C26.4759 28.784 25.8159 29.024 25.1859 29.096C25.0779 29.054 24.9759 28.838 24.8319 28.616C26.5059 28.4 27.2499 27.842 27.3819 27.362C27.3699 27.104 27.2019 26.444 27.0459 25.976L27.4479 25.742C27.6399 26.732 27.7839 26.954 28.3659 26.954L28.2699 27.5ZM29.4952 25.4C29.5672 25.712 29.6692 26.264 29.6692 26.468C29.6692 26.774 29.4712 27.212 29.2252 27.344C28.9912 27.47 28.6252 27.5 28.2712 27.5C28.2412 27.5 28.2112 27.44 28.2112 27.332C28.2112 27.152 28.2832 26.954 28.3672 26.954C29.0572 26.954 29.3212 26.888 29.3692 26.78C29.3452 26.552 29.2312 26.042 29.0872 25.652L29.4952 25.4ZM28.1632 28.16C28.2592 28.28 28.4632 28.43 28.6432 28.55L28.3132 28.94C28.1332 28.82 27.9292 28.67 27.8332 28.55L28.1632 28.16ZM29.2432 28.94C29.0632 28.82 28.8592 28.67 28.7632 28.55L29.0932 28.16C29.1892 28.28 29.3932 28.43 29.5732 28.55L29.2432 28.94ZM33.563 27.5C33.077 27.5 32.771 27.296 32.603 26.732C32.579 26.84 32.549 26.93 32.525 26.96C32.243 27.326 31.613 27.602 31.103 27.602C30.707 27.602 30.521 27.386 30.521 26.948C30.521 26.858 30.533 26.618 30.533 26.534L30.779 26.516C30.779 26.534 30.779 26.642 30.779 26.672C30.779 26.936 30.869 27.056 31.217 27.056C31.643 27.056 32.153 26.84 32.477 26.528C32.399 26.066 32.225 25.43 32.003 24.848L32.363 24.554C32.519 24.992 32.639 25.448 32.783 26.084C32.933 26.744 33.167 26.954 33.659 26.954L33.563 27.5ZM32.171 24.068C31.991 23.96 31.811 23.828 31.661 23.678L31.991 23.258C32.141 23.408 32.321 23.54 32.501 23.648L32.171 24.068ZM34.7862 25.4C34.8582 25.712 34.9602 26.264 34.9602 26.468C34.9602 26.774 34.7622 27.212 34.5162 27.344C34.2822 27.47 33.9162 27.5 33.5622 27.5C33.5322 27.5 33.5022 27.44 33.5022 27.332C33.5022 27.152 33.5742 26.954 33.6582 26.954C34.3482 26.954 34.6122 26.888 34.6602 26.78C34.6362 26.552 34.5222 26.042 34.3782 25.652L34.7862 25.4ZM33.4542 28.16C33.5502 28.28 33.7542 28.43 33.9342 28.55L33.6042 28.94C33.4242 28.82 33.2202 28.67 33.1242 28.55L33.4542 28.16ZM34.5342 28.94C34.3542 28.82 34.1502 28.67 34.0542 28.55L34.3842 28.16C34.4802 28.28 34.6842 28.43 34.8642 28.55L34.5342 28.94ZM34.1442 29.78C33.9642 29.66 33.7902 29.51 33.6942 29.39L34.0242 29C34.1202 29.12 34.2942 29.27 34.4742 29.39L34.1442 29.78ZM39.9321 27.5C39.4461 27.5 39.1401 27.296 38.9721 26.732C38.9481 26.84 38.9181 26.93 38.8941 26.96C38.6121 27.326 37.9821 27.602 37.4721 27.602C37.0761 27.602 36.8901 27.386 36.8901 26.948C36.8901 26.858 36.9021 26.618 36.9021 26.534L37.1481 26.516C37.1481 26.534 37.1481 26.642 37.1481 26.672C37.1481 26.936 37.2381 27.056 37.5861 27.056C38.0121 27.056 38.5221 26.84 38.8461 26.528C38.7681 26.066 38.5941 25.43 38.3721 24.848L38.7321 24.554C38.8881 24.992 39.0081 25.448 39.1521 26.084C39.3021 26.744 39.5361 26.954 40.0281 26.954L39.9321 27.5ZM41.1553 25.4C41.2273 25.712 41.3293 26.264 41.3293 26.468C41.3293 26.774 41.1313 27.212 40.8853 27.344C40.6513 27.47 40.2853 27.5 39.9313 27.5C39.9013 27.5 39.8713 27.44 39.8713 27.332C39.8713 27.152 39.9433 26.954 40.0273 26.954C40.7173 26.954 40.9813 26.888 41.0293 26.78C41.0053 26.552 40.8913 26.042 40.7473 25.652L41.1553 25.4ZM39.8233 28.16C39.9193 28.28 40.1233 28.43 40.3033 28.55L39.9733 28.94C39.7933 28.82 39.5893 28.67 39.4933 28.55L39.8233 28.16ZM40.9033 28.94C40.7233 28.82 40.5193 28.67 40.4233 28.55L40.7533 28.16C40.8493 28.28 41.0533 28.43 41.2333 28.55L40.9033 28.94ZM45.2232 27.5C44.7372 27.5 44.4312 27.296 44.2632 26.732C44.2392 26.84 44.2092 26.93 44.1852 26.96C43.9032 27.326 43.2732 27.602 42.7632 27.602C42.3672 27.602 42.1812 27.386 42.1812 26.948C42.1812 26.858 42.1932 26.618 42.1932 26.534L42.4392 26.516C42.4392 26.534 42.4392 26.642 42.4392 26.672C42.4392 26.936 42.5292 27.056 42.8772 27.056C43.3032 27.056 43.8132 26.84 44.1372 26.528C44.0592 26.066 43.8852 25.43 43.6632 24.848L44.0232 24.554C44.1792 24.992 44.2992 25.448 44.4432 26.084C44.5932 26.744 44.8272 26.954 45.3192 26.954L45.2232 27.5ZM46.3924 25.184C46.8184 25.184 47.7904 25.826 49.0144 25.97L48.8404 26.39C48.6784 26.39 48.4684 26.42 48.2584 26.48C48.3304 26.822 48.5764 26.954 49.2784 26.954H49.3624L49.2664 27.5H49.1824C48.4444 27.5 48.1324 27.266 48.0424 26.564C47.2684 26.978 46.5964 27.5 45.2224 27.5C45.1924 27.5 45.1624 27.44 45.1624 27.332C45.1624 27.152 45.2344 26.954 45.3184 26.954C46.3864 26.954 47.0344 26.708 48.0304 26.276C47.0404 25.988 46.5724 25.706 46.2724 25.706C46.1404 25.706 46.0624 25.784 45.8764 26.108L45.6904 25.97C45.9844 25.382 46.1284 25.184 46.3924 25.184ZM46.7344 28.97C46.5544 28.862 46.3744 28.73 46.2244 28.58L46.5544 28.16C46.7044 28.31 46.8844 28.442 47.0644 28.55L46.7344 28.97ZM50.4893 25.4C50.5613 25.712 50.6633 26.264 50.6633 26.468C50.6633 26.774 50.4653 27.212 50.2193 27.344C49.9853 27.47 49.6193 27.5 49.2653 27.5C49.2353 27.5 49.2053 27.44 49.2053 27.332C49.2053 27.152 49.2773 26.954 49.3613 26.954C50.0513 26.954 50.3153 26.888 50.3633 26.78C50.3393 26.552 50.2253 26.042 50.0813 25.652L50.4893 25.4ZM49.5533 24.152C49.6493 24.272 49.8533 24.422 50.0333 24.542L49.7033 24.932C49.5233 24.812 49.3193 24.662 49.2233 24.542L49.5533 24.152ZM50.6333 24.932C50.4533 24.812 50.2493 24.662 50.1533 24.542L50.4833 24.152C50.5793 24.272 50.7833 24.422 50.9633 24.542L50.6333 24.932ZM56.7993 25.238C56.6493 25.082 56.5173 25.004 56.3793 25.004C55.9413 25.004 55.2333 25.808 55.2333 26.126C55.2333 26.246 55.3593 26.342 55.7253 26.408L56.4633 26.546C56.7633 26.6 56.8773 26.786 56.8773 27.002C56.8773 27.266 56.7333 27.656 56.4573 27.884C55.9233 28.328 54.9933 28.58 54.2013 28.58C53.1273 28.58 52.6533 28.1 52.6533 27.38C52.6533 26.996 52.7553 26.444 52.9773 25.742L53.2113 25.814C53.0613 26.378 52.9953 26.846 52.9953 27.104C52.9953 27.674 53.4573 28.034 54.3153 28.034C55.5753 28.034 56.5953 27.434 56.6073 27.248C56.6013 27.2 56.5473 27.146 56.2473 27.092L55.5393 26.96C55.1013 26.876 54.9513 26.684 54.9513 26.396C54.9513 25.604 55.8573 24.482 56.4933 24.482C56.7273 24.482 56.9253 24.632 57.0813 24.902L56.7993 25.238ZM59.1312 27.5C58.4352 27.5 58.1232 27.134 58.0992 26.288C58.0812 25.652 58.0152 23.546 58.0032 23.03L58.4592 22.88V26.03C58.4592 26.636 58.6872 26.954 59.2272 26.954L59.1312 27.5ZM60.1225 24.554C61.2745 25.538 62.5945 25.814 62.5945 26.606C62.5945 27.062 62.2465 27.59 61.9045 27.59C61.5745 27.59 60.8305 27.44 60.3985 27.284C60.0505 27.422 59.6185 27.5 59.1325 27.5C59.1025 27.5 59.0725 27.44 59.0725 27.332C59.0725 27.152 59.1445 26.954 59.2285 26.954C59.4025 26.954 59.5585 26.948 59.7025 26.936C59.6305 26.828 59.5945 26.702 59.5945 26.57C59.5945 26.12 59.9005 25.562 60.2605 25.292C60.1465 25.208 60.0325 25.124 59.9245 25.028L60.1225 24.554ZM59.8585 26.306C59.8585 26.522 60.0625 26.696 60.4405 26.816C60.8245 26.702 61.0345 26.534 61.0885 26.366C61.0645 25.952 60.8245 25.58 60.5485 25.58C60.2065 25.58 59.8585 26.12 59.8585 26.306ZM60.9925 26.912C61.4365 27.02 61.8805 27.098 62.1385 27.098C62.2345 27.074 62.2945 26.948 62.2945 26.81C62.2945 26.522 61.8865 26.276 61.3525 25.97C61.3585 26.006 61.3585 26.036 61.3585 26.066C61.3585 26.396 61.2265 26.684 60.9925 26.912ZM67.6508 25.238C67.5008 25.082 67.3688 25.004 67.2308 25.004C66.7928 25.004 66.0848 25.808 66.0848 26.126C66.0848 26.246 66.2108 26.342 66.5768 26.408L67.3148 26.546C67.6148 26.6 67.7288 26.786 67.7288 27.002C67.7288 27.266 67.5848 27.656 67.3088 27.884C66.7748 28.328 65.8448 28.58 65.0528 28.58C63.9788 28.58 63.5048 28.1 63.5048 27.38C63.5048 26.996 63.6068 26.444 63.8288 25.742L64.0628 25.814C63.9128 26.378 63.8468 26.846 63.8468 27.104C63.8468 27.674 64.3088 28.034 65.1668 28.034C66.4268 28.034 67.4468 27.434 67.4588 27.248C67.4528 27.2 67.3988 27.146 67.0988 27.092L66.3908 26.96C65.9528 26.876 65.8028 26.684 65.8028 26.396C65.8028 25.604 66.7088 24.482 67.3448 24.482C67.5788 24.482 67.7768 24.632 67.9328 24.902L67.6508 25.238ZM69.5004 25.7C69.6504 26.3 69.7344 26.822 69.7344 27.152C69.7344 28.328 69.0924 28.898 68.0064 29.114C67.9224 29.078 67.8084 28.856 67.6704 28.658C68.8704 28.382 69.3744 27.974 69.4464 27.572C69.4344 27.188 69.2664 26.468 69.0864 25.958L69.5004 25.7ZM69.2544 24.152C69.0744 24.032 68.9004 23.882 68.8044 23.762L69.1344 23.372C69.2304 23.492 69.4044 23.642 69.5844 23.762L69.2544 24.152ZM68.7444 24.212C68.8404 24.332 69.0444 24.482 69.2244 24.602L68.8944 24.992C68.7144 24.872 68.5104 24.722 68.4144 24.602L68.7444 24.212ZM69.8244 24.992C69.6444 24.872 69.4404 24.722 69.3444 24.602L69.6744 24.212C69.7704 24.332 69.9744 24.482 70.1544 24.602L69.8244 24.992ZM72.227 27.5C71.963 27.5 71.747 27.44 71.621 27.314C71.567 28.382 70.931 28.91 69.899 29.114C69.815 29.078 69.701 28.856 69.563 28.658C70.763 28.382 71.267 27.974 71.339 27.572C71.327 27.152 71.159 26.468 71.003 25.976L71.405 25.742C71.597 26.732 71.741 26.954 72.323 26.954L72.227 27.5ZM73.4522 25.4C73.5242 25.712 73.6262 26.264 73.6262 26.468C73.6262 26.774 73.4282 27.212 73.1822 27.344C72.9482 27.47 72.5822 27.5 72.2282 27.5C72.1982 27.5 72.1682 27.44 72.1682 27.332C72.1682 27.152 72.2402 26.954 72.3242 26.954C73.0142 26.954 73.2782 26.888 73.3262 26.78C73.3022 26.552 73.1882 26.042 73.0442 25.652L73.4522 25.4ZM73.2422 24.932C73.0622 24.824 72.8822 24.692 72.7322 24.542L73.0622 24.122C73.2122 24.272 73.3922 24.404 73.5722 24.512L73.2422 24.932ZM75.006 27.476L74.676 27.542L74.55 23.03L75.006 22.88V27.476Z" fill="#090909"/>
</svg>
