<svg width="100" height="32" viewBox="0 0 100 32" fill="none" xmlns="http://www.w3.org/2000/svg">
<path d="M32.7737 13.5C32.3577 13.5 32.0877 13.49 31.9637 13.47C31.9717 13.55 31.9757 13.608 31.9757 13.644C31.9757 14.788 31.6157 15.656 30.8957 16.248C30.1757 16.84 29.0797 17.136 27.6077 17.136C26.5957 17.136 25.8217 16.858 25.2857 16.302C24.7497 15.75 24.4817 14.962 24.4817 13.938C24.4817 13.422 24.5377 12.9 24.6497 12.372C24.7617 11.844 24.9237 11.348 25.1357 10.884H25.2857C25.0897 11.46 24.9917 12.066 24.9917 12.702C24.9917 13.162 25.1017 13.554 25.3217 13.878C25.5417 14.206 25.8637 14.454 26.2877 14.622C26.7117 14.794 27.2257 14.88 27.8297 14.88C28.7297 14.88 29.4697 14.816 30.0497 14.688C30.6337 14.56 31.0557 14.416 31.3157 14.256C31.5797 14.096 31.7117 13.966 31.7117 13.866C31.7117 13.726 31.5137 13.618 31.1177 13.542C30.7257 13.466 30.1457 13.39 29.3777 13.314C28.8857 13.262 28.5097 13.22 28.2497 13.188C27.9937 13.156 27.7797 13.114 27.6077 13.062V12.99C27.8357 12.67 28.0417 12.358 28.2257 12.054C28.4137 11.746 28.5717 11.428 28.6997 11.1C29.1037 11.168 29.5797 11.21 30.1277 11.226C30.6797 11.238 31.6617 11.244 33.0737 11.244L32.7737 13.5ZM41.0041 10.734C41.0041 11.618 40.8561 12.3 40.5601 12.78C40.2681 13.26 39.8341 13.5 39.2581 13.5C38.3221 13.5 37.8541 13.006 37.8541 12.018C37.8541 11.874 37.8621 11.738 37.8781 11.61H37.8061C37.7381 12.238 37.5441 12.71 37.2241 13.026C36.9081 13.342 36.5201 13.5 36.0601 13.5C35.6801 13.5 35.3821 13.39 35.1661 13.17C34.9541 12.95 34.8481 12.616 34.8481 12.168C34.8481 11.976 34.8641 11.79 34.8961 11.61H34.8241C34.7201 12.25 34.4921 12.726 34.1401 13.038C33.7921 13.346 33.3381 13.5 32.7781 13.5C32.6741 13.5 32.5981 13.442 32.5501 13.326C32.5021 13.206 32.4781 13.024 32.4781 12.78C32.4781 12.456 32.5061 12.178 32.5621 11.946C32.6181 11.714 32.6921 11.54 32.7841 11.424C32.8761 11.304 32.9741 11.244 33.0781 11.244C33.5101 11.244 33.8601 11.202 34.1281 11.118C34.4001 11.034 34.6201 10.882 34.7881 10.662C34.9601 10.442 35.0941 10.128 35.1901 9.72H35.3341L35.1601 10.98C35.4281 11.156 35.8241 11.244 36.3481 11.244C36.7201 11.244 37.0181 11.198 37.2421 11.106C37.4701 11.01 37.6501 10.854 37.7821 10.638C37.9181 10.418 38.0221 10.112 38.0941 9.72H38.2441L38.0821 10.932C38.2021 11.028 38.3781 11.104 38.6101 11.16C38.8421 11.216 39.1081 11.244 39.4081 11.244C39.6361 11.244 39.8541 11.226 40.0621 11.19C40.2701 11.15 40.4381 11.102 40.5661 11.046C40.6941 10.986 40.7581 10.932 40.7581 10.884C40.7581 10.804 40.6561 10.668 40.4521 10.476C40.2521 10.284 39.8781 9.982 39.3301 9.57C39.4821 9.342 39.6401 9.062 39.8041 8.73C39.9681 8.398 40.1021 8.072 40.2061 7.752H40.2781L40.3621 7.944C40.4821 8.212 40.5841 8.466 40.6681 8.706C40.7561 8.946 40.8341 9.242 40.9021 9.594C40.9701 9.942 41.0041 10.322 41.0041 10.734ZM44.5073 8.262C44.9633 8.262 45.3553 8.416 45.6833 8.724C46.0113 9.028 46.2613 9.466 46.4333 10.038C46.6053 10.606 46.6913 11.276 46.6913 12.048C46.6913 13.072 46.5573 13.938 46.2893 14.646C46.0213 15.358 45.6613 15.89 45.2093 16.242C44.7573 16.594 44.2573 16.77 43.7093 16.77C43.3813 16.77 43.0653 16.72 42.7613 16.62C42.4613 16.524 42.1093 16.386 41.7053 16.206C41.5693 16.146 41.4333 16.088 41.2973 16.032C41.1613 15.976 41.0433 15.932 40.9433 15.9V15.828C41.6753 15.7 42.4773 15.462 43.3493 15.114C44.2213 14.766 44.9593 14.368 45.5633 13.92C46.1673 13.476 46.4693 13.05 46.4693 12.642C46.4693 12.502 46.4493 12.326 46.4093 12.114C46.3693 11.898 46.3273 11.73 46.2833 11.61H46.2233C46.1913 12.234 46.0093 12.71 45.6773 13.038C45.3493 13.366 44.8633 13.53 44.2193 13.53C43.6153 13.53 43.1613 13.364 42.8573 13.032C42.5533 12.7 42.4013 12.228 42.4013 11.616C42.4013 11 42.4873 10.438 42.6593 9.93C42.8313 9.418 43.0753 9.012 43.3913 8.712C43.7113 8.412 44.0833 8.262 44.5073 8.262ZM46.1273 11.058C45.9353 10.682 45.6753 10.39 45.3473 10.182C45.0193 9.97 44.6433 9.864 44.2193 9.864C43.9473 9.864 43.6933 9.914 43.4573 10.014C43.2253 10.114 43.0393 10.234 42.8993 10.374C42.7593 10.514 42.6893 10.634 42.6893 10.734C42.6893 10.842 42.7393 10.946 42.8393 11.046C42.9433 11.146 43.1133 11.228 43.3493 11.292C43.5893 11.356 43.9033 11.388 44.2913 11.388C44.6433 11.388 44.9673 11.364 45.2633 11.316C45.5593 11.264 45.8473 11.178 46.1273 11.058ZM52.6842 10.446C52.6842 11.202 52.5822 11.808 52.3782 12.264C52.1782 12.72 51.8662 13.052 51.4422 13.26C51.0182 13.468 50.4622 13.572 49.7742 13.572C49.2262 13.572 48.8102 13.426 48.5262 13.134C48.2422 12.842 48.1002 12.406 48.1002 11.826C48.1002 11.63 48.1122 11.408 48.1362 11.16C48.1642 10.912 48.2002 10.614 48.2442 10.266H48.3582C48.3582 10.55 48.4042 10.766 48.4962 10.914C48.5922 11.062 48.7502 11.166 48.9702 11.226C49.1902 11.286 49.5062 11.316 49.9182 11.316C50.4822 11.316 50.9542 11.286 51.3342 11.226C51.7182 11.162 52.0022 11.086 52.1862 10.998C52.3702 10.906 52.4622 10.818 52.4622 10.734C52.4622 10.574 52.3042 10.33 51.9882 10.002C51.6762 9.674 51.2962 9.34 50.8482 9C50.4002 8.656 49.9942 8.386 49.6302 8.19C49.7462 7.914 49.8762 7.574 50.0202 7.17C50.1642 6.762 50.2522 6.472 50.2842 6.3H50.3562C50.3922 6.344 50.4942 6.446 50.6622 6.606C51.0102 6.934 51.3222 7.262 51.5982 7.59C51.8742 7.918 52.1242 8.33 52.3482 8.826C52.5722 9.318 52.6842 9.858 52.6842 10.446ZM56.9117 13.5C56.6237 13.5 56.3557 13.422 56.1077 13.266C56.0237 14.01 55.8537 14.644 55.5977 15.168C55.3417 15.696 55.0237 16.094 54.6437 16.362C54.2677 16.634 53.8537 16.77 53.4017 16.77C53.0977 16.77 52.8117 16.72 52.5437 16.62C52.2757 16.524 51.9637 16.386 51.6077 16.206C51.2957 16.05 51.0697 15.948 50.9297 15.9V15.828C51.5577 15.688 52.2197 15.456 52.9157 15.132C53.6117 14.808 54.2317 14.458 54.7757 14.082C55.3197 13.71 55.6897 13.382 55.8857 13.098C55.4057 12.69 54.9417 11.928 54.4937 10.812C54.6017 10.664 54.7337 10.418 54.8897 10.074C55.0497 9.726 55.1837 9.39 55.2917 9.066H55.3637C55.5997 9.878 55.8717 10.444 56.1797 10.764C56.4877 11.084 56.8317 11.244 57.2117 11.244L56.9117 13.5ZM59.751 5.592C60.455 5.592 60.997 5.936 61.377 6.624C61.757 7.312 61.947 8.354 61.947 9.75C61.947 10.638 61.789 11.356 61.473 11.904C61.161 12.452 60.665 12.856 59.985 13.116C59.305 13.372 58.405 13.5 57.285 13.5H56.907C56.803 13.5 56.727 13.442 56.679 13.326C56.631 13.206 56.607 13.024 56.607 12.78C56.607 12.456 56.635 12.178 56.691 11.946C56.747 11.714 56.821 11.54 56.913 11.424C57.005 11.304 57.103 11.244 57.207 11.244H57.645C58.601 11.244 59.383 11.184 59.991 11.064C60.599 10.944 61.037 10.802 61.305 10.638C61.573 10.474 61.707 10.328 61.707 10.2C61.707 9.92 61.689 9.658 61.653 9.414C61.617 9.166 61.575 8.978 61.527 8.85H61.467C61.403 9.35 61.207 9.74 60.879 10.02C60.555 10.3 60.083 10.44 59.463 10.44C58.863 10.44 58.409 10.298 58.101 10.014C57.797 9.726 57.645 9.34 57.645 8.856C57.645 8.256 57.731 7.708 57.903 7.212C58.075 6.716 58.319 6.322 58.635 6.03C58.955 5.738 59.327 5.592 59.751 5.592ZM61.371 8.298C61.179 7.922 60.919 7.63 60.591 7.422C60.263 7.21 59.887 7.104 59.463 7.104C59.191 7.104 58.937 7.154 58.701 7.254C58.469 7.354 58.283 7.474 58.143 7.614C58.003 7.754 57.933 7.874 57.933 7.974C57.933 8.082 57.983 8.186 58.083 8.286C58.187 8.386 58.357 8.468 58.593 8.532C58.833 8.596 59.147 8.628 59.535 8.628C59.887 8.628 60.211 8.604 60.507 8.556C60.803 8.504 61.091 8.418 61.371 8.298ZM59.679 4.872C59.567 4.72 59.389 4.544 59.145 4.344C58.901 4.144 58.691 4.006 58.515 3.93V3.852L59.463 2.688C59.683 2.796 59.915 2.96 60.159 3.18C60.407 3.396 60.587 3.596 60.699 3.78L59.679 4.872ZM69.9898 13.5C69.7018 13.5 69.4338 13.422 69.1858 13.266C69.1018 14.01 68.9318 14.644 68.6758 15.168C68.4198 15.696 68.1018 16.094 67.7218 16.362C67.3458 16.634 66.9318 16.77 66.4798 16.77C66.1758 16.77 65.8898 16.72 65.6218 16.62C65.3538 16.524 65.0418 16.386 64.6858 16.206C64.3738 16.05 64.1478 15.948 64.0078 15.9V15.828C64.6358 15.688 65.2978 15.456 65.9938 15.132C66.6898 14.808 67.3098 14.458 67.8538 14.082C68.3978 13.71 68.7678 13.382 68.9638 13.098C68.4838 12.69 68.0198 11.928 67.5718 10.812C67.6798 10.664 67.8118 10.418 67.9678 10.074C68.1278 9.726 68.2618 9.39 68.3698 9.066H68.4418C68.6778 9.878 68.9498 10.444 69.2578 10.764C69.5658 11.084 69.9098 11.244 70.2898 11.244L69.9898 13.5ZM73.1952 10.446C73.1952 11.45 72.9772 12.21 72.5412 12.726C72.1092 13.242 71.4872 13.5 70.6752 13.5H69.9852C69.8812 13.5 69.8052 13.442 69.7572 13.326C69.7092 13.206 69.6852 13.024 69.6852 12.78C69.6852 12.456 69.7132 12.178 69.7692 11.946C69.8252 11.714 69.8992 11.54 69.9912 11.424C70.0832 11.304 70.1812 11.244 70.2852 11.244H70.8852C71.1772 11.244 71.4852 11.22 71.8092 11.172C72.1332 11.12 72.4032 11.056 72.6192 10.98C72.8392 10.9 72.9492 10.818 72.9492 10.734C72.9492 10.662 72.8692 10.536 72.7092 10.356C72.5492 10.176 72.3452 9.98 72.0972 9.768C71.8532 9.556 71.6132 9.37 71.3772 9.21C71.5332 9.006 71.7052 8.714 71.8932 8.334C72.0812 7.95 72.2232 7.612 72.3192 7.32H72.3972C72.4132 7.372 72.4532 7.464 72.5172 7.596C72.7092 8.028 72.8692 8.468 72.9972 8.916C73.1292 9.364 73.1952 9.874 73.1952 10.446ZM70.9572 16.632C70.8212 16.472 70.6372 16.292 70.4052 16.092C70.1732 15.896 69.9692 15.76 69.7932 15.684V15.612L70.7412 14.448C70.9612 14.556 71.1932 14.718 71.4372 14.934C71.6852 15.154 71.8652 15.356 71.9772 15.54L70.9572 16.632ZM75.988 3.174C75.988 3.338 76.002 3.778 76.03 4.494C76.098 6.27 76.132 7.6 76.132 8.484C76.132 9.376 76.11 10.082 76.066 10.602C76.022 11.118 75.964 11.518 75.892 11.802C75.824 12.082 75.72 12.412 75.58 12.792C75.44 13.164 75.334 13.472 75.262 13.716H75.184C75.188 13.64 75.19 13.512 75.19 13.332C75.19 12.664 75.144 11.74 75.052 10.56C74.964 9.38 74.86 8.25 74.74 7.17C74.624 6.09 74.53 5.388 74.458 5.064C74.698 4.824 74.95 4.53 75.214 4.182C75.478 3.83 75.712 3.494 75.916 3.174H75.988Z" fill="#090909"/>
<path d="M13.3059 27.5H12.9819C13.0539 27.572 13.0899 27.668 13.0899 27.782C13.0899 28.04 12.9459 28.388 12.6699 28.604C12.1839 28.982 11.2359 29.24 10.4259 29.24C9.35188 29.24 8.87788 28.76 8.87788 28.04C8.87788 27.656 8.97988 27.104 9.20188 26.402L9.43588 26.474C9.28588 27.038 9.21988 27.506 9.21988 27.764C9.21988 28.334 9.68188 28.694 10.5399 28.694C11.7519 28.694 12.8019 28.184 12.8259 27.968C12.8019 27.758 12.5019 27.614 11.2359 27.404L11.4279 26.924C11.9919 26.954 12.2799 26.954 12.8799 26.954H13.4019L13.3059 27.5ZM15.5563 25.556C15.3823 25.598 15.2263 25.61 14.9503 25.61C14.5063 25.61 14.2723 25.67 14.1763 25.778C14.1343 25.85 14.1163 25.946 14.1163 26.054C14.1163 26.516 14.5003 26.816 14.8843 26.816C15.1603 26.816 15.4423 26.744 16.0963 26.558L16.0603 27.044C14.9023 27.398 14.0803 27.5 13.3063 27.5C13.2763 27.5 13.2463 27.44 13.2463 27.332C13.2463 27.152 13.3183 26.954 13.4023 26.954C13.5763 26.954 13.7983 26.954 14.0083 26.936C13.8703 26.78 13.8043 26.564 13.8043 26.3C13.8043 25.61 14.3323 25.094 14.9563 25.094C15.1783 25.094 15.4963 25.118 15.7123 25.142L15.5563 25.556ZM19.2468 27.5H18.9288C18.8568 27.92 18.6588 28.25 18.3288 28.484C17.9028 28.814 17.0148 29.054 16.1568 29.108C16.0488 29.066 15.9648 28.874 15.7968 28.598C17.6748 28.472 18.5808 28.106 18.6888 27.53V27.494C18.3948 27.512 18.0408 27.53 17.7348 27.53C17.2548 27.53 17.0328 27.284 17.0328 26.906C17.0328 26.144 17.4228 25.46 17.9448 25.46C18.5688 25.46 18.9108 26.222 18.9528 26.954H19.3428L19.2468 27.5ZM17.2848 26.636C17.2848 26.846 17.4648 26.984 17.8248 26.984C18.0948 26.984 18.3468 26.978 18.6348 26.96C18.5208 26.378 18.2328 25.982 17.8608 25.982C17.5368 25.982 17.2848 26.3 17.2848 26.636ZM21.4618 27.5C20.9698 27.5 20.6818 27.326 20.5978 26.876C20.4118 27.314 20.0458 27.5 19.3558 27.5H19.2477C19.2177 27.5 19.1877 27.446 19.1877 27.332C19.1877 27.152 19.2597 26.954 19.3438 26.954H19.4518C20.2078 26.954 20.5018 26.78 20.5138 26.348L20.5258 25.844L20.8378 25.784V26.252C20.8378 26.696 21.0298 26.954 21.5578 26.954L21.4618 27.5ZM20.4658 25.196C20.2858 25.088 20.1058 24.956 19.9558 24.806L20.2858 24.386C20.4358 24.536 20.6158 24.668 20.7958 24.776L20.4658 25.196ZM26.5026 27.5C26.1486 27.5 25.9086 27.38 25.8366 27.092C25.7826 27.14 25.7226 27.182 25.6626 27.212C25.2486 27.41 24.5466 27.5 23.9766 27.5C23.2146 27.5 22.7526 27.266 22.6746 26.846C22.4346 27.368 22.0626 27.5 21.4626 27.5C21.4326 27.5 21.4026 27.44 21.4026 27.332C21.4026 27.152 21.4746 26.954 21.5586 26.954C22.2426 26.954 22.5486 26.78 22.5966 26.312L22.6326 25.976L22.8966 25.952V26.252C22.8966 26.48 22.9986 26.654 23.2026 26.774C24.0426 25.748 24.6126 25.19 25.1286 25.19C25.6566 25.19 26.1846 25.802 26.1846 26.324C26.1846 26.51 26.1126 26.714 26.0046 26.888C26.1546 26.93 26.3586 26.954 26.5986 26.954L26.5026 27.5ZM23.4366 26.876C23.6166 26.924 23.8386 26.954 24.1086 26.954C24.9606 26.954 25.8126 26.78 25.8966 26.6C25.8966 26.288 25.4406 25.712 24.9726 25.712C24.5886 25.712 24.1386 26.096 23.4366 26.876ZM28.6077 25.334C28.8837 25.334 29.0517 25.472 29.1417 25.748C29.2137 25.976 29.2677 26.324 29.2677 26.63C29.2677 27.056 28.9617 27.5 28.7157 27.5C28.3857 27.5 27.6897 27.29 27.5217 26.864C27.2157 27.374 26.9277 27.5 26.5017 27.5C26.4717 27.5 26.4417 27.44 26.4417 27.332C26.4417 27.152 26.5137 26.954 26.5977 26.954C27.0357 26.954 27.2877 26.828 27.5457 26.3C27.8997 25.568 28.1277 25.334 28.6077 25.334ZM27.7377 26.438C27.9177 26.75 28.5237 26.978 28.9317 26.978C28.9557 26.978 28.9677 26.954 28.9677 26.882C28.9677 26.75 28.8957 26.27 28.8057 26.048C28.7517 25.922 28.6617 25.838 28.5177 25.838C28.1697 25.838 27.9657 25.988 27.7677 26.372C27.7557 26.396 27.7497 26.42 27.7377 26.438ZM37.9927 25.472C38.0767 25.85 38.1247 26.282 38.1247 26.546C38.1247 27.026 37.8007 27.5 37.5367 27.5C37.0987 27.5 36.7687 27.29 36.6727 26.978C36.4927 27.338 36.2227 27.5 35.8867 27.5C35.6767 27.5 35.4847 27.44 35.3887 27.314C35.3707 27.878 35.1847 28.304 34.9087 28.532C34.5127 28.862 33.5887 29.18 32.8087 29.18C31.7347 29.18 31.2607 28.7 31.2607 27.98C31.2607 27.596 31.3627 27.044 31.5847 26.342L31.8187 26.414C31.6687 26.978 31.6027 27.446 31.6027 27.704C31.6027 28.274 32.0647 28.634 32.9227 28.634C33.7807 28.634 34.8427 28.256 35.0407 27.962C35.0707 27.92 35.0767 27.83 35.0767 27.752C35.0767 27.362 34.9447 26.624 34.7767 25.958L35.1787 25.724C35.3467 26.732 35.5207 26.954 35.9707 26.954C36.3607 26.954 36.5827 26.72 36.6127 26.396L36.6367 26.06L36.9007 26.036V26.354C36.9007 26.714 37.2187 26.954 37.6627 26.954C37.7407 26.954 37.8007 26.918 37.8187 26.858C37.8007 26.624 37.7107 26.126 37.5847 25.724L37.9927 25.472ZM36.5827 24.38C36.4027 24.26 36.2287 24.11 36.1327 23.99L36.4627 23.6C36.5587 23.72 36.7327 23.87 36.9127 23.99L36.5827 24.38ZM36.0727 24.44C36.1687 24.56 36.3727 24.71 36.5527 24.83L36.2227 25.22C36.0427 25.1 35.8387 24.95 35.7427 24.83L36.0727 24.44ZM37.1527 25.22C36.9727 25.1 36.7687 24.95 36.6727 24.83L37.0027 24.44C37.0987 24.56 37.3027 24.71 37.4827 24.83L37.1527 25.22ZM41.237 27.5H40.919C40.847 27.92 40.649 28.25 40.319 28.484C39.893 28.814 39.005 29.054 38.147 29.108C38.039 29.066 37.955 28.874 37.787 28.598C39.665 28.472 40.571 28.106 40.679 27.53V27.494C40.385 27.512 40.031 27.53 39.725 27.53C39.245 27.53 39.023 27.284 39.023 26.906C39.023 26.144 39.413 25.46 39.935 25.46C40.559 25.46 40.901 26.222 40.943 26.954H41.333L41.237 27.5ZM39.275 26.636C39.275 26.846 39.455 26.984 39.815 26.984C40.085 26.984 40.337 26.978 40.625 26.96C40.511 26.378 40.223 25.982 39.851 25.982C39.527 25.982 39.275 26.3 39.275 26.636ZM42.228 24.554C43.38 25.538 44.7 25.814 44.7 26.606C44.7 27.062 44.352 27.59 44.01 27.59C43.68 27.59 42.936 27.44 42.504 27.284C42.156 27.422 41.724 27.5 41.238 27.5C41.208 27.5 41.178 27.44 41.178 27.332C41.178 27.152 41.25 26.954 41.334 26.954C41.508 26.954 41.664 26.948 41.808 26.936C41.736 26.828 41.7 26.702 41.7 26.57C41.7 26.12 42.006 25.562 42.366 25.292C42.252 25.208 42.138 25.124 42.03 25.028L42.228 24.554ZM41.964 26.306C41.964 26.522 42.168 26.696 42.546 26.816C42.93 26.702 43.14 26.534 43.194 26.366C43.17 25.952 42.93 25.58 42.654 25.58C42.312 25.58 41.964 26.12 41.964 26.306ZM43.098 26.912C43.542 27.02 43.986 27.098 44.244 27.098C44.34 27.074 44.4 26.948 44.4 26.81C44.4 26.522 43.992 26.276 43.458 25.97C43.464 26.006 43.464 26.036 43.464 26.066C43.464 26.396 43.332 26.684 43.098 26.912ZM47.7924 25.46C48.4584 25.46 48.8064 26.33 48.8064 27.104C48.8064 27.716 48.6024 28.178 48.1764 28.484C47.7504 28.814 46.8624 29.054 46.0044 29.108C45.8964 29.066 45.8124 28.874 45.6444 28.598C47.5224 28.472 48.4284 28.106 48.5364 27.53C48.5364 27.458 48.5364 27.386 48.5304 27.314C48.2604 27.458 47.9304 27.53 47.5824 27.53C47.1024 27.53 46.8804 27.284 46.8804 26.906C46.8804 26.144 47.2704 25.46 47.7924 25.46ZM47.1324 26.636C47.1324 26.846 47.3124 26.984 47.6724 26.984C47.9664 26.984 48.2424 26.942 48.4644 26.87C48.3384 26.336 48.0564 25.982 47.7084 25.982C47.3844 25.982 47.1324 26.3 47.1324 26.636ZM54.9418 25.238C54.7918 25.082 54.6598 25.004 54.5218 25.004C54.0838 25.004 53.3758 25.808 53.3758 26.126C53.3758 26.246 53.5018 26.342 53.8678 26.408L54.6058 26.546C54.9058 26.6 55.0198 26.786 55.0198 27.002C55.0198 27.266 54.8758 27.656 54.5998 27.884C54.0658 28.328 53.1358 28.58 52.3438 28.58C51.2698 28.58 50.7958 28.1 50.7958 27.38C50.7958 26.996 50.8978 26.444 51.1198 25.742L51.3538 25.814C51.2038 26.378 51.1378 26.846 51.1378 27.104C51.1378 27.674 51.5998 28.034 52.4578 28.034C53.7178 28.034 54.7378 27.434 54.7498 27.248C54.7438 27.2 54.6898 27.146 54.3898 27.092L53.6818 26.96C53.2438 26.876 53.0938 26.684 53.0938 26.396C53.0938 25.604 53.9998 24.482 54.6358 24.482C54.8698 24.482 55.0678 24.632 55.2238 24.902L54.9418 25.238ZM57.6254 27.5C57.3614 27.5 57.1454 27.44 57.0194 27.314C56.9654 28.382 56.3294 28.91 55.2974 29.114C55.2134 29.078 55.0994 28.856 54.9614 28.658C56.1614 28.382 56.6654 27.974 56.7374 27.572C56.7254 27.152 56.5574 26.468 56.4014 25.976L56.8034 25.742C56.9954 26.732 57.1394 26.954 57.7214 26.954L57.6254 27.5ZM58.8507 25.4C58.9227 25.712 59.0247 26.264 59.0247 26.468C59.0247 26.774 58.8267 27.212 58.5807 27.344C58.3467 27.47 57.9807 27.5 57.6267 27.5C57.5967 27.5 57.5667 27.44 57.5667 27.332C57.5667 27.152 57.6387 26.954 57.7227 26.954C58.4127 26.954 58.6767 26.888 58.7247 26.78C58.7007 26.552 58.5867 26.042 58.4427 25.652L58.8507 25.4ZM58.2447 28.97C58.0647 28.862 57.8847 28.73 57.7347 28.58L58.0647 28.16C58.2147 28.31 58.3947 28.442 58.5747 28.55L58.2447 28.97ZM60.4045 27.476L60.0745 27.542L59.9485 23.03L60.4045 22.88V27.476ZM66.5786 25.238C66.4286 25.082 66.2966 25.004 66.1586 25.004C65.7206 25.004 65.0126 25.808 65.0126 26.126C65.0126 26.246 65.1386 26.342 65.5046 26.408L66.2426 26.546C66.5426 26.6 66.6566 26.786 66.6566 27.002C66.6566 27.266 66.5126 27.656 66.2366 27.884C65.7026 28.328 64.7726 28.58 63.9806 28.58C62.9066 28.58 62.4326 28.1 62.4326 27.38C62.4326 26.996 62.5346 26.444 62.7566 25.742L62.9906 25.814C62.8406 26.378 62.7746 26.846 62.7746 27.104C62.7746 27.674 63.2366 28.034 64.0946 28.034C65.3546 28.034 66.3746 27.434 66.3866 27.248C66.3806 27.2 66.3266 27.146 66.0266 27.092L65.3186 26.96C64.8806 26.876 64.7306 26.684 64.7306 26.396C64.7306 25.604 65.6366 24.482 66.2726 24.482C66.5066 24.482 66.7046 24.632 66.8606 24.902L66.5786 25.238ZM68.9105 27.5C68.2145 27.5 67.9025 27.134 67.8785 26.288C67.8605 25.652 67.7945 23.546 67.7825 23.03L68.2385 22.88V26.03C68.2385 26.636 68.4665 26.954 69.0065 26.954L68.9105 27.5ZM69.9018 24.554C71.0538 25.538 72.3738 25.814 72.3738 26.606C72.3738 27.062 72.0258 27.59 71.6838 27.59C71.3538 27.59 70.6098 27.44 70.1778 27.284C69.8298 27.422 69.3978 27.5 68.9118 27.5C68.8818 27.5 68.8518 27.44 68.8518 27.332C68.8518 27.152 68.9238 26.954 69.0078 26.954C69.1818 26.954 69.3378 26.948 69.4818 26.936C69.4098 26.828 69.3738 26.702 69.3738 26.57C69.3738 26.12 69.6798 25.562 70.0398 25.292C69.9258 25.208 69.8118 25.124 69.7038 25.028L69.9018 24.554ZM69.6378 26.306C69.6378 26.522 69.8418 26.696 70.2198 26.816C70.6038 26.702 70.8138 26.534 70.8678 26.366C70.8438 25.952 70.6038 25.58 70.3278 25.58C69.9858 25.58 69.6378 26.12 69.6378 26.306ZM70.7718 26.912C71.2158 27.02 71.6598 27.098 71.9178 27.098C72.0138 27.074 72.0738 26.948 72.0738 26.81C72.0738 26.522 71.6658 26.276 71.1318 25.97C71.1378 26.006 71.1378 26.036 71.1378 26.066C71.1378 26.396 71.0058 26.684 70.7718 26.912ZM80.7481 27.5C80.2981 27.5 80.0161 27.344 79.9141 27.014C79.7521 27.392 79.5241 27.5 79.3141 27.5C78.9961 27.5 78.7441 27.308 78.6781 27.008C78.4981 27.35 78.2401 27.5 77.9101 27.5C77.7001 27.5 77.5081 27.44 77.4121 27.314C77.3941 27.878 77.2081 28.304 76.9321 28.532C76.5361 28.862 75.6121 29.18 74.8321 29.18C73.7581 29.18 73.2841 28.7 73.2841 27.98C73.2841 27.596 73.3861 27.044 73.6081 26.342L73.8421 26.414C73.6921 26.978 73.6261 27.446 73.6261 27.704C73.6261 28.274 74.0881 28.634 74.9461 28.634C75.8041 28.634 76.8661 28.256 77.0641 27.962C77.0941 27.92 77.1001 27.83 77.1001 27.752C77.1001 27.362 76.9681 26.624 76.8001 25.958L77.2021 25.724C77.3701 26.732 77.5441 26.954 77.9941 26.954C78.3841 26.954 78.6061 26.72 78.6361 26.396L78.6601 26.06L78.9241 26.036V26.354C78.9241 26.732 79.1161 26.954 79.4101 26.954C79.6381 26.954 79.7881 26.792 79.8001 26.366L79.8121 25.844L80.1241 25.784V26.252C80.1241 26.696 80.3161 26.954 80.8441 26.954L80.7481 27.5ZM81.9118 25.4C81.9838 25.712 82.0858 26.264 82.0858 26.468C82.0858 26.774 81.8878 27.212 81.6418 27.344C81.4078 27.47 81.0778 27.5 80.7477 27.5C80.7177 27.5 80.6877 27.44 80.6877 27.332C80.6877 27.152 80.7597 26.954 80.8438 26.954C81.4258 26.954 81.7378 26.888 81.7858 26.78C81.7618 26.552 81.6178 25.994 81.5038 25.652L81.9118 25.4ZM80.1237 28.16C80.2197 28.28 80.4237 28.43 80.6037 28.55L80.2737 28.94C80.0938 28.82 79.8897 28.67 79.7937 28.55L80.1237 28.16ZM81.2038 28.94C81.0238 28.82 80.8197 28.67 80.7237 28.55L81.0538 28.16C81.1498 28.28 81.3538 28.43 81.5338 28.55L81.2038 28.94ZM83.8979 25.46C84.5639 25.46 84.9119 26.33 84.9119 27.104C84.9119 27.716 84.7079 28.178 84.2819 28.484C83.8559 28.814 82.9679 29.054 82.1099 29.108C82.0019 29.066 81.9179 28.874 81.7499 28.598C83.6279 28.472 84.5339 28.106 84.6419 27.53C84.6419 27.458 84.6419 27.386 84.6359 27.314C84.3659 27.458 84.0359 27.53 83.6879 27.53C83.2079 27.53 82.9859 27.284 82.9859 26.906C82.9859 26.144 83.3759 25.46 83.8979 25.46ZM83.2379 26.636C83.2379 26.846 83.4179 26.984 83.7779 26.984C84.0719 26.984 84.3479 26.942 84.5699 26.87C84.4439 26.336 84.1619 25.982 83.8139 25.982C83.4899 25.982 83.2379 26.3 83.2379 26.636ZM87.4027 27.5C87.1387 27.5 86.9227 27.44 86.7967 27.314C86.7427 28.382 86.1067 28.91 85.0747 29.114C84.9907 29.078 84.8767 28.856 84.7387 28.658C85.9387 28.382 86.4427 27.974 86.5147 27.572C86.5027 27.152 86.3347 26.468 86.1787 25.976L86.5807 25.742C86.7727 26.732 86.9167 26.954 87.4987 26.954L87.4027 27.5ZM91.412 25.472C91.496 25.85 91.544 26.282 91.544 26.546C91.544 27.026 91.22 27.5 90.956 27.5C90.518 27.5 90.188 27.29 90.092 26.978C89.912 27.338 89.642 27.5 89.306 27.5C88.94 27.5 88.64 27.32 88.562 26.948C88.364 27.338 88.022 27.5 87.404 27.5C87.374 27.5 87.344 27.44 87.344 27.332C87.344 27.152 87.416 26.954 87.5 26.954C88.184 26.954 88.49 26.78 88.538 26.312L88.574 25.976L88.838 25.952V26.354C88.838 26.714 89.03 26.954 89.39 26.954C89.78 26.954 90.002 26.72 90.032 26.396L90.056 26.06L90.32 26.036V26.354C90.32 26.714 90.638 26.954 91.082 26.954C91.16 26.954 91.22 26.918 91.238 26.858C91.22 26.624 91.13 26.126 91.004 25.724L91.412 25.472Z" fill="#090909"/>
</svg>
