<svg width="100" height="32" viewBox="0 0 100 32" fill="none" xmlns="http://www.w3.org/2000/svg">
<path d="M25.1933 13.5C24.6773 13.5 24.2793 13.374 23.9993 13.122C23.7233 12.87 23.5853 12.486 23.5853 11.97C23.5853 11.854 23.5913 11.734 23.6033 11.61H23.5313C23.4593 12.266 23.3073 12.746 23.0753 13.05C22.8433 13.35 22.5093 13.5 22.0733 13.5C21.7173 13.5 21.4413 13.384 21.2453 13.152C21.0533 12.916 20.9573 12.56 20.9573 12.084C20.9573 11.96 20.9673 11.802 20.9873 11.61H20.9093C20.8413 12.238 20.6493 12.71 20.3333 13.026C20.0173 13.342 19.6293 13.5 19.1693 13.5C18.6253 13.5 18.1993 13.328 17.8913 12.984C17.8073 13.812 17.5833 14.514 17.2193 15.09C16.8553 15.67 16.3733 16.108 15.7733 16.404C15.1773 16.7 14.4893 16.848 13.7093 16.848C12.6973 16.848 11.9233 16.57 11.3873 16.014C10.8513 15.458 10.5833 14.668 10.5833 13.644C10.5833 12.56 10.8253 11.494 11.3093 10.446H11.4593C11.2153 11.11 11.0933 11.764 11.0933 12.408C11.0933 12.868 11.2033 13.26 11.4233 13.584C11.6433 13.912 11.9653 14.162 12.3893 14.334C12.8173 14.506 13.3313 14.592 13.9313 14.592C14.6433 14.592 15.2833 14.492 15.8513 14.292C16.4233 14.096 16.8693 13.85 17.1893 13.554C17.5093 13.262 17.6693 12.978 17.6693 12.702C17.6693 12.59 17.5693 12.354 17.3693 11.994C17.1733 11.63 16.8993 11.186 16.5473 10.662C16.6553 10.522 16.7873 10.28 16.9433 9.936C17.0993 9.588 17.2333 9.248 17.3453 8.916H17.4233C17.6913 9.792 17.9933 10.4 18.3293 10.74C18.6693 11.076 19.0453 11.244 19.4573 11.244C19.8293 11.244 20.1273 11.198 20.3513 11.106C20.5793 11.01 20.7593 10.854 20.8913 10.638C21.0273 10.418 21.1313 10.112 21.2033 9.72H21.3473L21.1853 10.932C21.4253 11.14 21.7713 11.244 22.2233 11.244C22.5313 11.244 22.7933 11.188 23.0093 11.076C23.2253 10.96 23.3753 10.822 23.4593 10.662C23.4593 10.502 23.4333 10.294 23.3813 10.038C23.3333 9.782 23.2853 9.578 23.2373 9.426C23.3773 9.374 23.5473 9.278 23.7473 9.138V10.152C23.7473 10.476 23.8853 10.74 24.1613 10.944C24.4373 11.144 24.8813 11.244 25.4933 11.244L25.1933 13.5ZM20.7713 6.432C20.6393 6.3 20.4653 6.152 20.2493 5.988C20.0333 5.824 19.8433 5.706 19.6793 5.634V5.562L20.4833 4.542C20.6913 4.642 20.9013 4.782 21.1133 4.962C21.3293 5.138 21.4833 5.288 21.5753 5.412L20.7713 6.432ZM19.6793 8.178C19.3353 8.178 19.0793 8.136 18.9113 8.052C18.7473 7.964 18.6653 7.812 18.6653 7.596C18.6653 7.528 18.6753 7.456 18.6953 7.38C18.7153 7.304 18.7473 7.206 18.7913 7.086C18.8753 6.842 18.9293 6.648 18.9533 6.504H19.0253C19.0253 6.644 19.0973 6.74 19.2413 6.792C19.3893 6.844 19.6333 6.87 19.9733 6.87H20.0033C20.2273 6.87 20.6313 6.862 21.2153 6.846C21.8033 6.826 22.2853 6.8 22.6613 6.768C22.5853 6.9 22.4913 7.114 22.3793 7.41C22.2673 7.702 22.1933 7.924 22.1573 8.076C21.6893 8.108 21.2233 8.134 20.7593 8.154C20.2953 8.17 19.9353 8.178 19.6793 8.178ZM27.7881 8.988C27.5521 8.988 27.3381 9.03 27.1461 9.114C26.9581 9.198 26.8101 9.308 26.7021 9.444C26.5981 9.576 26.5461 9.716 26.5461 9.864C26.5461 10.1 26.6881 10.322 26.9721 10.53C27.2561 10.734 27.6341 10.912 28.1061 11.064C28.5741 10.896 28.9041 10.744 29.0961 10.608C29.2881 10.472 29.3841 10.346 29.3841 10.23C29.3841 10.042 29.3021 9.852 29.1381 9.66C28.9741 9.464 28.7661 9.304 28.5141 9.18C28.2661 9.052 28.0241 8.988 27.7881 8.988ZM32.1501 10.734C32.1501 11.298 32.0381 11.842 31.8141 12.366C31.5901 12.89 31.2901 13.34 30.9141 13.716C30.7501 13.62 30.4061 13.494 29.8821 13.338C29.3621 13.178 28.6581 12.978 27.7701 12.738C27.5181 12.978 27.1721 13.166 26.7321 13.302C26.2961 13.434 25.7841 13.5 25.1961 13.5C25.0921 13.5 25.0161 13.442 24.9681 13.326C24.9201 13.206 24.8961 13.024 24.8961 12.78C24.8961 12.456 24.9241 12.178 24.9801 11.946C25.0361 11.714 25.1101 11.54 25.2021 11.424C25.2941 11.304 25.3921 11.244 25.4961 11.244H26.2581C26.2101 11.088 26.1861 10.894 26.1861 10.662C26.1861 10.254 26.2661 9.85 26.4261 9.45C26.5861 9.046 26.7921 8.698 27.0441 8.406C26.7041 8.246 26.4901 8.15 26.4021 8.118C26.5061 7.878 26.5941 7.586 26.6661 7.242C26.7381 6.894 26.7821 6.58 26.7981 6.3H26.8701C27.0501 6.452 27.2901 6.614 27.5901 6.786C27.8901 6.954 28.3501 7.204 28.9701 7.536L29.5281 7.83C30.2201 8.198 30.7521 8.526 31.1241 8.814C31.5001 9.102 31.7641 9.396 31.9161 9.696C32.0721 9.992 32.1501 10.338 32.1501 10.734ZM29.1801 11.334C30.4441 11.642 31.2401 11.88 31.5681 12.048C31.6201 11.972 31.6681 11.874 31.7121 11.754C31.7601 11.63 31.7841 11.534 31.7841 11.466C31.7841 11.294 31.7181 11.128 31.5861 10.968C31.4581 10.808 31.2401 10.628 30.9321 10.428C30.6281 10.224 30.1861 9.964 29.6061 9.648C29.6061 9.96 29.5701 10.26 29.4981 10.548C29.4301 10.836 29.3241 11.098 29.1801 11.334ZM35.6479 8.262C36.1039 8.262 36.4959 8.416 36.8239 8.724C37.1519 9.028 37.4019 9.466 37.5739 10.038C37.7459 10.606 37.8319 11.276 37.8319 12.048C37.8319 13.072 37.6979 13.938 37.4299 14.646C37.1619 15.358 36.8019 15.89 36.3499 16.242C35.8979 16.594 35.3979 16.77 34.8499 16.77C34.5219 16.77 34.2059 16.72 33.9019 16.62C33.6019 16.524 33.2499 16.386 32.8459 16.206C32.7099 16.146 32.5739 16.088 32.4379 16.032C32.3019 15.976 32.1839 15.932 32.0839 15.9V15.828C32.8159 15.7 33.6179 15.462 34.4899 15.114C35.3619 14.766 36.0999 14.368 36.7039 13.92C37.3079 13.476 37.6099 13.05 37.6099 12.642C37.6099 12.502 37.5899 12.326 37.5499 12.114C37.5099 11.898 37.4679 11.73 37.4239 11.61H37.3639C37.3319 12.234 37.1499 12.71 36.8179 13.038C36.4899 13.366 36.0039 13.53 35.3599 13.53C34.7559 13.53 34.3019 13.364 33.9979 13.032C33.6939 12.7 33.5419 12.228 33.5419 11.616C33.5419 11 33.6279 10.438 33.7999 9.93C33.9719 9.418 34.2159 9.012 34.5319 8.712C34.8519 8.412 35.2239 8.262 35.6479 8.262ZM37.2679 11.058C37.0759 10.682 36.8159 10.39 36.4879 10.182C36.1599 9.97 35.7839 9.864 35.3599 9.864C35.0879 9.864 34.8339 9.914 34.5979 10.014C34.3659 10.114 34.1799 10.234 34.0399 10.374C33.8999 10.514 33.8299 10.634 33.8299 10.734C33.8299 10.842 33.8799 10.946 33.9799 11.046C34.0839 11.146 34.2539 11.228 34.4899 11.292C34.7299 11.356 35.0439 11.388 35.4319 11.388C35.7839 11.388 36.1079 11.364 36.4039 11.316C36.6999 11.264 36.9879 11.178 37.2679 11.058ZM43.0016 13.5C42.7136 13.5 42.4456 13.422 42.1976 13.266C42.1136 14.01 41.9436 14.644 41.6876 15.168C41.4316 15.696 41.1136 16.094 40.7336 16.362C40.3576 16.634 39.9436 16.77 39.4916 16.77C39.1876 16.77 38.9016 16.72 38.6336 16.62C38.3656 16.524 38.0536 16.386 37.6976 16.206C37.3856 16.05 37.1596 15.948 37.0196 15.9V15.828C37.6476 15.688 38.3096 15.456 39.0056 15.132C39.7016 14.808 40.3216 14.458 40.8656 14.082C41.4096 13.71 41.7796 13.382 41.9756 13.098C41.4956 12.69 41.0316 11.928 40.5836 10.812C40.6916 10.664 40.8236 10.418 40.9796 10.074C41.1396 9.726 41.2736 9.39 41.3816 9.066H41.4536C41.6896 9.878 41.9616 10.444 42.2696 10.764C42.5776 11.084 42.9216 11.244 43.3016 11.244L43.0016 13.5ZM41.3096 6.432C41.1776 6.3 41.0036 6.152 40.7876 5.988C40.5716 5.824 40.3816 5.706 40.2176 5.634V5.562L41.0216 4.542C41.2296 4.642 41.4396 4.782 41.6516 4.962C41.8676 5.138 42.0216 5.288 42.1136 5.412L41.3096 6.432ZM40.2176 8.178C39.8736 8.178 39.6176 8.136 39.4496 8.052C39.2856 7.964 39.2036 7.812 39.2036 7.596C39.2036 7.528 39.2136 7.456 39.2336 7.38C39.2536 7.304 39.2856 7.206 39.3296 7.086C39.4136 6.842 39.4676 6.648 39.4916 6.504H39.5636C39.5636 6.644 39.6356 6.74 39.7796 6.792C39.9276 6.844 40.1716 6.87 40.5116 6.87H40.5416C40.7656 6.87 41.1696 6.862 41.7536 6.846C42.3416 6.826 42.8236 6.8 43.1996 6.768C43.1236 6.9 43.0296 7.114 42.9176 7.41C42.8056 7.702 42.7316 7.924 42.6956 8.076C42.2276 8.108 41.7616 8.134 41.2976 8.154C40.8336 8.17 40.4736 8.178 40.2176 8.178ZM47.5269 10.446C47.5269 11.142 47.4129 11.714 47.1849 12.162C46.9609 12.606 46.5969 12.94 46.0929 13.164C45.5929 13.388 44.9309 13.5 44.1069 13.5H42.9969C42.8929 13.5 42.8169 13.442 42.7689 13.326C42.7209 13.206 42.6969 13.024 42.6969 12.78C42.6969 12.456 42.7249 12.178 42.7809 11.946C42.8369 11.714 42.9109 11.54 43.0029 11.424C43.0949 11.304 43.1929 11.244 43.2969 11.244H44.3169C44.8889 11.244 45.3989 11.22 45.8469 11.172C46.2989 11.124 46.6509 11.062 46.9029 10.986C47.1549 10.906 47.2809 10.822 47.2809 10.734C47.2809 10.662 47.2009 10.536 47.0409 10.356C46.8809 10.176 46.6769 9.98 46.4289 9.768C46.1849 9.556 45.9449 9.37 45.7089 9.21C45.8649 9.006 46.0369 8.714 46.2249 8.334C46.4129 7.95 46.5549 7.612 46.6509 7.32H46.7289C46.7449 7.372 46.7849 7.464 46.8489 7.596C47.0409 8.028 47.2009 8.468 47.3289 8.916C47.4609 9.364 47.5269 9.874 47.5269 10.446ZM44.5329 17.964C44.4009 17.832 44.2269 17.684 44.0109 17.52C43.7949 17.356 43.6049 17.238 43.4409 17.166V17.088L44.2449 16.074C44.4529 16.174 44.6629 16.312 44.8749 16.488C45.0909 16.668 45.2429 16.82 45.3309 16.944L44.5329 17.964ZM45.4809 14.472C45.8249 14.472 46.0789 14.514 46.2429 14.598C46.4109 14.686 46.4949 14.838 46.4949 15.054C46.4949 15.122 46.4849 15.194 46.4649 15.27C46.4449 15.346 46.4129 15.444 46.3689 15.564C46.2849 15.808 46.2309 16.002 46.2069 16.146H46.1349C46.1349 16.006 46.0609 15.91 45.9129 15.858C45.7689 15.806 45.5269 15.78 45.1869 15.78H45.1569C44.9329 15.78 44.5269 15.788 43.9389 15.804C43.3549 15.824 42.8749 15.85 42.4989 15.882C42.5749 15.75 42.6689 15.536 42.7809 15.24C42.8929 14.948 42.9669 14.726 43.0029 14.574C43.4709 14.542 43.9369 14.516 44.4009 14.496C44.8649 14.48 45.2249 14.472 45.4809 14.472ZM45.3969 14.844L45.4809 14.472L45.3969 14.844ZM58.2281 11.466C58.2281 12.466 58.0541 13.314 57.7061 14.01C57.3621 14.706 56.8741 15.23 56.2421 15.582C55.6101 15.938 54.8661 16.116 54.0101 16.116C52.9981 16.116 52.2241 15.838 51.6881 15.282C51.1521 14.73 50.8841 13.942 50.8841 12.918C50.8841 11.834 51.1261 10.768 51.6101 9.72H51.7601C51.5161 10.384 51.3941 11.038 51.3941 11.682C51.3941 12.142 51.5041 12.536 51.7241 12.864C51.9441 13.188 52.2661 13.436 52.6901 13.608C53.1181 13.78 53.6321 13.866 54.2321 13.866C54.9441 13.866 55.5841 13.766 56.1521 13.566C56.7241 13.37 57.1701 13.124 57.4901 12.828C57.8101 12.532 57.9701 12.246 57.9701 11.97C57.9701 11.858 57.8481 11.646 57.6041 11.334C57.3601 11.018 57.0021 10.626 56.5301 10.158C56.6861 9.926 56.8561 9.62 57.0401 9.24C57.2281 8.86 57.3741 8.512 57.4781 8.196H57.5501C57.5741 8.276 57.6201 8.412 57.6881 8.604C57.7961 8.916 57.8861 9.196 57.9581 9.444C58.0301 9.692 58.0921 9.99 58.1441 10.338C58.2001 10.686 58.2281 11.062 58.2281 11.466ZM54.2861 10.872C54.1741 10.72 53.9961 10.544 53.7521 10.344C53.5081 10.144 53.2981 10.006 53.1221 9.93V9.852L54.0701 8.688C54.2901 8.796 54.5221 8.96 54.7661 9.18C55.0141 9.396 55.1941 9.596 55.3061 9.78L54.2861 10.872ZM62.4631 13.5C61.8951 13.5 61.4451 13.414 61.1131 13.242C60.7811 13.07 60.5331 12.78 60.3691 12.372C60.2051 11.964 60.1071 11.394 60.0751 10.662C60.0271 9.462 59.9771 8.528 59.9251 7.86C59.8771 7.192 59.8211 6.672 59.7571 6.3C59.6931 5.928 59.6051 5.516 59.4931 5.064C59.7331 4.824 59.9851 4.53 60.2491 4.182C60.5131 3.83 60.7471 3.494 60.9511 3.174H61.0231C61.0231 3.322 61.0311 3.6 61.0471 4.008C61.0791 4.576 61.0951 5.146 61.0951 5.718C61.0951 6.074 61.0831 6.684 61.0591 7.548C61.0351 8.492 61.0231 9.216 61.0231 9.72C61.0231 10.236 61.1611 10.62 61.4371 10.872C61.7171 11.12 62.1591 11.244 62.7631 11.244L62.4631 13.5ZM67.4237 13.5C66.8917 13.5 66.4557 13.35 66.1157 13.05C65.7757 12.746 65.6057 12.23 65.6057 11.502C65.6057 11.302 65.6157 11.12 65.6357 10.956H65.5577C65.5497 11.56 65.4377 12.048 65.2217 12.42C65.0097 12.792 64.6917 13.066 64.2677 13.242C63.8437 13.414 63.3017 13.5 62.6417 13.5H62.4617C62.3577 13.5 62.2817 13.442 62.2337 13.326C62.1857 13.206 62.1617 13.024 62.1617 12.78C62.1617 12.456 62.1897 12.178 62.2457 11.946C62.3017 11.714 62.3757 11.54 62.4677 11.424C62.5597 11.304 62.6577 11.244 62.7617 11.244H62.9417C63.7217 11.244 64.2997 11.192 64.6757 11.088C65.0517 10.984 65.3217 10.8 65.4857 10.536C65.6537 10.268 65.7897 9.85 65.8937 9.282H66.0377V10.008C66.0377 10.4 66.1717 10.704 66.4397 10.92C66.7117 11.136 67.1597 11.244 67.7837 11.244L67.4237 13.5ZM63.5537 16.632C63.4177 16.472 63.2337 16.292 63.0017 16.092C62.7697 15.896 62.5657 15.76 62.3897 15.684V15.612L63.3377 14.448C63.5577 14.556 63.7897 14.718 64.0337 14.934C64.2817 15.154 64.4617 15.356 64.5737 15.54L63.5537 16.632ZM72.4511 13.5C71.9191 13.5 71.4831 13.35 71.1431 13.05C70.8031 12.746 70.6331 12.23 70.6331 11.502C70.6331 11.302 70.6431 11.12 70.6631 10.956H70.5851C70.5771 11.56 70.4651 12.048 70.2491 12.42C70.0371 12.792 69.7191 13.066 69.2951 13.242C68.8711 13.414 68.3291 13.5 67.6691 13.5H67.4891C67.3851 13.5 67.3091 13.442 67.2611 13.326C67.2131 13.206 67.1891 13.024 67.1891 12.78C67.1891 12.456 67.2171 12.178 67.2731 11.946C67.3291 11.714 67.4031 11.54 67.4951 11.424C67.5871 11.304 67.6851 11.244 67.7891 11.244H67.9691C68.7491 11.244 69.3271 11.192 69.7031 11.088C70.0791 10.984 70.3491 10.8 70.5131 10.536C70.6811 10.268 70.8171 9.85 70.9211 9.282H71.0651V10.008C71.0651 10.4 71.1991 10.704 71.4671 10.92C71.7391 11.136 72.1871 11.244 72.8111 11.244L72.4511 13.5ZM69.4931 14.592C69.8371 14.592 70.0911 14.634 70.2551 14.718C70.4231 14.806 70.5071 14.958 70.5071 15.174C70.5071 15.246 70.4951 15.324 70.4711 15.408C70.4511 15.496 70.4191 15.606 70.3751 15.738C70.2991 15.974 70.2471 16.174 70.2191 16.338H70.1471C70.1471 16.198 70.0731 16.102 69.9251 16.05C69.7811 15.998 69.5391 15.972 69.1991 15.972H69.1691C68.9451 15.972 68.5391 15.98 67.9511 15.996C67.3671 16.016 66.8871 16.042 66.5111 16.074C66.5831 15.946 66.6751 15.724 66.7871 15.408C66.8991 15.096 66.9751 14.858 67.0151 14.694C67.4831 14.662 67.9491 14.636 68.4131 14.616C68.8771 14.6 69.2371 14.592 69.4931 14.592ZM69.2291 15.834L69.4931 14.592L69.2291 15.834ZM77.2624 13.5C76.7544 13.5 76.3284 13.416 75.9844 13.248C75.6404 13.08 75.3604 12.84 75.1444 12.528C74.9284 12.212 74.7444 11.814 74.5924 11.334C74.5244 12.038 74.3184 12.576 73.9744 12.948C73.6304 13.316 73.1644 13.5 72.5764 13.5C72.4644 13.5 72.3764 13.442 72.3124 13.326C72.2484 13.206 72.2164 13.022 72.2164 12.774C72.2164 12.274 72.2824 11.894 72.4144 11.634C72.5424 11.374 72.7184 11.244 72.9424 11.244C73.6544 11.244 74.1644 11.138 74.4724 10.926L74.0344 9.426C74.2064 9.254 74.4064 9.016 74.6344 8.712C74.8624 8.404 75.0264 8.134 75.1264 7.902H75.1984C75.2344 8.262 75.3004 8.654 75.3964 9.078C75.4924 9.502 75.5964 9.86 75.7084 10.152C75.9884 10.88 76.6064 11.244 77.5624 11.244L77.2624 13.5ZM73.6324 7.128C73.2884 7.128 73.0324 7.086 72.8644 7.002C72.7004 6.914 72.6184 6.762 72.6184 6.546C72.6184 6.474 72.6304 6.396 72.6544 6.312C72.6744 6.224 72.7064 6.114 72.7504 5.982C72.8264 5.746 72.8784 5.546 72.9064 5.382H72.9784C72.9784 5.522 73.0504 5.618 73.1944 5.67C73.3424 5.722 73.5864 5.748 73.9264 5.748H73.9564C74.1804 5.748 74.5844 5.74 75.1684 5.724C75.7564 5.704 76.2384 5.678 76.6144 5.646C76.5424 5.774 76.4504 5.996 76.3384 6.312C76.2264 6.624 76.1504 6.862 76.1104 7.026C75.6424 7.058 75.1764 7.084 74.7124 7.104C74.2484 7.12 73.8884 7.128 73.6324 7.128ZM86.5625 13.5C86.0465 13.5 85.6505 13.374 85.3745 13.122C85.0985 12.87 84.9605 12.486 84.9605 11.97C84.9605 11.854 84.9665 11.734 84.9785 11.61H84.9065C84.8345 12.266 84.6825 12.746 84.4505 13.05C84.2185 13.35 83.8865 13.5 83.4545 13.5C83.0945 13.5 82.8165 13.384 82.6205 13.152C82.4285 12.916 82.3325 12.558 82.3325 12.078C82.3325 11.954 82.3425 11.798 82.3625 11.61H82.2905C82.2225 12.238 82.0285 12.71 81.7085 13.026C81.3925 13.342 81.0045 13.5 80.5445 13.5C80.1645 13.5 79.8665 13.39 79.6505 13.17C79.4385 12.95 79.3325 12.616 79.3325 12.168C79.3325 11.976 79.3485 11.79 79.3805 11.61H79.3085C79.2045 12.25 78.9765 12.726 78.6245 13.038C78.2765 13.346 77.8225 13.5 77.2625 13.5C77.1585 13.5 77.0825 13.442 77.0345 13.326C76.9865 13.206 76.9625 13.024 76.9625 12.78C76.9625 12.456 76.9905 12.178 77.0465 11.946C77.1025 11.714 77.1765 11.54 77.2685 11.424C77.3605 11.304 77.4585 11.244 77.5625 11.244C77.9945 11.244 78.3445 11.202 78.6125 11.118C78.8845 11.034 79.1045 10.882 79.2725 10.662C79.4445 10.442 79.5785 10.128 79.6745 9.72H79.8185L79.6445 10.98C79.9125 11.156 80.3085 11.244 80.8325 11.244C81.2045 11.244 81.5025 11.198 81.7265 11.106C81.9545 11.01 82.1345 10.854 82.2665 10.638C82.4025 10.418 82.5065 10.112 82.5785 9.72H82.7285L82.5665 10.938C82.8105 11.142 83.1545 11.244 83.5985 11.244C83.9065 11.244 84.1685 11.188 84.3845 11.076C84.6045 10.96 84.7545 10.822 84.8345 10.662C84.8345 10.502 84.8085 10.294 84.7565 10.038C84.7085 9.778 84.6625 9.574 84.6185 9.426C84.7465 9.378 84.9165 9.282 85.1285 9.138V10.152C85.1285 10.476 85.2645 10.74 85.5365 10.944C85.8125 11.144 86.2545 11.244 86.8625 11.244L86.5625 13.5ZM82.4705 6.432C82.3385 6.3 82.1645 6.152 81.9485 5.988C81.7325 5.824 81.5425 5.706 81.3785 5.634V5.562L82.1825 4.542C82.3905 4.642 82.6005 4.782 82.8125 4.962C83.0285 5.138 83.1825 5.288 83.2745 5.412L82.4705 6.432ZM81.3785 8.178C81.0345 8.178 80.7785 8.136 80.6105 8.052C80.4465 7.964 80.3645 7.812 80.3645 7.596C80.3645 7.528 80.3745 7.456 80.3945 7.38C80.4145 7.304 80.4465 7.206 80.4905 7.086C80.5745 6.842 80.6285 6.648 80.6525 6.504H80.7245C80.7245 6.644 80.7965 6.74 80.9405 6.792C81.0885 6.844 81.3325 6.87 81.6725 6.87H81.7025C81.9265 6.87 82.3305 6.862 82.9145 6.846C83.5025 6.826 83.9845 6.8 84.3605 6.768C84.2845 6.9 84.1905 7.114 84.0785 7.41C83.9665 7.702 83.8925 7.924 83.8565 8.076C83.3885 8.108 82.9225 8.134 82.4585 8.154C81.9945 8.17 81.6345 8.178 81.3785 8.178ZM89.7772 10.446C89.7772 11.45 89.5592 12.21 89.1232 12.726C88.6912 13.242 88.0692 13.5 87.2572 13.5H86.5672C86.4632 13.5 86.3872 13.442 86.3392 13.326C86.2912 13.206 86.2672 13.024 86.2672 12.78C86.2672 12.456 86.2952 12.178 86.3512 11.946C86.4072 11.714 86.4812 11.54 86.5732 11.424C86.6652 11.304 86.7632 11.244 86.8672 11.244H87.4672C87.7592 11.244 88.0672 11.22 88.3912 11.172C88.7152 11.12 88.9852 11.056 89.2012 10.98C89.4212 10.9 89.5312 10.818 89.5312 10.734C89.5312 10.662 89.4512 10.536 89.2912 10.356C89.1312 10.176 88.9272 9.98 88.6792 9.768C88.4352 9.556 88.1952 9.37 87.9592 9.21C88.1152 9.006 88.2872 8.714 88.4752 8.334C88.6632 7.95 88.8052 7.612 88.9012 7.32H88.9792C88.9952 7.372 89.0352 7.464 89.0992 7.596C89.2912 8.028 89.4512 8.468 89.5792 8.916C89.7112 9.364 89.7772 9.874 89.7772 10.446ZM87.5032 18.084C87.3712 17.952 87.1972 17.804 86.9812 17.64C86.7652 17.476 86.5752 17.358 86.4112 17.286V17.208L87.2152 16.194C87.4232 16.294 87.6332 16.432 87.8452 16.608C88.0612 16.788 88.2132 16.94 88.3012 17.064L87.5032 18.084ZM88.4512 14.592C88.7952 14.592 89.0492 14.634 89.2132 14.718C89.3812 14.806 89.4652 14.958 89.4652 15.174C89.4652 15.242 89.4552 15.314 89.4352 15.39C89.4152 15.466 89.3832 15.564 89.3392 15.684C89.2552 15.928 89.2012 16.122 89.1772 16.266H89.1052C89.1052 16.126 89.0312 16.03 88.8832 15.978C88.7392 15.926 88.4972 15.9 88.1572 15.9H88.1272C87.9032 15.9 87.4972 15.908 86.9092 15.924C86.3252 15.944 85.8452 15.97 85.4692 16.002C85.5452 15.87 85.6392 15.656 85.7512 15.36C85.8632 15.068 85.9372 14.846 85.9732 14.694C86.4412 14.662 86.9072 14.636 87.3712 14.616C87.8352 14.6 88.1952 14.592 88.4512 14.592ZM88.3672 14.964L88.4512 14.592L88.3672 14.964Z" fill="#090909"/>
<path d="M13.9133 27.5H13.5893C13.6613 27.572 13.6973 27.668 13.6973 27.782C13.6973 28.04 13.5533 28.388 13.2773 28.604C12.7913 28.982 11.8433 29.24 11.0333 29.24C9.9593 29.24 9.4853 28.76 9.4853 28.04C9.4853 27.656 9.5873 27.104 9.8093 26.402L10.0433 26.474C9.8933 27.038 9.8273 27.506 9.8273 27.764C9.8273 28.334 10.2893 28.694 11.1473 28.694C12.3593 28.694 13.4093 28.184 13.4333 27.968C13.4093 27.758 13.1093 27.614 11.8433 27.404L12.0353 26.924C12.5993 26.954 12.8873 26.954 13.4873 26.954H14.0093L13.9133 27.5ZM14.9038 24.554C16.0558 25.538 17.3758 25.814 17.3758 26.606C17.3758 27.062 17.0278 27.59 16.6858 27.59C16.3558 27.59 15.6118 27.44 15.1798 27.284C14.8318 27.422 14.3998 27.5 13.9138 27.5C13.8838 27.5 13.8538 27.44 13.8538 27.332C13.8538 27.152 13.9258 26.954 14.0098 26.954C14.1838 26.954 14.3398 26.948 14.4838 26.936C14.4118 26.828 14.3758 26.702 14.3758 26.57C14.3758 26.12 14.6818 25.562 15.0418 25.292C14.9278 25.208 14.8138 25.124 14.7058 25.028L14.9038 24.554ZM14.6398 26.306C14.6398 26.522 14.8438 26.696 15.2218 26.816C15.6058 26.702 15.8158 26.534 15.8698 26.366C15.8458 25.952 15.6058 25.58 15.3298 25.58C14.9878 25.58 14.6398 26.12 14.6398 26.306ZM15.7738 26.912C16.2178 27.02 16.6618 27.098 16.9198 27.098C17.0158 27.074 17.0758 26.948 17.0758 26.81C17.0758 26.522 16.6678 26.276 16.1338 25.97C16.1398 26.006 16.1398 26.036 16.1398 26.066C16.1398 26.396 16.0078 26.684 15.7738 26.912ZM19.4261 27.5C18.7301 27.5 18.4181 27.134 18.3941 26.288C18.3761 25.652 18.3101 23.546 18.2981 23.03L18.7541 22.88V26.03C18.7541 26.636 18.9821 26.954 19.5221 26.954L19.4261 27.5ZM21.8394 22.802L19.9554 23.696V23.36L21.8094 22.484L21.8394 22.802ZM22.9374 27.5C22.3434 27.5 21.8994 27.242 20.9514 26.348C20.9214 26.738 20.6934 27.116 20.5074 27.254C20.3034 27.398 19.8534 27.5 19.4274 27.5C19.3974 27.5 19.3674 27.446 19.3674 27.326C19.3674 27.152 19.4394 26.954 19.5234 26.954C20.1354 26.954 20.5914 26.822 20.6874 26.588C20.6514 26.258 20.4954 25.994 19.2834 25.106L19.4634 24.362L22.5714 22.88L22.5834 23.36L19.5594 24.758C20.0934 25.112 20.5494 25.454 21.0354 25.862C22.0614 26.726 22.4514 26.954 23.0334 26.954L22.9374 27.5ZM27.6772 27.5C27.2272 27.5 26.9452 27.344 26.8432 27.014C26.6812 27.392 26.4532 27.5 26.2432 27.5C25.9252 27.5 25.6732 27.308 25.6072 27.008C25.4272 27.35 25.1692 27.5 24.8392 27.5C24.4732 27.5 24.1732 27.32 24.0952 26.948C23.8972 27.338 23.5552 27.5 22.9372 27.5C22.9072 27.5 22.8772 27.44 22.8772 27.332C22.8772 27.152 22.9492 26.954 23.0332 26.954C23.7172 26.954 24.0232 26.78 24.0712 26.312L24.1072 25.976L24.3712 25.952V26.354C24.3712 26.714 24.5632 26.954 24.9232 26.954C25.3132 26.954 25.5352 26.72 25.5652 26.396L25.5892 26.06L25.8532 26.036V26.354C25.8532 26.732 26.0452 26.954 26.3392 26.954C26.5672 26.954 26.7172 26.792 26.7292 26.366L26.7412 25.844L27.0532 25.784V26.252C27.0532 26.696 27.2452 26.954 27.7732 26.954L27.6772 27.5ZM25.6132 24.38C25.4332 24.26 25.2592 24.11 25.1632 23.99L25.4932 23.6C25.5892 23.72 25.7632 23.87 25.9432 23.99L25.6132 24.38ZM25.1032 24.44C25.1992 24.56 25.4032 24.71 25.5832 24.83L25.2532 25.22C25.0732 25.1 24.8692 24.95 24.7732 24.83L25.1032 24.44ZM26.1832 25.22C26.0032 25.1 25.7992 24.95 25.7032 24.83L26.0332 24.44C26.1292 24.56 26.3332 24.71 26.5132 24.83L26.1832 25.22ZM28.9014 25.4C28.9734 25.712 29.0754 26.264 29.0754 26.468C29.0754 26.774 28.8774 27.212 28.6314 27.344C28.3974 27.47 28.0314 27.5 27.6774 27.5C27.6474 27.5 27.6174 27.44 27.6174 27.332C27.6174 27.152 27.6894 26.954 27.7734 26.954C28.4634 26.954 28.7274 26.888 28.7754 26.78C28.7514 26.552 28.6374 26.042 28.4934 25.652L28.9014 25.4ZM27.5694 28.16C27.6654 28.28 27.8694 28.43 28.0494 28.55L27.7194 28.94C27.5394 28.82 27.3354 28.67 27.2394 28.55L27.5694 28.16ZM28.6494 28.94C28.4694 28.82 28.2654 28.67 28.1694 28.55L28.4994 28.16C28.5954 28.28 28.7994 28.43 28.9794 28.55L28.6494 28.94ZM31.1273 27.5C30.4313 27.5 30.1193 27.134 30.0953 26.288C30.0773 25.652 30.0113 23.546 29.9993 23.03L30.4553 22.88V26.03C30.4553 26.636 30.6833 26.954 31.2233 26.954L31.1273 27.5ZM33.2346 25.334C33.5106 25.334 33.6786 25.472 33.7686 25.748C33.8406 25.976 33.8946 26.324 33.8946 26.63C33.8946 27.056 33.5886 27.5 33.3426 27.5C33.0126 27.5 32.3166 27.29 32.1486 26.864C31.8426 27.374 31.5546 27.5 31.1286 27.5C31.0986 27.5 31.0686 27.44 31.0686 27.332C31.0686 27.152 31.1406 26.954 31.2246 26.954C31.6626 26.954 31.9146 26.828 32.1726 26.3C32.5266 25.568 32.7546 25.334 33.2346 25.334ZM32.3646 26.438C32.5446 26.75 33.1506 26.978 33.5586 26.978C33.5826 26.978 33.5946 26.954 33.5946 26.882C33.5946 26.75 33.5226 26.27 33.4326 26.048C33.3786 25.922 33.2886 25.838 33.1446 25.838C32.7966 25.838 32.5926 25.988 32.3946 26.372C32.3826 26.396 32.3766 26.42 32.3646 26.438ZM35.4672 25.7C35.6172 26.3 35.7012 26.786 35.7012 27.008C35.7012 27.56 35.4372 28.142 34.9092 28.49C34.5072 28.784 33.8472 29.024 33.2172 29.096C33.1092 29.054 33.0072 28.838 32.8632 28.616C34.5372 28.4 35.2812 27.842 35.4132 27.362C35.4012 27.104 35.2212 26.444 35.0532 25.958L35.4672 25.7ZM35.3412 24.992C35.1612 24.884 34.9812 24.752 34.8312 24.602L35.1612 24.182C35.3112 24.332 35.4912 24.464 35.6712 24.572L35.3412 24.992ZM37.0702 27.476L36.7402 27.542L36.6262 23.75L37.0702 23.6V27.476ZM37.8622 22.79C37.5982 22.952 37.1662 23.024 36.8722 23.024C36.5422 23.024 36.2842 22.964 36.0922 22.868L35.9062 23.33L35.6962 23.156L35.9242 22.712C36.0142 22.532 36.0802 22.442 36.1882 22.442C36.3262 22.442 36.4822 22.574 36.9742 22.574C37.2622 22.574 37.6342 22.532 37.8802 22.43L37.8622 22.79ZM43.5566 25.286C43.6286 25.598 43.7306 26.15 43.7306 26.354C43.7306 26.642 43.5266 27.032 43.3346 27.14C42.8426 27.428 41.6366 27.59 40.7666 27.59C39.5306 27.59 39.0986 27.206 39.0986 26.564C39.0986 26.288 39.1886 25.928 39.3386 25.49L39.5546 25.568C39.4706 25.874 39.4286 26.156 39.4286 26.306C39.4286 26.738 39.8066 27.044 40.8686 27.044C42.1406 27.044 43.2626 26.822 43.4366 26.618C43.4066 26.438 43.2626 25.88 43.1486 25.538L43.5566 25.286ZM40.8506 24.59C40.9466 24.71 41.1506 24.86 41.3306 24.98L41.0006 25.37C40.8206 25.25 40.6166 25.1 40.5206 24.98L40.8506 24.59ZM41.9306 25.37C41.7506 25.25 41.5466 25.1 41.4506 24.98L41.7806 24.59C41.8766 24.71 42.0806 24.86 42.2606 24.98L41.9306 25.37ZM45.1095 27.476L44.7795 27.542L44.6535 23.03L45.1095 22.88V27.476ZM47.5512 27.5C47.2692 27.5 47.0472 27.434 46.9272 27.296C46.8492 27.752 46.5972 28.202 46.1592 28.49C45.7572 28.784 45.0972 29.024 44.4672 29.096C44.3592 29.054 44.2572 28.838 44.1132 28.616C45.7872 28.4 46.5312 27.842 46.6632 27.362C46.6512 27.104 46.4832 26.444 46.3272 25.976L46.7292 25.742C46.9212 26.732 47.0652 26.954 47.6472 26.954L47.5512 27.5ZM46.5912 24.992C46.4112 24.884 46.2312 24.752 46.0812 24.602L46.4112 24.182C46.5612 24.332 46.7412 24.464 46.9212 24.572L46.5912 24.992ZM50.2704 27.5C49.7784 27.5 49.4904 27.326 49.4064 26.876C49.2264 27.314 48.8544 27.5 47.7684 27.5H47.5524C47.5224 27.5 47.4924 27.446 47.4924 27.332C47.4924 27.152 47.5644 26.954 47.6484 26.954H47.8644C49.0404 26.954 49.3104 26.78 49.3224 26.348L49.3284 26.222L49.6464 26.162V26.264C49.6464 26.696 49.8384 26.954 50.3664 26.954L50.2704 27.5ZM48.0804 28.16C48.1764 28.28 48.3804 28.43 48.5604 28.55L48.2304 28.94C48.0504 28.82 47.8464 28.67 47.7504 28.55L48.0804 28.16ZM49.1604 28.94C48.9804 28.82 48.7764 28.67 48.6804 28.55L49.0104 28.16C49.1064 28.28 49.3104 28.43 49.4904 28.55L49.1604 28.94ZM53.1752 27.5H52.8512C52.9232 27.608 52.9592 27.734 52.9592 27.884C52.9592 28.094 52.7732 28.448 52.5692 28.58C52.3772 28.694 52.0592 28.778 51.7652 28.778C51.1292 28.778 50.7272 28.388 50.7272 27.566V27.47C50.5652 27.488 50.4092 27.5 50.2712 27.5C50.2412 27.5 50.2112 27.44 50.2112 27.332C50.2112 27.152 50.2832 26.954 50.3672 26.954C50.4812 26.954 50.6672 26.948 50.8052 26.942C50.9552 26.306 51.3332 25.622 51.9992 24.968L52.2392 24.95C52.2872 25.412 52.3592 26.006 52.3592 26.222C52.3592 26.486 52.2452 26.804 52.0472 26.978C52.2452 26.96 52.4132 26.954 52.6232 26.954H53.2712L53.1752 27.5ZM50.9732 27.482C51.0092 27.974 51.3392 28.256 51.8972 28.256C52.3352 28.256 52.6712 28.124 52.7192 28.034C52.7192 27.77 52.4912 27.47 51.8792 27.47C51.6092 27.47 51.2612 27.47 50.9732 27.482ZM51.0392 26.966C51.5912 26.918 52.0052 26.774 52.0532 26.534C52.0472 26.408 51.9752 25.928 51.9152 25.544C51.4952 25.916 51.1712 26.468 51.0392 26.966ZM54.3474 25.184C54.7734 25.184 55.7454 25.826 56.9694 25.97L56.7954 26.39C56.6334 26.39 56.4234 26.42 56.2134 26.48C56.2854 26.822 56.5314 26.954 57.2334 26.954H57.3174L57.2214 27.5H57.1374C56.3994 27.5 56.0874 27.266 55.9974 26.564C55.2234 26.978 54.5514 27.5 53.1774 27.5C53.1474 27.5 53.1174 27.44 53.1174 27.332C53.1174 27.152 53.1894 26.954 53.2734 26.954C54.3414 26.954 54.9894 26.708 55.9854 26.276C54.9954 25.988 54.5274 25.706 54.2274 25.706C54.0954 25.706 54.0174 25.784 53.8314 26.108L53.6454 25.97C53.9394 25.382 54.0834 25.184 54.3474 25.184ZM54.6894 28.97C54.5094 28.862 54.3294 28.73 54.1794 28.58L54.5094 28.16C54.6594 28.31 54.8394 28.442 55.0194 28.55L54.6894 28.97ZM58.4444 25.4C58.5164 25.712 58.6184 26.264 58.6184 26.468C58.6184 26.774 58.4204 27.212 58.1744 27.344C57.9404 27.47 57.5744 27.5 57.2204 27.5C57.1904 27.5 57.1604 27.44 57.1604 27.332C57.1604 27.152 57.2324 26.954 57.3164 26.954C58.0064 26.954 58.2704 26.888 58.3184 26.78C58.2944 26.552 58.1804 26.042 58.0364 25.652L58.4444 25.4ZM57.5084 24.152C57.6044 24.272 57.8084 24.422 57.9884 24.542L57.6584 24.932C57.4784 24.812 57.2744 24.662 57.1784 24.542L57.5084 24.152ZM58.5884 24.932C58.4084 24.812 58.2044 24.662 58.1084 24.542L58.4384 24.152C58.5344 24.272 58.7384 24.422 58.9184 24.542L58.5884 24.932ZM63.0023 27.5C62.7203 27.5 62.4983 27.434 62.3783 27.296C62.3003 27.752 62.0483 28.202 61.6103 28.49C61.2083 28.784 60.5483 29.024 59.9183 29.096C59.8103 29.054 59.7083 28.838 59.5643 28.616C61.2383 28.4 61.9823 27.842 62.1143 27.362C62.1023 27.104 61.9343 26.444 61.7783 25.976L62.1803 25.742C62.3723 26.732 62.5163 26.954 63.0983 26.954L63.0023 27.5ZM65.7216 27.5C65.2296 27.5 64.9416 27.326 64.8576 26.876C64.6776 27.314 64.3056 27.5 63.2196 27.5H63.0036C62.9736 27.5 62.9436 27.446 62.9436 27.332C62.9436 27.152 63.0156 26.954 63.0996 26.954H63.3156C64.4916 26.954 64.7616 26.78 64.7736 26.348L64.7796 26.222L65.0976 26.162V26.264C65.0976 26.696 65.2896 26.954 65.8176 26.954L65.7216 27.5ZM63.5316 28.16C63.6276 28.28 63.8316 28.43 64.0116 28.55L63.6816 28.94C63.5016 28.82 63.2976 28.67 63.2016 28.55L63.5316 28.16ZM64.6116 28.94C64.4316 28.82 64.2276 28.67 64.1316 28.55L64.4616 28.16C64.5576 28.28 64.7616 28.43 64.9416 28.55L64.6116 28.94ZM69.1964 27.5C68.8364 27.5 68.5064 27.368 68.3504 27.056C68.2424 27.368 68.0684 27.59 67.8644 27.59C67.4564 27.59 66.8624 27.278 66.7004 26.894C66.4004 27.38 66.1304 27.5 65.7224 27.5C65.6924 27.5 65.6624 27.44 65.6624 27.332C65.6624 27.152 65.7344 26.954 65.8184 26.954C66.2804 26.954 66.5144 26.828 66.7724 26.294C67.0904 25.646 67.4384 25.448 67.9304 25.448C68.1944 25.448 68.3264 25.562 68.3804 25.892C68.5244 26.762 68.7404 26.954 69.2924 26.954L69.1964 27.5ZM66.9404 26.462C67.1324 26.798 67.7204 27.056 68.0744 27.068C68.1104 26.972 68.1164 26.786 68.0804 26.54C68.0624 26.12 68.0084 25.952 67.8404 25.952C67.4084 25.952 67.1384 26.09 66.9764 26.384L66.9404 26.462ZM72.653 27.5C71.903 27.5 71.387 27.404 70.979 27.074C70.421 27.404 69.785 27.5 69.197 27.5C69.167 27.5 69.137 27.44 69.137 27.332C69.137 27.152 69.209 26.954 69.293 26.954C69.785 26.954 70.211 26.906 70.595 26.774C70.385 26.54 70.157 26.234 69.935 25.892C69.851 25.916 69.779 25.94 69.707 25.97L69.695 25.568C69.989 25.382 70.655 25.232 71.195 25.232C71.987 25.232 72.377 25.412 72.377 25.682C72.377 25.784 72.305 26.03 72.269 26.12C72.137 26.288 71.789 26.594 71.495 26.822C71.867 26.924 72.275 26.954 72.749 26.954L72.653 27.5ZM70.319 25.802C70.583 26.174 70.847 26.456 71.087 26.642C71.381 26.462 71.873 26.102 72.053 25.934V25.868C71.849 25.778 71.501 25.724 71.063 25.724C70.871 25.724 70.595 25.754 70.319 25.802ZM73.878 25.4C73.95 25.712 74.052 26.264 74.052 26.468C74.052 26.774 73.854 27.212 73.608 27.344C73.374 27.47 73.008 27.5 72.654 27.5C72.624 27.5 72.594 27.44 72.594 27.332C72.594 27.152 72.666 26.954 72.75 26.954C73.44 26.954 73.704 26.888 73.752 26.78C73.728 26.552 73.614 26.042 73.47 25.652L73.878 25.4ZM72.942 24.152C73.038 24.272 73.242 24.422 73.422 24.542L73.092 24.932C72.912 24.812 72.708 24.662 72.612 24.542L72.942 24.152ZM74.022 24.932C73.842 24.812 73.638 24.662 73.542 24.542L73.872 24.152C73.968 24.272 74.172 24.422 74.352 24.542L74.022 24.932ZM77.1459 25.46C77.8119 25.46 78.1599 26.33 78.1599 27.104C78.1599 27.716 77.9559 28.178 77.5299 28.484C77.1039 28.814 76.2159 29.054 75.3579 29.108C75.2499 29.066 75.1659 28.874 74.9979 28.598C76.8759 28.472 77.7819 28.106 77.8899 27.53C77.8899 27.458 77.8899 27.386 77.8839 27.314C77.6139 27.458 77.2839 27.53 76.9359 27.53C76.4559 27.53 76.2339 27.284 76.2339 26.906C76.2339 26.144 76.6239 25.46 77.1459 25.46ZM76.4859 26.636C76.4859 26.846 76.6659 26.984 77.0259 26.984C77.3199 26.984 77.5959 26.942 77.8179 26.87C77.6919 26.336 77.4099 25.982 77.0619 25.982C76.7379 25.982 76.4859 26.3 76.4859 26.636ZM83.1314 27.5C82.6454 27.5 82.3394 27.296 82.1714 26.732C82.1474 26.84 82.1174 26.93 82.0934 26.96C81.8114 27.326 81.1814 27.602 80.6714 27.602C80.2754 27.602 80.0894 27.386 80.0894 26.948C80.0894 26.858 80.1014 26.618 80.1014 26.534L80.3474 26.516C80.3474 26.534 80.3474 26.642 80.3474 26.672C80.3474 26.936 80.4374 27.056 80.7854 27.056C81.2114 27.056 81.7214 26.84 82.0454 26.528C81.9674 26.066 81.7934 25.43 81.5714 24.848L81.9314 24.554C82.0874 24.992 82.2074 25.448 82.3514 26.084C82.5014 26.744 82.7354 26.954 83.2274 26.954L83.1314 27.5ZM85.3446 27.5C84.8526 27.5 84.5646 27.326 84.4806 26.876C84.2946 27.314 83.9286 27.5 83.2386 27.5H83.1306C83.1006 27.5 83.0706 27.446 83.0706 27.332C83.0706 27.152 83.1426 26.954 83.2266 26.954H83.3346C84.0906 26.954 84.3846 26.78 84.3966 26.348L84.4086 25.844L84.7206 25.784V26.252C84.7206 26.696 84.9126 26.954 85.4406 26.954L85.3446 27.5ZM83.0346 28.16C83.1306 28.28 83.3346 28.43 83.5146 28.55L83.1846 28.94C83.0046 28.82 82.8006 28.67 82.7046 28.55L83.0346 28.16ZM84.1146 28.94C83.9346 28.82 83.7306 28.67 83.6346 28.55L83.9646 28.16C84.0606 28.28 84.2646 28.43 84.4446 28.55L84.1146 28.94ZM86.4974 26.384C86.4974 26.744 86.2874 27.188 86.0834 27.326C85.8794 27.47 85.5914 27.5 85.3454 27.5C85.3154 27.5 85.2854 27.44 85.2854 27.332C85.2854 27.152 85.3574 26.954 85.4414 26.954C85.7834 26.954 86.1254 26.906 86.1854 26.726L86.0414 23.03L86.4974 22.88V26.384ZM89.6452 27.5H89.3272C89.2552 27.92 89.0572 28.25 88.7272 28.484C88.3012 28.814 87.4132 29.054 86.5552 29.108C86.4472 29.066 86.3632 28.874 86.1952 28.598C88.0732 28.472 88.9792 28.106 89.0872 27.53V27.494C88.7932 27.512 88.4392 27.53 88.1332 27.53C87.6532 27.53 87.4312 27.284 87.4312 26.906C87.4312 26.144 87.8212 25.46 88.3432 25.46C88.9672 25.46 89.3092 26.222 89.3512 26.954H89.7412L89.6452 27.5ZM87.6832 26.636C87.6832 26.846 87.8632 26.984 88.2232 26.984C88.4932 26.984 88.7452 26.978 89.0332 26.96C88.9192 26.378 88.6312 25.982 88.2592 25.982C87.9352 25.982 87.6832 26.3 87.6832 26.636ZM90.8702 25.4C90.9422 25.712 91.0442 26.264 91.0442 26.468C91.0442 26.774 90.8462 27.212 90.6002 27.344C90.3662 27.47 90.0002 27.5 89.6462 27.5C89.6162 27.5 89.5862 27.44 89.5862 27.332C89.5862 27.152 89.6582 26.954 89.7422 26.954C90.4322 26.954 90.6962 26.888 90.7442 26.78C90.7202 26.552 90.6062 26.042 90.4622 25.652L90.8702 25.4ZM89.9342 24.152C90.0302 24.272 90.2342 24.422 90.4142 24.542L90.0842 24.932C89.9042 24.812 89.7002 24.662 89.6042 24.542L89.9342 24.152ZM91.0142 24.932C90.8342 24.812 90.6302 24.662 90.5342 24.542L90.8642 24.152C90.9602 24.272 91.1642 24.422 91.3442 24.542L91.0142 24.932Z" fill="#090909"/>
</svg>
