<svg width="100" height="32" viewBox="0 0 100 32" fill="none" xmlns="http://www.w3.org/2000/svg">
<path d="M38.6191 15.828C39.2151 15.724 39.8671 15.542 40.5751 15.282C41.2831 15.026 41.9371 14.724 42.5371 14.376C43.1411 14.032 43.5891 13.684 43.8811 13.332V13.242C43.5891 13.342 43.2851 13.416 42.9691 13.464C42.6531 13.508 42.2951 13.53 41.8951 13.53C41.2911 13.53 40.8371 13.364 40.5331 13.032C40.2291 12.7 40.0771 12.228 40.0771 11.616C40.0771 11 40.1631 10.438 40.3351 9.93C40.5071 9.418 40.7511 9.012 41.0671 8.712C41.3871 8.412 41.7591 8.262 42.1831 8.262C42.5831 8.262 42.9331 8.382 43.2331 8.622C43.5371 8.858 43.7811 9.2 43.9651 9.648C44.1531 10.092 44.2751 10.624 44.3311 11.244H45.1591L44.8591 13.5H44.2591C44.1431 14.212 43.9451 14.814 43.6651 15.306C43.3851 15.798 43.0491 16.164 42.6571 16.404C42.2651 16.648 41.8411 16.77 41.3851 16.77C41.0571 16.77 40.7411 16.72 40.4371 16.62C40.1371 16.524 39.7851 16.386 39.3811 16.206C39.2451 16.146 39.1091 16.088 38.9731 16.032C38.8371 15.976 38.7191 15.932 38.6191 15.9V15.828ZM41.9671 11.388C42.7151 11.388 43.3691 11.36 43.9291 11.304C43.7491 10.856 43.4831 10.504 43.1311 10.248C42.7831 9.992 42.3711 9.864 41.8951 9.864C41.6231 9.864 41.3691 9.914 41.1331 10.014C40.9011 10.114 40.7151 10.234 40.5751 10.374C40.4351 10.514 40.3651 10.634 40.3651 10.734C40.3651 10.842 40.4151 10.946 40.5151 11.046C40.6191 11.146 40.7891 11.228 41.0251 11.292C41.2651 11.356 41.5791 11.388 41.9671 11.388ZM49.3743 10.302C49.3743 11.094 49.2223 11.724 48.9183 12.192C48.6183 12.656 48.1663 12.99 47.5623 13.194C46.9583 13.398 46.1803 13.5 45.2283 13.5H44.8562C44.7522 13.5 44.6762 13.442 44.6282 13.326C44.5802 13.206 44.5562 13.024 44.5562 12.78C44.5562 12.456 44.5842 12.178 44.6402 11.946C44.6962 11.714 44.7702 11.54 44.8622 11.424C44.9542 11.304 45.0522 11.244 45.1562 11.244H45.5223C46.3583 11.244 47.0483 11.206 47.5923 11.13C48.1403 11.054 48.5383 10.96 48.7863 10.848C49.0343 10.736 49.1583 10.626 49.1583 10.518C49.1583 10.434 48.9883 10.262 48.6483 10.002C48.3083 9.738 47.8283 9.436 47.2083 9.096C46.5923 8.756 45.8843 8.43 45.0842 8.118C45.1963 7.874 45.3463 7.504 45.5343 7.008C45.7223 6.512 45.8583 6.13 45.9423 5.862L45.9843 5.712C46.0203 5.584 46.0503 5.49 46.0743 5.43C46.1023 5.37 46.1443 5.318 46.2003 5.274C46.2563 5.23 46.3443 5.184 46.4643 5.136L51.4863 3.174L51.5583 3.204C51.3423 3.576 51.1503 3.952 50.9823 4.332C50.8183 4.708 50.6943 5.048 50.6103 5.352L45.9543 6.588V6.666C46.9223 7.09 47.6523 7.486 48.1443 7.854C48.6363 8.222 48.9643 8.592 49.1283 8.964C49.2923 9.332 49.3743 9.778 49.3743 10.302ZM49.5175 15.828C50.1135 15.724 50.7655 15.542 51.4735 15.282C52.1815 15.026 52.8355 14.724 53.4355 14.376C54.0395 14.032 54.4875 13.684 54.7795 13.332V13.242C54.4875 13.342 54.1835 13.416 53.8675 13.464C53.5515 13.508 53.1935 13.53 52.7935 13.53C52.1895 13.53 51.7355 13.364 51.4315 13.032C51.1275 12.7 50.9755 12.228 50.9755 11.616C50.9755 11 51.0615 10.438 51.2335 9.93C51.4055 9.418 51.6495 9.012 51.9655 8.712C52.2855 8.412 52.6575 8.262 53.0815 8.262C53.4815 8.262 53.8315 8.382 54.1315 8.622C54.4355 8.858 54.6795 9.2 54.8635 9.648C55.0515 10.092 55.1735 10.624 55.2295 11.244H56.0575L55.7575 13.5H55.1575C55.0415 14.212 54.8435 14.814 54.5635 15.306C54.2835 15.798 53.9475 16.164 53.5555 16.404C53.1635 16.648 52.7395 16.77 52.2835 16.77C51.9555 16.77 51.6395 16.72 51.3355 16.62C51.0355 16.524 50.6835 16.386 50.2795 16.206C50.1435 16.146 50.0075 16.088 49.8715 16.032C49.7355 15.976 49.6175 15.932 49.5175 15.9V15.828ZM52.8655 11.388C53.6135 11.388 54.2675 11.36 54.8275 11.304C54.6475 10.856 54.3815 10.504 54.0295 10.248C53.6815 9.992 53.2695 9.864 52.7935 9.864C52.5215 9.864 52.2675 9.914 52.0315 10.014C51.7995 10.114 51.6135 10.234 51.4735 10.374C51.3335 10.514 51.2635 10.634 51.2635 10.734C51.2635 10.842 51.3135 10.946 51.4135 11.046C51.5175 11.146 51.6875 11.228 51.9235 11.292C52.1635 11.356 52.4775 11.388 52.8655 11.388ZM60.2847 10.446C60.2847 11.142 60.1707 11.714 59.9427 12.162C59.7187 12.606 59.3547 12.94 58.8507 13.164C58.3507 13.388 57.6887 13.5 56.8647 13.5H55.7547C55.6507 13.5 55.5747 13.442 55.5267 13.326C55.4787 13.206 55.4547 13.024 55.4547 12.78C55.4547 12.456 55.4827 12.178 55.5387 11.946C55.5947 11.714 55.6687 11.54 55.7607 11.424C55.8527 11.304 55.9507 11.244 56.0547 11.244H57.0747C57.6467 11.244 58.1567 11.22 58.6047 11.172C59.0567 11.124 59.4087 11.062 59.6607 10.986C59.9127 10.906 60.0387 10.822 60.0387 10.734C60.0387 10.662 59.9587 10.536 59.7987 10.356C59.6387 10.176 59.4347 9.98 59.1867 9.768C58.9427 9.556 58.7027 9.37 58.4667 9.21C58.6227 9.006 58.7947 8.714 58.9827 8.334C59.1707 7.95 59.3127 7.612 59.4087 7.32H59.4867C59.5027 7.372 59.5427 7.464 59.6067 7.596C59.7987 8.028 59.9587 8.468 60.0867 8.916C60.2187 9.364 60.2847 9.874 60.2847 10.446ZM57.2907 17.964C57.1587 17.832 56.9847 17.684 56.7687 17.52C56.5527 17.356 56.3627 17.238 56.1987 17.166V17.088L57.0027 16.074C57.2107 16.174 57.4207 16.312 57.6327 16.488C57.8487 16.668 58.0007 16.82 58.0887 16.944L57.2907 17.964ZM58.2387 14.472C58.5827 14.472 58.8367 14.514 59.0007 14.598C59.1687 14.686 59.2527 14.838 59.2527 15.054C59.2527 15.122 59.2427 15.194 59.2227 15.27C59.2027 15.346 59.1707 15.444 59.1267 15.564C59.0427 15.808 58.9887 16.002 58.9647 16.146H58.8927C58.8927 16.006 58.8187 15.91 58.6707 15.858C58.5267 15.806 58.2847 15.78 57.9447 15.78H57.9147C57.6907 15.78 57.2847 15.788 56.6967 15.804C56.1127 15.824 55.6327 15.85 55.2567 15.882C55.3327 15.75 55.4267 15.536 55.5387 15.24C55.6507 14.948 55.7247 14.726 55.7607 14.574C56.2287 14.542 56.6947 14.516 57.1587 14.496C57.6227 14.48 57.9827 14.472 58.2387 14.472ZM58.1547 14.844L58.2387 14.472L58.1547 14.844Z" fill="#090909"/>
<path d="M27.0062 26.624C26.8262 26.516 26.6462 26.384 26.4962 26.234L26.8262 25.814C26.9762 25.964 27.1562 26.096 27.3362 26.204L27.0062 26.624ZM28.7702 25.1C28.9022 25.628 28.9922 26.27 28.9922 26.714C28.9922 27.212 28.8002 27.692 28.5122 27.932C28.1162 28.262 27.1922 28.58 26.4122 28.58C25.3382 28.58 24.8642 28.1 24.8642 27.38C24.8642 26.996 24.9662 26.444 25.1882 25.742L25.4222 25.814C25.2722 26.378 25.2062 26.846 25.2062 27.104C25.2062 27.674 25.6682 28.034 26.5262 28.034C27.3842 28.034 28.4462 27.656 28.6442 27.362C28.6742 27.32 28.6802 27.23 28.6802 27.152C28.6802 26.738 28.5242 25.952 28.3562 25.358L28.7702 25.1ZM30.3713 27.476L30.0413 27.542L29.9153 23.03L30.3713 22.88V27.476ZM33.5222 27.5H33.2042C33.1322 27.92 32.9342 28.25 32.6042 28.484C32.1782 28.814 31.2902 29.054 30.4322 29.108C30.3242 29.066 30.2402 28.874 30.0722 28.598C31.9502 28.472 32.8562 28.106 32.9642 27.53V27.494C32.6702 27.512 32.3162 27.53 32.0102 27.53C31.5302 27.53 31.3082 27.284 31.3082 26.906C31.3082 26.144 31.6982 25.46 32.2202 25.46C32.8442 25.46 33.1862 26.222 33.2282 26.954H33.6182L33.5222 27.5ZM31.5602 26.636C31.5602 26.846 31.7402 26.984 32.1002 26.984C32.3702 26.984 32.6222 26.978 32.9102 26.96C32.7962 26.378 32.5082 25.982 32.1362 25.982C31.8122 25.982 31.5602 26.3 31.5602 26.636ZM34.6931 25.184C35.1191 25.184 36.0911 25.826 37.3151 25.97L37.1231 26.42C37.0391 26.414 36.8831 26.396 36.7931 26.384C36.0791 26.624 35.2331 27.5 33.5231 27.5C33.4931 27.5 33.4631 27.44 33.4631 27.332C33.4631 27.152 33.5351 26.954 33.6191 26.954C34.6871 26.954 35.3351 26.708 36.3311 26.276C35.3411 25.988 34.8731 25.706 34.5731 25.706C34.4411 25.706 34.3631 25.784 34.1771 26.108L33.9911 25.97C34.2851 25.382 34.4291 25.184 34.6931 25.184ZM34.8971 28.97C34.7171 28.862 34.5371 28.73 34.3871 28.58L34.7171 28.16C34.8671 28.31 35.0471 28.442 35.2271 28.55L34.8971 28.97ZM40.1667 27.5H39.8487C39.7767 27.92 39.5787 28.25 39.2487 28.484C38.8227 28.814 37.9347 29.054 37.0767 29.108C36.9687 29.066 36.8847 28.874 36.7167 28.598C38.5947 28.472 39.5007 28.106 39.6087 27.53V27.494C39.3147 27.512 38.9607 27.53 38.6547 27.53C38.1747 27.53 37.9527 27.284 37.9527 26.906C37.9527 26.144 38.3427 25.46 38.8647 25.46C39.4887 25.46 39.8307 26.222 39.8727 26.954H40.2627L40.1667 27.5ZM38.2047 26.636C38.2047 26.846 38.3847 26.984 38.7447 26.984C39.0147 26.984 39.2667 26.978 39.5547 26.96C39.4407 26.378 39.1527 25.982 38.7807 25.982C38.4567 25.982 38.2047 26.3 38.2047 26.636ZM41.3917 25.4C41.4637 25.712 41.5657 26.264 41.5657 26.468C41.5657 26.774 41.3677 27.212 41.1217 27.344C40.8877 27.47 40.5217 27.5 40.1677 27.5C40.1377 27.5 40.1077 27.44 40.1077 27.332C40.1077 27.152 40.1797 26.954 40.2637 26.954C40.9537 26.954 41.2177 26.888 41.2657 26.78C41.2417 26.552 41.1277 26.042 40.9837 25.652L41.3917 25.4ZM41.1817 24.932C41.0017 24.824 40.8217 24.692 40.6717 24.542L41.0017 24.122C41.1517 24.272 41.3317 24.404 41.5117 24.512L41.1817 24.932ZM44.6596 25.46C45.3256 25.46 45.6736 26.33 45.6736 27.104C45.6736 27.716 45.4696 28.178 45.0436 28.484C44.6176 28.814 43.7296 29.054 42.8716 29.108C42.7636 29.066 42.6796 28.874 42.5116 28.598C44.3896 28.472 45.2956 28.106 45.4036 27.53C45.4036 27.458 45.4036 27.386 45.3976 27.314C45.1276 27.458 44.7976 27.53 44.4496 27.53C43.9696 27.53 43.7476 27.284 43.7476 26.906C43.7476 26.144 44.1376 25.46 44.6596 25.46ZM43.9996 26.636C43.9996 26.846 44.1796 26.984 44.5396 26.984C44.8336 26.984 45.1096 26.942 45.3316 26.87C45.2056 26.336 44.9236 25.982 44.5756 25.982C44.2516 25.982 43.9996 26.3 43.9996 26.636ZM50.765 24.572C51.593 25.61 51.863 26 51.863 26.396C51.863 26.714 51.653 27.068 51.449 27.182C50.969 27.452 49.961 27.59 49.205 27.59C48.089 27.59 47.663 27.206 47.663 26.564C47.663 26.288 47.753 25.928 47.903 25.49L48.119 25.568C48.035 25.874 47.993 26.156 47.993 26.306C47.993 26.738 48.365 27.044 49.307 27.044C50.405 27.044 51.449 26.822 51.599 26.63C51.575 26.36 51.305 25.97 50.471 24.914L50.651 24.176L53.291 22.958L53.285 23.456L50.765 24.572ZM53.8511 24.746C54.7571 25.598 55.2611 25.76 55.2611 26.306C55.2611 26.57 55.0931 26.972 54.8891 27.14C54.5531 27.422 53.9411 27.62 53.3711 27.62C52.9511 27.62 52.7651 27.404 52.7651 26.966C52.7651 26.876 52.7771 26.636 52.7771 26.552L53.0231 26.534V26.69C53.0231 26.954 53.1131 27.074 53.4851 27.074C54.0851 27.074 54.9191 26.762 55.0031 26.54C54.9791 26.198 54.2111 25.82 53.6171 25.22L53.8511 24.746ZM58.3718 27.5H58.0538C57.9818 27.92 57.7838 28.25 57.4538 28.484C57.0278 28.814 56.1398 29.054 55.2818 29.108C55.1738 29.066 55.0898 28.874 54.9218 28.598C56.7998 28.472 57.7058 28.106 57.8138 27.53V27.494C57.5198 27.512 57.1658 27.53 56.8598 27.53C56.3798 27.53 56.1578 27.284 56.1578 26.906C56.1578 26.144 56.5478 25.46 57.0698 25.46C57.6938 25.46 58.0358 26.222 58.0778 26.954H58.4678L58.3718 27.5ZM56.4098 26.636C56.4098 26.846 56.5898 26.984 56.9498 26.984C57.2198 26.984 57.4718 26.978 57.7598 26.96C57.6458 26.378 57.3578 25.982 56.9858 25.982C56.6618 25.982 56.4098 26.3 56.4098 26.636ZM59.0088 24.572C59.8368 25.61 60.1068 26 60.1068 26.396C60.1068 26.714 59.8968 27.122 59.6688 27.266C59.3928 27.44 58.8108 27.5 58.3727 27.5C58.3427 27.5 58.3127 27.44 58.3127 27.332C58.3127 27.152 58.3847 26.954 58.4688 26.954C59.2428 26.954 59.7288 26.846 59.8428 26.684C59.8188 26.36 59.5488 25.97 58.7148 24.914L58.8948 24.176L61.5348 22.958L61.5288 23.456L59.0088 24.572ZM64.3221 25.388C64.8201 25.388 65.1021 25.832 65.1021 26.672C65.1021 27.068 64.8321 27.5 64.5621 27.5C64.2981 27.5 63.4881 27.356 63.2301 27.356C63.1281 27.356 63.0141 27.386 62.9661 27.422C62.9001 27.5 62.8941 27.626 62.8941 27.77C62.8941 28.136 62.9241 28.97 62.9961 29.918L62.5761 30.08C62.5461 29.276 62.5341 28.532 62.5341 28.094C62.5341 27.572 62.8641 26.984 63.2361 26.858C63.5241 25.682 63.8961 25.388 64.3221 25.388ZM63.4701 26.834C63.8421 26.858 64.5441 26.978 64.7901 26.978C64.8081 26.978 64.8261 26.954 64.8261 26.918C64.8021 26.264 64.5801 25.91 64.2201 25.91C63.9141 25.91 63.6621 26.09 63.4701 26.834ZM67.5063 27.5C67.2243 27.5 67.0023 27.434 66.8823 27.296C66.8043 27.752 66.5523 28.202 66.1143 28.49C65.7123 28.784 65.0522 29.024 64.4222 29.096C64.3142 29.054 64.2122 28.838 64.0682 28.616C65.7423 28.4 66.4863 27.842 66.6183 27.362C66.6063 27.104 66.4383 26.444 66.2823 25.976L66.6843 25.742C66.8763 26.732 67.0203 26.954 67.6023 26.954L67.5063 27.5ZM70.1235 27.5C69.5115 27.5 69.0555 27.434 68.7555 27.308C68.4195 27.434 67.9875 27.5 67.5075 27.5C67.4775 27.5 67.4475 27.44 67.4475 27.332C67.4475 27.152 67.5195 26.954 67.6035 26.954C67.7535 26.954 67.9215 26.948 68.0835 26.936C68.0295 26.846 67.9995 26.738 67.9995 26.612C67.9995 25.958 68.4915 25.112 68.9715 25.112C69.4215 25.112 69.7995 25.58 69.7995 26.09C69.7995 26.39 69.6615 26.672 69.4095 26.93C69.6015 26.948 69.8715 26.954 70.2195 26.954L70.1235 27.5ZM69.0075 24.584C68.8275 24.476 68.6475 24.344 68.4975 24.194L68.8275 23.774C68.9775 23.924 69.1575 24.056 69.3375 24.164L69.0075 24.584ZM68.2575 26.39C68.2575 26.6 68.4555 26.798 68.7735 26.876C69.2355 26.726 69.4875 26.498 69.5295 26.366C69.5175 26.024 69.2115 25.634 68.8575 25.634C68.5755 25.634 68.2575 26.108 68.2575 26.39ZM72.3348 27.5C71.8428 27.5 71.5548 27.326 71.4708 26.876C71.2848 27.314 70.9188 27.5 70.2288 27.5H70.1208C70.0908 27.5 70.0608 27.446 70.0608 27.332C70.0608 27.152 70.1328 26.954 70.2168 26.954H70.3248C71.0808 26.954 71.3748 26.78 71.3868 26.348L71.3988 25.844L71.7108 25.784V26.252C71.7108 26.696 71.9028 26.954 72.4308 26.954L72.3348 27.5ZM70.6488 24.416C70.7448 24.536 70.9488 24.686 71.1288 24.806L70.7988 25.196C70.6188 25.076 70.4148 24.926 70.3188 24.806L70.6488 24.416ZM71.7288 25.196C71.5488 25.076 71.3448 24.926 71.2488 24.806L71.5788 24.416C71.6748 24.536 71.8788 24.686 72.0588 24.806L71.7288 25.196ZM74.1476 27.5C73.6616 27.5 73.3976 27.314 73.2836 26.906C73.2116 27.122 73.1276 27.254 73.0316 27.326C72.8456 27.464 72.5816 27.5 72.3356 27.5C72.3056 27.5 72.2756 27.44 72.2756 27.332C72.2756 27.152 72.3476 26.954 72.4316 26.954C72.7976 26.954 73.1036 26.9 73.1396 26.642C73.1516 26.57 73.1576 26.318 73.1456 26.102L73.0676 23.03L73.5116 22.88V26.036C73.5116 26.69 73.7216 26.954 74.2436 26.954L74.1476 27.5ZM75.3702 25.4C75.4422 25.712 75.5442 26.264 75.5442 26.468C75.5442 26.774 75.3462 27.212 75.1002 27.344C74.8662 27.47 74.5002 27.5 74.1462 27.5C74.1162 27.5 74.0862 27.44 74.0862 27.332C74.0862 27.152 74.1582 26.954 74.2422 26.954C74.9322 26.954 75.1962 26.888 75.2442 26.78C75.2202 26.552 75.1062 26.042 74.9622 25.652L75.3702 25.4ZM74.0382 28.16C74.1342 28.28 74.3382 28.43 74.5182 28.55L74.1882 28.94C74.0082 28.82 73.8042 28.67 73.7082 28.55L74.0382 28.16ZM75.1182 28.94C74.9382 28.82 74.7342 28.67 74.6382 28.55L74.9682 28.16C75.0642 28.28 75.2682 28.43 75.4482 28.55L75.1182 28.94ZM74.7282 29.78C74.5482 29.66 74.3742 29.51 74.2782 29.39L74.6082 29C74.7042 29.12 74.8782 29.27 75.0582 29.39L74.7282 29.78Z" fill="#090909"/>
</svg>
